<svg id="Layer_1" data-name="Layer 1" xmlns="http://www.w3.org/2000/svg" viewBox="0 0 435.39 418.44"><defs><style>.cls-1{fill:none;stroke:#000;stroke-linecap:round;stroke-linejoin:round;stroke-width:2px;}</style></defs><title>vene</title><path d="M204,220.21c-3.13-2.53-5.67-4.68-8.31-6.68a17.54,17.54,0,0,0-3.53-1.81c-2.77-1.22-4.21-3.5-5.26-6.1l.41-.46,5,4.58.7-.42-3.79-10.69c2.29.92,2.76,2.67,3.32,4.24a27.14,27.14,0,0,0,5.37,8.9,31.5,31.5,0,0,0,10.07,7.15c3,1.5,6.13,2.88,9.16,4.38,1.41.7,2.13.17,2.27-1.19.74-7.26,3.56-14,5.24-21,1.32-5.53-.37-10.53-3.53-15.1-1.22-1.77-2.48-3.53-3.83-5.21a17.66,17.66,0,0,0-2.42-2c-.16-2.9-5.11-7.56-9.83-7-1.37.17-2.73.1-4.13,1.07-1.75,1.2-1.94,2.5-1.67,4.24.42,2.6.84,5.19,1.21,7.45l-6.42,1.1c3.71-2.71,4.64-5.39,2.58-8.49l-3.69,4.13c-.69-2.07.45-3.37,1.33-4.5a16.56,16.56,0,0,1,3.3-2.55l-.41-.76a8.38,8.38,0,0,0-2.19,1,28.79,28.79,0,0,1-8.82,5.05c-3.32,1.23-4.87,6.29-3.28,10.36.49,1.23,1.15,2.41-.27,4.15-.19-1.32-.32-2.19-.48-3.27a17.41,17.41,0,0,1-3.62,2.1,8.93,8.93,0,0,1-4-.2c6.79-1.41,5.59-7,6.66-11.85-1.58.28-3,.55-4.4.78-2.37.39-4.74.7-7.1,1.14-1.42.26-2.23,1-1.78,2.67a7,7,0,0,1-.07,1.88c-1.73-2.9-2-3.09-4.26-.73-2.12,2.2-4.86,3-7.44,4.26a4,4,0,0,1-2.93-.23l1.73-1.58-1.94-1.08,0-.51c3.24-.7,7.36,1.05,9.41-3l-1.58-.66,6-2.28.07-.79c-2.3-2.09-4.53-4.27-7-6.18-.52-.41-1.92-.08-2.72.31-1.37.66-2.56,1.34-3.69-.28a3.63,3.63,0,0,1,.16-4.71,1.62,1.62,0,0,0,.31-1c.08-1.9.25-2.13,1.76-2.74l4.06,5.16.61-.29,1-5.24.57,0c.32,1.94.64,3.88,1,6.2l1-1.7.46,0c-.07.82-.13,1.63-.19,2.44s-.39,1.6-.09,2.12c.57,1,1.4,2.16,2.76.27.89,3.3,2.91,4,5.72,4.14,4.31.16,8.11-1.64,12.11-2.62.49-.12.79-1,1.18-1.57-.65-.35-1.31-1-2-1a45.48,45.48,0,0,0-4.8.52,8.81,8.81,0,0,0-.27-2.69,8.17,8.17,0,0,0-1.7-2l.44-.54c1,.71,2,1.48,3.05,2.11a4,4,0,0,0,1.49.21c-.2-.47-.27-1.1-.63-1.38-3.14-2.46-4.89-2.34-8.33.5L170.74,169l2.76-2.12-3.82-.71a6.38,6.38,0,0,1,5.41-1.16c1.07.16,2.12.46,3.18.64,2.52.43,2.52.41,3.87-1.39l2.53,3.86a2.84,2.84,0,0,1,1-.26c1,.11,2.25,0,2.88.61.39.36-.14,1.75-.28,2.67-.09.6-.5,1.41-.25,1.74a2.37,2.37,0,0,0,1.76.59,3.22,3.22,0,0,0,2.92-3.58c-.11-2,.39-2.53,2.16-2.24,1.93.31,3.82.73,5.77,0,.4-.15,1,.12,1.44.24a21.25,21.25,0,0,0,4.93.81c-2.95-2.47-2.91-6.69-5.92-9-.65-.49-1.21-1-.16-1.68a56.86,56.86,0,0,0-3.63-5.16c-.22-.26-1.67.54-2.62.87,0-1.67-1.23-2.76-3.18-3.22-1.24-.29-2,.06-2,1.41s0,3,0,4.47H189c0-1.17,0-2.34,0-3.51-.06-3.08-1.44-4.34-4.43-3.6a12.67,12.67,0,0,0-4.6,2.29c-1.64,1.27-3.42-.35-5,.61-.22-.49-.75-1.26-.61-1.41a4.3,4.3,0,0,1,1.85-1.21c1.14-.33,2.43-.22,3.51-.66,1.85-.76,2.29-2.32,1-3.8a26.4,26.4,0,0,1-4.68-8.44c-.9-2.48-3-3.68-5.51-4.17-2.76-.54-5.54-1-8.94-1.53,3-1.7-.55-2.56.15-3.83l10.66,4.08c.4-3.35-1.41-5.19-2.9-7.2,2.61.43,3.77,2.62,4.29,4.54.75,2.79,2.62,4.46,4.77,6.68.24-.81.65-1.45.55-2a31.64,31.64,0,0,0-7.2-14.56,4.35,4.35,0,0,1-1-2.08c3.39,1.15,5.33,3.77,7.1,7l1.31-5.19.86.11c0,.57,0,1.14,0,1.71-.15,3.31-.41,6.54.55,9.87.89,3.08,1,6.4,1.24,9.63a6.21,6.21,0,0,0,4.16,5.65c2.12.71,2.78.31,2.84-1.91s0-4.62,0-6.94h.51c0,2.13,0,4.26,0,6.39,0,4.44,1.8,6,6.42,5.72.06-.15.21-.39.17-.44-2.94-2.83-2.45-7-4-10.38a57.51,57.51,0,0,1-3.06-10.47,31.19,31.19,0,0,0-3.13-8.58c-1.17-2.09-2.5-4.1-3.71-6.17a18,18,0,0,1-.89-2.31l2.87.59c.37,1.35.72,2.59,1.06,3.82l1.1-.16q-.15-3.66-.32-7.3l.83-.24q.93,2.2,1.88,4.4l.53.08c.55-1.4,1.1-2.8,1.66-4.2h.51c-.16,1.28.11,2.84-.54,3.78a9,9,0,0,0-1,8.94,44.84,44.84,0,0,1,1.25,5.15c2.5-3.58,5.21-6.61,4.87-11.13l.55.1c.13.49.24,1,.4,1.47s.37,1,.7,1.9l1.69-2.54c1,1.61.14,2.74-.64,3.8-1.42,1.93-2.94,3.78-4.34,5.72a7.49,7.49,0,0,0-.82,7.57c.94,2.39,1.68,4.87,2.69,7.24.94,2.19,1.3,2.2,3.27.78l3.3-2.35.64.64c-1,1.13-1.83,2.34-2.88,3.38-2.4,2.39-2.34,3.13-.5,5.94,2.08,3.17,3.81,6.56,5.71,9.88,3.26-.39,3.74-3.73,6-5.22l1.7,1.82c-1.32,1.31-2.68,2.57-3.92,3.92a3.46,3.46,0,0,0-.36,4.61c2.56,3.47,5.31,6.81,8,10.19.12.14.45.12,1,.24.21-3.06.41-6,.61-9l.85-.05c.16,1,.33,2.08.51,3.15l2.4-1.19c0,.69.16,1.2,0,1.41-3.36,4-2.22,7.93.25,11.72a36.15,36.15,0,0,0,5.39,6.43,22.52,22.52,0,0,0,.24-2.29c0-7.08.17-14.17-.11-21.24a11.57,11.57,0,0,0-2.29-5.9c-4.26-5.9-7.5-12.33-10.93-18.71-1.91-3.55-5.33-6.29-8.05-9.41-1.29-1.48-3.44-2.41-3.31-5.33l3.2,2.76v-6.14l.58-.14c1,4.59,2.59,8.84,6.09,12.24a25.73,25.73,0,0,1,3.58-20.58l1,.16c-2.09,5.11-3.51,10.33-2.6,15.8a38.4,38.4,0,0,0,5.73,15.57,79.77,79.77,0,0,0,2.55-9.11c.46-2.84-.19-5.83.32-8.7h1l.41,5.18.54.18,3.93-9.08a19.08,19.08,0,0,1-2.08,9.63c-1.37,2.86-1.36,2.87,1.44,5.1-.91.55-1.66,1-2.36,1.44s-2,1.12-2.29,1.92a52,52,0,0,0-1.27,6.6,1.54,1.54,0,0,0,.07,1c1.51,2.5,3.06,5,4.6,7.46l.79-.21a10.85,10.85,0,0,0,.75-1.93c1.45-7.1,5.16-13.06,9.44-18.72,2.2-2.9,4.74-5.56,6.86-8.51a22.44,22.44,0,0,0,3.14-6.19c.36-1.13-.19-2.73-.75-3.91a24.3,24.3,0,0,0-2.66-3.74l.41-.48,2.88,1.57c0-3,0-5.88,2.18-8.3-.06,1-.13,2.09-.21,3.37l3.41-1,.3.57a8.86,8.86,0,0,1-1.85,1.42c-1.68.69-1.85,2.06-1.65,3.5.23,1.71.68,3.4,1.17,5.72,3.9-3.63,7.21-7.1,8.31-12a22,22,0,0,0,2.84-2.63,22.79,22.79,0,0,0,1.81-3.34l.77.31c-.83,2.5-1.65,5-2.61,7.91,5.66-1,10.79-2.23,15.51-5l.45.66-3.6,3.39,2.91.88c0,.19,0,.38,0,.58l-9.76.24,3.61,4.1-.51.6c-.66-.46-1.37-.88-2-1.4-2.72-2.33-3.86-2.47-6.88-.46-1.71,1.13-3.3,2.46-4.94,3.7l.14.63,6.17.37.11.75a49.33,49.33,0,0,0-5,1c-1.7.51-3.86.84-4.86,2-5,6-9.64,12.28-14.41,18.47-.07.1,0,.32,0,.48,4.38.89,13.34-4.42,16.17-9.74l1.46,2.09,7.76-1.36.2.54-13.24,6,.21.89c2.54-.12,4.91,1.16,7.67-.35,2.28-1.25,5-1.66,7.55-2.44l.33.83c-.9.45-1.8.91-2.71,1.34s-1.94.86-3.13,1.38c.37.42.58.88.87.94,3.77.8,7.46,2.35,11.46,1,1.14-.39,2.7.18,3.7-.37a38.29,38.29,0,0,0,5.13-3.84c.63-.48,1.2-1,2.07-1.8-.67,3.5-4,8.38-12,9.53,1.54,1.4,2.64,2.86,4.11,3.62s3.2.74,4.91,1.09c-2,1.28-5.38,1.27-6.88-.3-3.55-3.72-8.19-4.89-12.91-6l-4.18-1-.49.65c1.71,2.92,3.43,5.85,5.32,9.09-2.16,0-2.94-1.41-3.74-2.54a41.31,41.31,0,0,1-2.25-4.1l-1.6,1.48c-.35-3.93-2.15-5.34-6.08-5a22.17,22.17,0,0,0-13.08,5.53c-2.35,2-2.83,5-3.41,7.62-1.56,7.13-.64,14.4-.75,22.24a81.56,81.56,0,0,1,6.93-4.62c3.4-1.8,4.68-4.61,5.17-8.24a13.52,13.52,0,0,1,2.49-5.32c1.25,2.8-1.8,5.09-.69,8.15,2.39-.89,4.72-1.67,7-2.64,3-1.28,5.78-2.78,7.78-5.59,1.51-2.12,4.16-2.42,6.67-2.78-1.78,1.37-3.67,2.61-5.3,4.14s-3.07,3.4-4.76,5.3c1.24.18,2.64.48,4.05.58,1.58.11,3.19-.12,4.75.08,4,.5,7.12-1.07,9.9-3.72a14.87,14.87,0,0,1,1.63-1.2l.55.61-6.12,6.54,2.35,1.22a6.11,6.11,0,0,1-5.39-.1c-4.27-1.67-8.67-1.34-13.07-1.26-.74,0-1.48.21-2.23.2a10.28,10.28,0,0,0-7.7,2.75c-2.52,2.36-5.64,4.08-8.46,6.13a20.58,20.58,0,0,0-4,3.3,7.3,7.3,0,0,0-1.43,3.8c-.36,4-.21,8-.77,11.94-.47,3.35-1.65,6.59-2.48,9.9a16.38,16.38,0,0,0-.19,2.33c1.91-.92,3.41-1.74,5-2.38a39.66,39.66,0,0,1,5.85-2c2.12-.48,3.08-1.42,3.09-3.72a26.37,26.37,0,0,1,1-6.13c.19-.79,1-1.44,1.64-2.41-.28,3.07-.64,5.56-.71,8.06s1,3.27,3.27,2.45c3.6-1.29,5.63-3,6.21-7a26.74,26.74,0,0,1,1.59-6.14,5.49,5.49,0,0,1,.41,1.37c.05,1.41,0,2.83,0,4.25-.17,5-2.82,8.49-7.67,9.85-2.71.77-5.49,1.31-8.63,2a91.43,91.43,0,0,0,9,2.3c3,.45,6.05.34,9.29.73-.91.39-1.81,1.12-2.72,1.12a75.72,75.72,0,0,1-9.41-.41c-3.29-.39-6.58-1.79-9.79-1.58-2.4.15-4.8,2-7,3.4-3.33,2.17-3.69,6-4.49,9.42-1.38,6-1.34,12.09-1,18.16.17,3,1.1,5.93,1.79,9.38,1.09-.76,1.64-1.07,2.1-1.48,2.29-2,4.5-4.15,6.85-6.1,2-1.66,2.16-2.69.21-4.37a4.78,4.78,0,0,1-1.88-4.91c.31.46.62.93.94,1.38a6.5,6.5,0,0,0,1.42,1.54c0-4.77,2-7.91,6.53-9.55a2.14,2.14,0,0,1-1.32,2.73,5.47,5.47,0,0,0-2.86,6.23c.16.73.35,1.45.5,2.19s.24,1.44.41,2.54a79.52,79.52,0,0,0,7.5-3.09,4.31,4.31,0,0,0,1.62-2.76c.28-1.36,0-2.84.14-4.23a9.5,9.5,0,0,1,1-2.38l.51.08q.32,3,.61,6l.79.32,5.15-5.27v3.09l3.47-1.09.24.37-11.17,7,.14,1,7.59,2.67c-1,1-3.46-.06-3.1,2.69-1.43-1.18-2.38-2.13-3.48-2.85-1.72-1.12-3.5-1.72-5.59-.59-2.33,1.25-4.81,2.21-7.21,3.34a8.15,8.15,0,0,0-1.34,1.12c2.5,2,5.41,2,8.18,2.46v.7c-1.47.08-2.94.19-4.41.22-.4,0-.79-.3-1.2-.33-1.94-.15-4.35-1-5.72-.21a8.36,8.36,0,0,0-4.28,7,16.19,16.19,0,0,0,1.93,6.32c1.42,3.08,3.18,6,4.79,9-2.18,2.86-3.9,2.82-6,0a54.87,54.87,0,0,1-9.74-22.43c-.89-4.36-1.15-8.86-1.68-13.3a9.61,9.61,0,0,0-9.32-8.69,23.23,23.23,0,0,0-4,.08c-7.9,1-15.56-.23-23.13-2.36-4.48-1.27-8.91-2.83-13.48-3.59a35,35,0,0,0-9.79.22,5.56,5.56,0,0,0-4.77,4H149.4l5.37-5.12-2.09-1.17.06-.47h7.93l.05-.43c-2.91-2.13-5.7-4.47-8.78-6.33-2.29-1.39-3.5-3.39-4.75-5.75l2.11-.9,4.8,5.64c1.91-1.57,1.91-1.57.91-6.38,2.93,1.81,3.27,2.64,2.26,5.49-.81,2.28-.62,2.83,1.43,4,5.23,2.87,10.91,4.47,16.63,5.95,2.4.62,4.84,1.05,7.4,1.6.07-.49.33-1,.18-1.42a65,65,0,0,0-3.55-8.15c-1.37-2.36-3-2.71-5.58-1.86-1.82.59-3.55,1.43-5.35,2.08a4.68,4.68,0,0,1-2.17.35c-.39-.06-.86-.73-1-1.2-.07-.28.45-.93.81-1,1-.26,2.14-.15,3.11-.49a17.68,17.68,0,0,0,3-1.71l-5-3.26.38-.7c2.45.87,4.85,1.9,7.34,2.59,5.53,1.56,8.31,5.43,9.62,10.74.46,1.83.87,3.77,2.81,4.77a4.64,4.64,0,0,0,1.56.67c3.8.37,7.61.72,11.42.94A17,17,0,0,0,204,220.21Z"/><path class="cls-1" d="M225.51,135.57c-1.51,1.43-2,3.36-2.5,5.25l-.75,2.75"/><path class="cls-1" d="M218.26,110.82a20,20,0,0,0-3.95,11.76c-.1,2.42-.45,4.89.85,7.3.48.9-.23,2.44-.4,3.69"/><path class="cls-1" d="M199.26,114.82c-.17,1,0,2.57-.56,2.91-3.53,2.16-4.75,6-6.94,9.09"/><path class="cls-1" d="M259.26,208.07c-1.92.25-3.83.63-5.75.72a16,16,0,0,1-7-1.11c-2.39-1-5.13-1.11-7.71-1.61"/><path class="cls-1" d="M236,205.7l-1.25.37"/><path class="cls-1" d="M265.26,116.32c-2.25.09-4.5.19-6.75.24a7.81,7.81,0,0,1-1.5-.24"/><path class="cls-1" d="M256.51,187.32c-.17,2.5-.19,5-.53,7.5-.54,3.88-4.74,7.34-8.72,7.52a21.39,21.39,0,0,0-9,2.73"/><path class="cls-1" d="M147.51,203.07c1.25,1.25,2.41,2.61,3.77,3.73,3.48,2.88,7,5.77,11.23,7.52"/><path class="cls-1" d="M168.51,216.7l1.25.37"/><path class="cls-1" d="M174,218.2l1.75.37"/><path class="cls-1" d="M181.51,220.2l1.25.37"/><path class="cls-1" d="M257,165.2c3.42.21,6.83.48,10.25.59a7.17,7.17,0,0,1,4.05,1.21c1.08.71,2.62.74,3.95,1.07"/><path class="cls-1" d="M167.26,201.57c3.27,1.09,6,3.25,9.48,4.1a7.77,7.77,0,0,1,5,4.9c1.31,3.15,2.57,6.29,2.73,9.75"/><path class="cls-1" d="M182.76,179.32c-.58,3.25-1.07,6.53-1.78,9.75-.52,2.35-2.94,3.5-6.72,3.5"/><path class="cls-1" d="M268.76,154.32c-3.06,1.05-5.89,2.34-7.81,5.21-.72,1.08-2.14,1.67-3.18,2.56-.8.68-1.51,1.48-2.26,2.23"/><path class="cls-1" d="M193.26,185.32a5.06,5.06,0,0,0,5.14-2.56c.62-1,.4-2.85,0-4.17a9.2,9.2,0,0,1,.32-6"/><path class="cls-1" d="M181.26,179.32l-7.5,1.25"/><path class="cls-1" d="M167.76,181.82c-4.64,3.6-9.09,7.52-15,9"/><path class="cls-1" d="M250,225.32a9.15,9.15,0,0,0,.56,8.36c2.79-1.6,5.17-3.51,5.94-6.86"/><path class="cls-1" d="M186.76,205.57a35.53,35.53,0,0,0,3.8,4,12,12,0,0,0,3.45,1.3"/><path class="cls-1" d="M197.76,213.32c2.08,1.67,4.22,3.28,6.23,5a21.39,21.39,0,0,1,2.27,2.72"/><path class="cls-1" d="M279.26,107.57c-1.92-.25-3.85-.42-5.75-.76-3-.54-5.42,1.55-8.25,1.78-1,.08-2,.32-3,.48"/><path class="cls-1" d="M286,133.82c-2,2.87-4.1,5.72-7.52,7a27.16,27.16,0,0,1-5.23.8"/><path class="cls-1" d="M268.51,141.45l-5.25-1.38"/><path class="cls-1" d="M180,118.32a89.16,89.16,0,0,0-1.16,9c-.07,1.65.81,3.32,1.14,5a29.08,29.08,0,0,1,.27,3.24"/><path class="cls-1" d="M189.26,135.82c0,3,.06,6,0,9a12.4,12.4,0,0,1-.72,2.75"/><path class="cls-1" d="M230.26,120.32c-.73,4.22-1.75,8.31-4.5,11.75"/><path class="cls-1" d="M246.76,191.07c-.67.92-1.81,1.79-1.91,2.76-.26,2.73-.09,5.49-.09,8.24"/><path class="cls-1" d="M189.76,199.32a28.39,28.39,0,0,1,2,3.52c1,2.54,1.86,5.15,2.78,7.73"/><path class="cls-1" d="M242.26,224.82c-.58.5-1.14,1.05-1.75,1.5-2.31,1.68-3.79,3.64-3,6.76.51,2.13.7,4.33,1,6.49"/><path class="cls-1" d="M203.76,122.82A11.33,11.33,0,0,0,207.9,127c2.37,1.57,3.94,4.33,5.86,6.58"/><path class="cls-1" d="M188.64,121.07c.37,1.5.65,3,1.16,4.49a7,7,0,0,0,1.46,1.76"/><path class="cls-1" d="M234.26,243.57c3.14,2.34,6.72,2.83,10.5,2.5"/><path class="cls-1" d="M272.51,142.57c1.58,1.59,2.95,3.55,4.82,4.63,1.39.8,3.43.46,5.18.62"/><path class="cls-1" d="M247.76,157.82c-.67,2.17-1.47,4.31-1.94,6.52-.21,1,.27,2.15.44,3.23"/><path class="cls-1" d="M266.76,129.82c-4.22,1.35-8.83,1.45-12.55,4.44-1.37,1.09-3.23,1.56-3.7,3.56"/><path class="cls-1" d="M250,233.82c-2.83,3.51-7,4.25-11,5.5"/><path class="cls-1" d="M171.51,117.32c3.08,2.08,4.32,5.65,6.75,8.25"/><path class="cls-1" d="M279.26,159.82a4.22,4.22,0,0,0-1.23.77,18.27,18.27,0,0,1-7.27,5.48"/><path class="cls-1" d="M190.26,148.82l5,1.75"/><path class="cls-1" d="M268.76,134.57a59.72,59.72,0,0,0-6,1.82c-.84.35-1.36,1.43-2,2.18"/><path class="cls-1" d="M189.51,148.82c-.08,2.84-.17,5.67-.25,8.5"/><path class="cls-1" d="M258,142.82c.83,1.25,1.59,2.57,2.52,3.74s2.15,2.35,3.23,3.51"/><path class="cls-1" d="M174.26,205.57c-2.17,1-4.32,2-6.51,3-.32.14-.82-.13-1.24-.22"/><path class="cls-1" d="M170,124.57c2.83,2,4.1,5,3.25,7.5"/><path class="cls-1" d="M224.76,124.32c0,1.67-.08,3.34,0,5a12,12,0,0,0,.72,2.5"/><path class="cls-1" d="M161.51,165.32V173l2.5-.62v-2.57"/><path class="cls-1" d="M191.26,106.82c-.36,2-.14,4.25-2,5.75-.33.26-.67.5-1,.75"/><path class="cls-1" d="M197.51,176.07a5.75,5.75,0,0,0-4.5,5.25"/><path class="cls-1" d="M165.76,131.32c.33-.25.71-.75,1-.7a20.52,20.52,0,0,1,5.47,1.29,26.06,26.06,0,0,1,4.78,3.68c.81.67,1.51,1.48,2.26,2.23"/><path class="cls-1" d="M203,137.82a14.51,14.51,0,0,1-6.5,5.5"/><path class="cls-1" d="M163.26,215.82c-2.53.83-4.95,2.17-7.78.81-.91-.44-2.14-.22-3.22-.31"/><path class="cls-1" d="M265.76,98.82c-.78,2.4-1.18,5-3.25,6.75"/><path class="cls-1" d="M207.26,118.82c.33,2.59.67,5.17,1,7.75"/><path class="cls-1" d="M219.51,163.82c0,2.75.1,5.51,0,8.25a19.49,19.49,0,0,1-1,3.75"/><path class="cls-1" d="M186.76,106.82c.33,1.92.8,3.83,1,5.76a14.61,14.61,0,0,1-.49,3.74c0,.1-.63.09-1,.13"/><path class="cls-1" d="M212,152.32c-.46,2.89-2.83,4.46-4.51,6.5-.45.54-1,1-1.49,1.5"/><path class="cls-1" d="M251,103.32c-.33,3.42-.67,6.84-1,10.25"/><path class="cls-1" d="M182,110.32c1.33,1.87,1.76,4.32,3.75,5.75"/><path class="cls-1" d="M182,168.07a25.15,25.15,0,0,1-3.49-.9,3.12,3.12,0,0,0-3.56.59c-.82.66-2.12.73-3.2,1.06"/><path class="cls-1" d="M279.26,102.32c-1.25,1-2.51,2-3.74,3-.46.38-.84.83-1.26,1.24"/><path class="cls-1" d="M177.51,169.32a22.47,22.47,0,0,0,3,3.45c1.14.85,2.49.47,3.46-.7"/><path class="cls-1" d="M233.51,230.82c.8,1.73.62,4.25,3.5,4.25"/><path class="cls-1" d="M246.51,111.07a19.77,19.77,0,0,1,3,2.29,8.52,8.52,0,0,1,1.28,2.72c.39,1.06.68,2.16,1,3.24"/><path class="cls-1" d="M260.26,228.32c-1.49,1.7-3.1,2.38-4.75,2"/><path class="cls-1" d="M159.51,172.7c.92.62,1.88,1.2,2.74,1.89,1.29,1,2.51,2.15,3.76,3.23"/><path class="cls-1" d="M247.51,236.82c3,1.9,6,3.7,9.75,2.75"/><path class="cls-1" d="M196.51,113.82c.17,1.67.33,3.34.5,5"/><path class="cls-1" d="M279.26,270.82c.08,1.67.17,3.34.25,5"/><path class="cls-1" d="M155,201.57c.78,1.43,2.52,2.51,1.73,4.5-.41,1-1,2-1.48,3"/><path class="cls-1" d="M268,108.57l4,3.75"/><path class="cls-1" d="M175.51,167.07c-.53-1.55-1.85-1.24-3-1.23-.92,0-1.83.15-2.75.23"/><path class="cls-1" d="M182.76,148.07c-1.78,1.62-3.55,3.19-6.26,2.81-.36,0-.82.61-1.24.94"/><path class="cls-1" d="M156.26,217.57l-6.25,5"/><path class="cls-1" d="M254.76,105.82,251,108.07"/><path class="cls-1" d="M182.26,190.07c1.59,1.06.14,2.53.5,3.75"/><path class="cls-1" d="M182.26,163.82c-.08,1.34-.17,2.67-.25,4"/><path class="cls-1" d="M204,170.45l1-.25"/><path class="cls-1" d="M162,126.82l2.75,3.25"/><path class="cls-1" d="M195.51,151.57l-.75,3.25"/><path class="cls-1" d="M200.26,158.32c.74,1.72,1.93.77,3,.5"/><path class="cls-1" d="M165.76,130.57l-4,.25"/><path class="cls-1" d="M149.26,201.82v2.5"/><path class="cls-1" d="M193.76,169l1.88,2.12"/><path class="cls-1" d="M180,173.57l-1.75.75"/><path class="cls-1" d="M200.89,168.82l.37.75"/></svg>