<svg id="Layer_1" data-name="Layer 1" xmlns="http://www.w3.org/2000/svg" viewBox="0 0 439.03 441.62"><defs><style>.cls-1{fill:none;stroke:#000;stroke-linecap:round;stroke-linejoin:round;stroke-width:2px;}</style></defs><title>vene</title><path d="M182.83,147.7c-1,1-1.7,2-.74,3.47a1.89,1.89,0,0,1,.1,1.68c-1.46,2.4-.41,4.62.32,6.84,2.23.11,4.45.27,6.67.26a2,2,0,0,0,1.42-1,5.6,5.6,0,0,0,.42-2.37c0-1.65-.92-3.75-.2-4.83,1.41-2.12,3.68-3.66,5.59-5.45l.48.29-.12,1.68.58.23c.46-1,.93-2,1.58-3.41l2.41-.83c0,.62.15,1.1,0,1.38-1.51,2.41-2.53,5.31-5.87,5.9-.17,0-.33.08-.49.1a1.89,1.89,0,0,0-1.81,2.46c.35,1.44,1.78,1.28,2.7.88,2.11-.92,4.1-2.12,6.14-3.2l1-.5A25.73,25.73,0,0,0,205,155c.77,1,1.89,1.7,2.65,3h-2.87c-.77-1.25-1.47-2.41-2.08-3.41a51.28,51.28,0,0,0-6.41,2.22,6.19,6.19,0,0,0-2.44,2.75,5.55,5.55,0,0,1-5.49,3.15c-1.08,0-2.16,0-3.24,0-2.25.1-4.56.13-5.46,3.07l-1.75-1.27-3,2.06c2.5.34,2.93,1.57,2.19,3.36l-2.83-2.56c-.45,3.56-.7,6.62-1.24,9.62-1,5.45-4.13,9.75-7.77,13.71-1.46,1.59-3.26,2.88-4.6,4.55-2,2.52-4.21,5.06-5.46,8a13.1,13.1,0,0,0-.43,7.28c.46,2.37,2.54,3.87,5.12,4.11a18.7,18.7,0,0,0,3.74-.05c7.61-.87,10.82,1.06,13.73,8.78.2-1.73.45-2.93.47-4.13.06-3.08,0-6.16,0-9.25a13.6,13.6,0,0,1,2.49-8c2.19-3.1,3.44-6.27,2.36-10.23-.9-3.29.84-6,3.11-8.25,1.68-1.7,2.78-2.15.54-4.95-1.72-2.13-1.29-3.54.84-4.83a18.07,18.07,0,0,0,.49,3.57,12.34,12.34,0,0,0,1.85,3.22,2.16,2.16,0,0,0,1.53.88,6.39,6.39,0,0,0,6.14-7.3c-.08-.9.07-1.82-.06-2.71a4.72,4.72,0,0,0-1.17-2.55c.43-1,.87-1.89,1.46-3.16.43.58.79.85.83,1.17.38,2.54.76,5.09,1,7.65.49,4.69-1.52,7.66-6,9a27.18,27.18,0,0,1-2.66.66,6.83,6.83,0,0,0-5.1,7.84c.34,1.61.39,3.28.55,4.67,3.47,1,6.77,2,10.14,2.74.91.2,2-.62,3.07-1a23.69,23.69,0,0,0-1-2.51c-.26-.49-.83-.82-1.18-1.27-1.66-2.12-1.45-4.12.5-5.93a16,16,0,0,1,6.26-3.95c.64-.2,1.12-.93,1.68-1.42,1.43,1.88,1.23,2.59-1,3.61a26.27,26.27,0,0,0-4.39,2.24c-2.8,2-2.71,2.8.42,5.1a13.38,13.38,0,0,0,1.66-2,11.72,11.72,0,0,1,6.11-5.24c2.34-1,4.57-2,4.38-5.31,0-.72,1.38-1.86,2.34-2.23,2.29-.88,4.71-1.41,7.08-2.08l.3.49a22.2,22.2,0,0,1-2.25,1.41c-1.27.63-2.59,1.14-3.88,1.71a2.36,2.36,0,0,0-1.36,3.11c.41,1.44,1.58.81,2.51.64,2-.36,4.08-.42,5.84-1.24a35.52,35.52,0,0,0,5.92-4,17.68,17.68,0,0,1,2.94-2.08c-1.64,3.36-3.56,6.54-7.3,7.75-3.31,1.06-6.8,1.51-10.09,2.59-4.26,1.4-8.88,2.44-10.31,7.77a50.11,50.11,0,0,1-2.18,5.52c2.31.42,4.64-.5,5.47-2.48A28.21,28.21,0,0,0,209,193l3.24-1.24a7.85,7.85,0,0,1,2.55-.94c6,.14,11.08-2.6,16.08-5.46a1.44,1.44,0,0,1,1-.14,14.65,14.65,0,0,1-5.39,4.63c-2.17,1.18-4.52,2-7,3.09a54,54,0,0,0,2.45,5c1.11,1.77,2.74,2,5.08,1s2.65-1,5.05,0c-3.27,1.23-6,3.42-9.46,2.06-1.16-.46-2-1.8-2.88-2.87s-1.16-2.22-2-3.16c-1.85-2.21-3.7-2.34-5.32,0-1.71,2.5-3.13,5.27-1.84,8.58,1.08,2.77,3,3.73,5.84,2.68.52-.19,1.07-.26,2.05-.5-1.27,1.9-2.62,3.18-4.43,2.78-3-.67-5.78-2-5.36-6.47a9.74,9.74,0,0,1-8.26,2,63.84,63.84,0,0,1-8.91-2.25c-4.88-1.78-7.72,1-9.16,5.41a18.21,18.21,0,0,0-.59,4.69c-.19,3.73-.32,7.48-.43,11.22-.09,3.37-1.82,6-3.79,8.49a19.11,19.11,0,0,0-2.18,3.21c-1.22,2.46-2.31,5-3.42,7.49a14,14,0,0,0-.52,1.9c2.66,0,5.06-.09,7.45,0,1.46.07,2.91.54,4.37.67.84.07,2,.08,2.48-.41s0-1.62-.16-2.43c-.36-1.41-.87-2.77-1.3-4.16-.28-.92-.52-1.85-.83-2.92,3.05-.64,2.56,2.11,3.15,3.67,5.54-1.65,7.43-1.87,11.48-8.11.87,2.88-1.63,6.76-5.1,8.14a42.74,42.74,0,0,0-4.3,2.31,81.21,81.21,0,0,0,7.48,4c2.65,1.06,5.73-.92,6.47-3.88a53,53,0,0,1,1.33-5.53,5.38,5.38,0,0,1,2.18-2.36,41.71,41.71,0,0,1,4.35-2.14c.7,2.26.14,2.9-4.62,4.21.7.66,1.15,1.35,1.78,1.61a5.3,5.3,0,0,0,2.87.54,3.77,3.77,0,0,0,2.37-1.69,29.25,29.25,0,0,0,1.4-4.78,4.44,4.44,0,0,1,2.82-3.45c.15.36.37.62.31.79-.88,2.91-1.79,5.82-2.73,8.71-.6,1.86-1.78,3-3.89,2.76-.41,0-.83,0-1.25,0-4-.26-3.91-.24-4.86,3.81a13.63,13.63,0,0,1-1.75,3.26c1.36,1.64,1.36,1.64,4.06-.68-.24,1-.18,2.38-.82,2.94a3.43,3.43,0,0,1-3,.34,15.82,15.82,0,0,0-5.54-1,11.49,11.49,0,0,1-4.84-1.7c-2.25-1.22-2.72-1.39-4.23.51s-3.22,1.69-5.17,1.2a23.77,23.77,0,0,0-15.13.89,6.37,6.37,0,0,0-2.37,2.43,49.28,49.28,0,0,1-10,10.66,5,5,0,0,1-2.24,1,2.27,2.27,0,0,1-2.55-3.13,9.56,9.56,0,0,1,1.65-2.77,81.63,81.63,0,0,0,14-20.21c1.81-3.74,3.63-7.49,3.45-11.83-.12-2.7-.8-3.55-3.43-4.07a3.21,3.21,0,0,0-.74-.1,48.84,48.84,0,0,1-11.39-.49c-1.07-.15-2.3.64-3.43,1.07a47.21,47.21,0,0,1-5.93,2.31,4.62,4.62,0,0,1-5.08-1.83c-.86-1.18-4.76-1-6.51,0-.5.29-1,.79-1.52.77-2.52-.1-5-.34-7.7-.55a2.25,2.25,0,0,1,3.06-1.73,5.77,5.77,0,0,0,6.39-1.49c-.89-1.41-1.72-2.91-2.74-4.26a44.6,44.6,0,0,0-3.31-3.7,22.65,22.65,0,0,1-1.88-1.63c-1.59-2-3-3.29-5.79-1.34-1.8,1.26-4.4-.1-5.39-2.39,2.61,1.29,4.67.94,6.39-1.69l-4.06-1.25c4.77-2,7.08.75,9.13,3.67l5.93-4,.47.36a12.59,12.59,0,0,1-2.26,2.44c-1.83,1.14-1.83,2.37-.61,3.89a76.73,76.73,0,0,0,5,6.17,4.86,4.86,0,0,0,4.16,1.82,3.76,3.76,0,0,1,2.82,1.5c.95,1.36,1.93,3,3.59,2.54a17.6,17.6,0,0,0,5.07-3c.22-.16,0-1.43-.42-1.92-4.43-5.64-2.57-15.67,1.51-20.45,2.55-3,1.22-7.37-2.6-8.77a9.4,9.4,0,0,0-8.37,1.07A5.74,5.74,0,0,0,139,191c-1.06,2.33-1.82,2.58-4,1.23a8.93,8.93,0,0,0-2.67-1.3c-1.9-.43-3.73-.11-4.79,1.75s-1.86,4.2-5,2.83c-1.26-.55-2.82-.4-4.24-.62-.19,0-.33-.33-.86-.89,2.24-.41,4.21-.7,6.14-1.14a3.41,3.41,0,0,0,1.93-1c2.82-3.93,4.84-4.5,9.39-2.56a4.29,4.29,0,0,0,1.79.23,1.91,1.91,0,0,0,.24-1.05,3.35,3.35,0,0,0-1.75-.62c-2.48.26-4.51-.89-6.64-1.83a38.39,38.39,0,0,0-5.53-2.07c-2.13-.57-4-1.19-5.48-3.09s-2.12-1.74-3.68.13c-.48.58-.88,1.23-1.38,1.78-1.61,1.78-4,1.77-6,0,.09-.12.22-.37.27-.35,2.91.81,4.72-.34,5.9-3,.33-.74,1.46-1.08,2-1.77A5,5,0,0,0,116,175c0-.59-1.2-1.33-2-1.71-1.57-.75-3.27-1.21-4.86-1.92-2-.89-2.19-1.71-1.6-3.74a11.12,11.12,0,0,0,0-2.78c2.2-.65,3,.59,2.06,4.53,2.35.84,4.72,1.76,7.16,2.46a2.26,2.26,0,0,0,1.81-.88,22.8,22.8,0,0,0,1.75-3.1c-3-5.18-9.05-5.24-13.57-7.86l.24-.74c1.69.4,3.36.88,5.07,1.14a3.51,3.51,0,0,0,2.49-.34c1.34-1.12,1-2.46-.61-3.27-.51-.26-1-.61-1.91-1.19,4.31-.22,5,.49,5,4.09a3.67,3.67,0,0,0,1,2.13,25,25,0,0,0,2.46,2.11,6.14,6.14,0,0,1,.75,8.15c-.4.53-.82,1.05-1.19,1.6-1.48,2.22-1.48,4,.44,5.76a7,7,0,0,0,4.74,2.18c.71-2.56,1.25-4.92,2-7.2s2-4.58,2.74-6.94c1.8-5.68.2-10.63-3.62-15-1-1.19-2.06-2.38-3.15-3.5a4.12,4.12,0,0,0-5.22-1c-2.64,1.35-5.12,1-8.09-1,2.87-.6,5.77,1.44,7.79-1.33L111.43,143l.23-.64c5,.07,9.42,2.41,13.73,4.72,2.77-3.26,2.77-3.26-1-7.27a4.57,4.57,0,0,1,4.72,2.06c1,1.41.66,2.59-.35,3.85a3.4,3.4,0,0,0,0,4.38,52.75,52.75,0,0,1,3.39,5.5c2.93,5.75,2.34,11.56,0,17.34-.21.52-.36,1.05-.54,1.58,2.52,1,3.49.36,3.8-2,.18-1.38.73-2.72.93-4.1a42.25,42.25,0,0,1,1-6.28,8.22,8.22,0,0,1,.92,2.71c-.16,3.13-.44,6.27-.89,9.38-.22,1.53-1.41,2.32-3,2.54-3.08.44-4.51,1.62-4.41,3.45.12,2,1.79,3.63,4.66,3.58,4.27-.08,8.54-.64,13.18-1a11.06,11.06,0,0,1,1-8.4,11.78,11.78,0,0,0,1.78-4.27c.81-7.1-.05-7.63-5.93-8.64-1.22-.21-2.49-.14-3.73-.24-1.59-.12-2.21-.86-1.7-2.51a24.94,24.94,0,0,1,.9-3.42,18.3,18.3,0,0,1,.67,2.67c.22,2.09,1,2.46,3.33,1.32-1.21-2.46-2.42-5-1.45-8l2,4.44.36-.1c.07-.65.13-1.3.2-1.94l.76-.1c.18,1.19.3,2.39.57,3.57.15.69.34,1.63.85,2,2.56,1.63,5.24,3.1,8.09,4.75.1-.82.2-1.64.29-2.47,3.13.66,4,2.14,3.82,5.15-.09,1.4.68,2.85,1.09,4.41-1.05,0-2.62-.33-1.59,1.78-2.2.66-4.33,1.27-6.46,1.93-1.73.53-2.84,3.71-2.1,6.09a7,7,0,0,0,.95,2c1.79,2.35,3.66,4.65,5.67,7.19.92-.82,1.85-1.6,2.73-2.44a28.63,28.63,0,0,0,7.23-10,10.09,10.09,0,0,0-.71-9.1c-.49-.9-1.75-1.37-2.81-2.15l-2,2.52-.48-.21a16.39,16.39,0,0,1,1.37-3.14c.86-1.19.65-2-.18-3.09-1.45-1.9-2.75-3.91-4.25-6.08,1.48-1.19.3-1.87-1-2.69a5.93,5.93,0,0,1-1.88-2c-1.24-2.14-2.25-4.42-3.55-6.54-.43-.7-1.43-1.06-2.16-1.56a40.18,40.18,0,0,0-5.84-1.13,7,7,0,0,0-3.28,1.2c-2.12,1.12-3.45.44-3.55-2.12,2.1.89,4.13.66,5.11-1.4,1.67-3.51-.3-5.89-3.29-7.74,4.9.66,5.3,1,5.67,4.77s.9,4.22,4.72,3.62a6.56,6.56,0,0,0,.87-.21,21.36,21.36,0,0,0,1.7-3.4,40.84,40.84,0,0,0,1.61-7.26c.17-2-1.68-3.14-3.26-3.71-3.57-1.28-6.63-3.7-10.63-4.13-1.77-.18-3.55-1.75-5-3s-1.26-4.66.05-6.28,2.52-3,3.78-4.54c.58,1.78,0,3.49-1.27,5.17-2.36,3.18-1.47,5.21,2.91,6a8.22,8.22,0,0,1,.27-8.17c1.09-1.86,2.4-3.59,3.64-5.36,1.42-2,2.87-4,4.31-6l.66-.93.69.3a39.93,39.93,0,0,1-1.83,4.3c-1.48,2.6-3.26,5-4.67,7.67-2.55,4.81-1.36,8.11,3.54,10.26,1.51.66,3.12,1.1,4.6,1.83s2.84,1.69,4.43,2.65a4,4,0,0,0,.65-3.92c-.51-1.75-1.23-3.44-1.84-5.16a11.47,11.47,0,0,1-.83-2.59c-.52-4.88,1.21-6.6,7.38-6.88a28.42,28.42,0,0,1-2.45,1.52c-2.9,1.41-3.73,3.65-2.37,6.56.59,1.27,1.16,2.57,1.76,3.85,1.84,3.93,1,7.74-.28,11.63-1.16,3.45-2.05,7-3,10.51a3.06,3.06,0,0,0,1.06,3.31c.93.83,1.25,2.35,1.9,3.7,2-1.35,1.09-3.17,1-4.77,2.76-.09,5.56-3.28,5.15-6-.36-2.47-.73-4.81.44-7.25.52-1.06.09-2.57.09-4.38l2.65,2.52c3.56-1.24,3.48-4.47,3.33-7.72l.59,0a6.5,6.5,0,0,1,.95,2.07,14.26,14.26,0,0,1-.28,4.67c-.26.86-1.55,1.37-2.29,2.12a37.38,37.38,0,0,0-3.93,4.34c-.36.52.17,1.67.29,2.53.67-.1,1.53,0,2-.35a25,25,0,0,0,3.68-3.66c3.08-4,5.78-8.14,6.69-13.21.48-2.71-3.15-6.06-5.86-5.41-2.46.6-3.48-.26-3.66-3.33.58.37,1,.63,1.44,1a8.36,8.36,0,0,0,1.6,1.12c-.14-3.44-1.84-7.26,2.56-9.68-.08,2.48-2.58,4.56-.84,6.74a50.13,50.13,0,0,0,5.25,4.89c2.39-4.89,2.41-9.94,2.86-14.89l.76,0,.66,10.68.56.42c.82-.67,2-1.19,2.33-2s-.25-2-.51-3.51c3.73,2.88,3.61,5.19-.17,6.65-2.62,1-3.32,2.53-3.58,5.2-.29,2.92-1.54,5.75-2.43,8.61-1.21,3.89-1,4.17,3.06,3.48,4.74-.82,6.79-3.85,6.4-8.67a14.48,14.48,0,0,1,1.09-5.94c.77-2.07,2.71-2.78,4.88-2.8,1.38,0,2.75-.13,4.31-.21-.41,1.58-1.49,1.62-2.56,1.73-3.88.39-5.59,2.29-5.58,6.16,0,1.09,0,2.17,0,3.25,0,2.69.47,3.17,2.83,3.4s2-1.5,2.27-2.81a9.14,9.14,0,0,1,.53-1.18c.65,1.75,1.29,3.19.26,4.41a4.28,4.28,0,0,1-3,1.19,8.58,8.58,0,0,0-5.5,1.75c-1.7,1.21-3.9,1.74-5.93,2.43s-4.36.68-5.91,1.85a73.74,73.74,0,0,0-7.94,7.68c-.41.43-.31,1.34-.5,2.25-2.14-1-2.88.47-3.48,2.22-.49,1.47-1.64,2.93-1.54,4.33a17.65,17.65,0,0,0,1.81,6.55,33.56,33.56,0,0,0,4.18,5.56,1.76,1.76,0,0,0,1.24.68c2.85-.31,5.78-.12,8.32-2.07,1.27-1,1.9-1.85,1.27-3.26a3.07,3.07,0,0,1,.59-3.66,2.49,2.49,0,0,0,.37-3c-.93-2.18.05-3.32,2.57-3.28Z"/><path d="M181.65,166.6c-.17,1.6-.27,2.47-.4,3.71-.9-.23-2-.2-2.43-.71a2.25,2.25,0,0,1,0-2.23C179.35,166.84,180.45,166.88,181.65,166.6Z"/><path d="M182.85,147.73c1.31-3.09,2.15-3.51,5.12-2.33-1.66,1.15-3,2.57-5.14,2.3Z"/><path class="cls-1" d="M111.09,142.46a41.71,41.71,0,0,1,13.75,6"/><path class="cls-1" d="M131,156.21l.37,1.75"/><path class="cls-1" d="M186.84,174.46c-1.82,1.46-.52,3,.33,3.93a6.19,6.19,0,0,1,1.67,4.07"/><path class="cls-1" d="M185.59,186c-1.41,2.16-2.46,4.27-1.33,7,.56,1.39.25,3.13.33,4.71"/><path class="cls-1" d="M137.09,142c1,1.45,2.14,1.64,3.5.51.73-.61,1.49-1.19,2.29-1.83.56.19,1.35.21,1.67.61,1,1.27,2.21,1,3.55.75a13.89,13.89,0,0,1,2.74,0"/><path class="cls-1" d="M161.09,107c-1.17.42-2.34.83-3.5,1.26-3.38,1.24-4.14,3.6-2.5,7.75,1.2,3,3.21,5.92,2.25,9.49"/><path class="cls-1" d="M198.59,111.71a12.69,12.69,0,0,1-2.75.72c-4.75.15-6.88,2.73-6.57,7.54.15,2.22.12,4.76-.82,6.68-1.18,2.41-3.79,3.56-6.61,3.84a26.63,26.63,0,0,0-3.25.72"/><path class="cls-1" d="M148.59,98.46c0,2.58-1.32,4.69-2.82,6.44a35.21,35.21,0,0,0-5.4,8.58c-1,2.11.29,4,1,6"/><path class="cls-1" d="M183.34,246.59l-1.25-.38"/><path class="cls-1" d="M232.59,177.71a17.77,17.77,0,0,0-3,2.53,11.47,11.47,0,0,1-7.54,4.75c-1.52.26-3,1-4.51,1.17a23.34,23.34,0,0,1-4.24-.2"/><path class="cls-1" d="M197.59,166.46c.25,2.42.33,4.87.79,7.25a7.45,7.45,0,0,1-5,8.3c-1.5.46-2.86,1.37-4.51.7"/><path class="cls-1" d="M139.09,186.46l-1.59,5.09c-2.61-.76-4.87-1.89-7.16-2-2.94-.1-3.81,2.74-4.75,4.63h-8"/><path class="cls-1" d="M148.84,221.84c-1.69.62-3.3,1.77-5.25.87"/><path class="cls-1" d="M135.84,220.34c-1.06.66-2.87-.08-3.38,1.84a5.73,5.73,0,0,1-2.85-.27,3.61,3.61,0,0,0-4,.3"/><path class="cls-1" d="M137.84,107.46c.43,2.59-1,4.41-2.49,6.26-1.77,2.24-1.28,4,1.22,5.53,1.51.94,2.74,2.48,4.77,1.21"/><path class="cls-1" d="M205.09,183c.31.72.63,1.44,1,2.38a15,15,0,0,0-9.38,5.87c.81,2.54,2.2,4.46,4.84,5.25"/><path class="cls-1" d="M173.84,103.21c-3.45,4.08-3,7,1.49,10,1.38.94,2.68,2,4,3"/><path class="cls-1" d="M232.09,199c-1.67.1-3.2-.07-4.83,1.15-2.14,1.63-5.53,0-6.7-2.63a18,18,0,0,0-2.8-4.69,3.56,3.56,0,0,0-3.14-.73c-2.09.72-4,2-4.51,4.41a8.24,8.24,0,0,1-3.75,5.52,5.3,5.3,0,0,1-4.77.72"/><path class="cls-1" d="M222.59,177.71l-8.52,3.22c-.3,2,0,3.85-.84,4.68-1.35,1.39-3.39,2.1-5.14,3.1"/><path class="cls-1" d="M231.84,185.21c-3.63,3.19-8,5-12.5,6.51a13,13,0,0,0-1.5.74"/><path class="cls-1" d="M181.59,99c0,2.25,0,4.51,0,6.75a46,46,0,0,1-.3,6,18.32,18.32,0,0,1-1.44,3.75"/><path class="cls-1" d="M179.22,119.21l-2.13,7"/><path class="cls-1" d="M216.59,228.46c-.5,1.34-1,2.66-1.49,4s-.75,2.86-1.28,4.23a2.92,2.92,0,0,1-3.48,2c-1.25-.22-2.49-.53-3.75-.74-1.49-.23-1.62-1.46-1.71-2.51-.1-1.27.75-1.6,2-1.52,2.8.19,3.56-1.65,3.75-4"/><path class="cls-1" d="M152.34,172.46c-1.52,1.61-3.11,3.17-3.5,5.5"/><path class="cls-1" d="M148.84,178.21c.17,1.25.33,2.5.5,3.75"/><path class="cls-1" d="M208.84,201.46c.25.34.73.69.71,1-.19,3.11,1.78,4.41,4.3,5.23a2.66,2.66,0,0,0,1.72,0,30.08,30.08,0,0,0,3-1.72"/><path class="cls-1" d="M115.34,206c1.72,2.34,2.7,2.54,5.25,1,.92-.57,1.81-1.2,2.86-1.91,3.27,3.86,7.67,6.58,10.2,11.13.71,1.29,2.11,2.2,3.19,3.28"/><path class="cls-1" d="M198.59,230.71c-.92,1.78-1.54,3.75-3.25,5-1,.74-1.91,1.9-3,2.16a11.61,11.61,0,0,0-5.23,3.08"/><path class="cls-1" d="M183.84,161.34l-1.5.12"/><path class="cls-1" d="M106.59,159.71c3.9,1.39,8.31,1.34,11.74,4,4.06,3.16,4.23,4.61,1,8.47a8.11,8.11,0,0,0-2,4.26"/><path class="cls-1" d="M122.84,182.46l5.25.5"/><path class="cls-1" d="M137.09,162a14.87,14.87,0,0,1-.7,9.53c-.49,1.21.66,3-.84,3.91a10.87,10.87,0,0,1-3.71.8,16.89,16.89,0,0,1-2.25,0"/><path class="cls-1" d="M117.09,178a4.68,4.68,0,0,0-4.19,2.78c-1.22,3-3.32,2.95-5.81,2.22"/><path class="cls-1" d="M139.59,155c.09,1.34,1.74,2.66,0,4a2,2,0,0,0,.73,1.16,4.64,4.64,0,0,0,2.71.48c3.67-1.25,6.28.81,9,2.56"/><path class="cls-1" d="M196.09,122a5.37,5.37,0,0,0-.24,1c-.18,4.07-.18,4.07-4.26,3.75-.75-.06-1.5-.16-2.25-.25"/><path class="cls-1" d="M138.84,132.21c.5.34,1,.91,1.5,1,3.33.34,3,2.78,3,5,0,.84.16,1.67.24,2.5"/><path class="cls-1" d="M126.34,148.46l2.48-4.9c-.42-2.29-2.5-3.15-4.73-3.85"/><path class="cls-1" d="M182.84,147.71c-2.28,1-2.15,1-1.33,3.53.25.75-.33,1.85-.69,2.72-.7,1.69-1.31,3.31.77,4.5"/><path class="cls-1" d="M107.09,165.21l2.57.88c-.66,1.32-1.12,2.21-1.76,3.48l9.94,4.14"/><path class="cls-1" d="M119.34,146.21c-2.9,2.56-6.06,1.87-9.25.75"/><path class="cls-1" d="M183.09,235.21c1.71-.21,2.38.54,2.29,2.26a10,10,0,0,0,.46,2.49"/><path class="cls-1" d="M203.47,243.21c.34-1.89.42-3.9,2.12-5.25"/><path class="cls-1" d="M202.59,153.21l-9.33,3.7a3.77,3.77,0,0,1-1.11-4.8,4.05,4.05,0,0,1,3.94-2.16c1.71,0,3.41-2.18,3.25-4"/><path class="cls-1" d="M185.59,106c.33,1.17,1.29,2.69.87,3.43a5,5,0,0,1-4.87,2.32"/><path class="cls-1" d="M207.09,246.21c-.46.81-.92,1.62-1.54,2.69-1.92.52-3.36-.72-4.71-2.19"/><path class="cls-1" d="M113.34,156a7.53,7.53,0,0,1,2.45.82,2.64,2.64,0,0,1,.52,1.93,27.65,27.65,0,0,1-.47,3.25"/><path class="cls-1" d="M132.34,202.46c-.42.67-.68,1.67-1.28,1.94a6.63,6.63,0,0,0-3.72,4.31"/><path class="cls-1" d="M170.59,120.46c0,1.5-.11,3,0,4.5.31,3.37-2.41,3.89-4.52,5"/><path class="cls-1" d="M142.59,151c.42,1.75.7,3.55,1.29,5.24a27.46,27.46,0,0,0,2,3.76"/><path class="cls-1" d="M117.84,202.71c.58.17,1.27.62,1.73.46,2.07-.76,2.88.25,3.27,2"/><path class="cls-1" d="M164.34,126c.33,1.17.7,2.33,1,3.51.14.56.37,1.41.1,1.71-2.6,2.86-1.2,5.44.42,8"/><path class="cls-1" d="M188.09,145.46c-2.09-.61-3.36,1.1-5,1.75"/><path class="cls-1" d="M165.09,164.71c-2.36.29-2.81,2.38-3.75,4"/><path class="cls-1" d="M174.59,167.21l2,.46c.14.79.3,1.79.47,2.79"/><path class="cls-1" d="M168.34,110.71a10.72,10.72,0,0,0,1,1.74c.87,1.06,1.86,1.66,3,.26"/><path class="cls-1" d="M145.34,153.46c.24,1.39,1.72,2.93-.5,4"/><path class="cls-1" d="M174.59,171.46l-3.75.25"/><path class="cls-1" d="M203.59,152c-.87-.2-1.36.22-1,1a30.74,30.74,0,0,0,2.21,3.27"/><path class="cls-1" d="M196.84,146.71l-1.75,3"/><path class="cls-1" d="M125.09,179.46l2.5,1"/><path class="cls-1" d="M157.84,156.21h2.75"/><path class="cls-1" d="M208.09,158l-2.62-1.25"/><path class="cls-1" d="M157.84,172.21l1.75.25"/><path class="cls-1" d="M178.59,169.71h3"/></svg>