<svg id="Layer_1" data-name="Layer 1" xmlns="http://www.w3.org/2000/svg" viewBox="0 0 229.23 539.41"><defs><style>.cls-1{fill:none;stroke:#000;stroke-linecap:round;stroke-linejoin:round;stroke-width:2px;}</style></defs><title>vene</title><path d="M101.36,296.34l-9-8.58-.62.19a10.92,10.92,0,0,0,0,2.29c.53,2.25,1.21,4.47,1.77,6.71,1.41,5.62,2.85,11.24,4.18,16.89,1.06,4.48,2.51,8.62,6,12s5.49,8.25,7,13.05c.46,1.46.87,2.93,1.3,4.4l-.59.31a8.39,8.39,0,0,1-1.16-1.87c-1.36-4.19-2.78-8.37-5.5-11.91a36.34,36.34,0,0,0-4.62-4.85,152.47,152.47,0,0,1,.5,28.33c-.47-19.27-4-38-9.45-56.31l-.88.06-.33,6.22-.46.07a4.18,4.18,0,0,1-.35-1c-.35-3.79-.51-7.6-1-11.36-.62-4.26-1.61-8.46-2.38-12.7-1-5.39-2.18-10.76-1.39-16.31a12,12,0,0,0-.09-2.23l-.85-.26c-1,1.85-2,3.66-2.87,5.55-1.81,4-3.42,8.13-5.3,12.11-2,4.21-1.49,8.39-.35,12.63.22.82.48,1.63.72,2.45l-.76.27L72.34,286c-2,6.28-1.27,14.56,2.06,24.11l.58-.91,4,18.29-.14.08A24.18,24.18,0,0,0,77,323.43c-2.72-4-2.91-8.79-4.43-13.15-.37-1.07-.87-2.09-1.55-3.68-1.11,1.6-2.3,2.63-2.57,3.85-.53,2.38-1.87,2.07-3.48,1.6a4,4,0,0,1-1.15-.48c4.16-.26,4.69-3.82,5.71-6.44.77-2,.47-4.61.06-6.83-1.47-7.94.89-15.15,3.85-22.27q3.63-8.75,7.39-17.43c2.22-5.1,4.67-10.1,6.74-15.26,1.26-3.15,2-6.51,3-9.78.9-3.1,1.92-6.18,2.61-9.33,1.14-5.18,2.11-10.4,3-15.62a51,51,0,0,0,.92-7.67,54.41,54.41,0,0,0-4.83-23.52c-1,2.11-1.81,4-2.75,5.8-2.24,4.35-5.09,8.48-6.68,13.06-1.53,4.41-2,9.24-2.5,13.93-.19,1.62.72,3.37,1.18,5,.95,3.42.73,4-2.91,6.43,1-1.66,2.11-2.81,2.25-4.08s-.66-2.78-1.23-4.81a49.69,49.69,0,0,1-2.41,4.81c-2.54,3.89-5.07,7.79-7.84,11.51-2.5,3.37-3.21,7.21-3.69,11.18-.06.48-.12,1-.21,1.62-1-1.59-1-4-.38-6.2,1.49-5.56,4.44-10.31,7.88-14.84a27.15,27.15,0,0,0,5.25-12.47c.68-4.26,1.5-8.49,2.29-12.88l-2.12-.46a10.26,10.26,0,0,1,1-1.5,41.32,41.32,0,0,0,9.08-13c1.77-4.29,2.67-8.59,1.64-13.36-1.23-5.72,0-11.3,1.87-16.87,2-5.82,5.26-10.76,8.88-15.48,3.16-4.13,6.92-7.8,10.43-11.66a2,2,0,0,1,1-.69,17.78,17.78,0,0,1,2.31,0c-.14.68-.07,1.51-.45,2-1.91,2.41-4,4.68-5.9,7.07-2.49,3.12-5,6.23-7.29,9.48-2.44,3.46-1.19,7.18.21,10.52,1.76,4.19,4.13,8.14,6.29,12.16a10.34,10.34,0,0,0,1.35,1.68c.09,2.05.31,3.93.23,5.8-.16,3.39-.51,6.77-.77,10.15-.1,1.3-.2,2.6-.28,3.9-.12,1.73,1.27,3.77-1.07,5.06-.18.1-.19.62-.18.94,0,3.33.11,6.66.1,10,0,1.52-.15,3-.23,4.55l-.79,0a38.2,38.2,0,0,1-.6-4.48c-.08-4.67-.16-9.34,0-14A35,35,0,0,1,106.4,181c1.39-6.15,1.51-12.11-1.72-17.85-2.12-3.76-3.93-7.69-5.8-11.58a37.73,37.73,0,0,1-1.37-4.09c-.72,1.31-1.25,2.15-1.68,3a29.09,29.09,0,0,0-2.69,11.3c-.26,5,1.18,9.5,2.61,14.12s2,9.39,4.1,13.54c2.33,4.61.75,9,.78,13.44,0,3.11-.65,6.23-.91,9.35-.09,1.1-.27,2.32,1.37,2.83a2.55,2.55,0,0,1,.42,2.26c-1,1-.57,2-.35,3a96.74,96.74,0,0,1,2.21,10.7,119.67,119.67,0,0,1,.38,13.4c-.08,6.32-.37,12.64-.58,19a8.23,8.23,0,0,1-.47,2.8c-1.41-8.27-1-16.58-1-25l-1.59,3.42-.85-.24c1.46-4.44,3.31-8.87,2.39-13.57-.89-4.52-2.2-9-3.33-13.46-2.33,8.29-4.64,16.4-6.9,24.52s-4.09,16.64-3.95,25.28a49.51,49.51,0,0,0,1,10.32c.94,4.14,3.81,7.33,6.5,10.5,1.78,2.1,3.69,4.07,5.53,6.1.49.54.94,1.1,1.41,1.65Z"/><path d="M65.19,321.66c-.54-2.5-1-5,1-7.35l1.49,2.7C64.92,317.57,66,320,65.19,321.66Z"/><path class="cls-1" d="M96.56,216l-.37,1.75"/><path class="cls-1" d="M94.06,227l-.37,1.25"/><path class="cls-1" d="M90.06,241l-.37,1.25"/><path class="cls-1" d="M81.94,258.86c-1.67,3.95-3.36,7.9-5,11.87-1.85,4.49-4,8.89-5.39,13.53-1.22,4.24-2.16,8.69-.91,13.23a23,23,0,0,1,.3,4.49c.17,2.52,1.3,4.72,2.19,7a51.78,51.78,0,0,1,2.27,8.24c.6,3,2.3,5.56,3,8.49.21.83.34,1.67.51,2.5"/><path class="cls-1" d="M97.69,145.73c1.82,1.79,1.44,4.42,2.5,6.5,1.75,3.42,3.22,7,5.32,10.21,2.68,4.08,2.86,8.53,2.62,13-.19,3.43-.94,6.83-1.44,10.25"/><path class="cls-1" d="M106.69,186c-.25,4.67-.53,9.33-.74,14-.09,2.08,0,4.17,0,6.25"/><path class="cls-1" d="M86.56,273.48c-.78,2.44.9,4.48,1.13,6.75"/><path class="cls-1" d="M91.81,295.48c2.84,7.27,4.09,14.95,5.9,22.5.38,1.61,1,3.17,1.48,4.75"/><path class="cls-1" d="M101.19,216.73c-1-.73-1.7-.38-1.7.75a13.85,13.85,0,0,0,.69,2.75c1.34,6.1,3,12.08,2.6,18.51-.49,7-.26,14.16-.34,21.24,0,2.25,0,4.5,0,6.75"/><path class="cls-1" d="M99.69,323a4.38,4.38,0,0,0-.74,3.5c1.59,8.18,1.78,16.46,1.74,24.75,0,.83,0,1.67,0,2.5"/><path class="cls-1" d="M100.19,323.48c6.41,5.28,9.27,12.59,11.5,20.25"/><path class="cls-1" d="M92.69,174.73A11,11,0,0,0,91,177.24a56.46,56.46,0,0,1-7,13.24"/><path class="cls-1" d="M81.69,194c-.17,1.33-.3,2.67-.51,4-.65,4.17-1.12,8.38-2.07,12.48a25.78,25.78,0,0,1-3,7A131.25,131.25,0,0,1,68.9,228.7c-3,4.1-3.83,8.65-3.71,13.53"/><path class="cls-1" d="M90.44,286a11.52,11.52,0,0,1,3,1.54c2.84,2.74,5.54,5.63,8.29,8.46"/><path class="cls-1" d="M79.19,212a17.81,17.81,0,0,1,1.47,2.26c.31.69.19,1.59.56,2.22a2.09,2.09,0,0,1-.51,3,14.87,14.87,0,0,0-1.77,2.22"/><path class="cls-1" d="M72.69,283.23c.25.33.74.69.71,1a11,11,0,0,0,1.76,7.27c.19.29,0,.81,0,1.23"/><path class="cls-1" d="M90.19,295.73l-.5,8"/><path class="cls-1" d="M66.19,314.23c-.34,2.17-.7,4.33-1,6.5a5.31,5.31,0,0,0,.23,1.5"/><path class="cls-1" d="M71.19,305.61c-.84.95-1.7,1.89-2.49,2.88-.56.7-1,1.49-1.51,2.24"/><path class="cls-1" d="M102.44,239.48c-1,.3-1.79.61-1.82,2a12.33,12.33,0,0,1-.93,3.25"/><path class="cls-1" d="M68.44,311.73h-5"/><path class="cls-1" d="M75.19,308.73l-.5,3"/><path class="cls-1" d="M100.44,190.23l-.25,2"/></svg>