<svg id="Layer_1" data-name="Layer 1" xmlns="http://www.w3.org/2000/svg" viewBox="0 0 606.36 878.54"><defs><style>.cls-1{fill:none;stroke:#000;stroke-linecap:round;stroke-linejoin:round;stroke-width:2px;}</style></defs><title>vene</title><path d="M186.2,498.06a24.64,24.64,0,0,1,1.37-3.4c2.06-3.62,5.32-6.13,8.48-8.7,1.17-.95,3-1.28,2.9-3.31,0-.13.17-.4.25-.39,3.3.21,3.61-4,6.8-4.41s3.94-3.8,5.33-6.19c2.29-3.93,2.52-8.31,2.21-12.75,0-.74-.07-1.5-.18-2.23-.59-3.79-1.16-4.28-5-4.37l-1.73-.08a6.25,6.25,0,0,1,1-.36c3.87-.18,4.73-1.44,3.64-5.2-.69-2.38-1.43-4.77-1.93-7.2a51.74,51.74,0,0,1-1.52-9.59,37.49,37.49,0,0,1,1.23-10.34c1.05-3.88,3-7.52,4.35-11.32s2.12-7.55,3.69-11.1a25.15,25.15,0,0,1,8.64-11.06c1.37-.93,2.91-1.89,4.49-.24,1.15,1.21,1.1,2.85-.15,4.79-1.84,2.84-4,5.51-5.49,8.53A34.27,34.27,0,0,0,221,412.75c-.38,9.15,1.88,17.8,4.51,26.37.68,2.22,2.39,4.15,3.78,6.12,2,2.78,3.62,6,6.21,8,3.14,2.44,3.28,6.29,5.6,8.94A16.05,16.05,0,0,0,243.4,464c.95,5.79,2.1,12.14,5.94,17.7-1.71.08-1.76,1.67-1.69,3.1.39,7.48-2.4,14.15-5.14,20.84C239.39,513.24,238.24,521,241,529c.27.78.71,1.5,1,2.29a5.12,5.12,0,0,1,.22,2.54,19.23,19.23,0,0,1-5-12.33c-.26-4.42.33-8.89.55-13.57-1.75,3.15-3.66,6.22-5.22,9.46a33.56,33.56,0,0,0-2.78,21.15c.72,3.91,1.67,7.78,2.49,11.68a3.07,3.07,0,0,1-.19,1.61,34.5,34.5,0,0,1-4.24-12.06,60.1,60.1,0,0,1-1.1-12.86c.26-4.17,1.71-8.26,2.3-12.51-5.48,3.7-7.12,9.26-7.35,16.07-2.18-6.47-.24-12.85,5-17.77a80.16,80.16,0,0,0,6.57-6.46c5.4-6.44,8.5-13.82,8.27-22.37,0-1.81-.25-3.62-.38-5.43h-.84l-.57,4.3c-1.55-1.74-1-3.33-.43-4.67,1.79-3.91,1.59-6.11-1.15-9.26-1.15-1.32-2.27-2.67-3.5-4.12,1.53-.61,1.5-1.47.39-2.72a46.74,46.74,0,0,1-3-4.21l-2,.53c.4,4,.93,8,1.13,11.9a34.68,34.68,0,0,1-.52,6.65c-1.27,8.75-4.82,16.63-9.26,24.18-3.2,5.45-6.48,10.88-9.33,16.52a52.29,52.29,0,0,0-5.88,21.21,29.33,29.33,0,0,0,7.61,21.73,108,108,0,0,1,10.11,13.24,40.35,40.35,0,0,1,5.72,16.88c.22,1.73.31,3.47.47,5.21l-.94.2a10.78,10.78,0,0,1-1-2.52,43.44,43.44,0,0,0-8.67-21.18c-2.39-3.25-5.34-6.09-8-9.11l-.6.17a8.49,8.49,0,0,0,0,2.42c1.22,4,2.56,7.87,3.84,11.81,2.92,9,6.1,17.95,6.49,27.57.12,3.13,1,6.28.78,9.37-.32,4.84-.86,9.74-3.25,14.16-.11.2-.34.34-.9.87a23.44,23.44,0,0,1,0-2.55c.54-4.28,1.75-8.58,1.52-12.81a109.92,109.92,0,0,0-2.71-17.7A101.1,101.1,0,0,0,212.51,584c-2.18-6-4.71-11.91-6.68-18-1.75-5.44-2.87-11.08-4.39-16.6s-.92-10.93-.86-16.4c.06-5.15,1.92-9.93,3.82-14.66a18.29,18.29,0,0,0,1.25-3.91A26.75,26.75,0,0,0,202,517c-3.39,3.33-6.8,6.71-8.38,11.33a31.49,31.49,0,0,0-1.51,7.25,49.63,49.63,0,0,0,2,18.72c1.57,5.39,3.35,10.72,4.84,16.14.74,2.68,1,5.49,1.61,8.77-.78-.47-1.17-.57-1.24-.77-2.67-8-5.06-16.15-8.06-24a49.85,49.85,0,0,1-3.19-17.8A27.1,27.1,0,0,1,194,519.5a48.25,48.25,0,0,1,8.51-8.33A82.73,82.73,0,0,0,210,505a26.14,26.14,0,0,0,4.22-6.12,117.66,117.66,0,0,0,5.86-12.13c.91-2.28.87-4.93,1.26-7.41l-.66-.17L219.4,481c-.83-2.85,1.42-2.89,2.75-3.63,1.78-6.41.89-12.83-.51-19.05-1.06-4.66-2.13-9.34-3.28-14s-2.3-9.35-3.41-14a63.66,63.66,0,0,0-2-7.56c-.28,1.75-1,3.56-.76,5.26.57,4.68,1.47,9.33,2.3,14,.65,3.59,1.32,7.18,2.13,10.73.42,1.81,1.36,3.5,1.73,5.32s.76,3.68.24,5.24a107.92,107.92,0,0,1-4.71,11.23,52.83,52.83,0,0,1-3.28,5.5c-.15.25-.54.34-.8.53-2.06,1.5-4,3.12-6.18,4.48-1.8,1.13-3.9,1.78-5.67,3a48.4,48.4,0,0,0-4.53,3.86c-1.25,1.08-2.59,2.07-3.76,3.23s-1.91,2.21-2.86,3.33l-.6-.27"/><path class="cls-1" d="M192.68,553.33c.87,3.17,1.69,6.35,2.64,9.5,1,3.35,2.21,6.65,3.21,10,.62,2,1,4.16,1.52,6.24"/><path class="cls-1" d="M219.68,603.33c.37,3.75,1.17,7.52,1,11.25-.18,4.22-.2,8.59-2.35,12.52a9,9,0,0,0-.54,2.48"/><path class="cls-1" d="M227.93,529.83a38.06,38.06,0,0,0,2.07,14,76.11,76.11,0,0,1,2.05,8.23"/><path class="cls-1" d="M219.8,570.58a38,38,0,0,1,8.25,17.75c.51,2.59,1,5.17,1.5,7.75"/><path class="cls-1" d="M198.8,485.58c-1.5,1.17-2.92,2.46-4.51,3.48-3.44,2.19-5.55,5.5-7.74,8.77"/><path class="cls-1" d="M238.93,511.83a31,31,0,0,0,2.37,20.26c.3.64.5,1.33.75,2"/><path class="cls-1" d="M221.3,530.58c.3-3-.2-6,.89-9a17.23,17.23,0,0,1,6.15-8.65c.74-.53,2-.39,3-.56"/><path class="cls-1" d="M213.8,451.58l-7.5.5"/><path class="cls-1" d="M249.3,481.58l-4.5-.5"/><path class="cls-1" d="M219.55,481.08c0-3,.18-3.06,3.5-2"/><path class="cls-1" d="M240.3,477.33c-1.24,1.61-1.13,3.41-.75,5.25"/><path class="cls-1" d="M237.8,464.33l-3.5.5"/><path class="cls-1" d="M209.55,429.33l-.75-.12"/></svg>