<svg id="Layer_1" data-name="Layer 1" xmlns="http://www.w3.org/2000/svg" viewBox="0 0 612 792"><defs><style>.cls-1{fill:none;stroke:#000;stroke-linecap:round;stroke-linejoin:round;stroke-width:2px;}</style></defs><title>vene</title><path d="M193.15,234.21a106.93,106.93,0,0,0-5.34-9.38c-2.42-3.66-4.89-7.36-9.33-9a1.75,1.75,0,0,1-1-1c-.29-1.14-.57-2.12-2.08-1.9a.91.91,0,0,1-.7-.55c-.57-2.54-2.69-3.44-4.66-4.52-1-.56-1.91-1.38-3-1.84s-2.32-1.05-3.32-.82c-4.76,1.08-9.49,2.34-14.2,3.68-4.16,1.19-6.92,4.38-9.84,7.3-.88.89-.89.88-2.12.4l3.2-4.93H129.61c2.43-1.83,4.59-2.65,7.22-1.91a4.82,4.82,0,0,0,2.7-.2c3.92-1.33,7.78-2.84,11.72-4.11,2.81-.92,5.7-1.56,9.23-2.5a15,15,0,0,0-2.51-1.81c-4.95-2-9.83-4.2-14.92-5.66a27.6,27.6,0,0,0-12.53-.9c-7.6,1.3-15.31,2-23,2.83a25,25,0,0,0-11.09,3.46c-1.76,1.12-2.75,2.54-2.64,4.45.35,6.06-3.35,9-8.2,11.16-.58.26-1.17.48-1.75.72l-.39-.45a18.59,18.59,0,0,1,1.58-1.5c1.57-1.23,3.26-2.31,4.77-3.62,1.84-1.62,2.24-3.71,1.56-6.35-6.8,5.32-14,6.7-22,3.45,2.82-1.41,5.78,1.29,8.94-.4l-6-4.2.06-.44a6.73,6.73,0,0,1,1.74,0,8.1,8.1,0,0,1,2,.93c6.41,4.05,8.53,2.28,13.54-1.71,2.39-1.91,4.8-3.81,7.25-5.64,1.4-1,1.45-2.29-.1-3-4.5-2.14-9-4.27-13.54-6.3a35.32,35.32,0,0,0-21.72-2.4,11.29,11.29,0,0,1-2,.29c-3.41,0-6.74.11-8.47,4l-.47-.21-.86-3.42c-2.83-.23-5.11,3.53-8.31.82l3-1.33.34-.7-2.42-1.2.39-.88c1.14.07,2.27.12,3.4.24,1.45.16,3.41,1,4-.63.32-.9-1-2.61-2-3.68-.56-.66-1.71-.82-2.69-1.23a1.37,1.37,0,0,1,2.34-.73,24,24,0,0,1,3.25,2.7c2.75,2.77,5.68,4.34,9.82,3.13,2.1-.61,4.47-.23,6.71-.41a6.39,6.39,0,0,0,2.93-1.15c-5.68-2.7-9.72-6.51-11.18-12.51l.46-.45L62.42,171l1.31-2.42.71.2c0,.67-.07,1.35-.13,2a5.46,5.46,0,0,0,3.3,5.88c6.49,3,13,6,19.51,8.85,5,2.17,10,4.25,15,6.08,3.41,1.23,6.93,2.1,10.71,1.1,2.78-.74,5.72-.88,8.58-1.35,1.26-.21,2.49-.6,3.73-.9v-.59c-2.71-1-5.43-1.88-8.11-2.89-11.17-4.17-22-9-30.95-17.15a63.12,63.12,0,0,1-9-10.64c-1.77-2.55-4.15-4.23-6.33-6.24a42.81,42.81,0,0,1-3.65-3.73,6.9,6.9,0,0,1-.83-2.06l.79-.57c1.06,1.21,2.06,2.47,3.21,3.58a5.41,5.41,0,0,0,1.87.72,15.07,15.07,0,0,0-.19-1.79c-.16-.75-.41-1.48-.63-2.22l.7-.36A14.46,14.46,0,0,1,73.23,148q3.13,5.22,6.22,10.48a8.76,8.76,0,0,1,.49,1.13l.58-.41.84-8.55.47-.07a6.91,6.91,0,0,1,.38,1.38c.09,1.58.2,3.16.14,4.74-.24,6.6,4.49,9.78,9,13.1a53.11,53.11,0,0,0,5.26,3.34c1.81,1,3.68,2,5.56,2.93a6.51,6.51,0,0,0,1.85.29l.35-.49c-1.07-1.19-2.12-2.38-3.21-3.55-2.43-2.61-5-5.09-7.27-7.84a8.32,8.32,0,0,1-1.42-7.3l.91,3.12,1.91-3.13c.06,3.37-.75,7.05,3.53,9.26,0-.86.11-1.39.08-1.92-.21-3.48-.58-7-.64-10.45a11.81,11.81,0,0,0-1.66-6.42,12.32,12.32,0,0,1-.85-2.38A6.18,6.18,0,0,1,100,151a47.59,47.59,0,0,0,.53,6.23c3.09.28,2.39-4.1,5.49-3.52-.51,1.95-.51,3.63-2.41,5-3.07,2.2-3.06,6-.75,10.16a28.52,28.52,0,0,0,16.77,14c7.59,2.4,15.32,4.36,23,6.49.62.17,1.27.21,2.45.4L142.74,187a71.67,71.67,0,0,0-5.65-6.6c-1.86-1.73-4.34-2.77-6.28-4.43a78.26,78.26,0,0,1-5.83-6c-.16-.18,0-.62-.09-1.43,3.71,3.26,6.77,6.82,11.61,8.07a4.27,4.27,0,0,0-.21-5.28c-2-2.4-4.36-4.53-6.54-6.79-1.18-1.22-2.33-2.47-3.5-3.71l.61-.69,4.44,3.25,1.21-4.68a17.5,17.5,0,0,0,.65,2.87,18.32,18.32,0,0,0,2.39,4.76c2.55,3,4.52,6.15,4.2,10.33-.22,2.81,1.44,4.94,3.18,6.79a106.11,106.11,0,0,0,8.17,7.7"/><path d="M172.08,201.38A23.61,23.61,0,0,0,176,203l.27-.56a30.82,30.82,0,0,1-3.12-3.88c-2.47-4.41-4.87-8.87-7.11-13.4a23.77,23.77,0,0,1-2.1-6.11c-1-5.59-4.33-9.48-8.93-12.34a85.92,85.92,0,0,1-11.27-7.84,10.32,10.32,0,0,0-3.28-1.69c-2.69-1-7-5.72-7.37-8.72l5.86,5.3.66-.39c-.62-3.19-2.11-6.32-.92-10,.63,2.28,1,4.24,1.73,6.09s1.31,3.79,2.6,5a79,79,0,0,0,8.73,7c3.21,2.32,6.6,4.4,10.41,6.92.38-4.86.22-9.54,1.24-13.94s.2-9.38,3.9-13.46c-.27,3.06-.51,5.75-.81,9l4.69-3.26.56.56a11.69,11.69,0,0,1-1.72,2,10.77,10.77,0,0,0-4.83,9.8c.18,3.58-.15,7.18.12,10.75a36.38,36.38,0,0,0,4,13c.46-1.63.82-3.29,1.41-4.87a10.87,10.87,0,0,1,4.66-6c3.23-1.84,5.75-4.22,6.65-8a.73.73,0,0,1,.62-.49c1.07,3.55-.88,6-3.18,8.42,1.58,2.08,4.06,1.33,6,2.45a9.43,9.43,0,0,1-5.49.23c-4.08-1-4.95-.44-5.54,3.61-.12.86-1,1.62-1.55,2.42l-.56-.3c0,1.5-.08,3,0,4.49.06.68.39,1.77.83,1.91,1.81.55,1.55,1.89,1.56,3.2,0,3.5,1.21,5.9,4.23,8.43l.57-2.35.45-.09a7.38,7.38,0,0,1,.6,2.7c-.38,2.08.59,3.55,1.8,4.94,1.67,1.91,3.43,3.73,5.08,5.65.4.47.46,1.22.77,1.79q4.42,8.08,8.88,16.15c.07.13.28.17.77.46.95-5,5-9.09,3.66-14.64l-1,3.15-.93-.19c.11-1.24-.08-2.61.4-3.69,1.84-4.21-.28-6.94-3.1-9.62a23.58,23.58,0,0,1-2.59-3.53l.65-.64,2.8,1.56v-5.94l.79-.09a58,58,0,0,0,1.23,5.89c.6,2,1.54,3.82,2.57,6.3.74-2,1.25-3.43,1.76-4.84h.56a8.13,8.13,0,0,1,.12,2.13c-.26,1.21-.88,2.36-1.07,3.57a4.13,4.13,0,0,0,.33,2.74c.81,1.14.59,2.09.59,3.36,0,5.49-2.68,10.23-3.92,15.35a12.82,12.82,0,0,0,.75,8.53c2.84,6.41,3.77,13.23,4.19,20.13a21.87,21.87,0,0,1-.48,4.95c-.22,1.39-1.23,1.87-2.58,1.75s-1.68-1-1.9-2.2"/><path class="cls-1" d="M126.74,160.39c1.71,2.67,4.82,3.68,7,5.79,3,3,5.88,6.13,4.54,11"/><path class="cls-1" d="M140,182.14l4.25,4.5"/><path class="cls-1" d="M56.24,184.52l3.75-.13"/><path class="cls-1" d="M60.24,184.39l7.25-.75c1-.1,2-.16,3-.25"/><path class="cls-1" d="M72,147.14c.65,1.54,1.92,2.88,1.5,4.75"/><path class="cls-1" d="M75,154.64l5.25,6.5"/><path class="cls-1" d="M133.24,148.64c1.45,2.45,3.11,4.71,5.76,6a5.17,5.17,0,0,0,1.49.27"/><path class="cls-1" d="M144,157.14c3.42,2.5,6.83,5,10.25,7.5,1.74,1.26,3.5,2.5,5.25,3.75"/><path class="cls-1" d="M160.74,204.52c-5.32.89-10.53,2.1-15.25,4.87"/><path class="cls-1" d="M142,211.64l-3.5,4.75"/><path class="cls-1" d="M94,200.64a20.82,20.82,0,0,1-11.5,7.75"/><path class="cls-1" d="M82.24,208.39a9,9,0,0,1-2.48-.53c-2-1.07-3.82-2.35-5.79-3.44a5.93,5.93,0,0,0-2-.28"/><path class="cls-1" d="M203.24,211.89c-.08,1-.12,2-.26,3-.3,2.09-.21,4.39-1.1,6.2a37.62,37.62,0,0,0-2.67,7.54c-.12.47-.64.85-1,1.26"/><path class="cls-1" d="M92.24,203.39c1.28,5.5.11,8.09-4,10.74-1.53,1-3.16,1.85-4.74,2.76"/><path class="cls-1" d="M125.24,168.64c.29,2.66,2.67,3.68,4.29,5.21a16.46,16.46,0,0,0,8,4.29"/><path class="cls-1" d="M171,147.64c-1.58,1.17-3.41,2.12-4.68,3.57a8.7,8.7,0,0,0-2,4.44c-.42,3.47-.41,7-.58,10.49"/><path class="cls-1" d="M142,210.64a7.78,7.78,0,0,0-1.5-.23c-1.83,0-3.67.11-5.5.25-.84.06-1.66.39-2.5.46-1,.09-2,0-3,0"/><path class="cls-1" d="M64,169.14c-1.71,4.39-.45,7.18,4,9a24.53,24.53,0,0,1,4.1,2c.51.33.62,1.28.91,1.94"/><path class="cls-1" d="M139,143.14c-.77,2.93.15,5.58,1.21,8.27a15.8,15.8,0,0,1,.54,3.48"/><path class="cls-1" d="M81.74,150.14c0,3,.05,6,0,9a10.57,10.57,0,0,1-.72,2.5"/><path class="cls-1" d="M69,208.64c2.83.34,5.66.74,8.5,1a7.71,7.71,0,0,0,2.5-.7"/><path class="cls-1" d="M95.49,156.64c-.33,1.17-.63,2.35-1,3.5-.93,2.86.38,5.42,4,7.75"/><path class="cls-1" d="M167,140.64c-.17.84-.34,1.67-.5,2.5-.42,2.25-.87,4.5-1.22,6.76-.06.38.3.83.47,1.24"/><path class="cls-1" d="M182.49,163.14a8.36,8.36,0,0,1-3.73,7.78c-.4.29-.52,1-.77,1.47"/><path class="cls-1" d="M99.74,148.64c-1.51,3.34-.49,6.67,0,10"/><path class="cls-1" d="M100,161.64v6.75"/><path class="cls-1" d="M198,193.64a1,1,0,0,0,0,.25c0,.16.78,8.13.75,8.25"/><path class="cls-1" d="M46.62,185.14l3.62-.5"/><path class="cls-1" d="M52,182.39c-1.36-2.24-2.64-4.58-5.5-5.25"/><path class="cls-1" d="M173.49,180.64c-.18-.93-.37-1.86-.59-3-1.67,1.17-1.79,2.64-2,4.24a18.12,18.12,0,0,1-1.19,3.75"/><path class="cls-1" d="M172.49,177.64a20.26,20.26,0,0,1,2-3.47c1.76-2,2.23-1.65,5-.64,2,.72,4.29.45,6.46.61"/><path class="cls-1" d="M67,146.64a8.22,8.22,0,0,0,6.25,6"/><path class="cls-1" d="M132.49,158.14c-.08,2.17-.17,4.34-.25,6.5"/><path class="cls-1" d="M96.24,145.14l2.88,4.75"/><path class="cls-1" d="M92.49,156.64c.09,1.75-.41,3.65,1.25,5"/><path class="cls-1" d="M194.49,198.89c2.55,2.48,5.92,4.24,7,8a10.21,10.21,0,0,1,.48,2c.13,1.61.69,2.74,2.52,2.75"/><path class="cls-1" d="M59.74,168.14c.8,1.78,1.31,3.75,3.25,4.75"/><path class="cls-1" d="M204.24,201.14a7.68,7.68,0,0,1-2,6.25"/><path class="cls-1" d="M201.74,210.89c-2.14,1-.7,3.1-1.5,4.5"/><path class="cls-1" d="M52,184.89l-1,4.25"/><path class="cls-1" d="M179.74,195.64c-.52,1.38,1.15,3-.5,4.25"/><path class="cls-1" d="M105.49,154.14c-1.47,2-2.53,4.4-5,5.5"/><path class="cls-1" d="M41.49,186.89c1.84.55,3.51.48,4.75-1.25"/><path class="cls-1" d="M46,184.89l-3.5-1.5"/></svg>