<svg id="Layer_1" data-name="Layer 1" xmlns="http://www.w3.org/2000/svg" viewBox="0 0 438.91 449.77"><defs><style>.cls-1{fill:#fff;}.cls-2{fill:none;stroke:#000;stroke-linecap:round;stroke-linejoin:round;stroke-width:2px;}</style></defs><title>vene</title><path d="M204.61,244.67l-2.88-1.82a58.47,58.47,0,0,1,6.64-1c2.48-.1,5,.27,6.77,2.34.11.12.24.23.36.35,4.83,5.11,7.95,2,9.9-2.79.28-.69.37-1.45.65-2.14,3-7.36,4.42-7.1,10.12-6.89,3.62.13,7.16.23,10.05-3.24l-3.14-.72a94.53,94.53,0,0,1-10.1-2.4,15.79,15.79,0,0,1-5.34-3.58c-3.48-3.3-7.36-3.29-11.32-1.5-5.71,2.58-10.27-.37-13-4.2-2.27-3.2-4.14-3.55-7.64-1.55-1.58.91-3.06,2-4.68,2.84a23.6,23.6,0,0,1-5.72,2.29c-2.39.48-4.58.82-5.49,3.51-.19.58-.76,1-1.62,2.14.6-3.33-1-3.8-3.25-3.75,2.16-.29,4.4-.29,5.62-2.38a2.57,2.57,0,0,0,.19-2.15,11.9,11.9,0,0,0-3-3.91c-3.05-2.07-2.75-4.56-1.79-6.93l3.53,5.31c.73,1.1,1.38,2.27,2.2,3.31,2.94,3.7,6.29,3.37,8.89-.91l-1.73-1.47c4,1,7.28-1.08,10.87-2.25L196.12,206l-4.13.27c-.08-1.22.21-2.9-.37-4.2s-2.05-2.52-3.28-3.94c2.84-.57,3.77,1.66,5.34,2.93-3.06-4.13-3.72-9.67-8.12-13.51-.4,1.33-.67,2.23-.93,3.13l-.48.16a7.19,7.19,0,0,1-.64-2c0-1.72-1.11-1.67-2.36-1.79s-2.27.15-2.62,1.6c-.2.85-.51,1.68-.77,2.53l-.53-.19c.21-.88.43-1.76.66-2.72a39.31,39.31,0,0,1-4.92.37c-1,0-2.48-.37-2.76-1-.37-.81.27-2.06.48-3.13.57.14.82.13.86.22,1.1,2.48,1.09,2.46,3.68,1.72,2.05-.59,4.12-1.11,6.42-1.73L179.42,179c2.4.42,2.77,1.88,3.21,3.12.54,1.49,1.28,2.34,2.73,1.66l2.39,2.86,2.36-6h-2l.42-2.35-2.27-.82c2.4-2,4,.87,6.21-.08-.28,1.35-.43,2.29-.67,3.2-.45,1.75-.05,2.79,2,2.64a3.21,3.21,0,0,1,1.53.35c-2.27.73-4.47,1.43-4.64,4.29-.1,1.73.81,2.77,2.46,3.87.49-1,.91-1.83,1.32-2.66,1-2.12,1.56-4.52,4.4-5.29,1.53-.4,1.74-2.14.34-3.15a20.54,20.54,0,0,0-4.55-1.89l4.75-2,2.89,5.44c.77-.66.77-.66,1.55-6.89.11,1.61.22,3.21.34,4.82h.39c.44-.91.88-1.83,1.51-3.12.3,2.82.32,2.71,2.68,3,1,.14,1.85.86,3.16,1.5l-2.7,1.55c-.77-.57-1.52-1.54-2.23-1.51s-1.33,1.11-1.71,1.87c-.56,1.14-1.31,2.46-1.19,3.61.32,3-1.76,4-4.43,4-3.16,0-4.75,2.48-3.5,5.47.35.81.28,1.8.63,2.61,1.16,2.63,2.58,5,6.16,4.36l-2.71.58,2.74,1.36-.13.5-1.3.23,2.16,3.63,1.22-4.13.87.15a20.58,20.58,0,0,1-.4,2.85c-1.07,3.88,1.85,8.8,5.79,9.32,1.14.15,2.4-.46,3.59-.76,2.61-.67,5.22-1.36,7.83-2l0-.52c-1.37-.48-2.71-1.08-4.11-1.42-2.46-.61-4.61-1.51-5.28-4.38l-6.2-.49c1.37-2.2,5.19.42,4.83-3.58l1.67,1c1.32-1.58,2.12-2.92.25-4.75-1.33-1.3-.93-2.09,1.08-3.14l-.51-2.23.49-.3c.34.42,1,.87,1,1.26-.21,2.84,1.27,4.67,3.39,6.2.17.12.21.43.42.87l-3.19,2.95,1.62,2h-2.45c2.31,2.72,5.14,3.07,8,3.42,1.28-5.88-.21-12.85-4.95-14.82,1.89-1.89,3.67-1.62,4.73.73a3.85,3.85,0,0,0,.24.7c.72,1,.7,3,2.89,2.18,2.54-1,3-1.6,2.38-3.94h4.84c-2.11,2.22-3.95,4.15-5.78,6.09-.48.51-1.37,1.06-1.36,1.57.1,3.69-.8,7.4.85,11.06s4.7,5.62,8,7c2.83,1.21,6.05,1.51,9.21,2.23-1.41-3.53-2.6-6.68-3.92-9.77-2.13-5,.24-12.31,4.18-15.69,3.21-2.77,3.88-4.49,2.28-8.32A77.66,77.66,0,0,0,236,171.79c-3.17-3.86-7.49-6.78-11.35-10.06-2.27-1.93-4.64-3.75-7-5.6a4.63,4.63,0,0,0-1.49-.82c-2.34-.7-4.7-1.35-6.71-1.92.15-1.92.73-3.54.24-4.69s-2-1.94-3.2-2.43a19.82,19.82,0,0,0-4.33-.76l0-.64c1.39,0,2.77-.11,4.16-.12,3.07,0,3.81-1,2.9-4-.18-.58-.38-1.15-.73-2.24,2.34.92,2.68,2.58,2.93,4.09.34,2.13.38,4.3.58,6.45.05.66,0,1.51.33,1.92a10.18,10.18,0,0,0,2.28,1.52,6.63,6.63,0,0,0,0-2.17c-1.06-3-.34-6.09,0-9.05.4-3.51,1.41-7,4.56-9.5l3.25,1.7.29.48c-3.34.57-5.46,2.18-5.46,5.89l5.5-1.47.43.9a12.1,12.1,0,0,1-2.43,1.45c-3.93,1.26-5,3.22-3.82,7.2a15.21,15.21,0,0,0,8.19,10c-1.47-3.79.15-6.74,2-9.65.75-1.2,1.47-2.42,2.23-3.68l1.27,1.19,4.35-4c.05.05.79.44.75.69-.31,1.71.31,2.87,2.26,3.43l-.4.53a8.34,8.34,0,0,1-1.77.23,8.72,8.72,0,0,0-8.3,5.16c-1.2,2.42-.49,6.29,1.85,8.51s5,4.34,7.51,6.51a12.52,12.52,0,0,1,1.41,1.41c2.19,2.6,2.12,2.48,5.06.95s4.14-3.82,5-6.71a24.18,24.18,0,0,1,1.76-3.76c.85-1.7,2-3.32,2.45-5.12a4.68,4.68,0,0,0-1.17-3.57,59.62,59.62,0,0,0-6.18-5.69,23.07,23.07,0,0,0-3.71-2l2.48-1.07.27-4,.62-.11c1.34,1.93.58,5,3.63,6.57l1.22-2.3c.43.5.64.67.61.72-1.52,2.69-.12,4.27,2,5.79a14.35,14.35,0,0,1,2.37,2.81l4.09-2.11c-.38-2.12-3.1-3.27-1.75-5.59.52-.87.3-2.4,1.82-2.53.16.19.27.29.25.31-1.8,2.86,0,4.79,1.6,6.93a2,2,0,0,0,2.92.78c1.42-.61,1.34-1.48.8-2.6a3.65,3.65,0,0,1-.19-.94l.47-.26,1.6,3c3.48-.35,1.83-4.08,3.65-5.52,1.7,4.43-.62,8-5.42,8.47-.74.07-1.5,0-2.25.07-3.29.24-6,1.26-6.84,5.22l5.93.69v.78a14.12,14.12,0,0,1-3,.25c-4.54-.55-6.59,2.07-7.43,6.08-.75,3.64-2.3,6-5.58,7.65-2.16,1.06-2.28,3-1.09,5,2.52,4.38,5,8.79,7.25,13.33s1.19,8.51-2.31,12.07c-4.77,4.86-5.49,9.72-2.56,15.88.59,1.24,1.15,2.49,1.94,4.22a12.16,12.16,0,0,0,1.36-2c3.14-8.65,9.45-14.06,17.74-17.47a28.25,28.25,0,0,0,3.37-1.63c1-.59,1.17-1.41.09-2.12-.91-.59-1.92-1-2.82-1.62q-4.77-3.17-9.48-6.42A2.16,2.16,0,0,1,258,189l4,1.81v-6.61l.88-.08.81,2.6,1.74.1c-1.37,3.75-.56,5.86,3.2,8,2.15,1.22,4.65,1.88,6.07,4.2a1.48,1.48,0,0,0,1.33.35A107.36,107.36,0,0,0,287,196c4.16-1.71,4.83-5,2.19-8.67a28.62,28.62,0,0,1-2.22-3.28,3.86,3.86,0,0,0-4.54-2.21c-1.94.35-3.88.73-6.27,1.19L273.89,181l.12-.51a20.53,20.53,0,0,0,2.7.25,15.21,15.21,0,0,0,2.37-.45c-.17-.75-.34-1.5-.52-2.25-.06-.29-.12-.57-.24-1.08,2.07.35,2.19,3.66,4.88,2.62a23.45,23.45,0,0,0-6-9c-2.61-2.25-4.9-4.93-8.73-5.4l.22-.59,2.11-.87a12.53,12.53,0,0,1,1.73-9.25c.44-.72,0-2.06-.22-3.06-.32-1.37-.47-2.56,1.22-3.44.08,1.11.14,2,.21,2.82l.66.46,1.33-2.58.75.45a13.4,13.4,0,0,1-.54,2.47c-.81,2-1.68,4-2.64,5.92-1.22,2.46-.24,6.54,2,8,1.16.76,2,.08,1.87-.91-.4-2.41,1.1-4,2.28-5.53a12.67,12.67,0,0,0,2.23-11.35c-.72-2.81,0-4.57,2.19-6.69-.49,1.65-.85,2.87-1.22,4.1,2.93-.75,3.22-4.42,6.66-4.8a62.25,62.25,0,0,0-3.41,5.9,25.22,25.22,0,0,0-1.39,5.2c-.48,2.43-.81,4.89-1.27,7.7,1.92-1.43,5.68.19,5.23-4.75,1.71,1.53,2.45,4.1,4.61,2.34,1.19-1,1.85-2.47.47-3.9l1.9-2.58c1.61,2.12.44,4.56.61,6.91,1.64-.25,2.53-2.94,4.38-1-3,3.15-7.22,2.51-10.84,3.62-2.83.86-5.7,1.7-8.43,2.82-1.45.59-1.94,3.43-1,5.19,1.12,2.11,2.48,4.1,3.75,6.18,2.06-1.24,3.93-2.25,5.66-3.47.5-.35.62-1.27.85-1.95s.43-1.49.64-2.24l.5.07v2.82l2.77.76-4.76,2.57c-3,1.66-3.35,3.9-1.39,6.76,2.43,3.55,5.12,7,6.05,11.37.48,2.27.82,2.31,2.87,1.17a25.09,25.09,0,0,0,11.46-13.33,2.77,2.77,0,0,0-.76-3.39c-1.59-1.33-3.28-2.53-4.91-3.82-.62-.5-1.64-1.06-1.68-1.65a31.49,31.49,0,0,1,.3-7.36c1.73,2.15-.07,5.78,3.05,7.1,1.77-1.4,3.39-2.75,5.1-3.95.4-.28,1.14-.06,1.73-.06-.21.52-.28,1.19-.66,1.52a14.36,14.36,0,0,1-2.65,1.83c-1.4.78-1.29,1.8-.54,2.9a17,17,0,0,0,1.36,1.46c.94,1.09,1.84,1.09,2.62-.11,2.25-3.47,6-5.24,9-7.79s6-5.22,9.05-7.83c1.45-1.25,1.74-2.56.33-4.06-.45-.48-.68-1.19-1.17-1.61-2.31-2-1.56-4.37-.64-6.86,1.2,2.78.78,6.59,5.13,7.51,2.24-3.59,5.13-7.1,4.55-12.21,2,.71,1.81-1.66,3.36-3-.33,1.94-.47,3.38-.84,4.76-.46,1.74.24,2.34,1.85,2.29,1.29,0,2.57-.12,4.2-.21-.75,1.6-1.61,2.32-3.06,2a3.88,3.88,0,0,0-4.43,2c-1,1.7-2,3.45-3.1,5.12-1.31,2-2.72,4-4.07,5.95-.4.59-.72,1.22-1.17,2,2.1,1,4,.69,5.8.3.49-.1.93-.49,1.4-.51,2.16-.06,3-1.12,2.66-3.21,0-.27.21-.59.55-1.45l.78,2.75,4.38-2.05a2.65,2.65,0,0,1-1.65,3.19c-2.41,1.12-4.82,2.22-7.28,3.21-1.56.63-1.14,1.87-1.08,3,.07,1.39,1.12,1.51,2.18,1.32,1.49-.26,3-.62,4.43-.94l.25.86c-1.17.41-2.34.81-3.5,1.23-2.86,1-2.88,1.13-1.13,3.48a2.37,2.37,0,0,1,.56,1.43c-1.46-.95-3.24-1.59-3.6-3.63-.94-5.35-1.1-6.63-7.27-4.69a19.14,19.14,0,0,0-5.7,3c-4.79,3.68-9.15,7.74-10.9,13.88a58.06,58.06,0,0,1-2.7,6.29c1.94-.79,3.34-1.34,4.73-1.92.92-.39,1.84-.8,2.72-1.25,3.46-1.78,6.63-.45,9.83,1.13a11,11,0,0,1,1.52-2.09,2.41,2.41,0,0,1,1.84-.65c1.9.53,3,0,3.47-1.93v10.56h-.54c0-.59,0-1.17,0-1.76a16.63,16.63,0,0,0,.15-3,10.49,10.49,0,0,0-1-2.41c-.79.33-1.6.61-2.35,1-.34.19-.51.68-.85.9-1.63,1.11-1.77,2.28.28,3.76-2.23.15-3.11-1.19-4.15-2-3.82-3.14-5.34-2.31-8.33-.89s-6.47,2.51-9.7,3.78a12.41,12.41,0,0,0-3.07,1.53c-5.82,4.52-12.49,7.16-19.52,9.16-4,1.14-8,2.72-11.9,4.25a70.15,70.15,0,0,0-7.21,3.32c-5.89,3.12-9.1,8.31-10.91,14.51a13.35,13.35,0,0,0-.21,2.53c2.67.75,3.91-1.19,5.4-2.45,2.72-2.29,5.14-5,8.08-6.94,4.22-2.81,9.1-3.45,14.13-2.73,1.07.16,2.15.2,3.22.35,2.24.31,3.8-.71,5.17-2.36,3.69-4.49,7.25-4.74,11.71-.94,2.59,2.21,5.72,1.2,6.33-2.11.48-2.61.76-5.26,1.14-7.88,3.77,0,6.23-4.07,10.35-3.27-.22,1.92-4.06,1.06-2.77,3.9A5.22,5.22,0,0,0,310,207.3a4.1,4.1,0,0,0,0,1c.45,3.29-.51,5.75-3.89,6.85-.2.07-.34.31-.82.76,1.46.62,2.69,1.54,4,1.61,4.29.25,8.61.37,12.9.19a6.39,6.39,0,0,0,5.43-3.92,5.18,5.18,0,0,0,.31-3.25c-.76-2.88-.05-4.42,2.74-5.62a45.51,45.51,0,0,1,5-2.22c-1.59,2.41-5.42,2.78-5.58,7.06,2.43-1.21,4.67-1.78,5.29-4.68l1.36,2c1.21-2.86,3.33-4.3,5.4-3.82,1.36.31,2.13,2,1.8,4.12l-3.9.66c.38,1.29.74,2.52,1.24,4.25a8.25,8.25,0,0,1-2.08-.75c-1.16-1-2.26-2.3-3.91-1.62-2,.81-3.92,1.77-5,3.91-.91,1.85-2,3.6-3.2,5.65a11,11,0,0,1,1.5,1.81,33.71,33.71,0,0,1,1.94,4.18c.35.92.28,2,.68,2.89.88,1.93,1.91,2.18,3.88,1.24,1.08-.52,2.21-.94,3.32-1.4l.36.47-3,2.84,5.48.4,0,.7c-2.13,1.12-4.67.93-6.8.57s-3.9-2-6.2-3.36l-1.8,1.18c-.8-1.43.2-2.1.84-2.86a3.6,3.6,0,0,0-1.43-5.7,17.84,17.84,0,0,0-10-1.37,21.36,21.36,0,0,1-9.58-.9c-2.93-1.07-5.46-3.39-8-5.42s-3.67-2.08-5.64.72c-2.44,3.47-5.72,4.67-9.76,4.16-1.31-.16-2.58-.75-3.89-.79a18.78,18.78,0,0,0-14.65,6.28l-4.15,4.33c4.19,0,8,0,11.74,0,3.32,0,6.66-.13,9.94.22a6,6,0,0,1,5.15,4.15c1.15,3,4.06,3.77,6.85,4.28a6.46,6.46,0,0,0,5.86-1.31,9.35,9.35,0,0,1,2.79-1.18l.27.55L301,237.58c3.13,2.11,4.83,1.95,7.74-.32a9.5,9.5,0,0,1,2.92-1l.38.74a40.45,40.45,0,0,1-3.42,3c-2.28,1.59-2.38,1.73-1,4.1.19.34.35.7.6,1.2-1.59.65-2.23,0-2.19-1.32a2.64,2.64,0,0,0-2.45-2.92c-1.62-.32-3.32-.95-4.88-.72a16.66,16.66,0,0,1-9.89-1.44,12.46,12.46,0,0,0-1.24,3.09c-.48,4.55-2.59,9-.75,13.72a6.79,6.79,0,0,0,4.37,3.77,3.39,3.39,0,0,0,3-1,27,27,0,0,1,11.69-8.25c1.44-.56,3.11-.53,4.61-1,2.27-.68,4.49-1.55,6.73-2.32.58-.2,1.18-.35,1.76-.52l.4.59-2.71,2.58,10,2.06c-5.14,1.72-9.9-.45-14.69,0,3,6,8.72,6.36,14.77,6.9-4,2.15-7.84.21-11.24.73-.86-.94-1.75-2-2.7-2.92a23.86,23.86,0,0,1-2.53-2.38c-1.1-1.48-2.32-1.56-3.93-1a18.74,18.74,0,0,0-9.78,7.34c5.09,1.92,9.87,4.06,14.84,5.51s10,2.21,15.17,3.67a22.72,22.72,0,0,1-4.46.45c-2-.19-2.6.49-2.19,2.39a2.14,2.14,0,0,1-.63,1.81c-.11-.6-.23-1.2-.35-1.8a3,3,0,0,0-2.6-2.62c-2.26-.43-4.47-1.1-7.11-1.78.21,3.43-2.44,6.62.93,10a3.08,3.08,0,0,1-3.44-2.78c-.42-1.83-1.22-2.31-2.95-1.95a5.49,5.49,0,0,1-1.95-.32v-.74c1.09-.14,2.18-.26,3.27-.43,2.42-.39,3-1.75,1.38-3.61-2.22-2.52-5.42-3.11-8.49-3.78-2.36-.51-4.85-.49-7.12-1.21-4.19-1.34-7.78-3.47-8.21-8.58a22.17,22.17,0,0,0-.86-3.51l-.68-.28a25.58,25.58,0,0,0-2.72,2.58c-2,2.48-2,5.58-2.29,8.55a2.37,2.37,0,0,0,1.31,1.77,6.53,6.53,0,0,1,4.38,4.11,2.88,2.88,0,0,0,2.85,2c.75,0,1.49.22,2.23.22,2.83,0,3.61,2,4.41,4.08l-.31.54-3.8-2-1.87,1.76c-.3-2.1-1.5-2.94-3.39-3.46-.95-.26-1.71-1.69-2.27-2.75a5.16,5.16,0,0,0-4.31-2.74,2,2,0,0,0-1.63,2.78,12,12,0,0,0,2.5,4.52c3.41,3.23,3.95,7,2.69,11.2-.69,2.3-1.78,4.57.35,6.85a4.39,4.39,0,0,1-3.29-4.57c0-1.79,1-3.6,1.67-5.55l-2.15-.83c0-.19-.1-.41,0-.5,1.45-1.73,1-3.13-.59-4.5a22.17,22.17,0,0,1-2.52-2.77c-1.81-2.21-1.87-4.64-1-7.28s1.2-5.53,2.29-8.08a40.78,40.78,0,0,1,4.52-7.59c.67-.92,1.55-2.43,3.4-1.7.2.08,1.19-1.07,1.35-1.75a62.86,62.86,0,0,0,1-6.41c.4-3.57-1.47-5.87-5.07-5.9s-7.48.28-11.22.44-7.48.36-11.22.44c-1.52,0-2.44.41-2.88,2.07a10.24,10.24,0,0,1-5.85,7,33,33,0,0,0-3.57,1.78c-1.81,1.11-2.06,2.33-.72,3.9a73.49,73.49,0,0,0,5.77,6.19,3.73,3.73,0,0,0,2.95.4,50,50,0,0,0,4.88-1.88c1.95-.71,3.82,0,5.17,2.16a11.29,11.29,0,0,0-2-.26,21.9,21.9,0,0,0-4.06.52c-1.76.47-3.43,1.27-5.17,1.8a2.36,2.36,0,0,0-1.91,2.26c-.17,1.29-.8,2.51-1.09,3.8a27.17,27.17,0,0,0-.86,4.87c-.12,2.73.89,3.7,3.69,3.86a40.21,40.21,0,0,0,4.25.05c2.67-.12,4.15,1.38,5.11,3.61.37.84.56,1.75.92,2.59.73,1.71,1.8,2.84,3.92,2.87,2.68,0,4.25,1.73,4.37,4.44.08,2,0,3.93,0,5.89l-.58.22a21.41,21.41,0,0,1-1.6-3.86c-.91-4.5-.85-4.51-5.83-4.32-.64,4.88,2.16,8.6,4.5,12.47l-.4.46-2.86-1.18-1.91,2.45c0-1.09,0-1.59,0-2.08a16.67,16.67,0,0,0,.2-3.43c-.29-1.87-1.2-2.18-3-1.4a3.83,3.83,0,0,1-1.48,0c.23-.45.34-1.15.71-1.33,1.89-.91,2-2.33,1.67-4.18a51.84,51.84,0,0,1-.41-5.72c-.18-3-1.55-4.34-4.55-4.52-1.91-.12-4.19.45-5.65-.4-3.16-1.84-5.34-.54-7.85,1.08-2.28,1.48-4.86,2.53-6.52,5.12l3.08,3.55-3.17-.7c-.21,4.95,3.77,8.53,8.13,7.8a6,6,0,0,1,5.27,1.08l-5.43,1.46c-2.73.71-3.37,1.51-3.69,4.25a6.89,6.89,0,0,1-1.16,2.93c-1.23-1.73,0-5.22-3.86-4.28.89-1.47,2.18-2.65,2.08-3.7s-1.48-2.26-2.26-3.42a7.37,7.37,0,0,1-.56-1.3c-2.09,1.34-2.4,3.32-2,5.61l-.67-.1c-.28-.43-.53-.89-.85-1.3-1.58-1.95-1.31-1.73.31-3.73a8.5,8.5,0,0,0,1.86-5.21c-.13-4.36,1.81-7.09,5.56-8.86.83-.39,1.6-.89,2.42-1.3,3.14-1.54,5.15-3.61,4.79-7.56a12.62,12.62,0,0,1,1.2-6.05c1.41-3-.12-4.91-2-6.82-1.48-1.53-3-3-4.79-4.78-2.72,1.83-4,4.94-4.14,8.23-.13,2.51-.56,4.34-3,5.39-.46.2-.75.81-1.2,1.33l3.36,2.48-.27.6c-1.07-.29-2.17-.49-3.19-.88-1.59-.6-2.19.23-2.43,1.55-.17,1-.19,1.92-.3,3.19l-1.94-2.65-.31.45c.39-1.07.79-2.14,1.15-3.21a7.12,7.12,0,0,1,3.33-4.43,6.18,6.18,0,0,0,2.9-5c.43-3.69,1.47-7.11,4.72-9.48,1.11-.81,1.81-2.18,2.91-3,1.82-1.39,3.9-2.44,5.7-3.86a26.17,26.17,0,0,0,4.29-4.32c.48-.6.18-1.8.26-3.15a33,33,0,0,0-3.8,2.32,10.41,10.41,0,0,1-7.5,2.12c-1-.05-2,.06-3,0-3.07-.26-4.81,1.41-5.85,4-.42,1.08-.63,2.24-1.05,3.32-1.93,4.95-5.21,7-11.12,7.2-2.81.09-5.75-.06-8.39.7-7.13,2-6.84,6.64-5.06,11.89.46,1.34,1.21,2.68,1.22,4,0,1.17-.52,3-1.36,3.41a48.89,48.89,0,0,1-7.22,2.4l-.4-.83c.83-.55,1.64-1.15,2.52-1.63s1.71-.66,2.5-1.1c2-1.1,2.41-2.18,1.51-4.31-.41-1-1-1.88-1.66-3.24-3.42,3.1-7.39,2.55-11.28,2.77-1.87.1-3.71,1-5.77,1.58-.49-1.78-1.9-1.1-3.43,0,1.06-3.35,3.67-4.27,10.78-4.42a17.72,17.72,0,0,0-2.41-1.07c-.92-.27-1.89-.34-2.82-.71,2.55-1,4.95-.3,7.3.66,3.47,1.43,5.29.72,6-2.92.6-3,2.26-5.32,4.07-7.59s4.47-2.34,7-2.88c1-.22,2.11-.26,3.17-.39-.27-2.38-2.41-3.62-4.38-2.63s-3.69,1.94-5.5,3c-2.1,1.2-4.12,1.6-6.26,0a39.15,39.15,0,0,0-3.89-2.37l.41-.88a39.23,39.23,0,0,1,3.69,1.45C200.38,247.45,202.47,246.88,204.61,244.67Z"/><path class="cls-1" d="M197,187.77c1.35-.78,2.43-1.46,3.57-2,.85-.43,2-.75,2.19.53a3.08,3.08,0,0,1-1.09,2.61C200.26,189.62,198.66,189.39,197,187.77Z"/><path class="cls-2" d="M222.72,133.51l-4.32.2c-3,5.66-4.27,11.75-1.43,18.3"/><path class="cls-2" d="M341.72,232.51c-1.67,0-3.34.06-5,0-2.34-.11-4.56-.73-6-2.76a6.21,6.21,0,0,1-1.22-3.22c0-2.84-1.58-4.48-3.82-5.75"/><path class="cls-2" d="M321.47,219.38l-4.75.38"/><path class="cls-2" d="M215.22,246.26c-1.31-2.39-3.44-3.13-6-3"/><path class="cls-2" d="M206,245.26c-.42.33-.82.68-1.25,1-2.27,1.7-4.59,2.47-7.27.77a31.88,31.88,0,0,0-3.73-1.77"/><path class="cls-2" d="M328.22,190.76a9.83,9.83,0,0,1-2.46-1.78c-2.77-3.79-6-4.33-10-2.22-1.59.83-3.13,1.75-4.77,2.46a8.36,8.36,0,0,1-2.48.29"/><path class="cls-2" d="M298.47,262.88l1.75.38"/><path class="cls-2" d="M300.47,263.26l3.75,1.5"/><path class="cls-2" d="M307.72,267.51c.47,1.69,1.06,3.39-.18,5h-5.32"/><path class="cls-2" d="M218.22,197c2.06,0,4.28-.26,4.5,2.75,3.8,4.08,2.41,9,2.25,13.75"/><path class="cls-2" d="M319.22,198.76c-2.67,1.33-5.41,2.53-8,4.05a5.06,5.06,0,0,0-2.28,4.7c0,.5,0,1,0,1.5.08,2.83-1.17,4.59-4,5.28a9.94,9.94,0,0,0-2.26,1.22"/><path class="cls-2" d="M243.22,273c-2.42,1.5-4.89,2.92-7.23,4.53a16.27,16.27,0,0,0-3.45,3.28A2.25,2.25,0,0,0,233,283a24.56,24.56,0,0,0,3.7,2.06"/><path class="cls-2" d="M346.22,157c-1.55,2.55-4.3,3.36-6.77,4.45a15.43,15.43,0,0,1-9,1.55"/><path class="cls-2" d="M259.85,283.26c-.1,5.4,1.11,10.22,5.87,13.5"/><path class="cls-2" d="M202.1,261.76c.54,1.17,1.06,2.34,1.62,3.5,1.48,3.06.89,4.75-2.26,6-1.71.68-3.49,1.19-5.24,1.77"/><path class="cls-2" d="M326.72,251.51a24.61,24.61,0,0,1-11-1.21,5.57,5.57,0,0,0-5.73,1"/><path class="cls-2" d="M289.22,140.76a37,37,0,0,0-3.22,3,20.11,20.11,0,0,0-2.25,3.48,3.9,3.9,0,0,0-.5,2,17.54,17.54,0,0,1-2,10"/><path class="cls-2" d="M276.22,148.51c-1.33,2.92-2.46,6-4.05,8.72-2.18,3.8,1.2,10.83,5.3,10.53"/><path class="cls-2" d="M326.72,259a25.28,25.28,0,0,1-4,0c-2.36-.37-4.94-.49-6.94-1.59a15.07,15.07,0,0,1-5.44-5.2,2.57,2.57,0,0,0-3.57-1.05c-3.46,1.79-7.37,3-9.8,6.39-.81,1.12-1.51,2.32-2.26,3.49"/><path class="cls-2" d="M272.35,265.76c-.81,3.15.54,5.73,2.67,7.7,3.56,3.29,4.13,7,2.45,11.3a4.79,4.79,0,0,0,1.5,6"/><path class="cls-2" d="M240,247c-2.22-.18-3.72,1.31-4.66,2.81a15.51,15.51,0,0,0-2.62,8.19,3.62,3.62,0,0,1-1.9,3.35c-3.33,2.19-5.45,5.29-4.32,9.65"/><path class="cls-2" d="M261.72,255.51a5.21,5.21,0,0,0-6.25-.25,12.9,12.9,0,0,1-7.75,1.75"/><path class="cls-2" d="M237.72,146.26a31,31,0,0,1-3-1c-1.82-.79-2.59.77-3.77,1.5-2.59,1.6-4.59,3.61-5,6.77-.14,1.23-.48,2.8.09,3.67.74,1.13.32,1.89.14,2.83"/><path class="cls-2" d="M262.47,184c.33,2.5.67,5,1,7.5"/><path class="cls-2" d="M263.47,191.76c1.92,1.5,3.67,3.3,5.79,4.42,2.61,1.39,4.41,3.15,5,6.08"/><path class="cls-2" d="M274.47,263.51a21.71,21.71,0,0,1,3.23,1.28c1.18.7,2.62,1,2.85,3,.32,2.71,2.88,3,4.93,3.19a7.35,7.35,0,0,1,5.24,3.07"/><path class="cls-2" d="M312.22,237a3.27,3.27,0,0,0-2.85,1.16c-1.43,1.6-3.23,2.79-5.95,1.71a13.71,13.71,0,0,0-6.69-.52c-2.6.36-4.74-.52-7-1.32a18.32,18.32,0,0,0-3-.53"/><path class="cls-2" d="M199.72,214c.15-1.61-1.25-1.16-1.72-.94-2.39,1.12-5.08,1.6-7.07,3.65-1.83,1.9-3.92,3.2-7,2.93-2-.18-3.79,1.37-4.51,3.6a26.09,26.09,0,0,1-1.23,2.76"/><path class="cls-2" d="M203,184.26c.21,1.73.41,3.47.62,5.16a22.53,22.53,0,0,1-3.87.79,19.11,19.11,0,0,1-3.49-.52c-1.09-1.91.46-3.2,1.57-4.09s2.93-1.06,4.42-1.6a4.69,4.69,0,0,0,2-1c2.14-2.6,2.09-2.58,5-1.76.78.22,1.57,1.05,2.49.29"/><path class="cls-2" d="M232.47,283.26a4.78,4.78,0,0,0,.72,5.27,38.16,38.16,0,0,1,2.53,3.73"/><path class="cls-2" d="M235.72,296.51l-3,.75"/><path class="cls-2" d="M332.72,193c0-2.08,0-4.17,0-6.25-.07-2.28-.57-2.59-2.75-2a3.64,3.64,0,0,1-1.49-.23.4.4,0,0,1,0-.24,1.41,1.41,0,0,1,.24-.25"/><path class="cls-2" d="M319,269.26c-3.08-.92-6.16-1.87-9.26-2.72a4.9,4.9,0,0,0-1.74.22"/><path class="cls-2" d="M244.47,137a19.15,19.15,0,0,1,.47,3.25c-.05,3.65,3.1,5.09,5.12,7.16a26.65,26.65,0,0,1,4.16,4.59"/><path class="cls-2" d="M252.22,158.51c-2.12,1.65-2.65,4.09-3.25,6.5"/><path class="cls-2" d="M301.72,162c0,1.58-.06,3.17,0,4.75.14,2.79.75,3.43,3.74,4.25"/><path class="cls-2" d="M176.22,206c.05,1.76-.84,3.6.49,5.26.23.28.25.79.52,1,2.72,1.8,3.74,4.92,5.74,7.27"/><path class="cls-2" d="M233,196.76c-2.6,2.08-4.28,5.41-8,6"/><path class="cls-2" d="M346.22,144.26c-1.68,1.7-3.85.54-5.77.89a3.63,3.63,0,0,0-2.75,2.1c-1.36,2.28-2.81,4.51-4.23,6.76"/><path class="cls-2" d="M259.22,140.76c-2.35,2.09-2.58,3.43-.72,5.48.87,1,1.67,1.86,1.47,3.27"/><path class="cls-2" d="M260.72,282a6.42,6.42,0,0,0,4.27.82c2.12-.47,2.68,1.28,3,2.93.38,2.24.68,4.5,1,6.75"/><path class="cls-2" d="M335.47,202.51v.75c-1.84,0-2.84,1.49-4.24,2.26-2.93,1.61-3.26,3.19-1.26,5.74"/><path class="cls-2" d="M185.72,260.51c1.92.33,3.84.63,5.75,1,1.05.21,2,.64,2,2"/><path class="cls-2" d="M341.22,211.76c-.67-.58-1.29-1.22-2-1.74a6.54,6.54,0,0,0-2.5-1.45c-2.3-.29-5.93,2.05-7,4.19a23.25,23.25,0,0,1-5.24,6.75"/><path class="cls-2" d="M196,189.76,195,192"/><path class="cls-2" d="M210,146.26l-8.25-1"/><path class="cls-2" d="M201,261l-4.75,2.75"/><path class="cls-2" d="M193,263.88l-3.75.13c-2.2.1-4.31.37-5,3"/><path class="cls-2" d="M253.72,156.76l8,.25"/><path class="cls-2" d="M209.22,138.51c.42,2,1.23,4,1.14,6s.83,3.92.7,6c-.19,2.84,2.77,4.09,5.91,2.74"/><path class="cls-2" d="M188.22,198c1.58,1.42,3.14,2.86,4.76,4.24a16.77,16.77,0,0,0,2,1.26"/><path class="cls-2" d="M300.72,156.26c-1,.05-2.12-.41-2.82,1-.23.46-1.24.66-1.93.76-3.25.46-6.51.81-9.75,1.29-1.68.24-3.33.65-5,1"/><path class="cls-2" d="M293.47,169.51c-1.08.67-2.09,1.65-3.27,1.94-2.61.63-4,2.44-5.23,4.56"/><path class="cls-2" d="M343.22,167l-7,1.75"/><path class="cls-2" d="M203.72,174.51c.08,2.25.17,4.5.25,6.75"/><path class="cls-2" d="M310.72,165.76c-1.33.83-2.68,1.64-4,2.51-.92.6-1.09,3.5-.25,4.23,1.47,1.28,3,2.51,4.49,3.76"/><path class="cls-2" d="M270,142a5.19,5.19,0,0,0-.24,1c0,2.21.29,4.77-2.29,5.67-2.11.73-4.48.67-6.71,1.11a22.61,22.61,0,0,0-4,1.25,8.54,8.54,0,0,0-1.76,1.22"/><path class="cls-2" d="M205.22,205.51c-.42,1.92-.83,3.83-1.25,5.75"/><path class="cls-2" d="M236.47,296.51V302"/><path class="cls-2" d="M307.22,272.76c-.15,2.16.41,4,2.5,5"/><path class="cls-2" d="M201.22,242.51l5.5,2"/><path class="cls-2" d="M195.72,183.51l-5.25.75"/><path class="cls-2" d="M305.72,240.76a12.17,12.17,0,0,1,.71,2.5,2,2,0,0,0,1.79,2"/><path class="cls-2" d="M258,189.26c1.49,1.37,3.06,2.59,5.25,2.5"/><path class="cls-2" d="M180.72,180l2.5,5.25"/><path class="cls-2" d="M179.35,222.76l-5.13-.25"/><path class="cls-2" d="M223.22,139l-6.75,2.5"/><path class="cls-2" d="M326.72,268.76l-6,.25c-1.86.08-2,.45-1.54,2.26a16.55,16.55,0,0,1,.29,3.24"/><path class="cls-2" d="M198.72,178.76l-5,.25"/><path class="cls-2" d="M328.22,144.51c-1,4.29,1.11,7.25,4.25,9.75"/><path class="cls-2" d="M303.22,236c-1.66.42-3.47.65-3.75,2.87"/><path class="cls-2" d="M340.72,137l-1.5,4.75"/><path class="cls-2" d="M184.47,186.26V191"/><path class="cls-2" d="M285.47,179.76c-2,1.66-4.57.92-6.75,1.76-.69.27-1.33.66-2,1"/><path class="cls-2" d="M264.47,144.51c.33,1.58.67,3.17,1,4.75"/><path class="cls-2" d="M178.22,187a6.5,6.5,0,0,1-1,4.5"/><path class="cls-2" d="M214.22,195.76c2.23,1.07,1.08,2.73.75,4.25"/><path class="cls-2" d="M247.22,293.51a17.67,17.67,0,0,0-4-.44,45.87,45.87,0,0,0-5.51,1.19"/><path class="cls-2" d="M291.72,166a5.15,5.15,0,0,0-.5,4.5"/><path class="cls-2" d="M184.72,265c-1.95-.64-3.27-.11-3.75,2"/><path class="cls-2" d="M334.47,163.51c.58,1.83,1.65,3.67,1.63,5.5,0,2.27,1.43,3.2,2.62,4.5"/><path class="cls-2" d="M228.72,264.76l4.5,2.25"/><path class="cls-2" d="M295.47,150c-.33,2.5-.67,5-1,7.5"/><path class="cls-2" d="M203.72,203.51l-4,.25"/><path class="cls-2" d="M211.72,208h-4"/><path class="cls-2" d="M269.22,164c.17.33.36,1,.5,1a21.49,21.49,0,0,0,2.5-.45"/><path class="cls-2" d="M231.47,287.76l-3,3.75"/><path class="cls-2" d="M273.47,148.26c-1.39,1.43-.92,2.73.25,4"/><path class="cls-2" d="M338,228.76l-3.75,3"/><path class="cls-2" d="M278.22,177.26l2.5,3.5"/><path class="cls-2" d="M329.22,228a3.71,3.71,0,0,0-2.75,3"/><path class="cls-2" d="M206.22,177c0,1.26-1.52,2.41-.25,3.75"/><path class="cls-2" d="M289.22,158.26a12.12,12.12,0,0,1,0-2c.17-1-.53-.71-1-.75"/><path class="cls-2" d="M217.47,209c-.33-.42-.74-1.23-1-1.19-2.3.4-3.62-.88-4.76-2.56"/><path class="cls-2" d="M283.72,141,282,144"/><path class="cls-2" d="M202.72,206.51c-.48-1.85-1.62-1.27-2.75-.75"/><path class="cls-2" d="M335.47,205c.08,1.08.17,2.17.25,3.25"/><path class="cls-2" d="M277,182l-3.25-1.25"/><path class="cls-2" d="M338.72,141.51c.08.58.2,1.16.24,1.75s0,1.33,0,2"/><path class="cls-2" d="M188.72,213.26l3,1.5"/><path class="cls-2" d="M250,141.51l-1.5,3"/><path class="cls-2" d="M199,176.51c.17.83.09,1.85.55,2.46a6.81,6.81,0,0,1,1.45,4.79"/><path class="cls-2" d="M318.72,247l-3,2.25"/><path class="cls-2" d="M332.72,181c-.08,1-.17,2-.25,3"/><path class="cls-2" d="M286,271.51c-.17,1-.33,2-.5,3"/><path class="cls-2" d="M193.72,204.76c-1,.43-2,.92-2,2.25"/><path class="cls-2" d="M262.22,294.26c-.42,1.25-.83,2.5-1.25,3.75"/><path class="cls-2" d="M190.22,179l-2,2"/><path class="cls-2" d="M229,144c.33,1,.67,1.92,1,2.87"/><path class="cls-2" d="M341,156.51c.08,1.25.17,2.5.25,3.75"/><path class="cls-2" d="M230.72,293.51l-1.5,1.5"/><path class="cls-2" d="M171.22,185l-.25,2.51c2.37,1.44,4.68.15,6.71-.62,3.76-1.41,7.12-1.77,10.3,1.09.23.21.66.19,1,.27.75-2.42,1.59-4.82,2.2-7.26.15-.57-.44-1.32-.69-2"/><path class="cls-2" d="M333.72,207.51c-.08.58-.17,1.17-.25,1.75"/><path class="cls-2" d="M228,291.63l1.5,1.88"/><path class="cls-2" d="M278.47,163.26l-1.75.25"/></svg>