<svg id="Layer_1" data-name="Layer 1" xmlns="http://www.w3.org/2000/svg" viewBox="0 0 412.23 467.69"><defs><style>.cls-1{fill:#fff;}.cls-2{fill:none;stroke:#000;stroke-linecap:round;stroke-linejoin:round;stroke-width:2px;}</style></defs><title>vene</title><path d="M123.81,182.57c3.55-.12,6.54,2.16,7.18,4.81a44.42,44.42,0,0,1,1.24,6.84c.28,3.39,2.11,4.95,5.49,4.28a46.28,46.28,0,0,1,4.87-1,8.75,8.75,0,0,1,4.35.45,12.89,12.89,0,0,0,10.38.78,72.45,72.45,0,0,1,7.21-1.58c-1.71-3.13-3.21-6.36-5.19-9.25-.71-1-2.54-1.59-3.94-1.78a11,11,0,0,1-6.69-3.58,15.85,15.85,0,0,1-2.77-5.18,19.21,19.21,0,0,1-1.38-5.78,8.28,8.28,0,0,1,1.3-4.38c1-1.71.87-3-.55-4.15a18.65,18.65,0,0,0-4.31-2.95c-2-.82-2.72-2.21-2.63-4.5,3,2.49,6.17,4.88,9,7.57.66.62.5,2.24.51,3.41,0,.51-.63,1-.76,1.54a27.51,27.51,0,0,0-.39,2.89c.93.11,1.86.25,2.79.33s1.82.09,2.72.14c2,.1,3-1,2.87-3.08a16.33,16.33,0,0,1,.4-4.84,2.23,2.23,0,0,1,2.94-1.62c-.89,1.14-1.94,2-2.25,3s0,2.44.08,3.68c.15,3.29-.38,3.85-3.8,4a12.71,12.71,0,0,0-2.48.18c-1.73.42-2.5,2.43-1.92,4.23a9.8,9.8,0,0,0,8.33,6.95c3.85.62,6,2.82,7.38,6.18.75,1.85,1.48,3.7,2.19,5.57,1.35,3.57,4.34,5.62,7.43,7.26,3.83,2,6.31,4.8,6.95,9.09.61,4.1,1.3,8.19,1.67,12.3.59,6.5,5,10.55,11.21,11.43a67.13,67.13,0,0,0,9.51.57,10.28,10.28,0,0,1-2.54-7.39,8.38,8.38,0,0,1,2.08-5.72,16.05,16.05,0,0,0,2.25-3.26c1-2.08.48-3.41-1.66-4.41-1.06-.5-2.17-.87-3.23-1.34-3.79-1.69-5.1-5.12-3.25-8.84a11.41,11.41,0,0,1,2.36-3.16c2.82-2.64,2.44-5.44-1-6.95-.38-.17-.77-.34-1.13-.54a37.19,37.19,0,0,0-3.48-1.95,29.64,29.64,0,0,0-3.64-1.12c0-1.11.35-2.34-.07-3.2-1.12-2.29-.12-4,1-5.78a19.72,19.72,0,0,0,1.38-2.08c.62-1.27.83-2.59-.46-3.62a43.05,43.05,0,0,1-4.62-3.58,10.75,10.75,0,0,1-2.28-4c-.71-2.15-1.94-4.21-1.28-6.7.35-1.33-.58-2.64-.22-4.19a2,2,0,0,0-2.5-2.49,2,2,0,0,1-1.64-.67l2.18-.91a6,6,0,0,0-5.17-3.34,42.25,42.25,0,0,1-6.86-.78,6.39,6.39,0,0,1-4.65-4.15c-.49-1.4-.67-2.9-1.12-4.32-.21-.67-.58-1.56-1.12-1.8-2.06-.93-3.15-2.65-4.08-4.52a5.15,5.15,0,0,0-3.86-2.77c-3.65-.83-5.57-3.32-5.78-7.28,2,2.91,3.85,5.65,7.63,6.49,1.52.34,2.72,2.21,4,3.43a29.84,29.84,0,0,0,2.68,2.71A4.61,4.61,0,0,1,165,141.7c.56,4.39,1.75,6.65,6.18,7.14.5.06,1,.17,1.48.24,1.4.2,2.82.31,4.2.59a9.64,9.64,0,0,1,3.7,1.11c1.11.79,1.79,2.16,2.94,3.11a10.23,10.23,0,0,0,1.12-9.73,9.55,9.55,0,0,0-9.27-6.67,21,21,0,0,1-6.3-1.43c-6.31-2.32-6.88-6.64-4.85-11.83a16.46,16.46,0,0,0-.65-13.69c-1.88-4-4-7.82-6.06-11.73a8.22,8.22,0,0,1-.4-1.28c.45.1.78.08.86.21,2.87,4.94,6.18,9.7,8.41,14.92,1.8,4.23,1.34,9-.44,13.4-1.38,3.44-.22,6.33,3.27,7.68a26.69,26.69,0,0,0,4.57,1.27c2.83.55,5.69,1,8.81,1.49.32-1.8-1.9-4,.33-6.27.09.86.15,1.35.2,1.84a8.05,8.05,0,0,0,.2,2.16c.9,2.32,1.89,4.61,2.9,6.88a19.19,19.19,0,0,1,1.37,10.24,46.15,46.15,0,0,0,0,4.76c-1.54.76-1.28,2.57-1.43,4.65a13.2,13.2,0,0,0,1.13,7.48,11.16,11.16,0,0,0,2.5,3.27,58.44,58.44,0,0,0,5.23,3.56l.24-3.83.41-.1c.35.8.69,1.6,1,2.39a6,6,0,0,0,2.89-7.24,30,30,0,0,1-1.69-7.25,8.26,8.26,0,0,1,1.74-5.2A89.19,89.19,0,0,1,207,146.6c.6-.58,1.23-1.13,1.83-1.7,1.92-1.84,2-2.9.17-4.83s-4.17-3.8-5.2-7.21c.76.62,1.11.86,1.41,1.15,1.56,1.5,3,3.09,4.66,4.49,3,2.54,2.9,5.75-.12,8.19-2.26,1.83-4.32,3.88-6.57,5.72-2,1.63-2.83,3.85-3.53,6.17-.89,3,1.25,7.9,3.58,8.83a28.13,28.13,0,0,0-1.46,3.23c-.39,1.26-.49,2.47-1.93,3.26-2.92,1.58-2.92,1.82-2.4,5.15a12.68,12.68,0,0,0-4.71,7.76c-.17.77,1.19,2.12,2.13,2.84a13.59,13.59,0,0,0,4,2.06c.66.22,1.56-.24,2.52-.43.75,2,1.76,4.11,2.38,6.36.68,2.48-.68,4.51-2.1,6.41-.29.4-.69.72-1,1.1-2.7,3.19-2.17,5.21,1.75,6.75.7.28,1.38.59,2,.92,4.82,2.41,5.54,6.67,2.05,10.84a10.83,10.83,0,0,0-2.53,4.69c-.59,3.22,1.32,5.92,4.67,7.4,2.36,1,4.79,1.93,7.12,3,3.37,1.56,6.29,3.69,8,7.23l.59-.19c0-2.27.08-4.54,0-6.81-.17-4.34.73-8.22,4-11.42a8.73,8.73,0,0,0,1.8-3.52,3.07,3.07,0,0,0-1.58-4,8.39,8.39,0,0,1-2.87-3,3.17,3.17,0,0,1,.85-3.88c1.5-1.46,1.1-2.66,0-4.33-3.49-5.4-5.8-11.2-4.62-17.86.08-.48.07-1.13.37-1.4,1.5-1.35,1.15-2.79.47-4.33-.07-.15.11-.42.67-.84.83,1.69,2.09,3.32,2.33,5.08.16,1.25-1,2.74-1.72,4-1.1,1.95-1.46,3.81-.32,5.89,1.65,3,3.11,6.07,4.77,9a4.47,4.47,0,0,1-.16,5.32c-1.35,1.9-1.2,2.51.74,3.88,2.48,1.77,3.68,4,3,7.07-.35,1.56.16,2.34,2,2.1,4.67-.6,5.88-2.23,5.54-6.92-.27-3.64.19-7.21,3.56-9.59a5.87,5.87,0,0,0,.72-.69c4.43-4.47,4.06-7.36-1.26-10.72a12.78,12.78,0,0,1-2.31-2.17c-.84-.9-1.62-1.86-2.51-2.88l1.75-.68c-.74-2.12-.69-4.08,1.77-5.78-1.46-1-2.58-2.19-3.95-2.72-2.95-1.13-5.67-2.44-7.52-5.38,3.9-2,1.58-5.65,1.86-9,1.85,1,2.45.13,2.66-1.29.47-3.12.93-6.24,1.4-9.42a3.41,3.41,0,0,1,.61,1.22c.27,3.11.72,6.26-.68,9.25-1.13,2.41-1.08,5.19-2.57,7.54-.65,1-.34,2.43,1.37,3.18a35.74,35.74,0,0,1,6.55,3.81c2.2,1.61,3.59,3.76,3.07,6.57.35.83,1.13,1.76.95,2.47-.21.89-1.2,1.59-1.91,2.43l3.31,2.83c.84-1.75,1.31-3.41,2.31-4.62s1.39-2.81,3.35-2.83a8.11,8.11,0,0,0,2.39-.83l-.15-.74-4.07.46c3.84-2.78,4.18-3.52,5.81.71.23-4.6,3.82-5.23,6.39-6.82,3.1-1.9,3.86-3.8,2.54-7.27a33,33,0,0,1-1.56-5.43c-.39-2,.81-3.46,1.94-5,1.84-2.43,1.62-3.09.19-5.82-2-3.8-3.66-7.77-5.45-11.68-.08-.18.05-.47.47-.93.35.64.69,1.29,1.06,1.92,1.72,2.91,3.3,5.92,5.2,8.71,1.75,2.57,2.35,6,.53,8.37-2.47,3.27-2.56,5.32.06,9.54l1-2.69.64,0a10.85,10.85,0,0,1,.08,2.6,31,31,0,0,1-1.43,5c-1.21,3-2.86,5.73-6.25,6.85a4.19,4.19,0,0,0-3.09,4.07c-.15,2.5-.77,3-3.26,3.09-.75,0-1.51,0-2.24.07a3.77,3.77,0,0,0-3.48,3.86,47,47,0,0,0,0,4.75,7.08,7.08,0,0,1-2.52,6,21,21,0,0,1-1.77,1.76c-3.36,2.26-3,5.81-2.87,9,.16,3.47-1.7,6.94-5.14,7.88a31.82,31.82,0,0,1-5.64,1,3.84,3.84,0,0,0-3.59,3,20.93,20.93,0,0,0-.93,5.37c-.13,5.17-.21,10.34,0,15.5.3,8.85-2.26,16.88-6.55,24.47-.66,1.18-1.38,2.07-3.19,1.22.6-1.76,1.09-3.5,1.79-5.15,2.35-5.54,4.4-11.14,4.37-17.28a17.16,17.16,0,0,0-13.17-17,38.7,38.7,0,0,0-8.1-1c-4.84-.15-9.66-.31-14.27-2-1.93-.71-3.23.33-4.31,1.63-.9,1.08-1.52,2.38-2.32,3.55-2.8,4.1-5.85,4.24-9,.43-1.58-1.88-3.1-2.24-5.8-1a9.31,9.31,0,0,1-6.18.49c3.12-1.08,5.81-2.2,8.6-2.88.92-.23,2.17.55,3.17,1.06a11.57,11.57,0,0,1,2.16,1.69c2.37,2,4.23,1.68,5.85-.92,1.13-1.81,2.54-3.44,3.68-5.24a2.14,2.14,0,0,0,.09-1.93c-2-2.27-4-4.51-6.11-6.58-1.11-1.06-2.51-.85-4-.18-3,1.38-6.12,2.65-9.35,1.09a25.86,25.86,0,0,1-6.17-4.09c-2.67-2.44-4.51-2.53-6.85.27-3,3.55-4.2,3.95-8,1.67-4-2.42-8-3-12.33-1a2.46,2.46,0,0,1-.9,0l-.14-.57a28.73,28.73,0,0,1,3.35-1c.88-.17,1.86.1,2.73-.1a10.1,10.1,0,0,0,2.23-1.16,8,8,0,0,0-1.57-2.22c-1.23-.82-2.7-1.28-4-2a5.13,5.13,0,0,1-1.95-1.87c4.35,1.86,9.09,2.71,12.1,7.13,2.1,3.09,5.35,3.77,7.3-.37,1.36-2.87,4.84-3.32,8-1.28a25.63,25.63,0,0,1,3.07,2.55c3.35,3,6.53,3.37,10.58,1.61,1.66-.72,3.65-.7,5.51-.91a13.08,13.08,0,0,1,2.52.25c-.65-4.71-1.08-9.22-1.93-13.65a8.42,8.42,0,0,0-4.62-5.88c-2.25-1.21-4.24-2.91-6.49-4.13a11.92,11.92,0,0,0-9.39-1.12,13.64,13.64,0,0,1-10.2-.48,8.19,8.19,0,0,0-5.55-.52,30.69,30.69,0,0,1-6.19.58c-2.77,0-4.11-1.36-4.49-4-.36-2.45-.61-4.92-1.09-7.34-.44-2.21-1.51-4.05-3.87-4.8-.74-.23-1.46-.55-2.19-.83Z"/><path d="M226,174.44a28.08,28.08,0,0,1,1.47-11.63l.63.06-.84,11.64Z"/><path d="M269.4,172.16c1.62-2.68,4.49-1.47,6.39-2.68-.15-1.4-.3-2.72-.45-4l.59-.12a19.58,19.58,0,0,1,1,3.83,2.42,2.42,0,0,1-1.32,1.75,43.15,43.15,0,0,1-5.12,1.55C270.26,172.53,269.93,172.31,269.4,172.16Z"/><path class="cls-1" d="M135,284.1c.21-.47.45-1,.64-1.46,0-.12-.08-.31-.18-.68l-2.46.18c.94-1.26,2.14-1.28,2.91-.66s.81,1.69,1.33,2.91l1.62-2,2,1.54C139,285.13,137.14,286.27,135,284.1Z"/><path class="cls-1" d="M153.44,284.25l-2.36-2-1.81,3.64-.22.05a19.46,19.46,0,0,1,1.21-4.31c.22-.42,2.06-.51,2.65-.07s.71,1.76,1,2.7Z"/><path class="cls-2" d="M157.29,97.63c3.09,5,6.39,9.87,8.23,15.51a18.24,18.24,0,0,1,0,11c-.33,1.13-1.07,2.14-1.45,3.26-.64,1.9.72,4.75,2.72,6.25,2.69,2,5.86,2.49,9,2.68a13,13,0,0,1,7.13,2.46,10.31,10.31,0,0,1,3.23,5.88c.51,2.65,1,5.55-.36,8.22"/><path class="cls-2" d="M184.54,157.88c.1,3.8-.49,7.65,1.35,11.27.81,1.6,1.62,3.07,3.4,3.73"/><path class="cls-2" d="M123.54,182.63c2.71.72,5.47,1.4,6.48,4.51a17.91,17.91,0,0,1,.52,2.74c.34,2.09.69,4.17,1,6.25.23,1.53,2.13,3.35,3.76,3.22,2.34-.19,4.68-.58,7-1a7.33,7.33,0,0,1,4.79.69,11.91,11.91,0,0,0,10,.47c2.38-.92,5.28-.55,7.95-.6a2.93,2.93,0,0,1,2,1c2.24,2.65,5.37,3.86,8.23,5.56,2.14,1.27,3,3.77,3.87,6.14,1.37,3.61.63,7.39,1.4,11a25.73,25.73,0,0,1,.28,3.74"/><path class="cls-2" d="M187.79,235.76c5,1.9,10.24,2.15,15.5,2.08a6.62,6.62,0,0,0,2.25-1"/><path class="cls-2" d="M260.54,147.88c-.44,1.81.64,3.3,1.33,4.71,1.4,2.88,3.32,5.51,4.89,8.31.94,1.67,1.52,3.67,0,5.2-3.63,3.63-2.57,7.38-.73,11.29a5.6,5.6,0,0,1,.71,2.74c-.16,1.64-.35,3.4-2.18,4.27a20.79,20.79,0,0,0-2,1.23"/><path class="cls-2" d="M249.79,195.63c-1.91,1.24-1.48,3.59-2.5,5.25"/><path class="cls-2" d="M130.54,215.88l3,2c2.17,1.48,4.94,1.73,6.44,4.66,1,1.93,3.7,3.15,5.85,4.26,1.32.68,2.77-.17,3.71-1.42.36-.48.66-1,1-1.5,2.11-3,5-3.32,7.76-.76a33,33,0,0,0,3.76,3.24c2.89,2,6,2.51,9.22.75,3-1.67,5.9-1.73,8.76.27"/><path class="cls-2" d="M224,192.38c-1.46.07-1.7,1-1.78,2.25-.3,5.19,2.27,9.36,4.82,13.48,1.83,3,2,3.1-.06,5.76-1.16,1.49-1.07,2.76.27,4,.26.25.46.63.76.73,3.78,1.36,3.27,4.3,2.75,7.27-.13.75-.18,1.5-.26,2.25"/><path class="cls-2" d="M137.54,155.88c1.67,1.42,3.31,2.86,5,4.24,1.38,1.13,2.9,2.09,4.22,3.29a2.58,2.58,0,0,1,.28,3.48,26,26,0,0,0-1.72,3.26,1.55,1.55,0,0,0,.24,1.44c1.38.94.86,2.25,1.06,3.53.77,5.06,3.17,8.82,9.18,9.9,2.9.52,5,1.69,6.18,4.14,1.46,3,2.55,6.14,3.78,9.23,0,.11-.15.33-.23.49"/><path class="cls-2" d="M234.54,175.88c-1.74-.71-2.33.53-2.44,1.76s-1.26,3.07.93,4c1.95.83,3.85,1.8,5.76,2.74s3.5,2.09,3.5,4.49"/><path class="cls-2" d="M241,195.38c.24,2.6,2.8,2.93,4.31,4.18,3.21,2.67,3.77,6.51.94,9.57a9.59,9.59,0,0,1-1.76,1.73c-4.22,2.58-3.84,6.78-3.69,10.77a5.78,5.78,0,0,1-4.8,6.26c-1.34.22-2.67.49-4,.74"/><path class="cls-2" d="M228.79,229.13a11.6,11.6,0,0,0-3.26,9,70.1,70.1,0,0,1-.05,7.25,14.2,14.2,0,0,1-1.19,3.5"/><path class="cls-2" d="M148.54,124.88c0,3.23,2.8,7.14,6,7.39a5.34,5.34,0,0,1,4.79,3.68,4.56,4.56,0,0,0,2.72,2.9,3.09,3.09,0,0,1,2,3.28c-.05,2.76,2.63,7,4.72,7.46a38.21,38.21,0,0,0,6.74.75,7.11,7.11,0,0,1,6,2.77,30.21,30.21,0,0,0,3,3"/><path class="cls-2" d="M185.79,235.38a23.43,23.43,0,0,0-5.61,6.94c-1.78,3.2-4.35,3.07-6.89.31S169,239.7,165,241.55c-1.43.67-3.29.42-5,.58"/><path class="cls-2" d="M158.54,162.13c-2.88.85-3.51,2-3,5,.21,1.3.22,2.65.35,4.45a45.11,45.11,0,0,0-4.82.33,33.58,33.58,0,0,0-4,1.21"/><path class="cls-2" d="M204,132.88a76,76,0,0,0,5,6c2.73,2.66,2.78,4.58,0,7.05-2.56,2.26-5.05,4.61-7.5,7-2.66,2.59-3.87,5.54-2.3,9.26a35.45,35.45,0,0,1,1.29,4.73,7.85,7.85,0,0,1-.5,5.5"/><path class="cls-2" d="M227.54,162.38c-.12,2.25-1.13,4.5,0,6.75-2,1.63-.57,3.85-1,5.75"/><path class="cls-2" d="M276,164.88l.31,5-6.31,2"/><path class="cls-2" d="M139.29,223.13c-1.5.25-3,.44-4.5.77s-3,.82-4.5,1.23"/><path class="cls-2" d="M182.79,130.38c-.47,1.73-.9,3.35.41,5.07.53.68.09,2.1.09,3.18"/><path class="cls-2" d="M235.29,159.38a16.69,16.69,0,0,1-1.58,13,3.52,3.52,0,0,0-.42,3.29"/><path class="cls-2" d="M250.54,189.88a4.36,4.36,0,0,0,1.49,0c3-1.14,3-1.16,3,2v1.25"/><path class="cls-2" d="M241,194.38l-4-.25"/><path class="cls-2" d="M268.79,173.88c-.33,1.25-.67,2.5-1,3.75"/><path class="cls-2" d="M199.54,172.63l-4.25,3.75"/><path class="cls-2" d="M204,167.88h-3"/><path class="cls-2" d="M185.79,155.13l2.75.75"/><path class="cls-2" d="M226,189.63c-3.16.13-3.16.13-2.75,2.75"/><path class="cls-2" d="M186.54,160.38H182"/><path class="cls-2" d="M195,170.88c.42,1.42.83,2.84,1.25,4.25"/><path class="cls-2" d="M223,185.38c1.36,1.18,1,2.76,1,4.25"/><path class="cls-2" d="M184.29,164.88h-1.75"/><path class="cls-2" d="M178.54,155.88l3.25-.75"/><path class="cls-2" d="M243,222.38h-1.75"/><path class="cls-2" d="M240.79,191.13,240,191"/></svg>