<svg id="Layer_1" data-name="Layer 1" xmlns="http://www.w3.org/2000/svg" viewBox="0 0 680.07 588.68"><defs><style>.cls-1{fill:none;stroke:#000;stroke-linecap:round;stroke-linejoin:round;stroke-width:2px;}</style></defs><title>vene</title><path d="M361.38,222.15c-7.34.86-14.47-.42-22-1.65l1.32,2.88a11,11,0,0,1,.65,1.6c0,.06-.74.52-1,.43a6.27,6.27,0,0,1-1.72-1.07c-.2-.18-.17-.63-.22-1-.45-3.06-2.59-4.53-5.26-5.38-4.74-1.51-9.49-3-14.25-4.39-1.08-.33-2.21-.47-3.25-.69.17,3.38.19,6.5.52,9.59a6.33,6.33,0,0,0,4.8,5.73c3.61,1.16,7.08,2.77,10.65,4.1.46.17,1.12-.19,1.84-.34.47,4.64,5.65,5.21,8,7.72l-3.3,2.75.74.72c-.51-1.48-.75-3.15-1.59-4.4s-2.19-2.69-4.15-1.58c-2.82-4.72-9.46-7.5-14.43-6.28-.41-.82-.6-1.81-1.19-2.24a6.47,6.47,0,0,1-3.07-5.88,39.29,39.29,0,0,0-.4-5.72,5.38,5.38,0,0,0-3.12-4.51c-4.95-2.45-10.19-2.23-15.42-1.49a35.12,35.12,0,0,0-14,5.55,54.13,54.13,0,0,1-5.31,2.6c1.14.61,1.68.92,2.23,1.2,3.79,2,5,4.87,3.77,9-.36,1.2-.76,2.37-1.16,3.56a6.31,6.31,0,0,1-.29.66l-.7-.27a17.35,17.35,0,0,1,.6-3.42c1.5-3.88-.32-7.54-4.47-8.36a13.93,13.93,0,0,0-5.18-.2c-6.91,1.29-12.41-1-17-6.13a15.2,15.2,0,0,0-6.55-4.74c-3.45-1.16-6.62-.46-9.72.56-2.17.71-4.11,2.18-6.09,3.41-1.26.78-1.54,1.79-1,3.4a40.79,40.79,0,0,1,1.83,8.23c1,8.78,3.59,10,11.86,13,1.32.48,2.62,1,3.89,1.62a14,14,0,0,0,8.92,1.42,35.15,35.15,0,0,1,4.7-.49,6.57,6.57,0,0,1,5.31,2.27c2.5,2.59,4.94,5.13,6.1,8.69.93,2.88,2.79,4.91,6.08,5.14a2.31,2.31,0,0,1,.91.37,3.7,3.7,0,0,1,.55.51,7,7,0,0,1-8.49-4.36c-1.37-3.93-4-6.88-7-9.59a5.68,5.68,0,0,0-4.84-1.48c-2.45.35-4.92.62-7.37.94a7.93,7.93,0,0,0-1,.31c1.81,6.63,1.58,13.37,2.13,20.05.64,7.64,5.22,14.42,12.64,16.2,3.38.81,5.28.22,7.31-2.7a5.06,5.06,0,0,1,4.84-2.42c2,.11,4,0,6.05,0l.11.68a18.11,18.11,0,0,1-3.83.49c-4.19-.33-6.43,1.05-7.94,5.14,4.08,1.55,8.26,2.88,12.22,4.71s7.66,3.72,10.27,7.2l-.31.48c-1.53-1-3-2-4.6-2.88-4-2.09-7.66-4.72-12.14-5.7-3.72-.82-7.41-1.84-11.14-2.61-7.11-1.49-12.09-5.39-14.18-12.47-1-3.32-1.56-6.76-2.29-10-2.68.88-5.47,1.81-8.28,2.71-5.2,1.67-8,8.37-7.3,12.66a15.51,15.51,0,0,0,1.18,2.81l-2.62-1.53-4.2,7.06-.56-.29c.2-.48.41-.95.6-1.43l4.8-12.5c1.67-4.34,4.27-7.66,9.16-8.63a14.67,14.67,0,0,0,3.51-1.24c3.39-1.65,4.27-3.26,3.93-7-.12-1.41-.34-2.81-.56-4.21-.53-3.55-2.73-5.81-5.87-7.19-1.83-.8-3.75-1.78-5.66-1.85-1.67-.05-3.37,1.07-5.06,1.68-.67.24-1.34.51-2,.77l-.48-.84,4.26-2.88c-5.62-4.2-5.88-10.61-7-16.69-.22-1.2-.6-2.37-.91-3.55l-.54-.1c-.55,1.12-1.15,2.22-1.64,3.37q-2,4.83-4,9.68a1.91,1.91,0,0,0,1.09,2.82c2.18,1.05,2.29,3.77.48,5.44-1.61,1.49-3.08,3.14-4.79,4.9l2.38,1.52-.09.6-3.4-.35c.76-2.74.33-5.63,3.63-6.56.51-.15.87-.75,1.34-1.1.86-.66,1.28-1.53.38-2.29s-2.11-1.94-3.22-.53c-1,1.25-1.21,3.37-2.39,4.14a9.93,9.93,0,0,0-3.56,3.2c-1.46,2.41-3.27,4.59-4.93,6.87-.33.46-.62.94-1.05,1.58l1.77.63-1.8.88,0,.56c.83.1,1.89.58,2.45.24,2.47-1.49,4.93.44,7.57-.37-1.37,2.56-1.82,5,0,7.61-3.15-1.9-3.5,1.91-6,2.43a38.79,38.79,0,0,0,2-4.23,10.27,10.27,0,0,0,.15-2.79c-1,.08-2,.09-3,.25-3,.5-3.63,2.43-3.66,5.29a7.08,7.08,0,0,1-4.56,6.37c-2.62,1.18-2.69,1.48-.57,3.49.33.32.6.69,1.1,1.28-2.14.09-3.28-.67-4-2.33-.21-.5-.91-.79-1.39-1.18a13.8,13.8,0,0,1-1,1.32c-.56.65-1.2,1.79-1.78,1.77-2-.08-3.46,1.22-5.18,1.81a26.73,26.73,0,0,1-5.72,1.34c-2.47.28-2.87.67-2.57,3.1.2,1.57.18,3.16.25,4.74l-.53.05c-.54-2.11-1.22-4.19-1.58-6.33-.28-1.67,1.88-3.34,4.09-3.52a15.09,15.09,0,0,0,4.39-.65,3.49,3.49,0,0,0,2-2.39,3.4,3.4,0,0,0-3.21-3.4,8.87,8.87,0,0,0-3.29.83,7.2,7.2,0,0,1-5,.4c1.79-1,3.56-2,5.38-2.92a4.85,4.85,0,0,1,5.89,1.55,14.44,14.44,0,0,0,1.68,1.82c1.82,1.81,2.61,1.72,3.78-.62.75-1.49,2-1.55,3.36-1.62,4.46-.23,6.5-2.6,6-7-.18-1.72-.51-3.27-2.9-2.3-.23.09-.66-.3-1.61-.77,3-.35,4.31-1.38,3.58-4.14-.19-.7,1.26-1.77,1.83-2.74,1-1.76,2-3.58,3-5.49-3-.78-13.75-.26-16.56.7l2.53.81c-2.77.28-5,.22-7.15.78a24.2,24.2,0,0,0-6.14,2.71c-1.87,1.12-4.53,1.59-4.67,4.38l-2-2.89c1.36-.64,2.77-1.25,4.12-2,5-2.6,9.92-5.49,15.68-6.22,1.32-.16,2.66-.16,4-.34,1.85-.26,3.69-.62,5.8-1,1.76,1.78,3.23,1.38,5.32-1.89,4.06,1.21,5.31.51,4.89-2.7,4.69-.81,3.62-5.54,6.3-8.49l-4.91-.63c.14-.11.24-.24.36-.26,1.62-.21,4,.18,4.7-.73,1.66-2.18,2.53-5,3.87-7.81-4.82.89-9.17,1.66-13.5,2.55-.55.12-1,.88-1.43,1.43-.59.82-1.08,1.71-1.62,2.57l-.54-.16a4.44,4.44,0,0,0-.39-1.28c-.36-.53-.94-1.41-1.3-1.35a2.32,2.32,0,0,0-1.51,1.33,14.11,14.11,0,0,0-.47,3h-.8l-.33-2.9c-1.08,1.08-2.36,1.85-2.9,3-1.62,3.36-4.46,4.07-7.76,4.35a15.56,15.56,0,0,0-5.18,1.26c-1.57.73-1.82,2.42-1.74,4.11a15,15,0,0,1-.34,2.72h-.76l-.72-4.6c-4.38.47-8.51.93-12.64,1.32-1,.1-2.23-.42-3,0-1.39.79-2.43,2.1-1.76,4-3.94,1.5-3.62,5.43-5.21,8.73-.76-1.11-1.4-2.06-2-2.91a20.77,20.77,0,0,0,2.37-2.12c.72-.9,1.41-2-1-2.59,2.82-.76,3.54-2.61,4.19-4.63.17-.55,1-.93,1.65-1.27A11.75,11.75,0,0,1,173.9,234a10.84,10.84,0,0,0,2.69-.25,4.44,4.44,0,0,1,1.9-.1c3,1.26,5.14-.52,7.25-2.09.63-.46.81-1.54,1.35-2.66-4.58-1.12-8.58-2.15-12.61-3.06a35.32,35.32,0,0,0-16.79.38,3.8,3.8,0,0,0-1.77,1.53c-1.37,1.93-2.64,3.94-4.15,6.2a8.26,8.26,0,0,1,.43,2.21,1.25,1.25,0,0,1-2.47.31,12.6,12.6,0,0,1-.38-3.42,1.5,1.5,0,0,1,.79-1.11c2.16-.91,3.76-2.12,3.17-4.82a3,3,0,0,1,.17-.88c-4.48-.56-8.55.93-13.06,1.63l1.84,2c-6.79-1.85-7-1.82-7.94,1-2.14-1.18-4.29-.71-6.48-.11-2.4.67-4.84,1.2-7.26,1.75-.26.06-.57-.14-1-.72l8.77-3-1-.88c1.83-1,4.51,1.56,5.75-1.56a3.08,3.08,0,0,0,4.32.38c1.78-1.91,3.95-1.52,6-1.87,4-.69,8-1.34,12.07-1.68,4.31-.37,8.64-.33,13-.55a3.79,3.79,0,0,0,2.2-.76,1.86,1.86,0,0,0,0-1.81,2.71,2.71,0,0,0-1.9-.8c-1.74,0-3.48.36-5.22.35a4.14,4.14,0,0,1-4.5-3.45,2.52,2.52,0,0,0-2.74-2H152v-.64c1.87-.4,3.75-1.14,5.6-1.05,1,0,2.19,1.4,2.7,2.46,1.33,2.78,2.33,3.51,5.36,3.07a22.88,22.88,0,0,1,2.47-.33c3.78-.21,4-.09,4.9,3.62a3,3,0,0,0,2.56,2.33c3.86,1,7.73,2,11.53,3.16a18.5,18.5,0,0,0,5.79.64,7.83,7.83,0,0,0,6.93-3.5c2.68-3.45,6.71-4.7,11.06-4.79a34,34,0,0,0,11.42-2.61,65.15,65.15,0,0,1-6.73-1.13,74.63,74.63,0,0,1-8.46-2.89c-3.54-1.42-5.42-.91-8,1.93a27.16,27.16,0,0,1-5.44,4.64c-2.68,1.74-6.77-.89-6.84-4.77.84.95,1.39,1.6,2,2.23,1.51,1.69,3.31,2,5,.6,2.39-2,4.6-4.18,7.25-6.63a24.83,24.83,0,0,0-3-1.52c-4.89-1.56-9.73-3.36-14.73-4.47-3-.67-6.31-.42-9.46-.24-3,.17-4.7-1.18-5.78-3.74-.23-.53-.43-1.09-.71-1.6a3.26,3.26,0,0,0-4.11-1.86c-2.55.67-5.16,1.06-7.72,1.68a30.25,30.25,0,0,1-3.1,1,4.42,4.42,0,0,1,4.11-2,8.64,8.64,0,0,0,5.2-1.4,6.17,6.17,0,0,1,2.61-.64c1.55-.18,1.78-1,1.21-2.25q-1.06-2.38-2.15-4.77c-1.25-2.79-2.37-5.65-3.8-8.34a31.8,31.8,0,0,0-3.44-4.37l.59-2.68c3.77,3.52,4,9.43,8.87,12.44-1.65,2,.55,3.83,1.34,5.88a88.18,88.18,0,0,0,3.67,8.72,5.11,5.11,0,0,0,7.1,1.8,1.83,1.83,0,0,1,2.41-.11,4.61,4.61,0,0,0,1.86.62c3.34.5,6.68.95,10.24,1.45.8-1.88,1-4.54,3.83-5.56.38,1.37-.5,2-1.29,2.63-1.57,1.32-1.6,2.45,0,3.54a25.42,25.42,0,0,0,10.66,4.41c.8.11,1.45,1,2.26,1.37a44.34,44.34,0,0,0,14.43,3.71c2.71.18,3.23-.7,2.3-3.3-1.06-3-1.85-6.05-3.06-9a45.83,45.83,0,0,0-3.45-6,7.37,7.37,0,0,1-1.33-2.4l2.32,1.09-2.16-7c-.29-1-.51-1.92-.87-2.84a3.31,3.31,0,0,0-1-1.57c-2.76-1.8-5.54-3.57-8.4-5.21a13.18,13.18,0,0,0-4.79-2c-2.64-.3-4.44-2-6.47-3.25a2.66,2.66,0,0,1-.21-2.56,20.92,20.92,0,0,1,3.44-3.1c.49,2.33-1.16,2.92-2.23,4l19.33,9.9c2.14-6,7.32-8.07,13.21-9.32a24.83,24.83,0,0,0,6-2.17,3.34,3.34,0,0,0,1.39-2.6c0-.62-1.17-1.47-2-1.76-5.4-1.91-10.85-3.71-16.28-5.54-1.86-.63-3.58-1.75-3.4-3.8.3-3.5-2.18-3.89-4.43-4.48-4.28-1.11-4.83-2.68-1.56-6-.25.66-.47,1.34-.76,2-.6,1.36-.22,2.28,1.22,2.67a33.19,33.19,0,0,0,5.57,1.34,4.61,4.61,0,0,0,2.87-1.22c3.63-3,7.29-5.87,10.2-9.78,1.75-2.36,2.66-4.34,2.35-7.11a12,12,0,0,1,.16-2.3h.56c.13,1.15.27,2.31.4,3.46l.57,0c.16-1.83.31-3.67.48-5.64,1.57-.28,3.25-.45,3.36-2.77l.57.25c.18.71.37,1.42.57,2.22,2.67.33,5.48-.2,8.06,1.45.8.52,2.46-.24,3.7-.51s2.32-.63,3.88-1.06l-4.14,3.63-9.41-1.17c-.42.92-.4,2.15-2.15,2-.92-.08-2.4,1-.9,2.81-2.81-.28-3.61,1.83-5,3.63a107.9,107.9,0,0,1-8.4,9.49,67.09,67.09,0,0,1-5.17,4.28c-1.49,1.25-1.38,2.85.41,3.84a29.41,29.41,0,0,0,5,2.13c4.58,1.51,9.2,2.88,13.79,4.37a1.69,1.69,0,0,0,2.38-1.12c1.85-4.95,6.09-6.72,10.5-8.8,3.49-1.66,6.3-4.77,9.38-7.28a11.64,11.64,0,0,0,1.4-1.64l.69.22c-.15.74,0,1.8-.48,2.18-3.27,2.76-6.58,5.48-10,8a21.89,21.89,0,0,1-4.77,2.14c-4.11,1.68-5.31,5.33-6,9.16-.66,4-2,5.83-6,7-3.32,1-6.68,1.89-10,3A8,8,0,0,0,219,186.2c2.38,6.91,4.7,13.84,7.06,20.76.22.66.54,1.28.81,1.9.46-.17.68-.18.75-.29,1.57-2.31,1.74-5.34,3.92-7.39s3.88-4.08,5.84-6.11a7.47,7.47,0,0,1,1.39-1c2.21-1.44,2.41-2.92.59-4.88-1.35-1.44-3-2.62-2.78-5A4,4,0,0,1,239,180.5c-.37.83-.53,1.31-.77,1.75-1.05,1.89-.86,3.09.7,4.66a25.15,25.15,0,0,1,1.82,2.05c1.73,2.22,2,2.37,4.57,1.15A49,49,0,0,1,258.88,186c.95-.14,1.79-1.06,3-1.84,4.24,1.93,8.75,0,13.31-.87,1.7-.33,3.31-1.24,5-1.45,6.15-.76,7.4-7.22,6.55-11.44a95.8,95.8,0,0,1-1.61-12.05c-.18-2.61.65-3.36,3.15-3.77-1.91,2-2,4.48-1.69,6.9a51.25,51.25,0,0,0,1.28,7.1,16.06,16.06,0,0,1-.15,9.77c-.88,2.52-2.26,4.3-5.06,5,7.77,1.27,16.82-3.83,17.56-10.89a20.42,20.42,0,0,0-1.09-8.29,25.38,25.38,0,0,1-1-11.6c.46-3.44,3-5.78,5.93-7.63a32.61,32.61,0,0,0,5.54-4.11c2.28-2.23,1.93-3.93-.71-5.68a7.71,7.71,0,0,1-1.14-1.22c-.7,1.09-.63,3.1-2.55,2.44a28.22,28.22,0,0,0,.84-3.17c0-.11-1.43-.7-1.56-.53-.66.78-2.86-1.12-2.07,1.91l-.86-.41c-.23-1.18-.95-2.58-.55-3.48.59-1.31,2.1-.87,3.33-.4s2.34.75,3.64,1.16l2.18-1.95c.15,1.2.25,2,.39,3.14a16.22,16.22,0,0,1,3.54-2.06L313,132.33c2.33,1.48,3.18,1.09,3.75-1.85.59.74,1.16,1.38,1.66,2.06s.81,1.24,1.2,1.86l-2.44,1.51-.59-.77,1.3-.58-.13-.47h-5v6.27c2.2-.77,4.74-1.08,6.5-3.08,2-2.21,1.7-4.17-.39-5.95.58-2.08,1.13-4,1.68-6l.37,0c.4,2.81.93,5.61,1.15,8.44.23,3.11.39,3.09,3.14,1.92,4-1.68,6.68-4.87,9.92-7.42a13.28,13.28,0,0,1,1.34-.86l.52.52-4.84,5,1.8,1.48c-8,2.17-15.28,5.86-22.65,9.31a67.76,67.76,0,0,0-7.61,4.56c-3,2-3.6,5.11-3.5,8.33a35.59,35.59,0,0,0,1.12,5.6c.75,3.81,1.48,7.61,2.11,10.85,2.21-2.08,4.82-4.57,7.49-7a11.81,11.81,0,0,1,7-3,62.76,62.76,0,0,0,6.66-1.38c-.6,1.82.57,2.46,2.13,3,4.76,1.69,9.49,3.49,14.22,5.25.12,0,.18.26.36.52-1.1,1.1-2.3.56-3.39.15-3.43-1.27-6.84-2.6-10.25-3.93a20.19,20.19,0,0,0-10.46-1.62c-3.49.52-6.06,2.6-8.38,5-2.8,2.94-5.45,6-8.29,8.94-1.9,1.95-1.94,2.64.08,4.5a7.1,7.1,0,0,1,1.51,2.22,4.12,4.12,0,0,0,4.55,2.7c4.19-.49,8.52-.27,12.37-2.47a3,3,0,0,1,1.21-.25,4.32,4.32,0,0,1,1,.27,27.65,27.65,0,0,1-17.33,3.42,4.56,4.56,0,0,1-3.55-2.84c-1.82-3.69-2.94-4.07-6.66-2.36s-7.67,2.1-11.63,2.4-8.18.1-12.21.61c-7.15.9-14.38,1.64-21.13,4.46a36.62,36.62,0,0,0-12.62,8.74,16.58,16.58,0,0,0-1.78,2.93,3.8,3.8,0,0,1-.77,1.06c-1.36,1-3.1,4.6-3.14,6.94,1.26-.65,2.38-1.24,3.52-1.8,5.82-2.88,11.68-3.67,17.73-.58.74.38,1.84.05,2.45.05,1.49,2.1,2.71,4.61,4.63,6.36,4.89,4.46,8.45,4.64,13.66,2.14,4.54-2.19,9-4.53,13.62-6.55a53.93,53.93,0,0,1,7.85-2.39,2.56,2.56,0,0,0,2.23-2.79c.1-3.93,1.32-5.18,5.28-5.63a20.85,20.85,0,0,1,2.74-.06,3.08,3.08,0,0,0,3-1.75,12.71,12.71,0,0,1,12.29-5.82l3.65.53L323,194l-3.57.16a15.83,15.83,0,0,0-8.1,2.13,5.37,5.37,0,0,0-2.74,3.33,2.91,2.91,0,0,1-1.88,1.53,34.47,34.47,0,0,1-4.45.56c-2.93.36-4.54,1.78-4.66,3.92-.11,1.8.59,2.46,2.43,2.56a81.53,81.53,0,0,1,11.61,1.15c4.46.91,8.74,2.68,13.2,3.64a44.55,44.55,0,0,0,9.59.81c2.78,0,5.56-.79,8.35-.92,3.17-.15,3.61-2.42,4.2-4.71.26-1,.17-2.48.82-3a15.55,15.55,0,0,1,5-2.58c3.09-.9,6.28-1.44,9.43-2.08a19.63,19.63,0,0,1,2.55-.2l.11.65c-2.65.72-5.31,1.4-7.94,2.17-2,.57-3.93,1.29-5.91,1.89a3.23,3.23,0,0,0-2.45,3.11c-.42,5.38-2.43,6.29-8.13,7a19.56,19.56,0,0,0-4.73.95"/><path d="M155,257.26c.07-1,.14-1.94.24-3.19,1.05-.82,3.53,1.38,4.15-1.79,1.28,1.51,1.24,2.66.5,3.77C159,257.4,156.84,257.83,155,257.26Z"/><path d="M294.2,128a32.31,32.31,0,0,1,4.1.7c.61.18,1.06.89,1.59,1.36a6.16,6.16,0,0,1-2.17,1c-.62,0-1.25-.66-2.3-1.28l-1.22,3.63C293.55,132.63,293.55,132.63,294.2,128Z"/><path d="M185.68,252.05c2.08,0,2.67,1.5,2.26,2.78-.52,1.62.56,4.41-2.55,4.55a1.8,1.8,0,0,1-1.46-.83c-.19-.44-.17-1.5,1-.94a3.15,3.15,0,0,0,.7-1.29C185.75,255,185.68,253.6,185.68,252.05Z"/><path d="M334.94,136.16c1.09,3.34,4.12,3.52,6.56,4.65a3.93,3.93,0,0,1,2.43,3.52,17.59,17.59,0,0,0-3.18-2.84c-1.21-.63-2.72-.66-4.05-1.11C334.18,139.52,333.76,138.59,334.94,136.16Z"/><path d="M261.25,182.58c-2.28-3.68-.07-8.5,3.86-8.79a21.84,21.84,0,0,0-3,4C261.51,179.15,261.54,180.85,261.25,182.58Z"/><path d="M164,249.51c-.25,2.12-.46,4-.67,5.79l-.53.29c-.43-.43-1.26-.89-1.22-1.27C161.76,252.67,160.45,250.41,164,249.51Z"/><path d="M308,120h-.23"/><path class="cls-1" d="M370.3,219.82a55.06,55.06,0,0,1-10.73,1.52,56.49,56.49,0,0,1-8-.44c-1.09-.09-2.17-.43-3.26-.47a25.66,25.66,0,0,1-8.05-1.11c-2.09-.75-4.27-1.21-6.19-2.41"/><path class="cls-1" d="M328.58,215c-3.2-.23-6-1.67-9-2.52-1.77-.5-3.67-1.92-5.71-.61"/><path class="cls-1" d="M310.83,129.91c-2.16,1.58-2.26,2.37-.5,4,2.8,2.61,2,7.32-1.22,9.31-2.83,1.73-5.8,3.57-7.94,6-3.46,4-2.24,8.79-1.1,13.41.87,3.53,2.33,7,1.51,10.75"/><path class="cls-1" d="M295.58,181.79c-3.75,2.34-7.93,3.1-12.25,3.37"/><path class="cls-1" d="M271.08,185.79l-4.25.37"/><path class="cls-1" d="M260.08,187.29a42.81,42.81,0,0,0-14,4.12"/><path class="cls-1" d="M281.33,258.91c-2.62-.83-5.81-.42-7.48-3.26-1-1.67-1.65-3.51-2.53-5.23a21.85,21.85,0,0,0-6.53-7.22c-1.84-1.4-4.14-1-6.2-.5-4.12,1-8,1.05-11.81-1.22a41.67,41.67,0,0,0-7.72-3c-.37-.12-1,.46-1.49.7l-5.74,2.75"/><path class="cls-1" d="M323.33,193.66c-4.94-.84-9.66-.58-13.74,2.76-.59.48-1.36,1.11-1.45,1.75-.38,2.5-2.19,2.7-4.06,2.72a12.18,12.18,0,0,0-5.28,1,2.92,2.92,0,0,0-2,3.3c.12,1.24,0,2.5,0,3.75"/><path class="cls-1" d="M250.33,243.66a59.63,59.63,0,0,1,1.69,6.76,87.69,87.69,0,0,1,.77,10c.12,4.45.71,8.85,2.86,12.71,2.87,5.16,7.19,8.56,13.42,9.09a40.39,40.39,0,0,1,6.25,1.45c6.39,1.63,12.16,4.63,17.74,8a15.67,15.67,0,0,1,2,1.73"/><path class="cls-1" d="M233.45,133.66c-3.72,5.8-7.43,11.61-13.36,15.52-1.08.71-2,1.75-3,2.46-2.36,1.55-2.46,4.55,0,6a31,31,0,0,0,5.48,2.27c4.4,1.48,8.83,2.84,13.24,4.29a7.08,7.08,0,0,1,1.51,1"/><path class="cls-1" d="M237.58,165.16c1.12,3.25-.19,5.44-4.26,6.73-2.54.8-5.16,1.36-7.74,2a12.31,12.31,0,0,0-7.55,5.47c-1.47,2.24-1.07,4.75-.53,6.73.87,3.27,2.75,6.24,2.88,9.8,0,1,.81,2,1.19,3,1.1,3,2.11,6,3.29,9a21.91,21.91,0,0,0,2,3.26"/><path class="cls-1" d="M288.33,154.66c-1.92.66-2.56,2-2.53,4,.05,4,1.09,7.87,1.89,11.78.42,2,.84,4.41-.58,6.49-.54.78-.59,1.88-1.06,2.72a3.78,3.78,0,0,1-2.95,2.14c-1.11.17-2,1.54-3,2.37"/><path class="cls-1" d="M203.83,243.16c-5.07.28-10.21.23-15,2.27a63.87,63.87,0,0,0-8.7,4.07,19.53,19.53,0,0,1-5.3,2.16"/><path class="cls-1" d="M260.58,144.41c-.21,2.45-2.42,3.65-3.87,4.85-2.58,2.13-5,4.45-8.57,5.59-3.74,1.2-7.67,3.15-8.38,8.05-.11.74-1.1,1.34-1.68,2"/><path class="cls-1" d="M172.08,223.41c0-.25,0-.5,0-.75.06-4.87-1.09-4.55-5.25-4-1.87.25-3.75.76-5.51-.49a3,3,0,0,1-1.59-2.5c-.07-.93-1.07-1.8-1.37-2.26h-7"/><path class="cls-1" d="M297.83,182.16c1.12,1.61,3.08,2.36,3.66,4.71.45,1.79,2.81,2.44,4.83,2.27,3.09-.25,6.18-.57,9.25-1a16.9,16.9,0,0,0,2.76-1.19c1-.34,2-.52,3-.77"/><path class="cls-1" d="M269.58,220.29a13.6,13.6,0,0,1-11-2.88"/><path class="cls-1" d="M246.58,208.54l-9.75,1.12"/><path class="cls-1" d="M252.33,258.66c-.59.17-1.37.15-1.72.53-2.06,2.19-4.79,2.69-7.53,3.23-3.35.66-7.39,5.53-8,9.74a15,15,0,0,0,0,4.49c.09.58,1.08,1,1.67,1.51"/><path class="cls-1" d="M365.33,200.91a4,4,0,0,0-1.5-.22c-4.59,1.2-9.2,2.37-13.74,3.78a3.33,3.33,0,0,0-2.32,3.69c.11,2.94-1.57,4.14-4.14,5.37s-5.28.38-7.8,1.15a13.21,13.21,0,0,0-2,1"/><path class="cls-1" d="M322.58,163.79c-.92,0-1.84.15-2.75.11-5.86-.28-9.58,3.24-13,7.27-1,1.18-1.75,2.59-2.81,3.7-.48.5-1.45.54-2.2.79"/><path class="cls-1" d="M333.08,237.41c.55-2.24.13-3.18-2.26-4.49a33.87,33.87,0,0,0-10.49-3.76,6.66,6.66,0,0,1-4.74-4.75c-.19-1.15-.15-2.34-.27-3.5-.29-2.78-.17-5.65-1.49-8.25"/><path class="cls-1" d="M310.08,210.54a38.9,38.9,0,0,0-10.75-1.18c-5.18,0-9.88,1.62-14.49,3.59-2.76,1.19-5.36,2.77-8,4.23a11.7,11.7,0,0,0-1.76,1.48"/><path class="cls-1" d="M163.58,241.16c1.79-1.26,1.42-4.14,3.75-5a10.94,10.94,0,0,1,2.25-.73,46.37,46.37,0,0,1,7.49-.69c2.35.09,4.66.5,6.74-.85a31.54,31.54,0,0,0,4.72-3.53c.89-.85-.16-2.25-1.95-2.7-4-1-8-1.89-12-3-4.74-1.36-9.49-.62-14.25-.47"/><path class="cls-1" d="M153.83,224.91c-4.42.5-9.1.26-13.19,1.69-4.8,1.68-9.93,1.91-14.59,4a41.55,41.55,0,0,1-6.72,1.81"/><path class="cls-1" d="M228.08,215.66c1.93,2.6,2.12,5.74,2.75,8.75a65.24,65.24,0,0,0,2.11,9c.51,1.4,2.22,2.37,3.39,3.54l1.5,1.5"/><path class="cls-1" d="M178.83,201.91c.59,1.31,1.72,1.36,3,1.56,3.19.5,6.31,1.47,9.51,1.88,2.78.36,5.09,1.65,7.49,2.82,1.11.53,2.17,1.15,3.25,1.74.27.15.5.48.76.48,3.8.05,6.83,2.39,10.27,3.44,2.71.83,5.65.85,8.47,1.36a28.89,28.89,0,0,1,3.76,1.22"/><path class="cls-1" d="M198.33,167.91c-.67.67-1.39,1.29-2,2a12,12,0,0,0-1,1.74c.5.25,1,.51,1.5.75,2.16,1,4.33,2,6.49,3,3.6,1.69,7.26,3.24,10.3,6,.77.68,2.12.72,3.21,1"/><path class="cls-1" d="M323,163.16c.46.5.82,1.24,1.39,1.46,4.56,1.82,9.14,3.56,13.74,5.27a16.5,16.5,0,0,0,2.75.52"/><path class="cls-1" d="M202.08,210.41c-2.79,2.55-4.88,5.81-8.24,7.78-1.54.91-3.52,1.05-4.73-.31a25.64,25.64,0,0,1-2.28-3.47"/><path class="cls-1" d="M275.58,220.16A15.25,15.25,0,0,1,279,222a20.86,20.86,0,0,1,3.25,4,2.69,2.69,0,0,1,0,2c-.6,2-1.31,4-2,6"/><path class="cls-1" d="M192.33,271.66a26.29,26.29,0,0,1-2-2.51c-.74-1.2-1-2.76-3-2.52-1.44.18-2.71.08-4.1,1.15-1.17.9-3.23.63-4.89.88"/><path class="cls-1" d="M285.33,275.66c-2.34.17-4.67.33-7,.51-.67.05-1.62-.09-2,.28-1.64,1.83-3.13,3.79-4.67,5.71"/><path class="cls-1" d="M152.83,199.41c1.67-1.53,3.74-1.15,5.74-1.29a6.41,6.41,0,0,0,3-1,4.55,4.55,0,0,1,4.5-.66,6.4,6.4,0,0,1,2.49,2c1.13,1.48,1.75,4.11,3.1,4.51,2.36.68,5.1,0,7.69,0"/><path class="cls-1" d="M206.08,256.91c.21,3,.92,6-1.24,8.77a7.08,7.08,0,0,1-5.76,2.72c-1.45,0-2.92-.26-2.82,2,0,.48-.86,1.48-1.17,1.42-2.63-.48-4.13,1.34-6.08,2.47-1.42.82-3.43.71-5.19.84-2.38.16-3.48,1.54-3,3.78.37,1.8.53,3.66.78,5.49"/><path class="cls-1" d="M238.83,180.41a16.46,16.46,0,0,0-1.69,3.52,3.56,3.56,0,0,0,1.35,3.57c1.59,1.48,2.59,3.58,3.84,5.41"/><path class="cls-1" d="M208.08,145.66a11.2,11.2,0,0,0-1,1.51,2.6,2.6,0,0,0,2,3.52c2.11.56,4.17,1.3,6.26,2"/><path class="cls-1" d="M334.83,136.91c-.05,1.88.89,2.63,2.73,3.08,2.12.52,4.6.78,5.75,3.18a5.46,5.46,0,0,1,.27,1.24"/><path class="cls-1" d="M156.83,172.91c.29,2,1.5,3.56,2.4,5.3,3,5.69,6.36,11.19,8.08,17.46.06.21-.15.49-.23.74"/><path class="cls-1" d="M320.58,124.91c.25,3.08.42,6.17.77,9.25a4.85,4.85,0,0,1-3.29,5.46c-2.17.87-4.48,1.37-6.73,2"/><path class="cls-1" d="M334.33,134.41l-3.43-.6c-2.91,1.35-5.61,2.62-8.34,3.82-.32.14-.82-.14-1.23-.22"/><path class="cls-1" d="M220.33,233.91c-.84.83-2,1.53-2.44,2.53-1.15,2.44-3.12,4-5.06,5.72"/><path class="cls-1" d="M264.58,174.16c-3.31,2-4.22,4.4-3.25,8.75"/><path class="cls-1" d="M237.08,130.66l1-1.25c1.44,0,2.61,0,3.78,0a2.39,2.39,0,0,1,1.23.26,4.9,4.9,0,0,0,6,.28,15.58,15.58,0,0,1,3.73-1.05"/><path class="cls-1" d="M234.33,275.66c-1.09,2.08-2.15,4.18-3.27,6.24-.42.79-1,1.51-1.48,2.26"/><path class="cls-1" d="M161.83,248.91c-1.26-1.13-1.22-1.15-.52-2.51s1.37-3,2.17-4.74h-2.65"/><path class="cls-1" d="M196.08,198.41c-.17.33-.25.81-.52,1-2.31,1.44-2.77,3.54-2.23,6"/><path class="cls-1" d="M297.33,129.66l-1.67-.82c-1.79,1.41-2.28,3.06-1.33,5.07"/><path class="cls-1" d="M210.83,242.91l-6.75.25"/><path class="cls-1" d="M155.33,225.41c-.7,3.15-1.54,6.2-5.6,7.67,2.37.49-.5,3.62,2.6,3.58"/><path class="cls-1" d="M209.83,239.41l.75,2"/><path class="cls-1" d="M209.83,246.41c-.75,1.17-1.54,2.32-2.24,3.51-.48.8-.85,1.66-1.26,2.49"/><path class="cls-1" d="M336.33,127.91c-1.25,1.17-2.55,2.29-3.74,3.52a16.11,16.11,0,0,0-1.51,2.11"/><path class="cls-1" d="M338.08,219.41c.81,1.88.58,4.29,2.75,5.5"/><path class="cls-1" d="M186.33,252.66c1.58,1.68-.06,3.5.15,5.26,0,.33-1.14.8-2.15,1.47v-2.48"/><path class="cls-1" d="M217.83,253.41c-.87,1.66-2.24,2-4,1.8a15.05,15.05,0,0,0-3.49.45"/><path class="cls-1" d="M199.83,268.91c-.28,2.6,1.28,3.7,3.5,4.25"/><path class="cls-1" d="M220.83,228.16l-5.5-.25"/><path class="cls-1" d="M230.58,130.41c.16,1.75.33,3.5.5,5.25"/><path class="cls-1" d="M184.33,234.16c.16,1.75.33,3.5.5,5.25"/><path class="cls-1" d="M316.33,135.41l3-.55c-.34-.66-.55-1.4-.74-1.4-2.51.09-5,.28-7.5.45"/><path class="cls-1" d="M236.08,125.91l-.75,4.5"/><path class="cls-1" d="M216.08,259.54c-2.22.62-2.65,2.79-3.75,4.37"/><path class="cls-1" d="M208.58,221.66c.74,1.59-.3,2.87-.75,4.25"/><path class="cls-1" d="M216.33,193.41c1.14.93,1.87,2.55,3.75,2.25"/><path class="cls-1" d="M205.08,256.91h-4.25"/><path class="cls-1" d="M210.33,252.41c-1.5.28-3.14-.61-4.56.69-.28.26-1.28-.27-1.94-.44"/><path class="cls-1" d="M130.08,229l-3.25-1.13"/><path class="cls-1" d="M302.83,130.41c0,.17-.05.46,0,.48,2,.69,4,1.35,6,2"/><path class="cls-1" d="M191.33,245.66l3.5.75"/><path class="cls-1" d="M176.83,251.41v3.5"/><path class="cls-1" d="M203.58,223.16c.08,1.08.16,2.17.25,3.25"/><path class="cls-1" d="M335.33,236.16c1.33,1.25,2.61,2.57,4,3.71.49.4,1.31.37,2,.54"/><path class="cls-1" d="M333.33,230.91c-.17,1.08-.34,2.17-.5,3.25"/><path class="cls-1" d="M316.83,129.91c.16,1,.33,2,.5,3"/><path class="cls-1" d="M139.58,228.16l2.75,1.75"/><path class="cls-1" d="M301.33,130.91c.33,1.17.66,2.33,1,3.5"/><path class="cls-1" d="M159.83,252.41c-1.08,3.33-2.35,4.37-5.5,4.5"/><path class="cls-1" d="M133.33,228.66c.33.92.66,1.83,1,2.75"/><path class="cls-1" d="M161.83,251.91c1-.6,1,0,1,.75s0,1.5,0,2.25"/><path class="cls-1" d="M236.33,135.41l-2.5-.75"/><path class="cls-1" d="M212.33,252.41v2.25"/><path class="cls-1" d="M133.33,225.91v2.25"/><path class="cls-1" d="M307.33,133.16c-.67,1.14-.28,3.16-2.5,3"/><path class="cls-1" d="M157.33,255.91c-.3-1.91-2-.92-3-1.5"/><path class="cls-1" d="M312.58,131.41l-.5,1.75"/><path d="M287.78,192.69a14.6,14.6,0,0,0,4.09,2.31c5.77,2.34,11.56,4.61,16.89,7.9"/><path d="M302.39,211.19c-1.17-6.38-2.2-12.79-3.74-19.08-.72-2.93-2.39-5.66-3.81-8.38"/></svg>