<svg id="Layer_1" data-name="Layer 1" xmlns="http://www.w3.org/2000/svg" viewBox="0 0 502.79 383.98"><defs><style>.cls-1{fill:none;stroke:#000;stroke-linecap:round;stroke-linejoin:round;stroke-width:2px;}</style></defs><title>vene</title><path d="M262.71,89.5l7.12,3.17.78-1.23C273.1,97.35,282,97,284.41,93.8c.86.45,1.79,1.34,2.52,1.2s1.29-1.31,2.05-2.17l.86,1.24c2-2.54,1.59-4.8-.12-7.34-2.17-3.25-1.21-6.91-.47-10.42.29-1.38.59-2.77,1-4.11.23-.76-.46-2.17,1.29-2.09a5.68,5.68,0,0,0,.4-1.57c.7-4.12-1.28-7.43-3.29-10.71-.69-1.14-1.57-2.15-2.31-3.26-2.27-3.41-5.44-4.87-9.52-4.88a30.13,30.13,0,0,1-6.36-.92A9.81,9.81,0,0,1,268,47.4l.26-.67A53.28,53.28,0,0,0,273.88,48a58.45,58.45,0,0,0,6.31,0c-2.93-3.81-5.85-7-5.84-11.68,4.48,9,13.44,14,19,22.75,1.7-2.78,3.11-4.9,2.83-7.72-.25-2.49-.46-5-.71-7.72a10.53,10.53,0,0,1,2,11.7c-1.82,3.74-1.66,7.86-2.41,11.8-.25,1.27.37,2.07,1.79,2.08.78,0,1.55.13,2.39.21a3,3,0,0,1-.18.52c-3.86-.43-4.3,2.57-5.35,5.15a11.66,11.66,0,0,0,.91,11.13c1,1.66,2.68,2,4.31,2.55,2.13.71,4.33.3,6.5.45.48,0,1,.15,1.49.24.19.87.37,1.67.51,2.32l7.21,2.64q.28-2.23.42-3.33l2.15,3.43.6-.2c.38-3.41,1-6.81,1.07-10.23.06-2.75-.57-5.4-3.49-6.92-1.64-.85-1.55-1.93,0-4.31a7.38,7.38,0,0,0,4.27,5.58c.6.27.76,1.51,1.2,2.47,1.2-.87,1.06-1.9.38-3.06a6.8,6.8,0,0,1-.39-5.73l.71-.08c.31,1.74.63,3.48,1.05,5.79A14.48,14.48,0,0,0,325.05,76c1.5-1.87,2.9-3.83,4.33-5.76.1-.13.19-.32.32-.38,2.52-1,2.61-2.91,1.65-5.18,1.36-.46,1.79-.06,1.79,1.18a10.54,10.54,0,0,1-2.64,7.56,11.1,11.1,0,0,0-1.07,1.77,9.74,9.74,0,0,0,7.85-1.37c2.57-1.63,3.74-3.59,3.54-6.54V81.63h-.37V73.73c-2.89.8-3.42,1.77-2.46,3.92a38.05,38.05,0,0,1-5.94,1.44c-1.26.12-2.6-.67-3.92-1-1.79-.38-2.66.43-3.28,2.17-.75,2.12-2.26,4-2.89,6.13a47.22,47.22,0,0,0-1,7.18l1.07.56.7-1.59c.45,1.56,2.89,2.07,1.71,4.64a12.45,12.45,0,0,0-1.84-1.86c-.38-.25-1-.09-1.55-.11,0,.59,0,1.18,0,1.77,0,.11.26.2.4.29,6.22,4.1,7.88,10.31,8,17.26a24.49,24.49,0,0,0,.41,5.7c1.18,4.61,4.5,7.09,9,7.93a70.58,70.58,0,0,1,21.39,7.17,89,89,0,0,1,8.55,6c.59.43,1.11,1,1.9,1.66a53.5,53.5,0,0,1,3.77-5.27,72.42,72.42,0,0,1,5.45-5c.49-.43,1.14-.7,1.65-1.13,2.37-2,2.4-4.1-.25-5.6a4.3,4.3,0,0,1-2.37-3.66c-.2-2.22-.78-3.92-3.5-3.77-.41,0-.85-.33-1.25-1a12.29,12.29,0,0,1,2.32-.3c1.89.08,2.5-.86,2.44-2.6a36.08,36.08,0,0,1,.28-6.06,10.15,10.15,0,0,1,1.1,2.73c.21,2.63.28,5.28.23,7.92a5.55,5.55,0,0,0,1.79,4.43,18.82,18.82,0,0,1,3.16,4c.78,1.34,1.48,1.48,2.79.79a12.23,12.23,0,0,0,6.26-7.93A22.16,22.16,0,0,1,401.34,110c1.06-.93,2-2,3.07-2.93,1.6-1.51,3.32-3,2-5.52,1.12.24,2.13.79,2.8.52.91-.37,1.56-1.36,2.33-2.09l.52.19a12.54,12.54,0,0,1-1.46,3.28c-2,2.4-4.29,4.58-6.4,6.9-1.21,1.33-2.3,2.77-3.74,4.51a8.2,8.2,0,0,0,1.74-.11c2.3-.86,4.2-.09,6,1.34,2,1.59,4.08,3.13,6.4,4.91-.94.08-1.91.47-2.59.18-2.06-.89-4.44-.84-6.19-2.71-2.52-2.68-6.26-1.8-7.79,1.59a50,50,0,0,1-3,6.56,15,15,0,0,1-4.28,4.31,71.86,71.86,0,0,1-7.13,3.57,20.27,20.27,0,0,0-8.93,9.08,3.3,3.3,0,0,0,.55,4.09c.66.75,1.43,1.41,2.05,2.19,3.62,4.66,7.58,9.1,10.71,14.07s5.66,10.71,8.31,16.17a14.21,14.21,0,0,1,.84,3.58l-3.06,3c-2.31-3.46-4.76-7.25-7.38-10.92a3.61,3.61,0,0,0-2.58-1.38c-3.15.07-6.29.47-9.43.7-3.57.27-7.13.53-10.7.7-4.82.23-9.65.32-14.47.56a60.06,60.06,0,0,0-6.7.66c-4.19.69-5.49,4.13-6.89,7.47-1,2.47-2.13,4.93-3.2,7.39l-.81-.29q1.71-5.59,3.41-11.2l-.53-.39c-1.31.8-2.7,1.5-3.93,2.42-3.6,2.67-7.17,5.32-11.52,6.77a10.7,10.7,0,0,1-8.32-.59,10.16,10.16,0,0,1,2-.27c4.68.24,8.11-2.66,11.83-4.77,1.26-.71,1.21-1.86.14-2.91a28.06,28.06,0,0,0-3.74-3.66,19.83,19.83,0,0,0-4.37-1.68,5.7,5.7,0,0,1,6.95,1.4c.38.43.72.92,1.11,1.35,2.54,2.76,3.48,2.85,6.44.53a25.64,25.64,0,0,1,14.73-5.3c2.16-.12,4.32-.32,6.46-.6a15.12,15.12,0,0,0,2.57-.81c-3.7-5.22-9-6.39-14.53-7.06-3-.36-5.91-.74-9.08-1.14.3-.36.42-.65.57-.67,6.52-.54,13.06-.65,19.1,2.29,2.16,1.06,3.86,3.06,5.82,4.57.94.72,2,1.8,3,1.85a125.71,125.71,0,0,0,23.47-1.43,63.17,63.17,0,0,0-4.27-6.92,162.33,162.33,0,0,0-11.13-12.72,51.11,51.11,0,0,0-22-13.53c-3.12-1.07-6.22.4-9.21,1.37-6.08,2-12.08,4.23-18.19,6.09a16.62,16.62,0,0,1-11.3-.17c-3.42-1.4-6.05.49-8.94,1.54-3.61,1.32-4.72,4.53-6.22,7.7-.18-.73-.37-1.46-.58-2.31-2.09.79-3.48,2.79-5.82,2.83,4.74-4.43,8.73-9.78,15.91-11.85-7.73-3.22-15.35-3.61-23.1-3.25,4.43-2.63,9.28-1.4,14.38-2L290,134.27l.17-.5a7,7,0,0,1,2.48.83c4.59,4,10.37,5.24,15.9,6.81,2.75.78,6,.44,8.9-.09a56.94,56.94,0,0,0,9.44-3.1c2.22-.85,4.32-2,6.52-3a15.36,15.36,0,0,1,2.87-.55c-1.94-.86-3.43-1.39-4.8-2.15-5.39-2.95-7.8-7.67-8-13.68-.12-3.16-.29-6.31-.51-9.47a8.09,8.09,0,0,0-3.23-5.68c-5.8-4.93-12.75-6.33-20.06-7-4.94-.48-9.48,1.11-14.19,1.89-.57.1-1.15.13-1.72.23-3.84.68-7.66,1.4-11.51,2-1.2.19-2.44.18-3.66.26l-.09-.91c.74-.18,1.66-.15,2.17-.6s1.12-1.87.94-2c-1.11-1-2.42-2.44-3.69-2.46-1.84,0-2.8-.55-3.35-2.53l-1.22,2"/><path class="cls-1" d="M394.21,184c-.09,1.17-.17,2.34-.25,3.5"/><path class="cls-1" d="M308.46,143.12c-2.67-1-5.31-2.18-8-3.11-5.59-1.93-11.43-2-17.24-2a27.36,27.36,0,0,0-5,1"/><path class="cls-1" d="M357,173.24c.27-1.8-.92-2.92-2-4a18.51,18.51,0,0,0-9-4.6,57,57,0,0,0-14.77-1.17"/><path class="cls-1" d="M335,178.37,330.21,181"/><path class="cls-1" d="M327,183.24c-4.67,4-9.84,6.61-16.25,5.5"/><path class="cls-1" d="M411.71,99.49a5.15,5.15,0,0,1-1.73,3.28c-3.4,3.43-6.7,7-10,10.49a8.44,8.44,0,0,0-1,1.73"/><path class="cls-1" d="M395.83,121.24l-.37,1.75"/><path class="cls-1" d="M395.21,123.24c-.59,1.25-1.17,2.5-1.75,3.75"/><path class="cls-1" d="M327.46,76c-3.52,1.06-4.06,4.77-6.25,7"/><path class="cls-1" d="M321,83.24,319.46,92"/><path class="cls-1" d="M319.46,92.24a7.53,7.53,0,0,1-1.5,5.5"/><path class="cls-1" d="M274.21,36c1.15,3.84,3.41,6.95,5.9,10.08,2.31,2.91,5.32,5,7.6,7.92"/><path class="cls-1" d="M294.58,59.74c.79-1.83,1.71-3.62,2.35-5.51,1.14-3.4.44-6.65-1.22-9.74-.18-.33-.34-.66-.5-1"/><path class="cls-1" d="M267.71,47a23.36,23.36,0,0,0,13.5,1.75"/><path class="cls-1" d="M379,108.49a23.86,23.86,0,0,1,.6,10.27c-.38,2.11-.07,4.62,2.16,5.95,2.45,1.47,3.15,3.68,3.24,6.28"/><path class="cls-1" d="M316.21,175c4.26-.41,7.07,1.92,9.5,5,.68.86,1.41,1.67,2.12,2.5"/><path class="cls-1" d="M340.71,66.49c0,.67,0,1.34,0,2,.16,2.29.06,4.36-2.48,5.56-1,.48-1.69,1.61-2.52,2.44"/><path class="cls-1" d="M336.71,178.24a26.08,26.08,0,0,1-.79,4c-1.06,3-2.3,6-3.45,9a2,2,0,0,0,0,.74"/><path class="cls-1" d="M414.71,120.74a8.39,8.39,0,0,1-6-2.5"/><path class="cls-1" d="M405,115.62l-6,.37"/><path class="cls-1" d="M340.46,73q.12,4.76.25,9.5"/><path class="cls-1" d="M303.46,142c-.59.5-1.09,1.24-1.77,1.46a22.55,22.55,0,0,0-8.46,4.81,2.65,2.65,0,0,0-.63,1.48c-.19,1.41-.27,2.84-.39,4.25"/><path class="cls-1" d="M315.21,90q.24,3.63.5,7.25"/><path class="cls-1" d="M288.46,96.37l-2.75.37"/><path class="cls-1" d="M281,97.37l-1.75.37"/><path class="cls-1" d="M272.71,96.49,263,90.74"/><path class="cls-1" d="M321.21,72.49c0,2.24-.51,4.64,1.75,6.25"/><path class="cls-1" d="M292.21,149.49l-5.75,4.25"/><path class="cls-1" d="M294.71,138a5.69,5.69,0,0,0-5-3.75"/><path class="cls-1" d="M299.71,70H294"/><path class="cls-1" d="M331.21,65c.69,0,1.11-.1,1.32,1,.56,3-1.61,4.64-2.85,6.75a8.37,8.37,0,0,1-1.47,1.51"/><path class="cls-1" d="M329,76.74c.83.09,1.67.13,2.49.27.35.06.87.54,1,.45,2-1.82,3.88-.23,5.78.28"/><path class="cls-1" d="M379.21,118.24l-5.5-.25"/><path class="cls-1" d="M273,99.24c-1.24,1.73-3.08,1.18-4.75,1.25"/><path class="cls-1" d="M315.21,72.49c-.84,3.08,1.17,4.69,3.25,6.25"/><path class="cls-1" d="M289,92.49V96"/><path class="cls-1" d="M270.46,91.49a2.37,2.37,0,0,1-.25,3"/><path class="cls-1" d="M309,91.49c-.17,1-.34,2-.5,3"/><path class="cls-1" d="M319.71,94.24c2.11,0,4.34-.19,4.75,2.75"/><path class="cls-1" d="M263.71,91.74c-.09.92-.17,1.84-.25,2.75"/><path class="cls-1" d="M322.21,92.49c.16.59.33,1.17.5,1.75"/></svg>