<?xml version="1.0" encoding="utf-8" ?>
<!-- Generator: Adobe Illustrator 23.0.2, SVG Export Plug-In . SVG Version: 6.00 Build 0)  -->
<svg
  version="1.1"
  id="Layer_1"
  xmlns="http://www.w3.org/2000/svg"
  xmlns:xlink="http://www.w3.org/1999/xlink"
  x="0px"
  y="0px"
  viewBox="0 0 6000.4 5999.3"
  style="enable-background:new 0 0 6000.4 5999.3;"
  xml:space="preserve"
>
<polygon
    id="center"
    class="st0"
    points="3108.3,2999.7 3054.2,3093.3 2946.1,3093.3 2892.1,2999.7 2946.1,2906 3054.2,2906 "
  />
<path
    class="st0"
    d="M3173.6,2927.5c134.4-96.8,279.4-238.1,293.2-420.3c19.9-261.4-248.4-364.1-231.1-616.3
	c16.5-240.8,284.2-484.7,585.5-523.9c349.3-45.5,590.9,204,616.3,231.1"
  />
<path
    class="st0"
    d="M2819.6,2753.7c-597.2,88.8-796.3-9.5-862.9-123.3c-65.9-112.6,0-237.2,46.2-585.5
	c43.7-328.9,60.7-494,30.8-631.8c-5.8-27-119.8-515.9-554.7-693.4c-129.1-52.7-247-61.8-323.6-61.6"
  />
<path
    class="st0"
    d="M3174,3154.3c925.6,0.6,1225.1,198.6,1309.7,400.6c121.1,289-148.9,702.3,61.6,909.1
	c74.8,73.4,178,89.3,246.5,92.5"
  />
<path
    class="st0"
    d="M2788.8,3200.6c-95-16.3-241.9-30.3-416,0c-108.8,18.9-360,76.6-585.5,277.4c-98.8,88-253.9,226-222.4,349.3
	c18.2,71.2,83.7,79.4,230,243.9c81.8,92,122.5,138.8,115.7,177.2c-21.6,121.5-353.8,90.3-408.4,234
	c-20.9,55.1-6.3,149.5,161.9,320.7"
  />
<circle class="st0" cx="1754.9" cy="4808" r="4.9" />
<circle class="st0" cx="390.8" cy="579.6" r="9.9" />
<circle class="st0" cx="4519.2" cy="1616.4" r="13.2" />
<circle class="st0" cx="4865.9" cy="4524.7" r="11" />
</svg>
