<?xml version="1.0" encoding="utf-8"?>
<!-- Generator: Adobe Illustrator 23.0.2, SVG Export Plug-In . SVG Version: 6.00 Build 0)  -->
<svg version="1.1" xmlns="http://www.w3.org/2000/svg" xmlns:xlink="http://www.w3.org/1999/xlink" x="0px" y="0px"
	 viewBox="0 0 4000 4000" style="enable-background:new 0 0 4000 4000;" xml:space="preserve">
<style type="text/css">
	.st0{fill:none;}
	.st1{fill:#FFFFFF;}
	.st2{fill:#FFFFFF;stroke:#000000;stroke-miterlimit:10;}
</style>
<g id="Layer_1">
	<g>
		
			<rect x="2201.5" y="1189.3" transform="matrix(0.2419 -0.9703 0.9703 0.2419 514.6597 3040.4326)" class="st0" width="3.2" height="3.2"/>
	</g>
	<g>
		
			<rect x="2198.5" y="2680.3" transform="matrix(0.9063 -0.4226 0.4226 0.9063 -927.2798 1181.0801)" class="st0" width="3.2" height="3.2"/>
	</g>
	<g>
		
			<rect x="1588.6" y="1151.9" transform="matrix(0.9613 -0.2756 0.2756 0.9613 -256.3367 482.99)" class="st0" width="3.2" height="3.2"/>
	</g>
	<rect x="2198" y="2681.1" class="st1" width="4.2" height="2.9"/>
	<rect x="2244.5" y="1188.9" class="st1" width="7.1" height="7.1"/>
	<path class="st2" d="M2107.4,1753.2c63.7-82.5,74.3-143.5,71.2-185.1c-1.4-18.2-6.3-44.4-6.3-88.6c0-26.5-0.1-65.1,7.9-98.1
		c23.8-98.3,108-103.2,139.2-208.8c8.7-29.6,9.1-52.8,9.5-80.7c1.4-92.8-30.7-121.6-38-199.4c-3.2-34.1-11.1-118.1,36.4-177.2
		c68.7-85.4,209.3-64.2,224.7-61.7"/>
</g>
<g id="Layer_2">
	<path class="st2" d="M1691.8,2070.4c-94,39.7-213.3,109.3-259.6,231.8c-70.9,187.7,89.4,341.1,102,547
		c10.5,172.3-80.4,415-519.1,727.7"/>
</g>
<g id="Layer_3">
	<path class="st2" d="M2045.7,2080.1c12.3,95,47.2,248.4,157.6,394c239.8,316.3,766.3,168.6,811.2,333.7
		c34.8,128.2-258.4,227.1-296.7,505.2c-20.4,148.7,41.3,281.3,97.3,370.8"/>
</g>
<g id="Layer_4">
	<path class="st2" d="M1701.9,1685.8c19.4-47.9,44.2-128.3,28.8-220.4c-39.2-235.8-290.2-244.3-453.2-506.8
		c-176.2-283.6-91.8-609.7-209.8-633.3c-35.8-7.2-71.5,17.4-96.4,39.9"/>
</g>
<g id="Layer_5">
	<circle class="st2" cx="2857.9" cy="3695.6" r="11.7"/>
</g>
<g id="Layer_6">
	<circle class="st2" cx="2585.7" cy="658.6" r="9.1"/>
</g>
<g id="Layer_7">
	<circle class="st2" cx="932" cy="365.5" r="7.3"/>
</g>
<g id="Layer_8">
	<circle class="st2" cx="634.1" cy="3584.9" r="8.1"/>
</g>
</svg>
