<?xml version="1.0" encoding="utf-8"?>
<!-- Generator: Adobe Illustrator 23.0.2, SVG Export Plug-In . SVG Version: 6.00 Build 0)  -->
<svg version="1.1" id="Layer_1" xmlns="http://www.w3.org/2000/svg" xmlns:xlink="http://www.w3.org/1999/xlink" x="0px" y="0px"
	 viewBox="0 0 304 300.4" style="enable-background:new 0 0 304 300.4;" xml:space="preserve">
<style type="text/css">
	.st0{fill:#FFFFFF;}
	.st1{fill:none;stroke:#000000;stroke-width:2;stroke-linecap:round;stroke-linejoin:round;}
</style>
<title>vene</title>
<path d="M194.2,77.7c-4.1,3.3-3.6,9.5-9.8,10.9c1.4-3.1,2.9-6.1,4.6-9c3.5-5.4,4.1-10.5,0.9-14.2c-0.6-0.9-1.6-1.5-2.7-1.7
	c-3.3,0.1-6.6,0.5-9.9,0.9c-5.3,0.6-10.7,1.2-16,1.9c-4.5,0.5-9,1-13.4,1.7c-1.3,0.2-2.6,0.9-3.6,1.8c-4.2,4-9.3,4.5-14.7,3.9
	c-1.5-0.2-2.9-0.2-4.3-0.4l-0.5,0.8c1.5,2,3,4.1,4.7,5.9c5.5,5.7,9.8,12.3,12.9,19.6c2.1,4.9,3.2,10.2,3.2,15.6c0,5.5,1.6,7.9,6,9
	c1.4,0.4,2.9,0.2,4.1-0.5c0.7-0.6,0.8-2.5,0.5-3.8c-1.1-5,0.8-7.7,5.9-7.8c3.6-0.1,7.2,0,10.7,0l0.1,1c-0.8,0.2-1.7,0.4-2.5,0.5
	c-2.6,0.3-5.2,0.4-7.8,0.8c-3.5,0.6-3.8,1.5-1.9,5.1c12.4-5.9,25.7-5.7,39.2-6c0.6,3.6,2.5,5.6,6.2,5.8c-2.5,1.6-4.4,0.8-6.5-0.4
	c-2-1.1-4.2-1.8-6.5-2.1c-1.7-0.1-4.1,0.5-3.8,3.1c-0.1,2.2,1.6,4,3.8,4.1c0.1,0,0.2,0,0.3,0c3.6,0,7.2,0,10.9,0
	c5.5,0,9.4,2.5,11.3,8.1c-0.9-0.5-1.8-1-2.6-1.7c-4-4.1-6.6-4.5-11.6-1.6c-0.8,0.3-1.7,0.4-2.5,0.3c-1.1,0-2.2-0.4-3.3-0.5
	c-4.8-0.3-8.5-1.7-10.2-7c-1.2-3.9-1.7-3.7-8-1.6c-0.3,4.7,3.3,8.4,8.7,9.2c1.8,0.4,3.5,1.1,5.1,1.9l-0.5,1.5
	c-3.7-0.7-7.4-1.5-10.9-2.6c-1.8-0.8-3.3-2.2-4.1-4c-2-5.6-6.6-5.4-10.9-2.5c-1.1,0.8-2.1,1.7-3,2.8c-3.2,3.2-6.7,4.5-11.2,2.8
	c-4.5-1.7-4.7-1.5-5,3.1c-0.4,3.6-0.3,7.2,0.2,10.8c1.3,6.8,6,11,12.2,13.4c2.8,1,5.7,1.5,8.7,1.5c6.6,0,13.2-0.4,19.8-0.6
	c4.3-0.1,8.6,0.3,12.2,2.8c2.1,1.7,3.9,3.7,5.2,6c1.5,2.4,2.4,5.2,3.8,7.7c3.6,6.4,10.9,6.6,15.3,0.4c0.9-1.3,2.1-2.3,3.6-2.9
	c-0.2,1.2-0.3,2.5-0.5,4.3c2.1,0.2,4.2,0.2,6.3-0.1c2.7-0.4,5.3-1.3,7.7-2.6c4-2.6,7.6-1.5,12,0l-14.6,3.8l14.3,6.5
	c-0.1,0.3-0.2,0.7-0.3,1l-8.5-2l-0.3,0.8l1.8,2.4c-0.5,0.3-0.9,0.8-1,0.7c-1.3-0.7-3.5-1.3-3.7-2.4c-0.6-2.6-2.5-3-4.3-3.6
	c-4.4-1.5-12.7-0.5-18,2.4c2,0.5,3.2,0.9,4.5,1.2c8.1,2.4,16.3,4.5,24.3,7.3c3.7,1.3,7.5,2.8,9.8,6.5c0.2,0.4,0.3,0.8,0.4,1.3
	l-22.8-8.9l-0.6,0.9c1.1,1.8,2.1,3.6,3,5.5c0.7,2.2,1.2,4.5,1.5,6.8c-2.4,0-4-0.8-4.2-3.6c-0.5-5.9-4.5-8.5-9.3-10.3
	c-3.9-1.5-7.9-2.5-11.7-4c-6.6-2.7-10.1-8.2-12.5-14.6c-1.5-4-1.7-4.1-5-5.2c-2.3,2.7-4.5,5.4-6.8,7.9c-3.5,3.7-3,5.9,1.7,7.6
	c6.1,2.2,10.2,6.9,14.4,11.6c0.3,0.3,0.1,0.9,0.3,2.3c-6.4-5.3-12.3-10-20.1-11.6c-1.4,4.9-0.5,9.4,0.9,14c-2.6-1.5-4.4-3.7-4.3-6.5
	c0.3-4.8,1.2-9.6,1.7-14.4c0.4-2.9,1.9-5.5,4.1-7.3c0.7-0.9,1.3-1.9,1.7-3c-1-0.6-2.1-1-3.3-1.2c-3.1,0-6.2,0.2-9.3,0.4
	c-15.6,1-22.4-0.1-33.7-9.4c-3.1,4.4-1.3,9.2,3.5,11.8c6.2,3.4,12.2,7.3,13.8,15.2c-2.7-2.9-5.6-5.6-8.7-8.1
	c-3.3-2.2-6.7-4.2-10.2-6c-2.6,2.7-2.6,2.7-2.6,8.4l-0.8,0.3c-0.6-1.4-0.9-2.9-1.1-4.4c0-4.2,0.3-8.4,0.5-12.6
	c0-1.1,0.2-2.2,0.5-3.3c1.7-4.8,1.8-10.1,0.4-15c-1.2-5-1.2-10.2,0-15.2c1.1-5.7,0.8-11.5-0.9-17.1c-1.7-6.6-4.7-12.9-8.8-18.4
	c-0.6-0.7-1.2-1.3-1.9-1.8c-0.2,0.8-0.4,1.6-0.4,2.5c2,9.8-1,18.5-5.8,26.8c-2.5,4.3-5.3,8.5-7.7,12.8c-4.5,7.9-5.8,15.9,0.1,23.8
	c4.1,5.5,5.7,11.7,6.7,18.4c0.7,4.3,1.8,8.5,0.6,12.9c-0.6,2-1.4,3.9-1.8,5.9c-1,5,1.9,8.3,6.9,8.3c0.6,0,1.2,0,2.2,0.1
	c-0.3,0.9-0.5,1.6-0.8,2.7l9,4.6c-6.7,1-11.8-3-17.5-5.6c0.6,1.9,1.2,3.7,1.8,5.5l-1.1,0.6c-1.1-1.6-3-3.2-3.1-4.9
	c-0.1-3.5-2.2-5.8-3.9-8.4c-2.3,1.8-2.1,2.7,2.9,12.8l-0.6,0.7c-1.7-1.7-3.4-3.4-5.2-5c-2-1.6-2.7-4.4-1.7-6.8
	c1.2-2.4,2.7-4.8,4.3-6.9l-3-0.4c2.3-1,5.1-1.6,6.5-3.2s3.1-4.1,1.2-7.2c-1.1,0.8-2,1.6-3,2.2c-2.7,1.8-4.4,4.7-8.1,5.5
	c-2.9,0.6-3.5,3.2-2.3,6.9l2.9-1l0.6,0.8l-4.4,3.7c-0.7-2-1.2-3.4-1.7-4.7l-0.8-0.3c-0.8,1.5-1.4,3.1-1.8,4.8
	c-0.9,6.5,0.8,13.1,4.5,18.5c0.6,0.8,0.8,1.9,1.5,2.5c0.9,1,2.1,1.7,3.4,2c5.7,1,11.4,1.8,17.2,3.2l-10.3,2.1
	c1.2,2.6,4.2,2.6,6.5,3.8c2.3,1.3,4.6,2.4,7.1,3.2c2.6,0.6,5.2,0.9,7.9,1.1v1.1l-4.6,0.6c4.7,4.3,10.1,7.6,14.4,12l-0.7,0.9
	c-1.5-0.9-3.1-1.8-4.7-2.5c-1.2-0.5-2.1-2.5-3.9-1c-0.6-0.4-1.1-0.8-1.5-1.3c-4.9-5.4-11.3-8.5-17.6-11.6c-0.4-0.2-0.9,0-1.7,0
	c0.1,0.8,0,1.7,0.3,2.1c3.5,4.3,7.3,8.5,10.7,12.9c3.1,4,7.4,5.8,12,7.1c2.6,0.9,5.3,1.5,8,1.9c3.2,0.2,4.5,1.8,5.8,4.4
	c1.2,1.9,2.6,3.7,4.1,5.3l-3,1.9l3.3,2.7c-4.3,0.4-5.2,0-5.5-3.6c0-3.5-2.4-6.5-5.8-7.3c-2.9-0.9-5.9-1.6-8.8-2.4l-0.5,0.9
	c4,5.1,8,10.3,12.1,15.3c0.8,0.6,1.7,1,2.7,1.1c1,0.2,1.9,0.3,2.9,0.4l0.1,0.8l-5.2,1l2,7.9l-1.1,0.4c-3.1-5-6.2-9.9-9.7-15.4
	c-3.3,3.5-5.9,7.7-7.5,12.3c-1.7-1.9-2-2.9-0.9-5.2c1.1-2,2.2-3.9,3.5-5.8c2.2-3.6,2.2-4.7-0.6-7.9c-5.4-5.9-10.9-11.7-16.2-17.6
	c-1.7-1.8-3-2.1-5-0.5c-1.8,1.5-4.1,2.3-6.1,3.6c-0.8,0.7-1.5,1.5-2.1,2.4c0.8,0.7,1.6,1.3,2.4,1.8c2.6,1.1,5,2.4,7.4,4
	c-4.6,1.1-8.4-1.2-12.3-2.6c-1.9,4.4-1.5,6,1.4,8.3c-0.2,2.1-0.3,3.9-0.5,6.4c-3.8-4.3-5.7-8.7-4.9-13.9c0.4-4.7,3.8-8.7,8.3-10
	c0.7-0.1,1.4-0.5,2-0.9c1.1-1.2,3.2-3.2,2.8-3.9c-1-1.9-2.5-3.5-4.4-4.6c-2.4-1-4.8-1.8-7.4-2.4l5-1.8l-5-1.6
	c1.7-3.3-2.4-11.3-7.3-14.4v-4.4c-2.4,3.4-4.7,6.5-4.5,10.8c0.2,2.5,0.7,4.2,3.4,4.1c0.3,1.4,0.5,2.6,0.8,4h-3c0.3,3,4.7,3,4,6.2
	c-0.5,2.4-0.9,4.8-1.3,7.5c-1.7-0.6-2.9-2.1-3.2-3.9c-0.9-3.3-2.3-4.2-5.7-3.7c-1.7,0.1-3.4,0.5-5.1,0.9c-1.7,0.6-3.1,2-2.2,4.1
	c0.7,1.9,2.7,2.8,4.6,2.2l4.1-1.1l0.4,1l-4.2,1.9c2.4,3,6,5.1,8,8.5L87,254l-5.5-1.2c-1.6-5-6.8-6.9-10.5-10.2
	c-1.2-1.1-4.7,1.4-5.5,4c-2.2,7-3.6,13.9,2.6,19.8c0.4,0.5,0.6,1.1,0.8,1.7c-3.5-0.5-3.5-0.5-9.2-11.3c-3.6,0.7-4.5,3.7-5.6,6.6
	c-1.9-2.2-2.3-4-0.3-5.4c5.2-3.9,8-9.1,9.7-15.3c0.6-2,3-3.5,4.8-5.5l-1.7-2.4l3.6,0.9l0.4-0.7c-0.9-0.4-1.9-1.2-2.7-1.1
	c-1.4,0.5-2.8,1.1-4.1,1.9l0.1,1l-5.1-3l-6.2,4.3c0.8-4.3,1.4-7.5,2.1-11.2c0.5,1.4,0.8,2.4,1.2,3.5c2.1-6.8,8-8.7,13.5-10.5
	c6.2-2,10.9-5.8,15.1-10.5c3.4-3.7,5.5-7.9,4.8-13.2c-0.2-1.6,0.8-3.3,1.3-5c0.6-2,1.3-4,2-6.1c0.9-0.3,1.9-0.7,2.7-1.2
	c3.3-2.4,6.5-5,9.9-7.3c3.7-2.5,4.8-5.3,2.8-9.4c-1.5-3.1-3.4-6.1-5.1-9.1c-3.1-5.2-5.4-10.7-4.8-17c0-0.7-0.1-1.4-0.3-2.1l-0.8-0.5
	c-1.7,1.8-3.1,3.8-4.3,6c-1,2.6-1.6,5.2-1.9,8c0,1.2,0.5,2.4,1.3,3.2c3.6,3.5,2.8,7.3-2.7,9.5l2.1-5.8l-1-0.5
	c-1.1,3.8-3.5,7.2-6.7,9.6l-1-0.5c0.2-1,0.6-1.9,1.2-2.7c2.2-2.3,3.3-5.4,3.1-8.5c0-4,0.6-7.9,0.9-12.2l-3.8,0.6
	c3-2.6,5.6-4.7,8-6.9c1.5-1.8,3.3-3.3,5.2-4.7c2.4-1.4,4.1-4.1,5.8-6.5c1.9-2.5,3.6-5.1,5.1-7.8c2.5-4.6,4.9-9.3,7.1-14
	c1.9-4.1,0.6-6.3-3.8-7.2c-1-0.2-2-0.4-2.9-0.8c-2.5-0.9-5.4-0.1-7.1,2c-4.1,4.3-4.1,4.3-4.9,10.4c-2.9-2.8-5.1-0.9-7.5,0.8
	c-3.8,2.7-8.1,4.6-12.7,5.5l-0.4-0.7l6.7-4.7c-0.4-0.7-0.7-1.3-1.4-2.6c6.1,0.3,10.2-2.3,13.4-6.9c-4-2.6-6.8,2.7-10.5,1.3
	c3.4-1.4,5.7-5.3,10.4-3.9c1.3,0.1,2.6-0.4,3.6-1.4c3.4-3,6.6-5.7,11.6-3.2c1.6,0.8,3.6,0.5,5.8,0.8c1.1-3.2-0.6-5.8-1.7-8.2
	c-3.6-8.5-9.8-15.8-17.5-20.8c-5.5-3.5-10.8-7.2-16.1-10.9c-0.8-0.6-1.9-1.2-2.1-2c-0.4-1.5-0.3-3.1,0.3-4.5c0.9-1,2.3-1.4,3.7-1.2
	c5.8,2.7,11.6,5.7,17.3,8.7c4.5,2.4,8.6,5.9,13.4,7.3c6.6,1.7,13.4,2.7,20.2,3c2.2,0.2,4.8-1.7,7-3.2c2.7-1.9,5.3-3.5,8.9-3.4
	s3.6-1,4.1-4.4c0.5-3.7,1.5-7.2,3.2-10.5c0.9-1.6,3.8-2.2,6.2-3.4l-3.2-2.4l0.1-0.7l4.2,0.8c2.7-3.7,6.6-4.7,11.2-3.8
	c-3.1,0.2-3.6,4.6-7.1,4.3c-0.2,0-0.8,1-0.7,1.5c0.2,0.6,0.6,1,1.1,1.2c1,0.1,2-0.1,2.9-0.5c5.5-2.6,10.9-5.3,16.5-7.8
	c3.1-1.3,6.3-2.4,9.5-3.2c1.1-0.2,2.2-0.1,3.2,0.4l-11.8,5.3v1c1.3,0.5,2.7,0.9,4,1.5s3.4,0.8,4.4,1.9c2.4,2.8,4.7,1.6,6.4-0.2
	c1.8-2.1,3.3-4.4,4.5-6.8c0.3-0.6-0.2-1.8-0.4-2.6c2.6-3.4,6.1-1.7,9.3-1.3c2.3,0.3,3.7,0.1,4.5-2.4c0.9-2.3,3.5-3.5,5.8-2.6
	c0.1,0,0.3,0.1,0.4,0.2c2.1,1.1,5.1,1.3,5.6,4.7c0.1,0.6,2,0.9,3.7,1.5c-4.6,1.9-8.5-0.1-12.4-1.3c-0.1,0.3-0.2,0.6-0.2,0.8l1.9,2
	c-0.2,0.3-0.4,0.8-0.6,0.8c-2,0.3-4.1,0.3-6.1,0.1c-5.1-1.2-6-1-8.4,3.5c1.1,0.3,2.1,0.6,3.2,0.9c3.7,0.9,7.7,0.6,10.8,3.6
	c0.7,0.7,3-0.1,4.8-0.2c-0.2,0.9-0.4,1.6-0.7,2.7l5.5,2.4c-0.3-1.5-0.5-2.4-0.7-3.2l0.6-0.5l3,3.3l1.6-3.5c1.3,1.5,2.3,3.3,3.9,1.2
	c1.8,2.4,0.2,5.9,4,7.6l-7.9,1c-0.6,7.6-0.6,7.7,6.6,9c1.3,0.2,2.7,0.5,4.8,0.9l-3,1.5l2.8,3.7l-0.4,0.7L236.3,62l-0.5,0.3l3.4,6.2
	c-5.2-1.6-6.6-4.3-5.5-8.6c0.4-1.3,0.5-2.7,0.5-4c-0.2-0.9-0.6-1.8-1.1-2.7c-0.7,0.7-1.5,1.3-2.2,2c-0.4,0.5-0.8,1.1-1.1,1.7
	c-0.2-2.7-0.4-4.6-0.6-6.7c-0.6,0.2-1.1,0.3-1.2,0.5c-3.9,7.5-1.8,17.9,4.8,23c4.2,3.1,6.9,7.7,7.5,12.9c0.2,2,1.9,4,3.2,5.7
	c1.1,1.5,2.3,2.6,1.1,4.5c-0.4,0-0.8,0.1-0.9,0c-3.9-3.8-3.9-3.9-7.5,0c-1.6,1.6-2.9,3.4-3.9,5.4c-1.6,3.8-0.1,5.8,3.9,6.2
	c0.6,0,1.2,0.2,2.6,0.5l-3.3,1.8l7.7,3.9c-5.6,2.2-9.5,0.1-15.9-8.8l-6.6,3.6c-0.2-2.8,1.8-3.5,3.2-4.8c1.9-1.7,3.6-3.6,5.3-5.5
	c1.5-1.8,2.8-3.8,4.3-5.7c2.6-3.5,2.7-6,0.1-10.3c-1,1.2-2.1,2.1-3,3.2c-0.6,1-1.2,1.9-1.9,2.7c-1.1,0.8-2.2,1.4-3.4,2
	c0.4-1.2,0.8-2.4,1.3-3.5c0.5-0.9,1-1.7,1.6-2.5c3.4-5.2,3.4-5.2-1.2-9.5c-4.6-4.3-7.3-9.7-6.4-16.3c0.4-1.7,0.5-3.5,0.2-5.2
	c-0.4-1.4-1.7-2.5-2.8-3.9c0.7-0.7,1.1-1.5,1.4-2.5c0-0.5-1.8-1.8-2-1.7c-2.4,1.7-4.9-0.2-7.4,0.4c-5.9,1.2-11.1,4.6-14.6,9.5
	c-0.9,1.1-1.6,2.2-2.3,3.4c-0.4,1-0.4,2-0.1,3c1.2,3.1,2.9,6,3.8,9.2c0.9,3.4,1.5,6.8,1.9,10.3c0.7,6.1,1.5,7,7.6,8.2
	c0.7,0.2,1.3,0.4,1.9,0.7c-1.7,0.4-2.5,0.6-3.4,0.8s-1.6,0.3-2.7,0.6c3.6,4.9,9.3,3.3,13.5,5.6c-5.2,0.8-10.2,1.3-15-1.8
	c-2.7-1.8-3.6-4.7-4.3-7.6C195.7,85.1,195.1,81.7,194.2,77.7z"/>
<path d="M227.4,16.7c-1.5,3.4,4,4.5,6.5,7.9C227.4,24.1,226.5,22.5,227.4,16.7z"/>
<path class="st0" d="M187.5,49.7V41h1.1l0.3,4.3l5.1-1.2l0.5,1c-1.4,0.8-2.7,1.7-3.9,2.7c-0.8,0.6-1.4,1.5-1.8,2.4
	c-1.5,4.6-2.9,5.6-7.8,6c-5.3,0.4-10.6,1.2-15.9,1.8c-1.2,0.1-2.5,0.3-3.7,0.4c-2.3,0.1-4.6,0.4-4.7-3.1s1.9-6.2,4.9-6.3
	c1.1,0,2.7,0.1,3.1-0.5c1.9-2.6,4.8-1.1,7-2.1c0.3-0.1,1,0.6,1.5,0.8c1.5,0.6,3.2,1.2,4.7,1.8l0.5-1c-0.2-0.4-0.7-0.8-0.7-1.1
	c0.1-0.7,0.3-1.4,0.6-2.1c0.7,0.3,1.8,0.5,2,1c0.3,1.3,0.6,2.6,0.6,4h0.8c0.3-2.5,0.5-5,0.8-7.6c3.3,1.7,3.7,4.6,3.6,7.8L187.5,49.7
	z"/>
<path class="st0" d="M77.3,224l4.5-5.8l1.5,0.5c-0.2,1.9,0.1,4.1-0.8,5.7c-0.5,0.9-2.9,0.8-4.4,1.1L77.3,224z"/>
<path class="st0" d="M66.8,227.3l2.6-0.8l-3.5-1.7c1.2-0.6,2.4-1.2,3.7-1.5c1,0.1,1.9,0.4,2.8,0.8c-0.4,1.1-0.6,2.6-1.4,3
	c-1.3,0.5-2.8,0.8-4.2,0.9L66.8,227.3z"/>
<path class="st1" d="M219,186l7.9,2.1"/>
<path class="st1" d="M231.8,188.6c8.7,2,17.4,4,24.4,10.3"/>
<path class="st1" d="M115.9,96.9c-3-0.9-6-1.6-9-2.1c-1.7,0-3.4,0.5-4.8,1.5c-1.8,1.1-3.4,2.7-4.5,4.5c-2,3.7-5.2,5.8-8.7,7.8
	c-4.4,2.6-8.3,6-13.5,7.1"/>
<path class="st1" d="M238,86c0.8,3.9-1.1,6.7-3.6,9.4c-1.1,1-2.1,2.1-3,3.4c-3.3,5.7-1.2,10.6,4.8,14c2.4,1.3,5.2,1.9,8,1.7"/>
<path class="st1" d="M139.9,267.9c3.2,3.8,5.7,8.1,7.5,12.8c0.5,1.5,0.8,3,1.1,4.5"/>
<path class="st1" d="M156.4,265.3c-2.6,0-5.2,0.5-6.2-3.3c-0.8-2.5-3.2-4.2-5.8-4.3c-3-0.3-6-1.5-9-2.1c-1.3-0.1-2.5,0-3.7,0.3"/>
<path class="st1" d="M116.7,192.2c-1.5,0-3,0.2-4.5,0.4c-3,0.8-4.8,4-4,7c0,0.2,0.1,0.4,0.2,0.5c1.1,3.5,2.7,6.7,6,8.6"/>
<path class="st1" d="M190.9,168.2c-1.4,1.4-2.8,2.7-4.1,4.1c-4.6,5-3.6,8.7,2.6,10.9c6,2,11.1,6,14.6,11.2"/>
<path class="st1" d="M194.7,75.5c0.7,1.2,1.3,2.5,1.8,3.8c1.2,4.2,2,8.6,3.5,12.7c1.2,3.2,4.6,4.3,7.8,4.8c2.9,0.3,5.7,0.5,8.6,0.5"
	/>
<path class="st1" d="M252.4,172.7c-0.5,0.2-1,0.3-1.5,0.4c-4.9-0.7-9.9,0.3-14.1,2.9c-4.2,2.6-8.1,1.3-12.1,1.9
	c-3.4,0.5-6.5,2.8-9.8,4.3"/>
<path class="st1" d="M173.7,113c-3.5,0.1-7,0.3-10.5,0.4c-5,0.2-6.5,2.2-4.9,6.8c0.2,0.5,0.5,1,0.7,1.5"/>
<path class="st1" d="M135.4,234.2c-3.4,0.2-6.9,1-10.1,0.4c-2.9-0.6-5.5-2.7-8.3-4.1c-1-0.4-2-0.6-3-0.8"/>
<path class="st1" d="M174.4,120.9c1,1.2,1.9,2.6,2.6,4.1c1,3.8,4.5,4.3,7.2,5.5c2.4,0.8,5,1.3,7.5,1.6"/>
<path class="st1" d="M184.5,180.5c-0.5,0.4-1.4,0.7-1.5,1.1c-0.6,3.3-0.8,6.7-0.6,10.1c0.2,1.8,2.1,3.5,3.2,5.3"/>
<path class="st1" d="M216.4,131.8c-0.9-0.4-1.8-0.9-2.6-1.5c-4-4.5-8.1-5.6-13.9-3.7"/>
<path class="st1" d="M193.5,126.4c-5.1,0.4-5.4-3.8-6.8-6.9"/>
<path class="st1" d="M115.5,176c3.3,3,3.6,7.9,0.8,12c-0.9,1.3-1.5,2.7-2.3,4.1"/>
<path class="st1" d="M139.9,154.3c-0.5,2.5-1.6,5.1-1.4,7.5c0.3,3.4,2.7,5.6,5.8,7.2c6.2,3.1,11.7,7.1,15,13.5"/>
<path class="st1" d="M200.7,31.3c-2.8-0.4-5.7,0.4-7.9,2.2c-1.5,0.9-3.1,1.6-4.8,2c-2.9,1-3,3-2.3,5.7c0.6,3.1,1,6.2,1.2,9.3"/>
<path class="st1" d="M137.7,267.5c-2.1,3.1-4.5,6.1-6.3,9.4c-0.8,1.4-0.4,3.4-0.5,5.2"/>
<path class="st1" d="M230.3,189.5c1,1.5,2.1,3,3,4.5c0.8,1.1,1.3,2.4,1.5,3.7c-0.2,2.8,0.8,4.5,3.5,5.2"/>
<path class="st1" d="M185.3,88.3c1.9-3,3.7-6,5.6-9c0.8-1.2,1.7-2.3,2.6-3.4"/>
<path class="st1" d="M194.1,70.3c0-4-2.6-6.7-5.1-9.4"/>
<path class="st1" d="M114,240.2c-2.5,2.9-5.5,5.2-8.9,6.9c-5.5,3.1-8.1,8.2-5.7,14.9c0.8,2.3,2,4.5,3,6.8"/>
<path class="st1" d="M61.5,254.8c0.4,1,0.6,2,0.7,3c-0.2,3.3,1.3,6.5,4.1,8.3c0.8,0.5,1.3,1.7,1.9,2.6"/>
<path class="st1" d="M97.9,135.9c-4.8,2.3-7.9,7.1-8.2,12.4c-0.2,2.6-0.2,5.2-0.4,7.9c-0.4,4.3-2.4,8.4-5.6,11.2"/>
<path class="st1" d="M71.3,239.4c2.6,2.8,5.4,5.4,8.3,7.8c2.7,1.8,3.5,3.6,2.2,6.5"/>
<path class="st1" d="M73.2,221.4c-4-0.9-6.9,1-9.8,3.4"/>
<path class="st1" d="M96.4,100.3c-2.9-1.4-5.6-1.6-8.3,0.7c-1.1,0.9-2.9,0.8-4.4,1.2"/>
<path class="st1" d="M186.4,117.5c2.5-0.8,5-1.6,7.5-2.2c2-0.5,4.4-0.5,5.5,1.5c1.7,3,4.4,3,7.2,3"/>
<path class="st1" d="M85.2,217.7v7.9"/>
<path class="st1" d="M115.2,197c1.3,1.7,2.8,3.2,4.5,4.5c4.9,3,9.4,7,15.7,6.8"/>
<path class="st1" d="M89.7,156.2l3,1.2c1.8,3.4-1.5,5.3-2.7,7.8"/>
<path class="st1" d="M235.2,177.5c1.4,0.8,3,1.6,4.5,2.2c4.2,1.5,8.5,2.8,12.7,4.2"/>
<path class="st1" d="M233.7,80.8l-7.5,9.4"/>
<path class="st1" d="M236.3,59.4c-2.7,1.5-2.5,3.5-0.8,5.6c1.1,1.3,2,2.7,3,4.1"/>
<path class="st1" d="M156.4,49.7c-2.8,2.5-1,5.8-1.5,8.6"/>
<path class="st1" d="M139.5,166.3c-2.2,3.3-2.5,4.9-1.9,11.6"/>
<path class="st1" d="M127.2,235.3c4,3.1,8,6.3,12,9.4c1.7,1.2,3.5,2.3,5.2,3.4"/>
<path class="st1" d="M180,41.8c2,2.6,1.5,5.7,1.5,8.6"/>
<path class="st1" d="M238.5,90.2c1.9,2,5.3,2.5,5.6,6"/>
<path class="st1" d="M229.2,104c-3,0.2-5.8,1.7-7.5,4.1"/>
<path class="st1" d="M208.2,90.2l-7.9,0.4"/>
<path class="st1" d="M124.2,223.3c-4-0.6-8,1.6-12-0.2c-0.7-0.3-2.2,1.1-3.3,1.7"/>
<path class="st1" d="M236.5,56.8c0.1,3.6,3.2,6.5,6.8,6.3c0,0,0.1,0,0.1,0c2.2,0,4.5-0.5,6.8-0.7"/>
<path class="st1" d="M151.5,265.7c-1.9,4,1.8,3.8,3.8,4.9"/>
<path class="st1" d="M175.2,35.4c-4.6-0.1-9.2,2-10.1,4.9c-0.3,1.4-0.4,2.7-0.4,4.1"/>
<path class="st1" d="M69.4,226.3H63"/>
<path class="st1" d="M57.8,231.5l-5.6,5.2"/>
<path class="st1" d="M235.9,50.4c0.3,1.6,0.5,3.2,0.7,4.9c0,0.3-0.9,0.7-1.4,1.1"/>
<path class="st1" d="M244.5,63.5l5.2,4.5"/>
<path class="st1" d="M236.7,31.3l-6-0.8"/>
<path class="st1" d="M101.3,251.4c0.8,2.1,2.8,2.1,4.5,2.7c2.4,0.8,4.8,1.7,7.1,2.6"/>
<path class="st1" d="M84.4,242.4l-6,1.9"/>
<path class="st1" d="M98.7,232.7c2.6,0.8,5.5,0.4,7.8-1.1"/>
<path class="st1" d="M54.4,226.7l1.1,6"/>
<path class="st1" d="M226.5,171.5c-1.7,1.3-2.6,3.5-2.2,5.6"/>
<path class="st1" d="M164.3,41l-5.6-2.2"/>
<path class="st1" d="M90,143c-1,0.1-2,0.2-3,0.4c-0.9,0.3-1.8,0.7-2.6,1.1"/>
<path class="st1" d="M239.3,42.9c0.1,1.4,0.3,2.8,0.4,4.1c0.1,1.9,0.3,3.8,0.4,5.6"/>
<path class="st1" d="M112.2,190.3c-1.5-0.6-3.2-2.6-4.5,0.4"/>
<path class="st1" d="M116.7,200c-0.9,1.5-1.4,2.9,0,4.5c0.8,1.3,1.5,2.6,1.9,4.1"/>
<path class="st1" d="M232.9,43.7c4.8,0.3,1.7,3.4,1.9,5.2"/>
<path class="st1" d="M99.8,190.7c0.6,1.6,1.2,3.3,1.9,4.9"/>
<path class="st1" d="M145.5,275l7.9,0.4"/>
<path class="st1" d="M127.2,201.5l-3.8,1.5"/>
<path class="st1" d="M212.7,42.2v4.5"/>
<path class="st1" d="M214.5,42.9l1.1,4.5"/>
<path class="st1" d="M243.4,43.7c-0.6,1.4-1.2,2.8-1.9,4.1"/>
<path class="st1" d="M241.5,181.3c-0.8,3.7-0.6,4,3.4,4.1"/>
<path class="st1" d="M232.5,24.2l-4.1-2.2"/>
<path class="st1" d="M80.3,46.7l1.1,4.1"/>
<path class="st1" d="M91.2,230.4l-2.2-2.6"/>
<path class="st1" d="M222.4,50c-1.6,0-3.6,1.7-4.5-1.1"/>
<path class="st1" d="M105,193.3l-4.1,4.1"/>
<path class="st1" d="M103.9,262.7l-3,0.4"/>
<path class="st1" d="M169.2,37.7v3"/>
<path class="st1" d="M102.4,227.8l-4.5,1.1"/>
<path class="st1" d="M88.2,227.4l-3,0.4"/>
<path class="st1" d="M92.7,183.9l1.1,3"/>
<path class="st1" d="M238.9,108.9l-5.6,1.1"/>
<path class="st1" d="M66.4,235.7l3,1.1"/>
</svg>
