<svg id="Layer_1" data-name="Layer 1" xmlns="http://www.w3.org/2000/svg" viewBox="0 0 398.75 444.41"><defs><style>.cls-1{fill:#fff;}.cls-2{fill:none;stroke:#000;stroke-linecap:round;stroke-linejoin:round;stroke-width:2px;}</style></defs><title>vene</title><path d="M202.46,142.46c-2.75,2.19-2.38,6.32-6.52,7.29a63.82,63.82,0,0,1,3.09-6c2.35-3.57,2.71-7,.62-9.47a2.86,2.86,0,0,0-1.79-1.12c-2.21.07-4.42.35-6.62.6-3.55.4-7.1.83-10.65,1.24-3,.35-6,.64-8.91,1.1a4.72,4.72,0,0,0-2.4,1.2c-2.82,2.66-6.2,3-9.79,2.59-1-.11-1.92-.16-2.88-.24l-.33.5c1,1.31,2,2.71,3.13,3.93A42.63,42.63,0,0,1,168,157.14a26.83,26.83,0,0,1,2.16,10.41c0,3.69,1.08,5.25,4,6a3.53,3.53,0,0,0,2.73-.36c.48-.39.5-1.69.33-2.51-.71-3.36.55-5.14,3.93-5.22,2.38-.06,4.77,0,7.15,0l.08.7c-.56.12-1.11.28-1.68.35-1.73.2-3.48.27-5.2.55-2.3.38-2.54,1-1.27,3.39,8.25-3.94,17.15-3.8,26.16-4,.41,2.39,1.69,3.73,4.11,3.88-1.64,1.07-2.91.55-4.35-.24a10.84,10.84,0,0,0-4.32-1.38c-1.1-.07-2.7.33-2.55,2.06a2.63,2.63,0,0,0,2.72,2.71c2.41,0,4.83,0,7.25,0,3.66,0,6.28,1.66,7.52,5.43a8.86,8.86,0,0,1-1.76-1.14c-2.64-2.72-4.4-3-7.73-1.07a3.33,3.33,0,0,1-1.68.17c-.74,0-1.48-.28-2.22-.32-3.23-.17-5.68-1.16-6.81-4.67-.83-2.59-1.13-2.49-5.36-1.09-.21,3.16,2.22,5.63,5.81,6.16a16.58,16.58,0,0,1,3.38,1.24l-.31,1a61.14,61.14,0,0,1-7.3-1.76,5,5,0,0,1-2.71-2.7c-1.33-3.75-4.37-3.59-7.28-1.7a12.67,12.67,0,0,0-2,1.85c-2.11,2.14-4.46,3-7.46,1.87s-3.15-1-3.34,2.07a29.61,29.61,0,0,0,.16,7.17c.84,4.55,4,7.33,8.15,8.94a16.58,16.58,0,0,0,5.81,1c4.4,0,8.81-.27,13.22-.42,2.87-.09,5.75.17,8.12,1.88a14.61,14.61,0,0,1,3.5,4c1,1.6,1.59,3.48,2.52,5.15,2.39,4.29,7.3,4.37,10.23.25a5.53,5.53,0,0,1,2.37-1.9c-.1.82-.2,1.64-.35,2.89a20.92,20.92,0,0,0,4.21-.06A15.31,15.31,0,0,0,233.1,206c2.65-1.73,5.09-1,8,0l-9.72,2.54,9.54,4.33c-.08.22-.15.45-.23.68l-5.64-1.33-.22.51,1.23,1.63c-.3.2-.58.5-.67.45-.88-.48-2.32-.89-2.47-1.57-.39-1.72-1.68-2-2.87-2.38-2.92-1-8.47-.35-12,1.6,1.31.36,2.15.58,3,.83,5.4,1.59,10.85,3,16.18,4.87,2.46.84,5,1.84,6.5,4.35a3.51,3.51,0,0,1,.27.85l-15.21-5.91-.41.58a27.67,27.67,0,0,1,2,3.67,34.82,34.82,0,0,1,1,4.55c-1.57,0-2.68-.52-2.83-2.38-.3-3.9-3-5.67-6.21-6.88-2.57-1-5.24-1.67-7.78-2.69-4.43-1.79-6.71-5.5-8.35-9.74-1-2.67-1.14-2.73-3.32-3.5-1.56,1.83-3,3.6-4.53,5.26-2.3,2.48-2,3.95,1.15,5.07,4.08,1.46,6.82,4.59,9.57,7.7.17.19.09.58.21,1.53-4.28-3.52-8.19-6.66-13.4-7.75-.95,3.29-.35,6.29.61,9.32-1.72-1-2.94-2.46-2.84-4.3.17-3.22.83-6.41,1.15-9.62a7.79,7.79,0,0,1,2.73-4.87,8.29,8.29,0,0,0,1.12-2,7,7,0,0,0-2.2-.82c-2.07,0-4.15.11-6.23.24-10.38.67-14.92-.07-22.47-6.27-2.09,2.93-.87,6.13,2.3,7.88,4.11,2.26,8.14,4.85,9.19,10.13a67.07,67.07,0,0,0-5.77-5.43,67.84,67.84,0,0,0-6.77-4c-1.7,1.79-1.7,1.79-1.75,5.57l-.54.21a12.27,12.27,0,0,1-.75-2.93c0-2.8.18-5.61.33-8.41a7.35,7.35,0,0,1,.36-2.2,16.22,16.22,0,0,0,.25-10,22.46,22.46,0,0,1,0-10.12,23.71,23.71,0,0,0-.6-11.37,36.28,36.28,0,0,0-5.85-12.29,12.52,12.52,0,0,0-1.29-1.22,6,6,0,0,0-.24,1.64c1.34,6.53-.68,12.34-3.84,17.88-1.64,2.89-3.52,5.64-5.15,8.53-3,5.27-3.86,10.6.06,15.88,2.71,3.64,3.77,7.82,4.47,12.26.46,2.9,1.18,5.68.37,8.58-.37,1.32-.93,2.59-1.19,3.93-.64,3.32,1.26,5.52,4.63,5.52.41,0,.82,0,1.49.08-.18.58-.32,1.05-.55,1.81l6,3.08c-4.49.7-7.87-2-11.66-3.76.42,1.28.81,2.46,1.19,3.65l-.75.41c-.73-1.09-2-2.16-2.07-3.26-.05-2.35-1.5-3.84-2.6-5.57-1.55,1.21-1.42,1.8,1.92,8.54l-.38.44c-1.15-1.11-2.27-2.25-3.46-3.31a3.89,3.89,0,0,1-1.16-4.5,28.3,28.3,0,0,1,2.9-4.63l-2-.26c1.53-.7,3.37-1.05,4.35-2.16s2.06-2.71.82-4.82c-.71.55-1.3,1.07-2,1.5-1.8,1.19-2.95,3.16-5.38,3.65-1.92.39-2.32,2.12-1.55,4.61l1.92-.69.38.53-2.94,2.48c-.46-1.34-.78-2.25-1.1-3.16l-.55-.18a12.89,12.89,0,0,0-1.17,3.2,17.62,17.62,0,0,0,3,12.34c.38.53.52,1.28,1,1.69a5.23,5.23,0,0,0,2.28,1.36c3.78.68,7.6,1.21,11.46,2.13l-6.84,1.39c.78,1.72,2.81,1.73,4.3,2.51a25.86,25.86,0,0,0,4.75,2.13,37.86,37.86,0,0,0,5.26.76v.73l-3.05.4c3.15,2.89,6.71,5.09,9.59,8l-.49.63c-1-.57-2.07-1.2-3.16-1.69-.79-.36-1.38-1.69-2.58-.67a4.82,4.82,0,0,1-1-.87c-3.25-3.59-7.51-5.66-11.75-7.75-.26-.13-.63,0-1.15,0,.07.56,0,1.14.2,1.43,2.36,2.89,4.85,5.68,7.14,8.63,2.08,2.66,4.93,3.85,8,4.72a25.77,25.77,0,0,0,5.33,1.25c2.1.12,3,1.23,3.89,2.92a22.67,22.67,0,0,0,2.73,3.56l-2,1.24,2.22,1.81c-2.9.29-3.48,0-3.67-2.41a5,5,0,0,0-3.9-4.88c-1.95-.57-3.91-1.08-5.87-1.62l-.36.58c2.69,3.42,5.34,6.86,8.09,10.23a3.35,3.35,0,0,0,1.77.72,15.19,15.19,0,0,0,1.93.26l.09.56-3.48.66,1.34,5.27-.74.27c-2.08-3.31-4.16-6.61-6.47-10.3a23,23,0,0,0-5,8.23c-1.11-1.25-1.3-1.95-.57-3.45a40.8,40.8,0,0,1,2.32-3.84c1.49-2.39,1.5-3.11-.43-5.24-3.57-3.94-7.26-7.79-10.83-11.73-1.1-1.21-2-1.43-3.34-.31-1.21,1-2.76,1.53-4.08,2.4a7.23,7.23,0,0,0-1.38,1.61,10.49,10.49,0,0,0,1.63,1.22,30.41,30.41,0,0,1,4.91,2.66c-3.05.73-5.57-.82-8.19-1.76-1.25,2.92-1,4,.93,5.52-.1,1.37-.19,2.6-.32,4.3-2.55-2.89-3.81-5.78-3.28-9.3a7.6,7.6,0,0,1,5.56-6.65,2.88,2.88,0,0,0,1.34-.63c.75-.82,2.13-2.12,1.9-2.58a7.49,7.49,0,0,0-2.94-3.07,24.67,24.67,0,0,0-4.91-1.58l3.33-1.22-3.35-1.09c1.12-2.19-1.62-7.55-4.85-9.62v-2.91c-1.6,2.25-3.15,4.35-3,7.23.1,1.68.44,2.78,2.28,2.72.19.92.36,1.72.55,2.65h-2c.2,2,3.14,2,2.66,4.15-.35,1.58-.57,3.2-.89,5a3.2,3.2,0,0,1-2.11-2.63c-.59-2.22-1.53-2.81-3.8-2.49a16.7,16.7,0,0,0-3.41.63c-1.16.42-2.07,1.36-1.46,2.72a2.43,2.43,0,0,0,3.07,1.47l2.76-.73.26.69-2.77,1.27c1.59,2,4,3.41,5.35,5.66L131,260l-3.69-.77c-1.09-3.33-4.56-4.59-7-6.83-.79-.72-3.13.94-3.67,2.64-1.48,4.66-2.37,9.27,1.76,13.22a3.74,3.74,0,0,1,.51,1.15c-2.33-.34-2.33-.34-6.15-7.55-2.37.44-3,2.46-3.74,4.43-1.26-1.44-1.53-2.64-.22-3.63,3.49-2.63,5.33-6.08,6.49-10.19.38-1.35,2-2.35,3.22-3.68l-1.16-1.59,2.43.6.25-.47c-.6-.26-1.27-.82-1.79-.71a13.1,13.1,0,0,0-2.76,1.25l.09.67-3.41-2L108,249.39c.54-2.85.95-5,1.43-7.47.34.94.56,1.58.82,2.3,1.39-4.5,5.32-5.83,9-7,4.16-1.33,7.24-3.9,10.08-7,2.28-2.49,3.65-5.24,3.21-8.79-.13-1.06.53-2.23.87-3.34.41-1.35.87-2.68,1.32-4.08a8.66,8.66,0,0,0,1.81-.83c2.23-1.59,4.36-3.32,6.61-4.87,2.49-1.7,3.21-3.54,1.9-6.3-1-2.09-2.24-4.07-3.41-6.08-2.06-3.49-3.62-7.11-3.21-11.31a5.84,5.84,0,0,0-.19-1.42l-.56-.35a22.06,22.06,0,0,0-2.89,4,19,19,0,0,0-1.26,5.32,3,3,0,0,0,.87,2.15c2.43,2.32,1.84,4.89-1.79,6.36l1.37-3.89-.67-.3a12.57,12.57,0,0,1-4.46,6.42l-.69-.34a5.54,5.54,0,0,1,.8-1.81,7.56,7.56,0,0,0,2.06-5.66c0-2.64.37-5.28.6-8.14l-2.52.42c2-1.74,3.75-3.12,5.36-4.63a19.38,19.38,0,0,1,3.47-3.13c1.6-.93,2.73-2.76,3.89-4.32a42.52,42.52,0,0,0,3.41-5.22c1.66-3.07,3.25-6.18,4.71-9.34,1.26-2.76.4-4.22-2.52-4.77a14.15,14.15,0,0,1-1.94-.5,4.14,4.14,0,0,0-4.71,1.36c-2.71,2.87-2.73,2.85-3.29,6.95-1.95-1.85-3.4-.62-5,.54A21.59,21.59,0,0,1,124,168l-.28-.48,4.49-3.13c-.25-.45-.48-.89-.95-1.75,4.06.22,6.77-1.56,8.92-4.59-2.7-1.74-4.52,1.77-7,.86,2.28-.94,3.83-3.54,6.94-2.59a3.17,3.17,0,0,0,2.37-.91c2.27-2,4.43-3.79,7.76-2.16,1.05.51,2.43.34,3.85.51.72-2.12-.42-3.87-1.13-5.45a31,31,0,0,0-11.7-13.88c-3.66-2.32-7.19-4.83-10.76-7.29-.54-.37-1.3-.82-1.41-1.34a4.61,4.61,0,0,1,.18-3,2.63,2.63,0,0,1,2.45-.77c3.9,1.82,7.73,3.8,11.53,5.83,3,1.6,5.74,3.94,8.92,4.87a63.54,63.54,0,0,0,13.49,2c1.5.11,3.23-1.16,4.64-2.12,1.82-1.25,3.55-2.31,5.91-2.26s2.4-.68,2.74-2.93a22,22,0,0,1,2.1-7c.58-1.09,2.55-1.44,4.11-2.24l-2.1-1.62.09-.46,2.79.53c1.82-2.46,4.4-3.12,7.47-2.54-2.09.15-2.4,3.09-4.73,2.85-.13,0-.5.69-.45,1a1.19,1.19,0,0,0,.76.81,4.18,4.18,0,0,0,1.92-.31c3.68-1.71,7.28-3.55,11-5.19a53.62,53.62,0,0,1,6.33-2.16,3.26,3.26,0,0,1,2.1.26l-7.89,3.54,0,.67c.88.31,1.78.61,2.66,1s2.28.56,2.91,1.28c1.61,1.86,3.11,1.06,4.28-.14a21.28,21.28,0,0,0,3-4.54c.23-.42-.15-1.18-.24-1.73,1.75-2.27,4.07-1.15,6.19-.86,1.52.2,2.47.09,3-1.59a3,3,0,0,1,4.13-1.61c1.38.74,3.38.89,3.74,3.11.07.39,1.36.59,2.47,1-3.07,1.25-5.67-.09-8.28-.85-.06.18-.11.37-.16.55l1.28,1.36c-.14.18-.27.52-.42.53a14.9,14.9,0,0,1-4.05.07c-3.38-.81-4-.68-5.57,2.3.74.2,1.41.41,2.1.57,2.46.58,5.12.41,7.2,2.41.49.47,2-.07,3.17-.15-.15.6-.28,1.1-.46,1.83l3.68,1.57c-.22-1-.34-1.59-.46-2.15l.4-.3,2,2.23,1.07-2.32c.85,1,1.56,2.2,2.63.78,1.18,1.57.11,3.94,2.66,5.09l-5.28.69c-.43,5.09-.39,5.14,4.38,6,.9.15,1.79.33,3.17.59l-2,1,1.89,2.48-.25.44L230.54,132l-.33.21,2.28,4.13c-3.47-1.07-4.42-2.85-3.65-5.73a8.94,8.94,0,0,0,.34-2.67,5.9,5.9,0,0,0-.72-1.77c-.49.45-1,.88-1.48,1.34a10.06,10.06,0,0,0-.76,1.11c-.15-1.79-.26-3.08-.37-4.48-.37.15-.7.17-.78.33-2.6,5-1.19,11.93,3.17,15.34a12.4,12.4,0,0,1,5,8.59c.16,1.33,1.24,2.64,2.13,3.78.74,1,1.52,1.73.76,3-.29,0-.52.07-.6,0-2.59-2.55-2.63-2.59-5,0a13.29,13.29,0,0,0-2.57,3.62c-1.06,2.52-.08,3.88,2.63,4.15.4,0,.8.16,1.7.35l-2.23,1.23,5.11,2.59c-3.75,1.44-6.32.09-10.57-5.88l-4.42,2.38c-.16-1.88,1.21-2.34,2.12-3.17a43.71,43.71,0,0,0,3.52-3.68c1-1.2,1.9-2.51,2.84-3.77,1.75-2.34,1.82-4,.09-6.9-.7.77-1.37,1.43-2,2.16a12.89,12.89,0,0,1-1.29,1.82,12.63,12.63,0,0,1-2.27,1.3c.29-.78.52-1.59.87-2.33a13.79,13.79,0,0,1,1.08-1.69c2.28-3.45,2.29-3.46-.81-6.31s-4.9-6.44-4.24-10.89a9,9,0,0,0,.12-3.46c-.24-.93-1.16-1.68-1.87-2.63a4.15,4.15,0,0,0,.94-1.64c0-.33-1.22-1.23-1.35-1.13-1.59,1.16-3.25-.12-4.91.29a15.88,15.88,0,0,0-9.72,6.32,14.34,14.34,0,0,0-1.54,2.26,2.9,2.9,0,0,0-.09,2c.78,2.06,1.92,4,2.54,6.11a41.33,41.33,0,0,1,1.25,6.85c.48,4.09,1,4.68,5.09,5.45a13.58,13.58,0,0,1,1.29.46c-1.11.26-1.67.4-2.24.52s-1.06.22-1.81.37c2.38,3.29,6.21,2.2,9,3.72-3.44.52-6.83.87-10-1.23-1.82-1.23-2.39-3.13-2.86-5.09S203.07,145.12,202.46,142.46Z"/><path d="M224.6,101.8c-1,2.27,2.67,3,4.31,5.24C224.56,106.68,224,105.62,224.6,101.8Z"/><path class="cls-1" d="M198,123.78V118l.76,0,.18,2.88,3.4-.83.35.65a29.16,29.16,0,0,0-2.61,1.77,3.9,3.9,0,0,0-1.17,1.61c-1,3.1-1.95,3.71-5.2,4-3.55.28-7.08.8-10.62,1.21-.82.09-1.65.21-2.48.24-1.52.07-3.09.24-3.11-2.09s1.28-4.12,3.27-4.2c.71,0,1.79.06,2.08-.35,1.24-1.74,3.2-.74,4.69-1.4.2-.1.64.41,1,.56,1,.42,2.11.8,3.16,1.19l.32-.64c-.16-.25-.46-.51-.44-.75a6.33,6.33,0,0,1,.39-1.38c.45.22,1.18.35,1.31.7a13.57,13.57,0,0,1,.43,2.65l.53,0c.18-1.67.35-3.33.53-5.07,2.18,1.16,2.47,3.08,2.38,5.18Z"/><path class="cls-1" d="M124.49,240l3-3.86,1,.33c-.13,1.28.07,2.75-.51,3.78-.34.61-1.91.53-2.93.75Z"/><path class="cls-1" d="M117.54,242.17l1.75-.54-2.36-1.15a11.12,11.12,0,0,1,2.48-1,5.14,5.14,0,0,1,1.89.53c-.29.7-.39,1.72-.91,2a8.35,8.35,0,0,1-2.79.57Z"/><path class="cls-2" d="M219,214.64l5.25,1.37"/><path class="cls-2" d="M227.53,216.39c5.82,1.35,11.63,2.69,16.25,6.87"/><path class="cls-2" d="M150.28,155.26a47.19,47.19,0,0,0-6-1.42,5.21,5.21,0,0,0-3.2,1,9.13,9.13,0,0,0-3,3c-1.35,2.47-3.5,3.86-5.8,5.23-2.91,1.76-5.56,4-9,4.73"/><path class="cls-2" d="M231.66,148c.53,2.59-.73,4.49-2.38,6.26a13.09,13.09,0,0,0-2,2.26c-2.17,3.79-.82,7.06,3.17,9.32a10,10,0,0,0,5.3,1.16"/><path class="cls-2" d="M166.28,269.26a30.61,30.61,0,0,1,5,8.51c.34,1,.51,2,.76,3"/><path class="cls-2" d="M177.28,267.51c-1.74,0-3.44.34-4.11-2.22a4.15,4.15,0,0,0-3.88-2.85c-2-.18-4-1-6-1.39a9.26,9.26,0,0,0-2.49.21"/><path class="cls-2" d="M150.78,218.76a21,21,0,0,0-3,.28,3.78,3.78,0,0,0-2.52,5c.73,2.35,1.78,4.45,4,5.74"/><path class="cls-2" d="M200.28,202.76c-.92.92-1.86,1.81-2.74,2.76-3.06,3.3-2.41,5.79,1.73,7.26a19.17,19.17,0,0,1,9.76,7.48"/><path class="cls-2" d="M202.78,141a16.18,16.18,0,0,1,1.23,2.51c.81,2.81,1.3,5.75,2.34,8.46.83,2.14,3.08,2.89,5.19,3.23a45.6,45.6,0,0,0,5.74.3"/><path class="cls-2" d="M241.28,205.76a2.86,2.86,0,0,1-1,.24,14.33,14.33,0,0,0-9.41,1.91c-2.77,1.75-5.39.86-8.07,1.24-2.26.33-4.35,1.86-6.52,2.86"/><path class="cls-2" d="M188.78,166c-2.33.09-4.67.18-7,.25-3.34.1-4.35,1.49-3.24,4.5a7.71,7.71,0,0,0,.49,1"/><path class="cls-2" d="M163.28,246.76c-2.25.13-4.58.67-6.73.25-1.94-.37-3.67-1.82-5.53-2.73a10.56,10.56,0,0,0-2-.52"/><path class="cls-2" d="M189.28,171.26A11.56,11.56,0,0,1,191,174c.67,2.55,3,2.89,4.83,3.67a26,26,0,0,0,5,1.06"/><path class="cls-2" d="M196,211c-.33.25-.93.47-1,.76a32.54,32.54,0,0,0-.43,6.73c.13,1.23,1.39,2.35,2.14,3.51"/><path class="cls-2" d="M217.28,178.51a6.42,6.42,0,0,1-1.73-1c-2.66-3-5.37-3.76-9.27-2.48"/><path class="cls-2" d="M202,174.89c-3.37.27-3.58-2.52-4.5-4.63"/><path class="cls-2" d="M150,208c2.2,2,2.39,5.25.51,8-.58.86-1,1.83-1.51,2.74"/><path class="cls-2" d="M166.28,193.51c-.33,1.67-1.06,3.37-.91,5,.22,2.25,1.81,3.74,3.89,4.79,4.12,2.08,7.83,4.7,10,9"/><path class="cls-2" d="M206.78,111.51a6.9,6.9,0,0,0-5.29,1.45,10.31,10.31,0,0,1-3.21,1.3c-1.95.68-2,2-1.55,3.77a55.82,55.82,0,0,1,.8,6.23"/><path class="cls-2" d="M164.78,269c-1.42,2.09-3,4.09-4.18,6.29-.51.94-.24,2.3-.32,3.46"/><path class="cls-2" d="M226.53,217c.67,1,1.39,2,2,3a5,5,0,0,1,1,2.49c-.13,1.88.53,3,2.32,3.5"/><path class="cls-2" d="M196.53,149.51c1.25-2,2.48-4,3.76-6,.52-.79,1.16-1.51,1.74-2.26"/><path class="cls-2" d="M202.41,137.51c0-2.7-1.72-4.45-3.38-6.25"/><path class="cls-2" d="M149,250.76a19,19,0,0,1-5.95,4.59c-3.68,2.07-5.39,5.44-3.78,9.91.55,1.54,1.31,3,2,4.5"/><path class="cls-2" d="M114,260.51a9.23,9.23,0,0,1,.48,2,6.12,6.12,0,0,0,2.75,5.54c.56.36.85,1.13,1.27,1.71"/><path class="cls-2" d="M138.28,181.26a9.78,9.78,0,0,0-5.49,8.25c-.13,1.75-.15,3.5-.27,5.25a11.27,11.27,0,0,1-3.74,7.5"/><path class="cls-2" d="M120.53,250.26a51.06,51.06,0,0,0,5.55,5.18c1.77,1.23,2.34,2.42,1.45,4.32"/><path class="cls-2" d="M121.78,238.26c-2.64-.63-4.63.65-6.5,2.25"/><path class="cls-2" d="M137.28,157.51c-1.93-.94-3.71-1.06-5.55.45-.71.59-1.95.55-2.95.8"/><path class="cls-2" d="M197.28,169c1.67-.5,3.32-1.08,5-1.47,1.36-.32,2.94-.3,3.69,1,1.16,2,2.92,2,4.8,2"/><path class="cls-2" d="M129.78,235.76V241"/><path class="cls-2" d="M149.78,222a18.4,18.4,0,0,0,3,3c3.27,2,6.28,4.66,10.47,4.54"/><path class="cls-2" d="M132.78,194.76l2,.81c1.19,2.29-1,3.51-1.78,5.19"/><path class="cls-2" d="M229.78,209a25.42,25.42,0,0,0,3,1.48c2.81,1,5.66,1.86,8.49,2.77"/><path class="cls-2" d="M228.78,144.51l-5,6.25"/><path class="cls-2" d="M230.53,130.26c-1.79,1-1.65,2.31-.51,3.76.71.89,1.34,1.83,2,2.74"/><path class="cls-2" d="M177.28,123.76c-1.88,1.65-.64,3.84-1,5.75"/><path class="cls-2" d="M166,201.51c-1.47,2.19-1.64,3.27-1.25,7.75"/><path class="cls-2" d="M157.78,247.51c2.67,2.09,5.31,4.2,8,6.24,1.1.83,2.32,1.51,3.49,2.26"/><path class="cls-2" d="M193,118.51c1.34,1.74,1,3.79,1,5.75"/><path class="cls-2" d="M232,150.76c1.29,1.3,3.55,1.69,3.75,4"/><path class="cls-2" d="M225.78,160a6.58,6.58,0,0,0-5,2.75"/><path class="cls-2" d="M211.78,150.76l-5.25.25"/><path class="cls-2" d="M155.78,239.51c-2.66-.39-5.33,1.06-8-.16-.47-.21-1.46.75-2.21,1.16"/><path class="cls-2" d="M230.66,128.51a4.4,4.4,0,0,0,4.62,4.23c1.5,0,3-.31,4.5-.48"/><path class="cls-2" d="M174,267.76c-1.25,2.69,1.23,2.5,2.5,3.25"/><path class="cls-2" d="M189.78,114.26c-3.06-.07-6.12,1.35-6.72,3.26a13.06,13.06,0,0,0-.28,2.74"/><path class="cls-2" d="M119.28,241.51H115"/><path class="cls-2" d="M111.53,245l-3.75,3.5"/><path class="cls-2" d="M230.28,124.26a30.39,30.39,0,0,1,.45,3.26c0,.23-.62.49-.95.74"/><path class="cls-2" d="M236,133l3.5,3"/><path class="cls-2" d="M230.78,111.51l-4-.5"/><path class="cls-2" d="M140.53,258.26c.54,1.38,1.85,1.4,3,1.77,1.61.52,3.18,1.15,4.76,1.73"/><path class="cls-2" d="M129.28,252.26l-4,1.25"/><path class="cls-2" d="M138.78,245.76A6.07,6.07,0,0,0,144,245"/><path class="cls-2" d="M109.28,241.76l.75,4"/><path class="cls-2" d="M224,205a4,4,0,0,0-1.5,3.75"/><path class="cls-2" d="M182.53,118l-3.75-1.5"/><path class="cls-2" d="M133,186a16.15,16.15,0,0,0-2,.27,12.81,12.81,0,0,0-1.76.73"/><path class="cls-2" d="M232.53,119.26c.08.92.18,1.84.25,2.75.09,1.25.17,2.5.25,3.75"/><path class="cls-2" d="M147.78,217.51c-1-.42-2.16-1.76-3,.25"/><path class="cls-2" d="M150.78,224c-.57,1-.95,1.91,0,3a12.37,12.37,0,0,1,1.29,2.72"/><path class="cls-2" d="M228.28,119.76c3.22.17,1.12,2.24,1.25,3.5"/><path class="cls-2" d="M139.53,217.76c.42,1.09.83,2.17,1.25,3.25"/><path class="cls-2" d="M170,274l5.25.25"/><path class="cls-2" d="M157.78,225l-2.5,1"/><path class="cls-2" d="M214.78,118.76v3"/><path class="cls-2" d="M216,119.26l.75,3"/><path class="cls-2" d="M235.28,119.76c-.42.92-.83,1.84-1.25,2.75"/><path class="cls-2" d="M234,211.51c-.56,2.48-.42,2.65,2.25,2.75"/><path class="cls-2" d="M228,106.76l-2.75-1.5"/><path class="cls-2" d="M126.53,121.76l.75,2.75"/><path class="cls-2" d="M133.78,244.26l-1.5-1.75"/><path class="cls-2" d="M221.28,124c-1.06,0-2.4,1.12-3-.75"/><path class="cls-2" d="M143,219.51l-2.75,2.75"/><path class="cls-2" d="M142.28,265.76l-2,.25"/><path class="cls-2" d="M185.78,115.76v2"/><path class="cls-2" d="M141.28,242.51l-3,.75"/><path class="cls-2" d="M131.78,242.26l-2,.25"/><path class="cls-2" d="M134.78,213.26l.75,2"/><path class="cls-2" d="M232.28,163.26l-3.75.75"/><path class="cls-2" d="M117.28,247.76l2,.75"/></svg>