<?xml version="1.0" encoding="utf-8"?>
<!-- Generator: Adobe Illustrator 23.0.2, SVG Export Plug-In . SVG Version: 6.00 Build 0)  -->
<svg version="1.1" id="Layer_1" xmlns="http://www.w3.org/2000/svg" xmlns:xlink="http://www.w3.org/1999/xlink" x="0px" y="0px"
	 viewBox="0 0 300 300" style="enable-background:new 0 0 300 300;" xml:space="preserve">
<style type="text/css">
	.st0{fill:none;stroke:#000000;stroke-width:2;stroke-linecap:round;stroke-linejoin:round;}
</style>
<title>vene</title>
<path d="M220.6,68.9L211,79.6l0.2,0.7c0.9,0.1,1.7,0,2.6-0.1c2.5-0.7,5.1-1.6,7.6-2.3c6.4-1.8,12.8-3.7,19.2-5.5
	c5.1-1.4,9.8-3.2,13.6-7.4c3.8-4.1,9.3-6.7,14.7-8.6c1.6-0.6,3.3-1.1,5.1-1.7l0.3,0.7c-0.7,0.6-1.4,1-2.1,1.4
	c-4.7,1.7-9.5,3.6-13.5,6.8c-2,1.6-3.8,3.6-5.4,5.5c10.8-1.6,21.6-2.2,32.5-1.7c-22.1,1.3-43.5,6.1-64.3,13.1l0.1,1l7.1,0.1l0.1,0.6
	c-0.3,0.2-0.7,0.3-1.2,0.5c-4.4,0.6-8.7,0.9-13,1.6c-4.8,0.9-9.7,2.2-14.5,3.2c-6.2,1.4-12.3,3-18.7,2.3c-0.8,0-1.7,0-2.5,0.2
	l-0.2,1c2.2,1,4.3,2.2,6.4,3.1c4.7,2,9.4,3.6,14.1,5.6c4.9,2.2,9.7,1.4,14.5-0.1c0.9-0.2,1.8-0.6,2.8-0.9l0.3,0.9l-7.4,3.2
	c7.2,2.1,16.8,0.9,27.6-3.3l-1-0.6l20.8-5.3l0.1,0.1c-1.6,0.6-3.2,1.4-4.7,2.3c-4.5,3.3-10,3.7-14.9,5.6c-1.3,0.5-2.4,1-4.1,2
	c1.8,1.3,3.1,2.5,4.5,2.8c2.8,0.5,2.4,2.1,2,3.9c-0.1,0.5-0.2,0.9-0.5,1.4c-0.5-4.7-4.6-5.3-7.6-6.3c-2.3-0.8-5.3-0.3-7.8,0.2
	c-9.1,2-17.5-0.5-25.8-3.6c-6.8-2.5-13.6-5.2-20.4-7.8c-6-2.3-11.8-4.9-17.8-7.1c-3.7-1.3-7.6-2.1-11.4-3.1c-3.6-0.9-7.1-2-10.8-2.6
	c-6-1.2-12.1-2-18.1-2.9c-2.9-0.5-5.9-0.7-8.9-0.8c-9.3,0.1-18.5,2.4-26.8,6.4c2.4,1,4.7,2,6.8,2.9c5.1,2.4,10,5.5,15.3,7.1
	c5.2,1.6,10.7,2,16.1,2.3c1.8,0.1,3.8-0.9,5.8-1.6c3.9-1.3,4.6-1,7.5,3.1c-2-1-3.3-2.3-4.8-2.4c-1.5-0.1-3.2,0.9-5.5,1.6
	c2,0.8,3.8,1.6,5.6,2.5c4.6,2.8,9.2,5.5,13.6,8.5c4,2.8,8.4,3.5,13,3.8c0.6,0,1.1,0.1,1.8,0.2c-1.8,1.3-4.6,1.3-7.1,0.7
	c-6.4-1.5-12.1-4.7-17.4-8.5c-4.3-3-9.3-4.9-14.5-5.5c-4.9-0.6-9.8-1.4-15-2.1l-0.5,2.4c-0.6-0.3-1.3-0.7-1.7-1
	c-4.4-4.3-9.7-7.6-15.3-9.9c-4.9-1.8-10-2.8-15.4-1.4c-6.6,1.6-13,0.5-19.4-1.5c-6.8-2.1-12.5-5.6-18.2-9.5
	C30,72.3,25.6,68.2,21,64.3c-0.3-0.2-0.7-0.7-0.8-1.1c-0.1-0.9-0.1-1.7-0.1-2.6c0.8,0.1,1.7,0,2.3,0.5c2.9,2.1,5.5,4.4,8.4,6.4
	c3.7,2.8,7.4,5.5,11.2,8c4,2.6,8.3,1,12.1-0.7c4.7-2.2,9.2-5.1,13.7-7.7c0.7-0.5,1.3-1,1.8-1.6c2.3-0.2,4.5-0.5,6.7-0.5
	c3.9,0,7.8,0.3,11.7,0.5c1.5,0.1,3,0.1,4.5,0.1c2,0.1,4.3-1.6,5.9,1c0.1,0.2,0.7,0.2,1,0.1c3.8-0.1,7.7-0.3,11.5-0.5
	c1.7-0.1,3.4,0,5.3,0.1v0.9c-1.7,0.3-3.5,0.7-5.2,0.9c-5.4,0.2-10.7,0.6-16.1,0.6c-2.4-0.1-4.9-0.5-7.2-1c-7.1-1.4-14-1.3-20.5,2.6
	c-4.3,2.5-8.6,4.8-13.1,7.1c-1.5,0.7-3.1,1.3-4.6,1.7c1.5,0.8,2.5,1.4,3.6,1.8c4.1,1.7,8.6,2.6,13.1,2.6c5.8,0.1,10.9-1.7,16.1-3.6
	c5.3-1.8,10.7-2.6,15.4-5.3c5.2-2.9,10.3-1.3,15.4-1.4c3.6-0.1,7.1,0.5,10.8,0.7c1.3,0.1,2.6,0.2,3.2-1.7c0.7-0.6,1.7-0.8,2.5-0.6
	c1.1,1.2,2.3,0.6,3.4,0.2c4-1.3,8.1-2.2,12.2-3c5.1-0.6,10.2-0.9,15.4-0.9c7.2-0.1,14.5-0.1,21.8-0.1c1.2,0,2.2,0.1,3.2,0.5
	c-9.4,2-19,1.8-28.6,2.2l4,1.7l-0.2,1c-5.2-1.5-10.4-3.4-15.6-2.2c-5.2,1.2-10.2,2.9-15.3,4.4c9.7,2.3,19.1,4.7,28.4,6.9
	c9.4,2.3,19.3,4,29.2,3.6c4-0.1,7.9-0.6,11.8-1.6c4.7-1.3,8.3-4.7,11.8-7.9c2.3-2.2,4.5-4.4,6.8-6.6c0.6-0.6,1.3-1.2,1.8-1.7
	L220.6,68.9z"/>
<path d="M251,109.5c-2.9,0.7-5.8,1.4-8.5-0.8l3-1.8C246.4,110,249.1,108.6,251,109.5z"/>
<path class="st0" d="M128.3,77.6l2.1,0.3"/>
<path class="st0" d="M141.1,80.1l1.5,0.3"/>
<path class="st0" d="M157.4,84.1l1.5,0.3"/>
<path class="st0" d="M178.2,92.7c4.6,1.7,9.2,3.6,13.8,5.3c5.3,2,10.4,4.3,15.8,5.6c4.9,1.3,10.1,2.2,15.3,0.5
	c1.7-0.3,3.4-0.6,5.2-0.6c2.9-0.3,5.4-1.7,7.9-2.8c3-1.3,6.2-2.2,9.4-3c3.4-0.8,6.3-2.9,9.7-3.8c0.9-0.2,2-0.5,2.9-0.7"/>
<path class="st0" d="M47.6,79.1c2-2.2,5.1-1.8,7.4-3.1c3.9-2.2,7.9-4,11.5-6.6c4.6-3.2,9.7-3.7,14.8-3.6c3.9,0.1,7.9,0.8,11.8,1.3"
	/>
<path class="st0" d="M93.5,67.2c5.4,0.1,10.7,0.2,16.1,0.3c2.4,0,4.8-0.1,7.1-0.2"/>
<path class="st0" d="M194.8,86.8c2.9,0.8,5.1-1.3,7.7-1.6"/>
<path class="st0" d="M219.9,79.9c8.3-3.6,17-5.3,25.6-7.7c1.8-0.5,3.6-1.3,5.4-1.8"/>
<path class="st0" d="M129,72.2c-0.8,1.2-0.3,2,0.9,2c1-0.2,2.1-0.5,3.1-0.9c6.9-1.8,13.8-3.9,21.2-3.7c8.1,0.2,16.3-0.2,24.4-0.5
	c2.5-0.1,5.2-0.2,7.7-0.2"/>
<path class="st0" d="M251.3,69.7c1.1,0.8,2.6,1,4,0.7c9.3-2.2,18.9-2.8,28.4-3c0.9,0,2-0.1,2.9-0.1"/>
<path class="st0" d="M251.7,69.1c5.9-7.6,14.1-11.2,22.8-14"/>
<path class="st0" d="M81.1,83.7c0.9,0.7,1.8,1.4,3,1.8c5.5,1.8,10.7,4.4,15.5,7.5"/>
<path class="st0" d="M103.7,95.6c1.5,0.1,3.1,0.2,4.6,0.5c4.8,0.6,9.7,0.9,14.4,1.8c2.9,0.7,5.6,1.7,8.2,3.2c4.5,2.4,9,4.9,13.2,7.8
	c4.8,3.3,10.1,4,15.8,3.7"/>
<path class="st0" d="M209.1,81.9c0.3-1.3,0.9-2.4,1.6-3.6c3-3.3,6.2-6.6,9.4-9.9"/>
<path class="st0" d="M124.5,97.8c0.8-0.7,1.6-1.3,2.5-1.7c0.8-0.3,1.8-0.2,2.5-0.7c1-0.8,2.5-0.7,3.3,0.3l0.1,0.1
	c0.8,0.7,1.7,1.4,2.6,2"/>
<path class="st0" d="M206.6,102.4c0.3-0.3,0.8-0.9,1.1-0.8c3,0.2,5.9-0.6,8.3-2.3c0.3-0.2,0.9,0,1.4,0"/>
<path class="st0" d="M220.2,81.8l9.2,0.2"/>
<path class="st0" d="M242.5,108.6c2.5,0.3,5.1,0.6,7.5,0.9c0.6,0,1.2-0.1,1.7-0.3"/>
<path class="st0" d="M232.4,103.2c1.2,0.9,2.2,1.8,3.4,2.8c0.8,0.6,1.7,1,2.6,1.6"/>
<path class="st0" d="M155.1,69.9c0.3,1.1,0.8,2.1,2.4,2c1.3,0.1,2.5,0.5,3.8,0.9"/>
<path class="st0" d="M239.5,106.2l0.2,5.8"/>
<path class="st0" d="M235.9,98.5l3.5,0.5"/>
<path class="st0" d="M98.7,74.2l2.3,0.2"/>
<path d="M73.8,170.9l9.3-10.8l-0.2-0.7c-0.9,0-1.7,0-2.6,0.1c-2.5,0.7-5.1,1.6-7.6,2.4c-6.3,2-12.8,3.9-19.1,5.9
	c-5.1,1.5-9.8,3.4-13.5,7.6c-3.7,4.1-9.2,6.8-14.6,8.9c-1.6,0.6-3.3,1.1-4.9,1.7l-0.3-0.7c0.6-0.6,1.4-1,2.1-1.5
	c4.7-1.8,9.4-3.7,13.3-7c2-1.7,3.7-3.6,5.3-5.6c-10.7,1.7-21.6,2.5-32.5,2.3c22.1-1.7,43.4-6.9,64.1-14.3l-0.1-1h-7.1l-0.1-0.6
	c0.3-0.2,0.7-0.3,1.2-0.5c4.4-0.6,8.7-1,13-1.8c4.8-0.9,9.7-2.4,14.5-3.4c6.1-1.5,12.2-3.1,18.6-2.5c0.8,0,1.7-0.1,2.5-0.2l0.2-1
	c-2.2-1-4.4-2.1-6.6-3c-4.7-1.8-9.5-3.4-14.3-5.4c-4.9-2.1-9.8-1.1-14.5,0.3c-0.9,0.3-1.8,0.7-2.8,0.9l-0.3-0.8l7.2-3.3
	c-7.4-2-16.8-0.6-27.6,3.8l1,0.6l-20.8,5.8l-0.1-0.1c1.6-0.7,3.2-1.4,4.6-2.4c4.5-3.3,9.9-3.9,14.8-5.9c1.2-0.5,2.3-1.1,4.1-2
	c-2-1.1-3.1-2.5-4.6-2.8c-2.8-0.5-2.5-2.1-2.1-3.9c0.1-0.5,0.2-0.9,0.5-1.4c0.6,4.7,4.7,5.2,7.7,6.2c2.3,0.8,5.3,0.2,7.8-0.3
	c9.1-2.2,17.5,0.1,25.8,3.1c6.9,2.4,13.7,4.9,20.5,7.5c6,2.3,11.8,4.7,17.9,6.8c3.7,1.3,7.6,2,11.4,2.9c3.6,0.8,7.2,1.8,10.9,2.4
	c6,1,12.1,1.8,18.2,2.5c3,0.5,5.9,0.6,8.9,0.6c9.3-0.3,18.4-2.6,26.7-7c-2.5-1-4.7-1.8-6.8-2.8c-5.2-2.3-10-5.3-15.4-6.9
	c-5.2-1.5-10.7-1.7-16.1-2.1c-1.8-0.1-3.8,1-5.6,1.6c-3.9,1.3-4.6,1-7.6-3c2,1,3.3,2.3,4.8,2.3c1.5,0.1,3.1-0.9,5.4-1.7
	c-2-0.7-3.8-1.5-5.6-2.5c-4.6-2.6-9.2-5.4-13.7-8.3c-4-2.6-8.5-3.2-13.1-3.6c-0.6,0-1.2-0.1-1.8-0.1c1.7-1.3,4.5-1.4,7.1-0.8
	c6.4,1.4,12.1,4.5,17.5,8.2c4.4,3,9.4,4.8,14.6,5.3c4.9,0.6,9.9,1.3,14.9,1.8l0.3-2.4c0.6,0.3,1.3,0.7,1.8,1
	c4.5,4.1,9.8,7.5,15.5,9.7c5.1,1.7,10,2.5,15.4,1c6.4-1.7,13-0.7,19.4,1.1c6.8,2,12.7,5.4,18.3,9.3c4.9,3.3,9.4,7.5,14,11.3
	c0.3,0.2,0.7,0.7,0.8,1.2c0.1,0.9,0.1,1.7,0.1,2.6c-0.8-0.1-1.7,0-2.3-0.3c-2.9-2.1-5.6-4.3-8.5-6.3c-3.7-2.6-7.5-5.4-11.3-7.8
	c-4.1-2.6-8.3-0.9-12.1,0.9c-4.7,2.3-9.1,5.3-13.6,7.9c-0.7,0.5-1.3,1-1.8,1.6c-2.3,0.2-4.5,0.6-6.7,0.6c-3.9,0-7.8-0.2-11.7-0.2
	c-1.5,0-3-0.1-4.5-0.1c-2,0-4.3,1.7-5.9-0.9c-0.1-0.2-0.7-0.2-1-0.1c-3.8,0.2-7.6,0.6-11.5,0.7c-1.7,0.1-3.4,0-5.3,0v-0.9
	c1.7-0.5,3.3-0.7,5.1-0.9c5.4-0.3,10.7-0.7,16.1-0.8c2.4,0.1,4.9,0.5,7.2,0.9c7.1,1.3,14,1,20.4-3.1c4.1-2.6,8.6-4.9,13-7.4
	c1.5-0.7,3-1.3,4.6-1.8c-1.5-0.8-2.5-1.3-3.6-1.7c-4.1-1.7-8.6-2.5-13.1-2.4c-5.8,0-10.8,2-16.1,3.8s-10.7,2.9-15.3,5.5
	c-5.2,3-10.2,1.4-15.4,1.7c-3.6,0.2-7.2-0.3-10.8-0.5c-1.3,0-2.6-0.1-3.2,1.7c-0.7,0.6-1.6,0.8-2.5,0.6c-1.3-1-2.3-0.6-3.4-0.2
	c-4,1.3-8.1,2.3-12.2,3.2c-5.1,0.7-10.2,1.2-15.4,1.3c-7.2,0.3-14.5,0.3-21.8,0.5c-1.2,0.1-2.2-0.1-3.2-0.3c9.4-2.1,19-2.2,28.6-2.6
	l-4-1.6l0.2-1c5.2,1.4,10.3,3.2,15.8,2c5.2-1.3,10.2-3.1,15.3-4.6c-9.7-2.2-19.1-4.4-28.5-6.4s-19.3-3.7-29.3-3
	c-4,0.2-7.9,0.8-11.8,1.7c-4.7,1.4-8.2,4.8-11.6,8.1c-2.3,2.2-4.5,4.5-6.7,6.7c-0.6,0.6-1.2,1.1-1.8,1.7L73.8,170.9z"/>
<path d="M42.7,130.9c2.9-0.8,5.6-1.5,8.5,0.7l-3,1.8C47.3,130.4,44.6,131.8,42.7,130.9z"/>
<path class="st0" d="M165.8,160.6l-2.1-0.3"/>
<path class="st0" d="M153.1,158.4l-1.5-0.3"/>
<path class="st0" d="M136.7,154.7l-1.5-0.3"/>
<path class="st0" d="M115.8,146.4c-4.6-1.7-9.3-3.3-13.9-5.1c-5.3-1.8-10.5-4-15.9-5.4c-4.9-1.2-10.1-2-15.3-0.2
	c-1.7,0.3-3.4,0.6-5.2,0.6c-2.9,0.3-5.3,1.7-7.9,3c-3,1.3-6.1,2.3-9.3,3.1c-3.4,0.9-6.2,3-9.5,3.9c-0.9,0.3-1.8,0.5-2.9,0.7"/>
<path class="st0" d="M246.6,157.7c-2,2.2-4.9,2-7.4,3.2c-3.8,2.2-7.8,4.1-11.4,6.7c-4.5,3.3-9.7,3.8-14.7,3.8c-3.9,0-7.9-0.7-11.8-1
	"/>
<path class="st0" d="M200.9,170.4c-5.4,0-10.7,0-16.1,0c-2.4,0-4.8,0.2-7.1,0.3"/>
<path class="st0" d="M99.2,152.6c-2.9-0.8-5.1,1.3-7.7,1.7"/>
<path class="st0" d="M74.3,160c-8.2,3.7-16.9,5.6-25.5,8.2c-1.8,0.6-3.6,1.4-5.4,2"/>
<path class="st0" d="M165.2,166c0.8-1.1,0.3-2-0.9-2c-1,0.2-2.1,0.6-3.1,0.9c-6.9,2-13.7,4.1-21,4.1c-8.1-0.1-16.3,0.6-24.4,0.9
	c-2.5,0.1-5.2,0.2-7.7,0.5"/>
<path class="st0" d="M43.1,170.7c-1.2-0.8-2.6-1-4-0.7c-9.3,2.3-18.7,3-28.3,3.4c-0.9,0-2,0.1-2.9,0.1"/>
<path class="st0" d="M42.7,171.2c-5.6,7.7-13.9,11.4-22.5,14.4"/>
<path class="st0" d="M213,153.7c-0.9-0.7-2-1.4-3-1.8c-5.5-1.7-10.8-4.1-15.6-7.2"/>
<path class="st0" d="M190.2,142.2c-1.5-0.1-3.1-0.2-4.6-0.3c-4.8-0.5-9.7-0.8-14.5-1.6c-2.9-0.6-5.6-1.6-8.2-3
	c-4.6-2.3-9-4.8-13.3-7.6c-4.9-3.2-10.1-3.9-15.8-3.5"/>
<path class="st0" d="M85.1,157.8c-0.3,1.3-0.9,2.4-1.6,3.6c-3,3.4-6.1,6.7-9.2,10"/>
<path class="st0" d="M169.4,140.4c-0.8,0.7-1.6,1.3-2.5,1.8c-0.8,0.3-1.8,0.3-2.5,0.8c-1,0.8-2.5,0.7-3.3-0.3l-0.1-0.1
	c-0.8-0.7-1.7-1.4-2.6-2"/>
<path class="st0" d="M87.2,137.2c-0.3,0.3-0.8,0.9-1.2,0.9c-3-0.1-5.9,0.7-8.3,2.4c-0.3,0.2-0.9,0-1.4,0.1"/>
<path class="st0" d="M73.9,158.1l-9.2-0.1"/>
<path class="st0" d="M51.2,131.7c-2.5-0.2-5.1-0.6-7.5-0.8c-0.6,0-1.2,0.1-1.7,0.3"/>
<path class="st0" d="M61.4,136.9c-1.1-0.9-2.3-1.8-3.4-2.6c-0.8-0.6-1.7-1-2.6-1.6"/>
<path class="st0" d="M139.3,168.7c-0.5-1.1-0.8-2.1-2.4-2c-1.3-0.1-2.5-0.5-3.8-0.9"/>
<path class="st0" d="M54.2,134.1l-0.3-5.8"/>
<path class="st0" d="M58.1,141.7l-3.5-0.3"/>
<path class="st0" d="M195.7,163.5l-2.3-0.1"/>
<path d="M211.1,209.1l-9.5,10.7l0.2,0.7c0.9,0.1,1.7,0,2.6-0.1c2.5-0.7,5.1-1.6,7.6-2.3c6.4-1.8,12.8-3.7,19.2-5.5
	c5.1-1.4,9.8-3.2,13.6-7.4c3.8-4.1,9.3-6.7,14.7-8.6c1.6-0.6,3.3-1.1,5.1-1.7l0.3,0.7c-0.7,0.6-1.4,1-2.1,1.4
	c-4.7,1.7-9.5,3.6-13.5,6.8c-2,1.6-3.8,3.6-5.4,5.5c10.8-1.6,21.6-2.2,32.5-1.7c-22.1,1.3-43.5,6.1-64.3,13.1l0.1,1l7.1,0.1l0.1,0.6
	c-0.3,0.2-0.7,0.3-1.2,0.5c-4.4,0.6-8.7,0.9-13,1.6c-4.8,0.9-9.7,2.2-14.5,3.2c-6.2,1.4-12.3,3-18.7,2.3c-0.8,0-1.7,0-2.5,0.2
	l-0.2,1c2.2,1,4.3,2.2,6.4,3.1c4.7,2,9.4,3.6,14.1,5.6c4.9,2.2,9.7,1.4,14.5-0.1c0.9-0.2,1.8-0.6,2.8-0.9l0.3,0.9l-7.4,3.2
	c7.2,2.1,16.8,0.9,27.6-3.3l-1-0.6l20.8-5.3l0.1,0.1c-1.6,0.6-3.2,1.4-4.7,2.3c-4.5,3.3-10,3.7-14.9,5.6c-1.3,0.5-2.4,1-4.1,2
	c1.8,1.3,3.1,2.5,4.5,2.8c2.8,0.5,2.4,2.1,2,3.9c-0.1,0.5-0.2,0.9-0.5,1.4c-0.5-4.7-4.6-5.3-7.6-6.3c-2.3-0.8-5.3-0.3-7.8,0.2
	c-9.1,2-17.5-0.5-25.8-3.6c-6.8-2.5-13.6-5.2-20.4-7.8c-6-2.3-11.8-4.9-17.8-7.1c-3.7-1.3-7.6-2.1-11.4-3.1c-3.6-0.9-7.1-2-10.8-2.6
	c-6-1.1-12.1-2-18.1-2.9c-2.9-0.5-5.9-0.7-8.9-0.8c-9.3,0.1-18.5,2.4-26.8,6.4c2.4,1,4.7,2,6.8,2.9c5.1,2.4,10,5.5,15.3,7.1
	c5.2,1.6,10.7,2,16.1,2.3c1.8,0.1,3.8-0.9,5.8-1.6c3.9-1.3,4.6-1,7.5,3.1c-2-1-3.3-2.3-4.8-2.4s-3.2,0.9-5.5,1.6
	c2,0.8,3.8,1.6,5.6,2.5c4.6,2.8,9.2,5.5,13.6,8.5c4,2.8,8.4,3.4,13,3.8c0.6,0,1.2,0.1,1.8,0.2c-1.8,1.3-4.6,1.3-7.1,0.7
	c-6.4-1.5-12.1-4.7-17.4-8.5c-4.3-3-9.3-4.9-14.5-5.5c-4.9-0.6-9.8-1.4-14.9-2.1l-0.5,2.4c-0.6-0.3-1.3-0.7-1.7-1
	c-4.4-4.3-9.7-7.6-15.3-9.9c-4.9-1.8-10-2.8-15.4-1.4c-6.6,1.6-13,0.5-19.4-1.5c-6.8-2.1-12.5-5.6-18.2-9.5
	c-4.8-3.4-9.2-7.6-13.8-11.5c-0.3-0.2-0.7-0.7-0.8-1.1c-0.1-0.9-0.1-1.7-0.1-2.6c0.8,0.1,1.7,0,2.3,0.5c2.9,2.1,5.5,4.4,8.4,6.4
	c3.7,2.8,7.4,5.5,11.2,8.1c4,2.6,8.3,1,12.1-0.7c4.7-2.2,9.2-5.1,13.7-7.7c0.7-0.5,1.3-1,1.8-1.6c2.3-0.2,4.5-0.5,6.7-0.5
	c3.9,0,7.8,0.3,11.7,0.5c1.5,0.1,3,0.1,4.5,0.1c2,0.1,4.3-1.6,5.9,1c0.1,0.2,0.7,0.2,1,0.1c3.8-0.1,7.7-0.3,11.5-0.5
	c1.7-0.1,3.4,0,5.3,0.1v0.9c-1.7,0.3-3.4,0.7-5.2,0.9c-5.4,0.2-10.7,0.6-16.1,0.6c-2.4-0.1-4.9-0.5-7.2-1c-7.1-1.4-14-1.3-20.5,2.6
	c-4.3,2.5-8.6,4.8-13.1,7.1c-1.5,0.7-3.1,1.3-4.6,1.7c1.5,0.8,2.5,1.4,3.6,1.8c4.1,1.7,8.6,2.6,13.1,2.6c5.8,0.1,10.9-1.7,16.1-3.6
	c5.3-1.8,10.7-2.6,15.4-5.3c5.2-2.9,10.4-1.3,15.4-1.4c3.6-0.1,7.1,0.5,10.8,0.7c1.3,0.1,2.6,0.2,3.2-1.7c0.7-0.6,1.7-0.8,2.5-0.6
	c1.2,1.1,2.3,0.6,3.5,0.2c4-1.3,8-2.2,12.2-3c5.1-0.6,10.2-0.9,15.4-0.9c7.2-0.1,14.5-0.1,21.9-0.1c1.1,0,2.2,0.1,3.2,0.5
	c-9.4,2-19,1.8-28.6,2.2l4,1.7l-0.2,1c-5.2-1.5-10.3-3.4-15.6-2.2c-5.2,1.1-10.2,2.9-15.3,4.4c9.7,2.3,19.1,4.7,28.4,6.9
	c9.4,2.3,19.3,4,29.2,3.6c4-0.1,7.9-0.6,11.8-1.6c4.7-1.3,8.3-4.7,11.8-7.9c2.3-2.2,4.5-4.4,6.8-6.6c0.6-0.6,1.3-1.1,1.8-1.7
	L211.1,209.1z"/>
<path d="M241.6,249.7c-2.9,0.7-5.8,1.4-8.5-0.8l3-1.8C237,250.1,239.7,248.8,241.6,249.7z"/>
<path class="st0" d="M118.9,217.8l2.1,0.3"/>
<path class="st0" d="M131.7,220.2l1.5,0.3"/>
<path class="st0" d="M148,224.3l1.5,0.3"/>
<path class="st0" d="M168.8,232.9c4.6,1.7,9.2,3.6,13.8,5.3c5.3,2,10.3,4.3,15.8,5.6c4.9,1.3,10.1,2.2,15.3,0.5
	c1.7-0.3,3.4-0.6,5.2-0.6c2.9-0.3,5.4-1.7,7.9-2.8c3-1.3,6.2-2.2,9.4-3c3.5-0.8,6.3-2.9,9.7-3.8c0.9-0.2,2-0.5,2.9-0.7"/>
<path class="st0" d="M38.2,219.3c2-2.2,5.1-1.8,7.4-3.1c3.9-2.2,7.9-4,11.5-6.6c4.6-3.2,9.7-3.7,14.8-3.6c3.9,0.1,7.9,0.8,11.8,1.3"
	/>
<path class="st0" d="M84.1,207.4c5.4,0.1,10.7,0.2,16.1,0.3c2.4,0,4.8-0.1,7.1-0.2"/>
<path class="st0" d="M185.4,227c2.9,0.8,5.1-1.3,7.7-1.6"/>
<path class="st0" d="M210.4,220.1c8.3-3.6,17-5.3,25.6-7.7c1.8-0.5,3.6-1.3,5.4-1.8"/>
<path class="st0" d="M119.6,212.5c-0.8,1.2-0.3,2,0.9,2c1-0.2,2.1-0.5,3.1-0.9c6.9-1.8,13.8-3.9,21.2-3.7c8,0.2,16.3-0.2,24.4-0.5
	c2.5-0.1,5.2-0.2,7.7-0.2"/>
<path class="st0" d="M241.8,210c1.2,0.8,2.6,1,4,0.7c9.3-2.2,18.9-2.8,28.4-3c0.9,0,2-0.1,2.9-0.1"/>
<path class="st0" d="M242.3,209.3c5.9-7.6,14.1-11.2,22.8-14"/>
<path class="st0" d="M71.6,223.9c0.9,0.7,1.8,1.4,3,1.8c5.5,1.8,10.7,4.4,15.5,7.5"/>
<path class="st0" d="M94.3,235.9c1.5,0.1,3.1,0.2,4.6,0.5c4.8,0.6,9.7,0.9,14.4,1.8c2.9,0.7,5.6,1.7,8.2,3.2c4.5,2.4,9,4.9,13.2,7.8
	c4.8,3.3,10.1,4,15.8,3.7"/>
<path class="st0" d="M199.6,222.1c0.3-1.3,0.9-2.4,1.6-3.6c3-3.3,6.2-6.6,9.4-9.9"/>
<path class="st0" d="M115.1,237.9c0.8-0.7,1.6-1.3,2.5-1.7c0.8-0.3,1.8-0.2,2.5-0.7c1-0.8,2.5-0.7,3.3,0.3l0.1,0.1
	c0.8,0.7,1.7,1.4,2.6,2"/>
<path class="st0" d="M197.2,242.5c0.3-0.3,0.8-0.9,1.1-0.8c3,0.2,5.9-0.6,8.3-2.3c0.3-0.2,0.9,0,1.4,0"/>
<path class="st0" d="M210.8,222l9.2,0.2"/>
<path class="st0" d="M223,243.4c1.1,0.9,2.2,1.8,3.4,2.8c0.8,0.6,1.7,1,2.6,1.6"/>
<path class="st0" d="M145.7,210.1c0.3,1.1,0.8,2.1,2.4,2c1.3,0.1,2.5,0.5,3.8,0.9"/>
<path class="st0" d="M230.1,246.3l0.2,5.8"/>
<path class="st0" d="M226.4,238.6l3.4,0.5"/>
<path class="st0" d="M89.2,214.4l2.3,0.2"/>
</svg>
