<?xml version="1.0" encoding="utf-8"?>
<!-- Generator: Adobe Illustrator 23.0.2, SVG Export Plug-In . SVG Version: 6.00 Build 0)  -->
<svg version="1.1" id="Layer_1" xmlns="http://www.w3.org/2000/svg" xmlns:xlink="http://www.w3.org/1999/xlink" x="0px" y="0px"
	 viewBox="0 0 334.3 315" style="enable-background:new 0 0 334.3 315;" xml:space="preserve">
<style type="text/css">
	.st0{fill:none;stroke:#000000;stroke-width:2;stroke-linecap:round;stroke-linejoin:round;}
</style>
<title>vene</title>
<path d="M234.8,81.6l-8.3,9.3l0.2,0.6c0.8,0.1,1.5,0,2.3-0.1c2.2-0.6,4.4-1.4,6.6-2c5.6-1.6,11.1-3.2,16.7-4.8
	c4.4-1.2,8.5-2.8,11.8-6.4c3.3-3.6,8.1-5.8,12.8-7.5c1.4-0.5,2.9-1,4.4-1.5l0.3,0.6c-0.6,0.5-1.2,0.9-1.8,1.2
	c-4.1,1.5-8.3,3.1-11.7,5.9c-1.7,1.4-3.3,3.1-4.7,4.8c9.4-1.4,18.8-1.9,28.3-1.5c-19.2,1.1-37.8,5.3-55.9,11.4l0.1,0.9l6.2,0.1
	l0.1,0.5c-0.3,0.2-0.6,0.3-1,0.4c-3.8,0.5-7.6,0.8-11.3,1.4c-4.2,0.8-8.4,1.9-12.6,2.8c-5.4,1.2-10.7,2.6-16.3,2
	c-0.7,0-1.5,0-2.2,0.2l-0.2,0.9c1.9,0.9,3.7,1.9,5.6,2.7c4.1,1.7,8.2,3.1,12.3,4.9c4.3,1.9,8.4,1.2,12.6-0.1
	c0.8-0.2,1.6-0.5,2.4-0.8l0.3,0.8l-6.4,2.8c6.3,1.8,14.6,0.8,24-2.9l-0.9-0.5l18.1-4.6l0.1,0.1c-1.4,0.5-2.8,1.2-4.1,2
	c-3.9,2.9-8.7,3.2-13,4.9c-1.1,0.4-2.1,0.9-3.6,1.7c1.6,1.1,2.7,2.2,3.9,2.4c2.4,0.4,2.1,1.8,1.7,3.4c-0.1,0.4-0.2,0.8-0.4,1.2
	c-0.4-4.1-4-4.6-6.6-5.5c-2-0.7-4.6-0.3-6.8,0.2c-7.9,1.7-15.2-0.4-22.4-3.1c-5.9-2.2-11.8-4.5-17.7-6.8c-5.2-2-10.3-4.3-15.5-6.2
	c-3.2-1.1-6.6-1.8-9.9-2.7c-3.1-0.8-6.2-1.7-9.4-2.3c-5.2-1-10.5-1.7-15.7-2.5c-2.5-0.4-5.1-0.6-7.7-0.7c-8.1,0.1-16.1,2.1-23.3,5.6
	c2.1,0.9,4.1,1.7,5.9,2.5c4.4,2.1,8.7,4.8,13.3,6.2c4.5,1.4,9.3,1.7,14,2c1.6,0.1,3.3-0.8,5-1.4c3.4-1.1,4-0.9,6.5,2.7
	c-1.7-0.9-2.9-2-4.2-2.1c-1.3-0.1-2.8,0.8-4.8,1.4c1.7,0.7,3.3,1.4,4.9,2.2c4,2.4,8,4.8,11.8,7.4c3.5,2.4,7.3,3,11.3,3.3
	c0.5,0,1,0.1,1.6,0.2c-1.6,1.1-4,1.1-6.2,0.6c-5.6-1.3-10.5-4.1-15.1-7.4c-3.7-2.6-8.1-4.3-12.6-4.8c-4.3-0.5-8.5-1.2-13-1.8
	l-0.4,2.1c-0.5-0.3-1.1-0.6-1.5-0.9c-3.8-3.7-8.4-6.6-13.3-8.6c-4.3-1.6-8.7-2.4-13.4-1.2c-5.7,1.4-11.3,0.4-16.9-1.3
	c-5.9-1.8-10.9-4.9-15.8-8.3c-4.2-3-8-6.6-12-10c-0.3-0.2-0.6-0.6-0.7-1c-0.1-0.8-0.1-1.5-0.1-2.3c0.7,0.1,1.5,0,2,0.4
	c2.5,1.8,4.8,3.8,7.3,5.6c3.2,2.4,6.4,4.8,9.7,7c3.5,2.3,7.2,0.9,10.5-0.6c4.1-1.9,8-4.4,11.9-6.7c0.6-0.4,1.1-0.9,1.6-1.4
	c2-0.2,3.9-0.4,5.8-0.4c3.4,0,6.8,0.3,10.2,0.4c1.3,0.1,2.6,0.1,3.9,0.1c1.7,0.1,3.7-1.4,5.1,0.9c0.1,0.2,0.6,0.2,0.9,0.1
	c3.3-0.1,6.7-0.3,10-0.4c1.5-0.1,3,0,4.6,0.1l0,0.8c-1.5,0.3-3,0.6-4.5,0.8c-4.7,0.2-9.3,0.5-14,0.5c-2.1-0.1-4.3-0.4-6.3-0.9
	c-6.2-1.2-12.2-1.1-17.8,2.3c-3.7,2.2-7.5,4.2-11.4,6.2c-1.3,0.6-2.7,1.1-4,1.5c1.3,0.7,2.2,1.2,3.1,1.6c3.6,1.5,7.5,2.3,11.4,2.3
	c5,0.1,9.5-1.5,14-3.1c4.6-1.6,9.3-2.3,13.4-4.6c4.5-2.5,9-1.1,13.4-1.2c3.1-0.1,6.2,0.4,9.4,0.6c1.1,0.1,2.3,0.2,2.8-1.5
	c0.6-0.5,1.5-0.7,2.2-0.5c1,1,2,0.5,3,0.2c3.5-1.1,7-1.9,10.6-2.6c4.4-0.5,8.9-0.8,13.4-0.8c6.3-0.1,12.6-0.1,19-0.1
	c1,0,1.9,0.1,2.8,0.4c-8.2,1.7-16.5,1.6-24.9,1.9l3.5,1.5l-0.2,0.9c-4.5-1.3-9-3-13.6-1.9c-4.5,1-8.9,2.5-13.3,3.8
	c8.4,2,16.6,4.1,24.7,6c8.2,2,16.8,3.5,25.4,3.1c3.5-0.1,6.9-0.5,10.3-1.4c4.1-1.1,7.2-4.1,10.3-6.9c2-1.9,3.9-3.8,5.9-5.7
	c0.5-0.5,1.1-1,1.6-1.5L234.8,81.6z"/>
<path d="M261.3,116.9c-2.5,0.6-5,1.2-7.4-0.7l2.6-1.6C257.3,117.3,259.6,116.1,261.3,116.9z"/>
<path class="st0" d="M154.6,89.2l1.8,0.3"/>
<path class="st0" d="M165.7,91.3l1.3,0.3"/>
<path class="st0" d="M179.9,94.8l1.3,0.3"/>
<path class="st0" d="M198,102.3c4,1.5,8,3.1,12,4.6c4.6,1.7,9,3.7,13.7,4.9c4.3,1.1,8.8,1.9,13.3,0.4c1.5-0.3,3-0.5,4.5-0.5
	c2.5-0.3,4.7-1.5,6.9-2.4c2.6-1.1,5.4-1.9,8.2-2.6c3-0.7,5.5-2.5,8.4-3.3c0.8-0.2,1.7-0.4,2.5-0.6"/>
<path class="st0" d="M84.4,90.5c1.7-1.9,4.4-1.6,6.4-2.7c3.4-1.9,6.9-3.5,10-5.7c4-2.8,8.4-3.2,12.9-3.1c3.4,0.1,6.9,0.7,10.3,1.1"
	/>
<path class="st0" d="M124.3,80.1c4.7,0.1,9.3,0.2,14,0.3c2.1,0,4.2-0.1,6.2-0.2"/>
<path class="st0" d="M212.4,97.2c2.5,0.7,4.4-1.1,6.7-1.4"/>
<path class="st0" d="M234.2,91.2c7.2-3.1,14.8-4.6,22.3-6.7c1.6-0.4,3.1-1.1,4.7-1.6"/>
<path class="st0" d="M155.2,84.5c-0.7,1-0.3,1.7,0.8,1.7c0.9-0.2,1.8-0.4,2.7-0.8c6-1.6,12-3.4,18.4-3.2c7,0.2,14.2-0.2,21.2-0.4
	c2.2-0.1,4.5-0.2,6.7-0.2"/>
<path class="st0" d="M261.5,82.3c1,0.7,2.3,0.9,3.5,0.6c8.1-1.9,16.4-2.4,24.7-2.6c0.8,0,1.7-0.1,2.5-0.1"/>
<path class="st0" d="M261.9,81.8c5.1-6.6,12.3-9.7,19.8-12.2"/>
<path class="st0" d="M113.5,94.5c0.8,0.6,1.6,1.2,2.6,1.6c4.8,1.6,9.3,3.8,13.5,6.5"/>
<path class="st0" d="M133.2,104.8c1.3,0.1,2.7,0.2,4,0.4c4.2,0.5,8.4,0.8,12.5,1.6c2.5,0.6,4.9,1.5,7.1,2.8
	c3.9,2.1,7.8,4.3,11.5,6.8c4.2,2.9,8.8,3.5,13.7,3.2"/>
<path class="st0" d="M224.8,92.9c0.3-1.1,0.8-2.1,1.4-3.1c2.6-2.9,5.4-5.7,8.2-8.6"/>
<path class="st0" d="M151.3,106.7c0.7-0.6,1.4-1.1,2.2-1.5c0.7-0.3,1.6-0.2,2.2-0.6c0.9-0.7,2.2-0.6,2.9,0.3c0,0,0.1,0.1,0.1,0.1
	c0.7,0.6,1.5,1.2,2.3,1.7"/>
<path class="st0" d="M222.7,110.7c0.3-0.3,0.7-0.8,1-0.7c2.6,0.2,5.1-0.5,7.2-2c0.3-0.2,0.8,0,1.2,0"/>
<path class="st0" d="M234.5,92.8l8,0.2"/>
<path class="st0" d="M253.9,116.1c2.2,0.3,4.4,0.5,6.5,0.8c0.5,0,1-0.1,1.5-0.3"/>
<path class="st0" d="M245.1,111.4c1,0.8,1.9,1.6,3,2.4c0.7,0.5,1.5,0.9,2.3,1.4"/>
<path class="st0" d="M177.9,82.5c0.3,1,0.7,1.8,2.1,1.7c1.1,0.1,2.2,0.4,3.3,0.8"/>
<path class="st0" d="M251.3,114l0.2,5"/>
<path class="st0" d="M248.1,107.3l3,0.4"/>
<path class="st0" d="M128.8,86.2l2,0.2"/>
<path d="M107.2,170.3l8.1-9.4l-0.2-0.6c-0.8,0-1.5,0-2.3,0.1c-2.2,0.6-4.4,1.4-6.6,2.1c-5.5,1.7-11.1,3.4-16.6,5.1
	c-4.4,1.3-8.5,3-11.7,6.6s-8,5.9-12.7,7.7c-1.4,0.5-2.9,1-4.3,1.5l-0.3-0.6c0.5-0.5,1.2-0.9,1.8-1.3c4.1-1.6,8.2-3.2,11.6-6.1
	c1.7-1.5,3.2-3.1,4.6-4.9c-9.3,1.5-18.8,2.2-28.3,2c19.2-1.5,37.7-6,55.7-12.4l-0.1-0.9l-6.2,0l-0.1-0.5c0.3-0.2,0.6-0.3,1-0.4
	c3.8-0.5,7.6-0.9,11.3-1.6c4.2-0.8,8.4-2.1,12.6-3c5.3-1.3,10.6-2.7,16.2-2.2c0.7,0,1.5-0.1,2.2-0.2l0.2-0.9
	c-1.9-0.9-3.8-1.8-5.7-2.6c-4.1-1.6-8.3-3-12.4-4.7c-4.3-1.8-8.5-1-12.6,0.3c-0.8,0.3-1.6,0.6-2.4,0.8l-0.3-0.7l6.3-2.9
	c-6.4-1.7-14.6-0.5-24,3.3l0.9,0.5l-18.1,5l-0.1-0.1c1.4-0.6,2.8-1.2,4-2.1c3.9-2.9,8.6-3.4,12.9-5.1c1-0.4,2-1,3.6-1.7
	c-1.7-1-2.7-2.2-4-2.4c-2.4-0.4-2.2-1.8-1.8-3.4c0.1-0.4,0.2-0.8,0.4-1.2c0.5,4.1,4.1,4.5,6.7,5.4c2,0.7,4.6,0.2,6.8-0.3
	c7.9-1.9,15.2,0.1,22.4,2.7c6,2.1,11.9,4.3,17.8,6.5c5.2,2,10.3,4.1,15.6,5.9c3.2,1.1,6.6,1.7,9.9,2.5c3.1,0.7,6.3,1.6,9.5,2.1
	c5.2,0.9,10.5,1.6,15.8,2.2c2.6,0.4,5.1,0.5,7.7,0.5c8.1-0.3,16-2.3,23.2-6.1c-2.2-0.9-4.1-1.6-5.9-2.4c-4.5-2-8.7-4.6-13.4-6
	c-4.5-1.3-9.3-1.5-14-1.8c-1.6-0.1-3.3,0.9-4.9,1.4c-3.4,1.1-4,0.9-6.6-2.6c1.7,0.9,2.9,2,4.2,2c1.3,0.1,2.7-0.8,4.7-1.5
	c-1.7-0.6-3.3-1.3-4.9-2.2c-4-2.3-8-4.7-11.9-7.2c-3.5-2.3-7.4-2.8-11.4-3.1c-0.5,0-1-0.1-1.6-0.1c1.5-1.1,3.9-1.2,6.2-0.7
	c5.6,1.2,10.5,3.9,15.2,7.1c3.8,2.6,8.2,4.2,12.7,4.6c4.3,0.5,8.6,1.1,13,1.6l0.3-2.1c0.5,0.3,1.1,0.6,1.6,0.9
	c3.9,3.6,8.5,6.5,13.5,8.4c4.4,1.5,8.7,2.2,13.4,0.9c5.6-1.5,11.3-0.6,16.9,1c5.9,1.7,11,4.7,15.9,8.1c4.3,2.9,8.2,6.5,12.2,9.8
	c0.3,0.2,0.6,0.6,0.7,1c0.1,0.8,0.1,1.5,0.1,2.3c-0.7-0.1-1.5,0-2-0.3c-2.5-1.8-4.9-3.7-7.4-5.5c-3.2-2.3-6.5-4.7-9.8-6.8
	c-3.6-2.3-7.2-0.8-10.5,0.8c-4.1,2-7.9,4.6-11.8,6.9c-0.6,0.4-1.1,0.9-1.6,1.4c-2,0.2-3.9,0.5-5.8,0.5c-3.4,0-6.8-0.2-10.2-0.2
	c-1.3,0-2.6-0.1-3.9-0.1c-1.7,0-3.7,1.5-5.1-0.8c-0.1-0.2-0.6-0.2-0.9-0.1c-3.3,0.2-6.6,0.5-10,0.6c-1.5,0.1-3,0-4.6,0l0-0.8
	c1.5-0.4,2.9-0.6,4.4-0.8c4.7-0.3,9.3-0.6,14-0.7c2.1,0.1,4.3,0.4,6.3,0.8c6.2,1.1,12.2,0.9,17.7-2.7c3.6-2.3,7.5-4.3,11.3-6.4
	c1.3-0.6,2.6-1.1,4-1.6c-1.3-0.7-2.2-1.1-3.1-1.5c-3.6-1.5-7.5-2.2-11.4-2.1c-5,0-9.4,1.7-14,3.3s-9.3,2.5-13.3,4.8
	c-4.5,2.6-8.9,1.2-13.4,1.5c-3.1,0.2-6.3-0.3-9.4-0.4c-1.1,0-2.3-0.1-2.8,1.5c-0.6,0.5-1.4,0.7-2.2,0.5c-1.1-0.9-2-0.5-3-0.2
	c-3.5,1.1-7,2-10.6,2.8c-4.4,0.6-8.9,1-13.4,1.1c-6.3,0.3-12.6,0.3-19,0.4c-1,0.1-1.9-0.1-2.8-0.3c8.2-1.8,16.5-1.9,24.9-2.3
	l-3.5-1.4l0.2-0.9c4.5,1.2,9,2.8,13.7,1.7c4.5-1.1,8.9-2.7,13.3-4c-8.4-1.9-16.6-3.8-24.8-5.6c-8.2-1.8-16.8-3.2-25.5-2.6
	c-3.5,0.2-6.9,0.7-10.3,1.5c-4.1,1.2-7.1,4.2-10.1,7c-2,1.9-3.9,3.9-5.8,5.8c-0.5,0.5-1,1-1.6,1.5L107.2,170.3z"/>
<path d="M80.1,135.5c2.5-0.7,4.9-1.3,7.4,0.6l-2.6,1.6C84.1,135.1,81.8,136.3,80.1,135.5z"/>
<path class="st0" d="M187.2,161.3l-1.8-0.3"/>
<path class="st0" d="M176.1,159.4l-1.3-0.3"/>
<path class="st0" d="M161.9,156.2l-1.3-0.3"/>
<path class="st0" d="M143.7,149c-4-1.5-8.1-2.9-12.1-4.4c-4.6-1.6-9.1-3.5-13.8-4.7c-4.3-1-8.8-1.7-13.3-0.2c-1.5,0.3-3,0.5-4.5,0.5
	c-2.5,0.3-4.6,1.5-6.9,2.6c-2.6,1.1-5.3,2-8.1,2.7c-3,0.8-5.4,2.6-8.3,3.4c-0.8,0.3-1.6,0.4-2.5,0.6"/>
<path class="st0" d="M257.4,158.8c-1.7,1.9-4.3,1.7-6.4,2.8c-3.3,1.9-6.8,3.6-9.9,5.8c-3.9,2.9-8.4,3.3-12.8,3.3
	c-3.4,0-6.9-0.6-10.3-0.9"/>
<path class="st0" d="M217.7,169.9c-4.7,0-9.3,0-14,0c-2.1,0-4.2,0.2-6.2,0.3"/>
<path class="st0" d="M129.3,154.4c-2.5-0.7-4.4,1.1-6.7,1.5"/>
<path class="st0" d="M107.6,160.8c-7.1,3.2-14.7,4.9-22.2,7.1c-1.6,0.5-3.1,1.2-4.7,1.7"/>
<path class="st0" d="M186.7,166c0.7-1,0.3-1.7-0.8-1.7c-0.9,0.2-1.8,0.5-2.7,0.8c-6,1.7-11.9,3.6-18.3,3.6c-7-0.1-14.2,0.5-21.2,0.8
	c-2.2,0.1-4.5,0.2-6.7,0.4"/>
<path class="st0" d="M80.5,170.1c-1-0.7-2.3-0.9-3.5-0.6c-8.1,2-16.3,2.6-24.6,3c-0.8,0-1.7,0.1-2.5,0.1"/>
<path class="st0" d="M80.1,170.6c-4.9,6.7-12.1,9.9-19.6,12.5"/>
<path class="st0" d="M228.2,155.3c-0.8-0.6-1.7-1.2-2.6-1.6c-4.8-1.5-9.4-3.6-13.6-6.3"/>
<path class="st0" d="M208.4,145.3c-1.3-0.1-2.7-0.2-4-0.3c-4.2-0.4-8.4-0.7-12.6-1.4c-2.5-0.5-4.9-1.4-7.1-2.6
	c-4-2-7.8-4.2-11.6-6.6c-4.3-2.8-8.8-3.4-13.7-3"/>
<path class="st0" d="M117,158.9c-0.3,1.1-0.8,2.1-1.4,3.1c-2.6,3-5.3,5.8-8,8.7"/>
<path class="st0" d="M190.3,143.8c-0.7,0.6-1.4,1.1-2.2,1.6c-0.7,0.3-1.6,0.3-2.2,0.7c-0.9,0.7-2.2,0.6-2.9-0.3c0,0-0.1-0.1-0.1-0.1
	c-0.7-0.6-1.5-1.2-2.3-1.7"/>
<path class="st0" d="M118.8,141c-0.3,0.3-0.7,0.8-1,0.8c-2.6-0.1-5.1,0.6-7.2,2.1c-0.3,0.2-0.8,0-1.2,0.1"/>
<path class="st0" d="M107.3,159.2l-8-0.1"/>
<path class="st0" d="M87.5,136.2c-2.2-0.2-4.4-0.5-6.5-0.7c-0.5,0-1,0.1-1.5,0.3"/>
<path class="st0" d="M96.4,140.7c-1-0.8-2-1.6-3-2.3c-0.7-0.5-1.5-0.9-2.3-1.4"/>
<path class="st0" d="M164.1,168.4c-0.4-1-0.7-1.8-2.1-1.7c-1.1-0.1-2.2-0.4-3.3-0.8"/>
<path class="st0" d="M90.1,138.3l-0.3-5"/>
<path class="st0" d="M93.5,144.9l-3-0.3"/>
<path class="st0" d="M213.2,163.9l-2-0.1"/>
<path d="M226.6,203.5l-8.3,9.3l0.2,0.6c0.8,0.1,1.5,0,2.3-0.1c2.2-0.6,4.4-1.4,6.6-2c5.6-1.6,11.1-3.2,16.7-4.8
	c4.4-1.2,8.5-2.8,11.8-6.4s8.1-5.8,12.8-7.5c1.4-0.5,2.9-1,4.4-1.5l0.3,0.6c-0.6,0.5-1.2,0.9-1.8,1.2c-4.1,1.5-8.3,3.1-11.7,5.9
	c-1.7,1.4-3.3,3.1-4.7,4.8c9.4-1.4,18.8-1.9,28.3-1.5c-19.2,1.1-37.8,5.3-55.9,11.4l0.1,0.9l6.2,0.1l0.1,0.5c-0.3,0.2-0.6,0.3-1,0.4
	c-3.8,0.5-7.6,0.8-11.3,1.4c-4.2,0.8-8.4,1.9-12.6,2.8c-5.4,1.2-10.7,2.6-16.3,2c-0.7,0-1.5,0-2.2,0.2l-0.2,0.9
	c1.9,0.9,3.7,1.9,5.6,2.7c4.1,1.7,8.2,3.1,12.3,4.9c4.3,1.9,8.4,1.2,12.6-0.1c0.8-0.2,1.6-0.5,2.4-0.8l0.3,0.8l-6.4,2.8
	c6.3,1.8,14.6,0.8,24-2.9l-0.9-0.5l18.1-4.6l0.1,0.1c-1.4,0.5-2.8,1.2-4.1,2c-3.9,2.9-8.7,3.2-13,4.9c-1.1,0.4-2.1,0.9-3.6,1.7
	c1.6,1.1,2.7,2.2,3.9,2.4c2.4,0.4,2.1,1.8,1.7,3.4c-0.1,0.4-0.2,0.8-0.4,1.2c-0.4-4.1-4-4.6-6.6-5.5c-2-0.7-4.6-0.3-6.8,0.2
	c-7.9,1.7-15.2-0.4-22.4-3.1c-5.9-2.2-11.8-4.5-17.7-6.8c-5.2-2-10.3-4.3-15.5-6.2c-3.2-1.1-6.6-1.8-9.9-2.7
	c-3.1-0.8-6.2-1.7-9.4-2.3c-5.2-1-10.5-1.7-15.7-2.5c-2.5-0.4-5.1-0.6-7.7-0.7c-8.1,0.1-16.1,2.1-23.3,5.6c2.1,0.9,4.1,1.7,5.9,2.5
	c4.4,2.1,8.7,4.8,13.3,6.2c4.5,1.4,9.3,1.7,14,2c1.6,0.1,3.3-0.8,5-1.4c3.4-1.1,4-0.9,6.5,2.7c-1.7-0.9-2.9-2-4.2-2.1
	c-1.3-0.1-2.8,0.8-4.8,1.4c1.7,0.7,3.3,1.4,4.9,2.2c4,2.4,8,4.8,11.8,7.4c3.5,2.4,7.3,3,11.3,3.3c0.5,0,1,0.1,1.6,0.2
	c-1.6,1.1-4,1.1-6.2,0.6c-5.6-1.3-10.5-4.1-15.1-7.4c-3.7-2.6-8.1-4.3-12.6-4.8c-4.3-0.5-8.5-1.2-13-1.8l-0.4,2.1
	c-0.5-0.3-1.1-0.6-1.5-0.9c-3.8-3.7-8.4-6.6-13.3-8.6c-4.3-1.6-8.7-2.4-13.4-1.2c-5.7,1.4-11.3,0.4-16.9-1.3
	c-5.9-1.8-10.9-4.9-15.8-8.3c-4.2-3-8-6.6-12-10c-0.3-0.2-0.6-0.6-0.7-1c-0.1-0.8-0.1-1.5-0.1-2.3c0.7,0.1,1.5,0,2,0.4
	c2.5,1.8,4.8,3.8,7.3,5.6c3.2,2.4,6.4,4.8,9.7,7c3.5,2.3,7.2,0.9,10.5-0.6c4.1-1.9,8-4.4,11.9-6.7c0.6-0.4,1.1-0.9,1.6-1.4
	c2-0.2,3.9-0.4,5.8-0.4c3.4,0,6.8,0.3,10.2,0.4c1.3,0.1,2.6,0.1,3.9,0.1c1.7,0.1,3.7-1.4,5.1,0.9c0.1,0.2,0.6,0.2,0.9,0.1
	c3.3-0.1,6.7-0.3,10-0.4c1.5-0.1,3,0,4.6,0.1l0,0.8c-1.5,0.3-3,0.6-4.5,0.8c-4.7,0.2-9.3,0.5-14,0.5c-2.1-0.1-4.3-0.4-6.3-0.9
	c-6.2-1.2-12.2-1.1-17.8,2.3c-3.7,2.2-7.5,4.2-11.4,6.2c-1.3,0.6-2.7,1.1-4,1.5c1.3,0.7,2.2,1.2,3.1,1.6c3.6,1.5,7.5,2.3,11.4,2.3
	c5,0.1,9.5-1.5,14-3.1c4.6-1.6,9.3-2.3,13.4-4.6c4.5-2.5,9-1.1,13.4-1.2c3.1-0.1,6.2,0.4,9.4,0.6c1.1,0.1,2.3,0.2,2.8-1.5
	c0.6-0.5,1.5-0.7,2.2-0.5c1,1,2,0.5,3,0.2c3.5-1.1,7-1.9,10.6-2.6c4.4-0.5,8.9-0.8,13.4-0.8c6.3-0.1,12.6-0.1,19-0.1
	c1,0,1.9,0.1,2.8,0.4c-8.2,1.7-16.5,1.6-24.9,1.9l3.5,1.5l-0.2,0.9c-4.5-1.3-9-3-13.6-1.9c-4.5,1-8.9,2.5-13.3,3.8
	c8.4,2,16.6,4.1,24.7,6c8.2,2,16.8,3.5,25.4,3.1c3.5-0.1,6.9-0.5,10.3-1.4c4.1-1.1,7.2-4.1,10.3-6.9c2-1.9,3.9-3.8,5.9-5.7
	c0.5-0.5,1.1-1,1.6-1.5L226.6,203.5z"/>
<path d="M253.1,238.8c-2.5,0.6-5,1.2-7.4-0.7l2.6-1.6C249.1,239.2,251.4,238,253.1,238.8z"/>
<path class="st0" d="M146.4,211.1l1.8,0.3"/>
<path class="st0" d="M157.5,213.2l1.3,0.3"/>
<path class="st0" d="M171.7,216.7l1.3,0.3"/>
<path class="st0" d="M189.8,224.2c4,1.5,8,3.1,12,4.6c4.6,1.7,9,3.7,13.7,4.9c4.3,1.1,8.8,1.9,13.3,0.4c1.5-0.3,3-0.5,4.5-0.5
	c2.5-0.3,4.7-1.5,6.9-2.4c2.6-1.1,5.4-1.9,8.2-2.6c3-0.7,5.5-2.5,8.4-3.3c0.8-0.2,1.7-0.4,2.5-0.6"/>
<path class="st0" d="M76.2,212.4c1.7-1.9,4.4-1.6,6.4-2.7c3.4-1.9,6.9-3.5,10-5.7c4-2.8,8.4-3.2,12.9-3.1c3.4,0.1,6.9,0.7,10.3,1.1"
	/>
<path class="st0" d="M116.1,202c4.7,0.1,9.3,0.2,14,0.3c2.1,0,4.2-0.1,6.2-0.2"/>
<path class="st0" d="M204.2,219.1c2.5,0.7,4.4-1.1,6.7-1.4"/>
<path class="st0" d="M226,213.1c7.2-3.1,14.8-4.6,22.3-6.7c1.6-0.4,3.1-1.1,4.7-1.6"/>
<path class="st0" d="M147,206.5c-0.7,1-0.3,1.7,0.8,1.7c0.9-0.2,1.8-0.4,2.7-0.8c6-1.6,12-3.4,18.4-3.2c7,0.2,14.2-0.2,21.2-0.4
	c2.2-0.1,4.5-0.2,6.7-0.2"/>
<path class="st0" d="M253.3,204.3c1,0.7,2.3,0.9,3.5,0.6c8.1-1.9,16.4-2.4,24.7-2.6c0.8,0,1.7-0.1,2.5-0.1"/>
<path class="st0" d="M253.7,203.7c5.1-6.6,12.3-9.7,19.8-12.2"/>
<path class="st0" d="M105.3,216.4c0.8,0.6,1.6,1.2,2.6,1.6c4.8,1.6,9.3,3.8,13.5,6.5"/>
<path class="st0" d="M125,226.8c1.3,0.1,2.7,0.2,4,0.4c4.2,0.5,8.4,0.8,12.5,1.6c2.5,0.6,4.9,1.5,7.1,2.8c3.9,2.1,7.8,4.3,11.5,6.8
	c4.2,2.9,8.8,3.5,13.7,3.2"/>
<path class="st0" d="M216.6,214.8c0.3-1.1,0.8-2.1,1.4-3.1c2.6-2.9,5.4-5.7,8.2-8.6"/>
<path class="st0" d="M143.1,228.6c0.7-0.6,1.4-1.1,2.2-1.5c0.7-0.3,1.6-0.2,2.2-0.6c0.9-0.7,2.2-0.6,2.9,0.3c0,0,0.1,0.1,0.1,0.1
	c0.7,0.6,1.5,1.2,2.3,1.7"/>
<path class="st0" d="M214.5,232.6c0.3-0.3,0.7-0.8,1-0.7c2.6,0.2,5.1-0.5,7.2-2c0.3-0.2,0.8,0,1.2,0"/>
<path class="st0" d="M226.3,214.7l8,0.2"/>
<path class="st0" d="M236.9,233.3c1,0.8,1.9,1.6,3,2.4c0.7,0.5,1.5,0.9,2.3,1.4"/>
<path class="st0" d="M169.7,204.4c0.3,1,0.7,1.8,2.1,1.7c1.1,0.1,2.2,0.4,3.3,0.8"/>
<path class="st0" d="M243.1,235.9l0.2,5"/>
<path class="st0" d="M239.9,229.2l3,0.4"/>
<path class="st0" d="M120.6,208.1l2,0.2"/>
</svg>
