<svg
  id="vena"
  data-name="vena"
  xmlns="http://www.w3.org/2000/svg"
  viewBox="0 0 524.85 345.84"
>
<style>*{fill:red}</style><path
    d="M353.38,486.37c-.83.25-.57,1.23-1.62,1.7a46.33,46.33,0,0,1-7.85-.13,56.6,56.6,0,0,0-11.42,0c-7.32.55-14.38,2.63-21.64,3.44a49.86,49.86,0,0,1-8.29.1c-2.45-.14-4.62.87-6.94,1.23a2.57,2.57,0,0,0-1.75,1.6A91.24,91.24,0,0,0,288,508a11.71,11.71,0,0,0-.16,5.55c.07.4.18.8.22,1.2.3,3.11-.8,4-4,3.45a2.36,2.36,0,0,1-.87-1.67,32,32,0,0,1,1.32-16.58,33.4,33.4,0,0,0,.93-3.29,1.87,1.87,0,0,0-.88-2.37,9.86,9.86,0,0,0-3,.65,162.06,162.06,0,0,0-23.67,9.75,16.78,16.78,0,0,0-2.46,1.57c-3,2.26-6,4.42-9,6.67-3.51,2.65-6.92,5.41-10.46,8-2.75,2-5.56,4-8.48,5.76a15.63,15.63,0,0,0-7.15,9.79,92.88,92.88,0,0,0-2.08,11.75q-.51,3.62-1.23,7.2a8.44,8.44,0,0,0,.06,3.84,69.18,69.18,0,0,0,5.15,14.46,42.51,42.51,0,0,1,1.79,4.8c.83,2.29,1.67,4.58,2.45,6.9a9.64,9.64,0,0,0,2.69,4.28,2.92,2.92,0,0,1,1.22,1.79,1.83,1.83,0,0,1-1.59,1.6,4.55,4.55,0,0,1-3.2-2c-1.29-1.61-2.7-2.29-4.61-1a1.65,1.65,0,0,1-.66.13c-1.16-.28-1.47-1.19-1.83-2.13a35.09,35.09,0,0,1-1.76-7.83,28.8,28.8,0,0,0-2.34-8.17,83.28,83.28,0,0,1-3.15-8.72,4.41,4.41,0,0,1-.15-2.87,4.34,4.34,0,0,0,0-2.89c-1.14-2.8-.52-5.62-.11-8.41a21.58,21.58,0,0,1,1.18-5.71,1.08,1.08,0,0,0-.32-1.23,3,3,0,0,0-2.32,1.35l-9.28,10.67a9,9,0,0,0-.93,1.13c-3.32,5.53-7.58,10.37-11.4,15.52a27,27,0,0,0-2.93,5.34q-2.86,6.47-6.15,12.73a110.45,110.45,0,0,0-5.64,12.44,51.65,51.65,0,0,1-2.59,5.79c-3,5.73-3.66,12.08-4.79,18.28a13.27,13.27,0,0,0,1.41,7.81,7.6,7.6,0,0,1,.72,3.54c-.14,5,1.47,9.61,3.24,14.16a11.23,11.23,0,0,0,2.59,3.52c3.14,3.29,5.64,6.92,6.62,11.47.31,1.42,1.05,2.74,1.46,4.14.69,2.41.27,3.79-1.42,5.16-1.17,0-1.41-1-1.69-1.8-.76-2.23-1.44-4.49-2.17-6.73-.6-1.83-1.13-3.72-3-4.87a4,4,0,0,0,.31,3.38,8.33,8.33,0,0,1,.94,3.26,1.46,1.46,0,0,1-.71,1.45,1.42,1.42,0,0,1-1.78-.37,5,5,0,0,1-1.12-1.58c-1-2.32-2.07-4.62-1.93-7.24a8,8,0,0,0-.79-3.79q-3-6.64-6.15-13.29a2.44,2.44,0,0,0-1.47-1.58c-1.94.61-2.85,2.33-3.1,4.28-.79,6.11-1.9,12.18-2.12,18.37-.08,2.25-.63,4.47-.31,6.67.83.65,1.89.4,2.68,1.29s.34,2.19-.05,3.33a35.88,35.88,0,0,0-1.77,12.25c0,1.77-.09,3.55-.23,5.33A6.67,6.67,0,0,0,157,697.7c1.12,1.8,2.25,3.58,3.38,5.37.34.55.67,1.11,1,1.67a2.07,2.07,0,0,1,0,2.31,2.25,2.25,0,0,1-2.39.89,6.46,6.46,0,0,1-3.24-1.64c-.33-2.74-1.73-5.34-2.72-8.08a23.94,23.94,0,0,1-1.32-7.66c-.05-2.81,0-5.63-.15-8.44-1,4.84-.31,9.67.06,14.5a62.26,62.26,0,0,0,.75,6.52,2.44,2.44,0,0,1-.84,2.67,1.67,1.67,0,0,1-1.75-1.64c-.61-3.83-1.79-7.56-1.52-11.56.29-4.29-.57-8.57-.88-12.86-.19-2.67-.46-5.34-.52-8-.18-6.92-.12-13.84,0-20.77,0-1.44.75-2.65.93-4,.32-2.5.57-5,1-7.48.3-1.81.5-3.74,2.47-4.83,1.43.64,1.19,1.91,1,2.93-.29,1.36-.25,2.75-.55,4.1a1.3,1.3,0,0,0,.53,1.55,2.63,2.63,0,0,0,2.39-2.31c.87-3.88,1.82-7.76,2.43-11.68a51.77,51.77,0,0,1,1.89-8.55,5.55,5.55,0,0,1,1.26-2,4.09,4.09,0,0,0,1.23-3.34,9.13,9.13,0,0,1,1-4.94c.53-1.27,1.12-2.52,1.66-3.8a6.8,6.8,0,0,1,2.18-2.86,4.77,4.77,0,0,0,1.77-5.43,3.45,3.45,0,0,1,.05-2.62c.75-.93,2.24-.59,3-1.86a16.2,16.2,0,0,1,4.47-9.59,5.56,5.56,0,0,0,1.06-2.44,13.71,13.71,0,0,1,3.51-6c2.11-2.14,3-5,4.3-7.61,1.72-3.41,3.26-6.92,6.14-9.59a3.67,3.67,0,0,0,1-1.65,5.58,5.58,0,0,1,1.9-2.77c.31-.26.74-.54.82-.88.75-3,4.13-4.15,4.56-6.74.87-1.09,1.9-.58,2.51-1.17.43-4.36.74-3.67,3.18-6.24.79-.83,1.63-1.6,2.39-2.44s1.19-2,2.25-2.46c1.16-.07,1.37,1.1,2.3,1.57a3.87,3.87,0,0,0,.52-2.48c0-.4-.11-.8-.14-1.21-.08-1-.09-2,.93-2.59a2.11,2.11,0,0,1,2.79.48c.68,1.2-.08,2.5.43,3.64.73.25.87-.35,1-.74a52.32,52.32,0,0,1,2.43-6.38,5.89,5.89,0,0,0,.24-1.91,2.81,2.81,0,0,1,3-2.82,14.34,14.34,0,0,1,1.46,0,2.93,2.93,0,0,0,3.31-1.92,3,3,0,0,1,2.77-2c1.6-.23,1.86-.63,2.05-2.21,0-.33,0-.66.05-1,.34-2.09,1.71-2.66,3.45-1.44.33.22.59.57,1.07.56,1-.2.68-1.4,1.34-1.84.57-.64,1.42-.29,2.09-.66.7-.8,0-1.93.66-2.84a1.69,1.69,0,0,1,2-.15,3.12,3.12,0,0,0,3.2-.58c5.39-4.17,11.64-6.83,17.58-10a53.68,53.68,0,0,1,6.33-2.56c5.54-2.13,11.1-4.22,16.65-6.34a2.55,2.55,0,0,1,1.88-.13c1,1.32,1,1.32,1.18,4.29.75.14.64-.52.81-.88,1.28-2.74,3.14-4.71,6.35-5a13.11,13.11,0,0,0,2.61-.58,3.89,3.89,0,0,1,3.3.19,4,4,0,0,0,2.86.37c2.5-.59,5-.31,7.54-.37a22.25,22.25,0,0,0,5.33-.5c4.5-1.21,9.13-1.34,13.75-1.58a65.43,65.43,0,0,1,6.57-.38c3.48.17,6.95.68,10.46.23a9.74,9.74,0,0,1,2.85.51c.41-2.5-.92-4.68-3.8-6.29-.88.27-1,1.24-1.63,1.77a2.44,2.44,0,0,1-1.84-.32,15.91,15.91,0,0,0-10-.47c-1.49.38-3,.69-4.51,1a1.88,1.88,0,0,1-.71.13c-2.64-.56-5.31.07-7.95-.26a8.54,8.54,0,0,0-1.94-.14,29.18,29.18,0,0,1-7.71.32c-1.56-.23-3.12,1.26-4.87,1.31-.49,0-1,.19-1.45.2-2.86,0-5.72,0-7.83,1.5-1.33,0-2-.59-2.75-.78-.55-.06-.9.31-1.31.57a5.7,5.7,0,0,1-4.18.86,6,6,0,0,0-3.83.4c-1.58.83-3.1,1.78-4.7,1.51-1,.81-.54,2-1.62,2.59-.74.28-1.37-.48-2.36-.61-4.15.62-8.46,1.43-12.42,3.49-.86.45-1.68,1-2.51,1.49-.56.34-1.09.72-1.65,1.05-2,1.2-4.29,1.48-6.41,2.27s-3.74,2.59-6.09,2.92a8,8,0,0,0-5.51,3.17c-1.37.31-1.79-.82-2.74-1.1-1.31,1.47-1.25,3.68-2.71,5.06a30.68,30.68,0,0,0-3.85,4.25c-1.84,0-1.64-1.61-2.21-2.48-.91.06-.92.69-1,1.23a2.42,2.42,0,0,1-1.81,2.1c-3.12.68-5.6,2.16-6.75,5a2.92,2.92,0,0,1-.53.13c-3.14-.33-3.15-.34-4.33,2.86a4.21,4.21,0,0,1-2.09,2.28c-4.11,2.21-6.9,5.9-10.09,9.13a4.63,4.63,0,0,0-1.3,3.35,3,3,0,0,1-.76,2.19c-2.77,1.06-4.7,3.33-6.51,5.77-2.57,3.46-5.24,6.84-7.83,10.29a105.33,105.33,0,0,0-10.15,16.92c-1.67,3.42-3.84,6.6-5.44,10.09-2,4.28-3.94,8.57-5.85,12.89a63.28,63.28,0,0,1-2.93,5.89c-1.79,3.13-2.69,6.62-4,10a48.26,48.26,0,0,0-3.12,10c-.14.93-.47,1.93-1.82,2.05-1.28-1.32-1.15-3-1-4.55a26.8,26.8,0,0,1,2.25-8.44,17.35,17.35,0,0,0,1.19-11c-.43-2.11.1-4.2.22-6.3.21-3.89,0-7.81.62-11.68a14,14,0,0,1,1-4c.69-1.35,1.23-1.53,2.93-1.18a1.75,1.75,0,0,1,.52,1.33c0,3.33.3,6.66-.29,10a12.13,12.13,0,0,0,.75,5.8c1.47,0,1.77-.91,2-1.78,1.84-7,5.74-13.07,9.1-19.38q5.16-9.7,11-19a93.29,93.29,0,0,1,8.1-10.67c3.17-3.7,6.53-7.24,8.94-11.55a25.34,25.34,0,0,1,4.76-5.53c2.62-2.55,5.19-5.16,7.57-7.54.68-2-.18-3.51-.35-5.1-.51-5-.83-10,1.11-14.9,1.56-3.94,2.95-7.93,5.22-11.54a9.07,9.07,0,0,1,2-2.41,1,1,0,0,1,1.42,0c.37.85-.16,1.66-.5,2.43-2.61,6-3.63,12.29-4.18,18.71-.06.73-.18,1.45-.29,2.17a8.29,8.29,0,0,0,0,3.4c.45,1.74,1.73,2.18,3.1,1.07,5.14-4.13,10.56-7.87,16-11.55,4.12-2.77,8.68-4.84,12.8-7.59a75.51,75.51,0,0,1,13.59-7.11c6.68-2.72,13-6.36,20.22-7.78a3.53,3.53,0,0,0,2.15-1.06,3.35,3.35,0,0,0-.52-3.44c-2.79-4.54-2.74-9.39-1.67-14.37,0-.16.05-.33.09-.48.52-1.75,1.42-2.45,2.72-2.14a2.35,2.35,0,0,1,1.61,3.11,14,14,0,0,0,1.06,9.27,16.63,16.63,0,0,0,3.71,5.63l7.77-1.5a108.94,108.94,0,0,1,12.09-1.44,61.3,61.3,0,0,0,7-1.13,15.2,15.2,0,0,1,3.15-.29,13.46,13.46,0,0,0,5.52-.74,7.66,7.66,0,0,1,2.9-.29c2.84,0,5.67,0,8.52-.28a39.3,39.3,0,0,1,8,.5c5.16.61,10.29,1.43,15.48,1.82,1.86.14,3.7.48,5.55.74a1.45,1.45,0,0,0,1.14-.08c.41-.68,0-1.09-.39-1.52-2.12-2.6-3.53-5.46-3.38-8.92a12.3,12.3,0,0,0-.29-1.68,12,12,0,0,1,.48-5,54.87,54.87,0,0,1,4.87-10.34,8.75,8.75,0,0,1,2.84-3,30.16,30.16,0,0,1,20.82-5.35,17.59,17.59,0,0,1,8.34,3.15c4.41,3.09,8.3,6.79,12.41,10.22,3.05,2.53,4.21,2.86,7.92,1.17q11.65-5.31,23.55-10.1c11.32-4.55,22.51-9.41,33.69-14.3a197.05,197.05,0,0,1,19.9-7.4,1.83,1.83,0,0,1,1.31-.11c1,.62.74,1.56.26,2.46-.89,1.65-1.74,3.32-2.75,4.9-3,4.65-6,9.26-9.07,13.89-1.08,1.64-2.7,2.78-3.77,4.46-2.53,4-5.07,8-7.8,11.8-4.51,6.36-9.36,12.5-13.58,19.07-.51.8-1.36,1.48-1.06,2.91,1.66,1.44,3.85,2.56,5.64,4.2a64,64,0,0,1,7,7.43c3.75,4.73,5,10.53,7.48,15.8a4.67,4.67,0,0,1,.26,1.19c.51,2.95.67,6,1.34,8.9a11.08,11.08,0,0,1-.14,3.88,81.11,81.11,0,0,0-1.22,12.35,6,6,0,0,1-.16,1.94c-.9,2.57.1,4.66,1.7,6.51,3.19,3.7,6.84,6.73,11.92,7.48a11.71,11.71,0,0,1,4.1,1.53A46,46,0,0,0,518.55,552a3.71,3.71,0,0,1,.94.24,96.07,96.07,0,0,0,18,5.24,141.62,141.62,0,0,0,18,3c2,.15,4,.37,6.07.42a30.49,30.49,0,0,0,7.27-.6,28.18,28.18,0,0,1,6.07-.45A97.19,97.19,0,0,0,595,557.51c5-1,10.06-1.85,15.1-2.69,5.27-.89,10.58-1.89,15.51-4.17a5.23,5.23,0,0,1,2.09-.62,33.51,33.51,0,0,0,9.07-1.71c3-.93,4-.53,5.79,2,2.34,3.33,4.84,6.53,7.48,9.63a6.17,6.17,0,0,1,1.62,2.59c-.29,1.11-1.2,1.33-2.15,1.73a3.85,3.85,0,0,0-3.84.3,2.34,2.34,0,0,1-.69.23c-7.89,1.68-15.29,5-23.12,6.84a12.92,12.92,0,0,0-1.64.49c-6.88,2.54-14.13,3.7-21.2,5.52-2.35.61-4.76,1-7.1,1.71a34.62,34.62,0,0,1-5.27.94c-3.3.43-6.62.71-9.92,1.15-3.08.4-6.15-.06-9.22,0a116.65,116.65,0,0,1-14.83-.87c-2.82-.31-5.68-.29-8.51-.59-6.38-.67-12.78-1.25-18.92-3.24-1.57-.5-2.64.26-3.77.73-.28-.1-.5-.11-.57-.22-1.18-1.9-3-2.45-5.1-2.79a90.17,90.17,0,0,1-15-4.27c-1.69-.58-3.35-1.27-5-2-6.39-2.81-11.82-7.11-17.39-11.19-6.56-4.81-10.8-11.45-13.89-18.74a28.74,28.74,0,0,1-1.7-16.3,10.85,10.85,0,0,0-.16-5.31,36,36,0,0,1-1.73-11.29c0-3.26-.88-6.29-3.54-8.5a13.68,13.68,0,0,0-5.33-2.92c-.37.11-.58.11-.67.22-3.91,4.19-7.49,8.5-7.94,14.65-.3,3.95-1.21,7.85-1.71,11.79a17.93,17.93,0,0,0,0,5.12c.61,3.71.34,7.46.76,11.18.23,2.09.76,4.14.82,6.26a49.89,49.89,0,0,1-.79,7.72,120.73,120.73,0,0,1-2.13,12.23,23.31,23.31,0,0,1-1.95,5.51,8.39,8.39,0,0,0-.61,1.33c-1.83,5.82-5.2,10.8-8.54,15.82-2.06,3.1-3.72,6.48-5.56,9.74a5.89,5.89,0,0,0-.69,3.06,32.77,32.77,0,0,1-.45,7.53,7.39,7.39,0,0,1-.14,1c-2,5.29-3.32,10.82-6.91,15.48a27.35,27.35,0,0,0-5.94,16.69,15.69,15.69,0,0,0,2.24,8.6c1.75,2.83,3.58,5.63,5.39,8.43a9,9,0,0,0,5.55,4.1c3.95,1,7.74,2.49,11.75,3.25a26,26,0,0,1,5.92,2.24c4.07,1.85,8.13,3.75,12.11,5.8a56.54,56.54,0,0,1,14.8,11,15.37,15.37,0,0,1,4.6,10.21,68.75,68.75,0,0,0,1.22,8.43,28.16,28.16,0,0,1,.66,6.78,9.89,9.89,0,0,0,1.82,6.21,49.53,49.53,0,0,0,7.87,9.27c2.74,2.51,4.63,5.66,6.83,8.57a13.29,13.29,0,0,0,6.52,4.5c2.45.87,5,1.59,7.09,3.17a3,3,0,0,0,1.33.6c4.81.71,9.57,1.95,14.5,1.6a182.63,182.63,0,0,0,20.27-2.59c6.34-1.19,12.43-3.11,18.64-4.7,5.2-1.33,10.42-2.57,15.63-3.87,1.1-.27,2.19-.6,3.28-.94a59.9,59.9,0,0,1,15.56-2.59,73.14,73.14,0,0,0,8.45-1.09,15,15,0,0,1,2.91-.3,62.94,62.94,0,0,0,11.87-1.09,55.33,55.33,0,0,1,11.41-.79,8.38,8.38,0,0,0,7.08-2.53,2.74,2.74,0,0,1,.77-.33c.76,1.06.39,2.36.89,3.4a31.69,31.69,0,0,1-4.17,4.25c-5.25,4.73-11.06,8.83-15.93,14a6.18,6.18,0,0,1-4,1.69c-3.23.38-6.46.69-9.69,1a155.86,155.86,0,0,0-16.33,2.75c-6.2,1.33-12.24,3.34-18.41,4.79C560,755,552.1,757.65,544,759.25a66.19,66.19,0,0,1-8.2,1.09c-4.53.35-9.09.23-13.61.83a18.07,18.07,0,0,1-5.33-.36c-7.36-1.24-14.84-1.79-22.13-3.44A74.07,74.07,0,0,1,476.16,750a20.54,20.54,0,0,1-7-6.62,109.65,109.65,0,0,1-6.31-10.44c-1.17-2.15-2.62-4.11-3.88-6.2-2.58-4.28-3.62-9-4.29-13.88-.5-3.61-1.26-7.19-1.92-10.79a7.12,7.12,0,0,0-2.09-3.78,82.45,82.45,0,0,1-7.41-7.77c-1-1.31-2.69-1.79-4-2.68a19.64,19.64,0,0,1-2.11-1.21c-2.12-1.86-4.58-2.17-7.28-2.09a49.61,49.61,0,0,1-9.74-.32,11.43,11.43,0,0,1-4.52-1.69c-3.2-2.09-6.49-4.07-9.09-7a15.12,15.12,0,0,0-3.13-2.32,29.18,29.18,0,0,1-6.59-5.75,10.68,10.68,0,0,0-1.17-1.25c-3.16-2.68-4.91-6.2-6.13-10.08a36.78,36.78,0,0,0-2.42-5.85c-1.64-3.17-1.75-6.75-2.69-10.1-1-3.59-.2-7.09.19-10.63a11.49,11.49,0,0,0,.22-2.17c-.35-3.77.87-7.24,2-10.7.4-1.18.92-2.32,2.53-2,.81.84.52,1.68.13,2.51a25.56,25.56,0,0,0-2.05,10c-.06,1.47-.42,2.89-.55,4.35-.29,3.39.58,6.62,1.17,9.89a39,39,0,0,0,2.56,8.64,13.94,13.94,0,0,1,1,3c.83,4.56,3.37,8.26,5.91,11.93,1.49,2.15,3.95,3.12,6.13,4.34a21,21,0,0,1,5.67,4.46,29,29,0,0,0,6.55,5.43c3.05,1.86,6.43,2.23,9.86,2.25a38.9,38.9,0,0,1,16.24,3.86c1.52.71,2.45,2.15,4,2.8A6.22,6.22,0,0,0,449,687c.72-1.83,0-3-1.43-4s-2.89-1.69-4.57-1.29c-2.07.49-3.32-.17-3.86-2.22-1.9-.41-3.79-.24-5.6-.74a2.86,2.86,0,0,0-2.08.55,2.8,2.8,0,0,1-3.18-.3,79.58,79.58,0,0,1-7.88-6.53c-1.39-1.24-2.83-2.4-4.26-3.48-1.73.65.48,2.8-1.78,3.27a13.7,13.7,0,0,1-5.24-3.3c-2.48-2.23-4.77-4.68-7.14-7a2.93,2.93,0,0,1-1.1-2.35,7.81,7.81,0,0,0-2.3-6.65c-.06-1.82,1.43-2.59,1.81-3.69-.23-1.43-1.23-1.66-2.13-2a2.06,2.06,0,0,1-1.55-1.92c.46-1.61,2.39-1.72,3-3a1.73,1.73,0,0,0-.38-1.44c-1.12-1.63-2.13-3.19-1.51-5.4.24-.82-.35-1.88-.6-2.82a5.38,5.38,0,0,1,.76-4.9c2.39-2.92,1.42-5.77.26-8.7a17,17,0,0,1-1.15-2.5c.19-1.74,2-1.09,2.68-2.12.07-1.25-1.51-1.58-1.74-3a1.49,1.49,0,0,1,.77-1.16c1-.61,2,.42,2.82-.5.73-1.88-2.18-3.52-.81-5.36,1-.88,1.92,0,2.74-.23.28-.67-.26-.92-.51-1.29a3.12,3.12,0,0,1,.36-4.55c.52-.51,1.11-1,1.59-1.5a3.68,3.68,0,0,0,.95-4,4.49,4.49,0,0,1,.65-4.4,15.13,15.13,0,0,0,2.08-5.18c.73-2.83,1.35-5.69,2-8.54.35-1.52,1-2.2,3.32-3.44.06-1.67-.65-3.4.07-5.18.64-1.6,1.72-2.94,2.4-4.53l-.73-2.42c0-.25,0-.35.08-.41,2.08-2.53,2.05-5.46,1.73-8.51a8.09,8.09,0,0,1,1.9-6.13c1.43-1.77,1.89-4.12,3.49-5.56-.25-1.07-1.2-1.24-1.51-2.44,1.62-4.35,1.22-9.1-.41-14.11a3,3,0,0,1,.47-1.07,2.1,2.1,0,0,0-.65-3,3.14,3.14,0,0,1-1.31-2.76c.14-2.56-.9-4.95-1-7.46a1.7,1.7,0,0,0-.29-.92c-1.53-1.91-1.42-3.88-.17-5.94-2.31-3.42-1.13-7.28-1.5-10.95-.09-1,0-1.95,0-2.93a1.84,1.84,0,0,0-1.32-2c-.68,0-.88.5-1.11.93-2.2,4.15-3.79,8.4-2.93,13.27a53,53,0,0,1,.53,6.8,19.24,19.24,0,0,0,.54,4.34,25.83,25.83,0,0,1,1,8.92,3.36,3.36,0,0,0,.34,2.14c.61.71,1.53.41,2.28.67,1.53.52,1.95,1.19,1.53,2.75a51.78,51.78,0,0,1-5.62,13.72,10.23,10.23,0,0,0-.91,2,44.48,44.48,0,0,1-2.18,5.69,24.34,24.34,0,0,0-1.74,6.83,17.63,17.63,0,0,1-1.53,5.11,12.32,12.32,0,0,0-.94,2.76c-1,4.28-1.81,8.59-2.79,12.87-.65,2.86-.89,5.77-1.42,8.64-.75,4-1.77,7.93-2.44,11.93a52.46,52.46,0,0,1-3.28,11.21A13.65,13.65,0,0,1,391,611c-1,0-1.37-.61-1.67-1.38a1.89,1.89,0,0,1,.1-.66c2.55-4.38,3.24-9.32,4.4-14.13.92-3.77,2.37-7.39,2.9-11.28.64-4.74,1.8-9.4,2.31-14.17a17.88,17.88,0,0,1,1.52-6.13c1.81-3.63,2.32-7.62,3.18-11.48A61.87,61.87,0,0,1,408,538.88a39.54,39.54,0,0,0,2.8-7.79,12.27,12.27,0,0,0,0-6A52.17,52.17,0,0,1,409,511.34a3.67,3.67,0,0,0-.74-2.41,1.26,1.26,0,0,0-1.47,0,20,20,0,0,0-4.28,3.57,33.2,33.2,0,0,1-9.52,7.91,46.32,46.32,0,0,0-10.54,7.84,92.39,92.39,0,0,0-9.12,10.15,62.38,62.38,0,0,0-7,12.84c-1.34,3.22-1.17,6.7-1,10.12A5.24,5.24,0,0,0,366.6,564a32.7,32.7,0,0,1,3.75,8.69,10.12,10.12,0,0,1,.37,3.14c0,2.4-.58,3.11-3.14,4-1.52-.67-1.79-2.21-2.32-3.54a44.77,44.77,0,0,0-1.71-4.56c-.43-.8-.83-1.64-2.15-1.38a6.77,6.77,0,0,0-1.81,2.68c-1.56,3-4,5.34-6.47,7.57a80.9,80.9,0,0,1-15.1,10.7,24.88,24.88,0,0,0-7.2,6.52,72.3,72.3,0,0,0-7.9,12.56,60.88,60.88,0,0,0-4.53,10,88.8,88.8,0,0,0-2.93,13.56c-.18,1.27,0,2.8-1.32,3.67-.91-.13-1.13-.72-1.2-1.4-.61-5.84-1-11.65,1.59-17.21a52.94,52.94,0,0,0,2.91-8.53,12.84,12.84,0,0,1,3.41-6.38,2.79,2.79,0,0,0,.46-.88A1.38,1.38,0,0,0,319,603c-2.16,2.1-4.42,4.11-5.82,6.86a14.32,14.32,0,0,1-1.49,2.51,25.18,25.18,0,0,0-4,7.78,5.86,5.86,0,0,1-.69,1.55,16.94,16.94,0,0,0-2.43,5.49,17.66,17.66,0,0,1-4.56,7.39,1.56,1.56,0,0,1-1.21-1.89c.38-3,.79-5.94,1.31-8.89a7.33,7.33,0,0,1,1-2.2c1.49-2.7,3-5.42,4.54-8.08a39.34,39.34,0,0,0,3.67-7.69,11.54,11.54,0,0,1,2.74-4.29,80.81,80.81,0,0,1,16.68-13.79,68.09,68.09,0,0,0,14.69-11.23c1.85-1.93,3.68-3.88,5.4-5.91a7.69,7.69,0,0,0,1.94-5.21,1.1,1.1,0,0,0-1.21-.48c-2.78.87-5.7,1.43-7.89,3.61a7.91,7.91,0,0,1-1.64,1.05,7.73,7.73,0,0,0-3.07,3.06,2.86,2.86,0,0,1-2.18,1.81,1.75,1.75,0,0,1-1.62-1.18c-.1-1.25.79-2.34.49-3.58a3.22,3.22,0,0,0-.42-.73c-2-.52-4-.08-5.93.24-3.85.64-7.76,1.06-11.4,2.52-6.42,2.58-12.76,5.33-18.32,9.59-3.16,2.43-6.51,4.59-9.62,7.09a56.87,56.87,0,0,0-6.33,6.08,92.89,92.89,0,0,0-8.47,10.69,35.57,35.57,0,0,0-3.24,5.73c-2.16,5-4.65,9.88-5.5,15.34-.81,5.2-2.13,10.32-2.32,15.64-.07,2-.35,4-.42,6.07a66.29,66.29,0,0,0,.79,11.16c.44,3.29.52,6.62,1.11,9.92a70.4,70.4,0,0,0,2.37,9.19,40.15,40.15,0,0,1,1.13,4,12.88,12.88,0,0,0,4.23,7.76,5.12,5.12,0,0,1,1.08,1.32,3.11,3.11,0,0,1,.29,3.16,1.55,1.55,0,0,1-2.23-.37,26.25,26.25,0,0,1-6.4-9.41c-1-2.91-2-5.84-3-8.8a38.2,38.2,0,0,0-2.86-7,22.71,22.71,0,0,1-2.49-10.34c-.1-2.51.14-5-.42-7.54-.45-2,.16-4,.45-6a73.24,73.24,0,0,0,.9-12.38,19.07,19.07,0,0,1,1.09-6.7,40.21,40.21,0,0,0,1.91-7.8,11,11,0,0,1,.55-2.12c1.3-3.6,2.63-7.19,4-10.77a4,4,0,0,1,.68-1.29c3.41-3.74,6-8.12,9.05-12.1a49.2,49.2,0,0,1,11.09-10.56,48.31,48.31,0,0,0,5.28-4.32,39.8,39.8,0,0,1,7.45-5.07c3.18-1.81,6.36-3.62,9.53-5.46a31.52,31.52,0,0,1,7.7-3c6-1.61,12-3.15,17.94-4.69,1.8-.47,3.64-.85,5.46-1.24a33.31,33.31,0,0,0,14.95-7.35,12.85,12.85,0,0,0,3.83-5.26,29.18,29.18,0,0,1,3.13-5.79c1.9-2.85,3.33-6,5.15-8.86a41.54,41.54,0,0,1,9.34-10.82,11.2,11.2,0,0,1,1.89-1.12,3.19,3.19,0,0,0,1.58-1.45,10.15,10.15,0,0,1,3.6-3.92c4.5-3,8.21-6.91,12-10.72,2-2,3.93-6.64,3.89-9a4.73,4.73,0,0,0-4.66-1.27c-4.58,1.32-9.07,0-13.59,0a70,70,0,0,1-14.46-1.81,11.67,11.67,0,0,1-3-1,10.86,10.86,0,0,0-5.07-1.55C355.69,487.5,354.54,486.74,353.38,486.37ZM484.9,437.75A3.35,3.35,0,0,0,483,436a48.6,48.6,0,0,0-10-3.9,5.69,5.69,0,0,0-4.5.46c-4,2.18-8.31,3.73-12.43,5.69a45.1,45.1,0,0,1-7.12,3.17,56.36,56.36,0,0,0-7.92,3.11c-3.56,1.61-7.19,3-10.79,4.56a53.58,53.58,0,0,0-6.5,2.87,2.32,2.32,0,0,0,.23,2.48c1.06,1.83,2.09,3.67,3.21,5.47a10.27,10.27,0,0,0,7.6,4.72c5.61.89,11.19,1.86,16.31,4.67a42.26,42.26,0,0,0,9.54,3.43,3.8,3.8,0,0,0,2.14-2c3.19-5,6.21-10.13,10.54-14.3a3.14,3.14,0,0,0,.61-.75c2.1-4,4.94-7.44,7.31-11.22C482.65,442.26,483.74,439.9,484.9,437.75Zm-14.42,76.08c.33-2,.5-3.78.92-5.51a7.49,7.49,0,0,0-2.07-7.37,3.54,3.54,0,0,1-1.19-1.81c-.33-2.52-2.2-3.82-3.87-5.39-2.43-2.3-5.42-4.15-6.59-7.55-2.7,1.11-3.52,2.37-3.11,4.67a9.8,9.8,0,0,0,2.48,1.51c3.28,1.91,5.84,4.43,6.68,8.29a23.41,23.41,0,0,1,.84,5.52,24.47,24.47,0,0,0,.76,6.75,22.47,22.47,0,0,1,.7,6c-.07,3-.07,6,0,9a34.11,34.11,0,0,0,3.64,13.8,6.12,6.12,0,0,0,.95,1.41c2.37,2.68,4.47,5.58,6.63,8.42a11.3,11.3,0,0,0,3.83,3.34,28,28,0,0,1,6.17,4.32,29.09,29.09,0,0,0,7.92,5.19c6.12,2.72,12.59,4.36,19,6.18.69.19,1.4.54,2.11,0a14,14,0,0,0-.15-7.71c-.83.45-1.1,1.7-2.56,1.6-1.06-.17-1.88-1.55-3.22-1.6a5.35,5.35,0,0,1-3.84-1.78c-1.15-1.16-1.87-1.05-3.13.1-.71.64-1.17,1.59-2.2,1.83-1.68-.81-1.9-1.25-1.27-2.7.24-.56.89-1,.36-1.83-.82-.35-1.33.2-1.73.81a3.87,3.87,0,0,1-1.86,1.51c-.72.27-1.27.12-1.55-.58-.3-1,.88-1.66.33-2.61-1.37-.86-2.66.35-4.18.17-1.37-1-2.86-2.12-3.18-3.87.29-1.22,1.59-1.28,1.7-2.4a3.58,3.58,0,0,0-2.42-2.11,5.64,5.64,0,0,1-3.4-2.59.81.81,0,0,0-.75-.44c-1,.15-1.46,1.12-2.37,1.39a1.74,1.74,0,0,1-1.64-1.21c-.44-1.45,1-2.32,1.27-3.64-.81-1.55-2.55-2.82-1.69-4.86-1-.56-2,0-2.81-.53-1-.91-.25-1.78.18-2.61a2.65,2.65,0,0,0-.62-3.49,36.46,36.46,0,0,0-4.18-3.37c-.66-.48-1.36-.91-1.46-2,.57-2.19,2.9-3.35,3.69-5.47-.23-1.09-1.43-1.38-1.8-2.54C472.15,516.68,471.41,515.24,470.48,513.83ZM499.28,753c-.91-2.33-2.75-2.75-4.76-3.13a13,13,0,0,1-6.87-3.5,31.78,31.78,0,0,0-7-5.54,5.89,5.89,0,0,0-2.57-1.22,1.94,1.94,0,0,1-2-2.07,2.53,2.53,0,0,0-1.72-2.42,6.66,6.66,0,0,1-4.09-5.9,14,14,0,0,0-2.58-7,18.18,18.18,0,0,1-2.95-6.88c-.77-3.31-1.33-6.72-2.82-9.82a9.61,9.61,0,0,1-.9-5.43,5.11,5.11,0,0,0-2.69-5.27c-2.41.85-4-.15-5.1-2.16-.59-1.07-1.14-2.16-1.73-3.22-.37-.67-.64-1.46-1.52-1.67-1.35,3-.26,5.54,2.5,7.12a20.56,20.56,0,0,1,2.15,1.59,4.08,4.08,0,0,1,1.61,2.86c.49,3,.19,6.17,1,9.19a46.62,46.62,0,0,1,.94,5.51c.7,5.14,2.1,10,5.58,14.09a32.25,32.25,0,0,1,3.06,5C470.38,739.2,474,745.2,481,748c.3.12.55.36.84.5,3.6,1.69,7.1,3.59,11,4.55,3.08.76,6.22,1.15,9.26,2.13a22.82,22.82,0,0,0,7.93,1.13c.46,0,1,.08,1.11-.64-.33-.74-1-.72-1.66-.7a7.42,7.42,0,0,1-3.34-.58A11.75,11.75,0,0,0,499.28,753ZM391.48,482.32c-2.44-.41-4.87.23-7.35.74-1.46.29-3,1-4.54.37a13.32,13.32,0,0,0-5.76-.68,9.69,9.69,0,0,1-6.22-1.72c-.11-.07-.31,0-.49,0-.49.41-.17,1.32-1.18,1.67-3.16-1.61-6.82-2.09-10.46-2.8a3.87,3.87,0,0,0,.39,2c1,2.94,1.88,3.53,4.95,3.73,1.94.14,3.87.39,5.79.68,3.53.52,7,1.43,10.57,1.62a130.51,130.51,0,0,0,20.45-.4c1-.1,1.82-.33,2.15-1.29a22.9,22.9,0,0,1,2.69-4.9c.58-.91.65-1.81-.53-2.46-1.66.76-1.93,3.22-4.11,3.22C396.32,482,395,481,393.42,481Zm-71.92,84.22a7.51,7.51,0,0,0,3.08,0,60.16,60.16,0,0,1,10.12-1.43,33.71,33.71,0,0,0,7.25-.81c3.37-.93,6.65-2.14,9.93-3.36a13.57,13.57,0,0,0,5.81-3.91,8.19,8.19,0,0,1,2.7-2.07,3.67,3.67,0,0,0,2.2-3c.23-2.45,1.49-4.44,2.67-6.48a29.36,29.36,0,0,0,1.71-3.23c.36-.86.39-1.76-.69-2.14a2.81,2.81,0,0,0-1.59,1.58c-1.15,2.15-2.32,4.3-3.49,6.43a26.66,26.66,0,0,1-12.14,11.24,41.47,41.47,0,0,1-10.49,3.09c-4.87.93-9.77,1.65-14.58,2.86A4.16,4.16,0,0,0,319.56,566.54Zm73.6-117.15c-2.16-2.88-5.76-3.18-8.51-5-1.06,1-1.53,2.11-2.73,2.44-3.35-.47-4-.17-5.19,2.47.59,2,.59,2,2.5,2.35.5-.43,1-.95,1.6-1.38,1.92-1.4,6.3-1,7.29.94,1.27,2.48,3.36,3.88,5.58,5.24,1.55.95,2.82.92,3.77-.07.74-.78.81-2,0-3.37a6.59,6.59,0,0,1-1-3.71c0-.5.24-1.11-.31-1.49C395.15,448.32,394.76,449.65,393.16,449.39ZM359.8,560.58a2.62,2.62,0,0,0-1.8.64,7.48,7.48,0,0,0-2.46,3.82c-1.09,3-2,6-3.91,8.6a44.13,44.13,0,0,1-10.24,10c-5,3.47-10.07,6.85-15.1,10.28-.41.28-1,.47-1.19,1.08,1.88.9,3-.43,4-1.29A138.55,138.55,0,0,1,342.5,584a29.87,29.87,0,0,0,4.71-3.83,75.57,75.57,0,0,1,7.18-6.84c.36-2,1.65-3.74,2.25-5.74s1.22-3.46,3-4.51C360.64,562.46,360.62,561.52,359.8,560.58Zm10.87-105.43c-1.46,5.1,3.59,12.46,8.22,12a17.84,17.84,0,0,1-1-4.23c-.18-1.78-2.26-1.65-3.07-2.84,0-.06-.07-.14-.13-.26-.2-1.12.72-2.09.6-3.43A4.76,4.76,0,0,0,370.67,455.15Zm-5.79,82.19c2,.41,2.22.37,2.81-1.21.72-1.91,1.66-3.52,3.91-3.91a10.62,10.62,0,0,1,4.53-6.45,1.42,1.42,0,0,0,.71-1.67c-1.51-1.07-1.74-1.13-2.82,0a64.76,64.76,0,0,0-5,5.62A38.48,38.48,0,0,0,364.88,537.34Zm25.41-27.22a86.31,86.31,0,0,1-11.62,8.36,2,2,0,0,0,.66,2.22c2.18.22,3.57-2.15,5.84-2.11a2.58,2.58,0,0,1,1.27-2.82c1.7-1.24,3.27-2.66,4.89-4,.11-.09.14-.28.21-.43C391.57,510.76,391.31,510.4,390.29,510.12ZM284.56,586.49a2.21,2.21,0,0,0-1.86.67,39.55,39.55,0,0,0-5.28,5.39c-2.48,3.31-4.66,6.89-7.44,9.93s-3.54,7.08-5.07,10.73C269.86,603.23,276.77,594.71,284.56,586.49ZM152.57,649a1.81,1.81,0,0,0-2.15,1.32,11.15,11.15,0,0,0-.49,2.13,78.63,78.63,0,0,0,.72,15C151.55,661.23,151.26,655.13,152.57,649Zm253.57-159.2a3.45,3.45,0,0,0,1.73-5,2.55,2.55,0,0,0-1.95-1.64,2,2,0,0,0-2.34,1.39A12.11,12.11,0,0,0,406.14,489.82ZM293.23,579.48c6-2.72,13.57-7.54,14.9-9.23a3.15,3.15,0,0,0-2.36.4C301.53,573.53,297.1,576.13,293.23,579.48Zm150-88.23a13.19,13.19,0,0,0,.21,6c2-1.38,3.19-2.87,3.46-5C445.7,491.49,444.71,490.82,443.23,491.25Zm-40-28.8c-.11-1.91-.68-2.8-2.07-3.35-.92-.36-1.85-.57-2.53.64C399.73,461.26,400.84,462.67,403.2,462.45Zm46.48,25.26a4.23,4.23,0,0,0,2.76-3.78A5.8,5.8,0,0,0,449.68,487.71Zm-39.13-6.53c-1.46-1.71-1.58-1.73-3-.74C408.74,481.62,408.74,481.62,410.55,481.18Zm-94.06,86.06a6.64,6.64,0,0,0-5,1.68C313.18,569,314.63,568.41,316.49,567.24ZM407.8,457.67c-1.45-2.36-1.63-2.48-3.34-2.12A5.76,5.76,0,0,0,407.8,457.67Zm-9.4,47.23c0-.35-.25-.59-.6-.58a.58.58,0,0,0-.6.59.55.55,0,0,0,.59.58A.61.61,0,0,0,398.4,504.9ZM259,652.13h.16v-2.74H259Zm-.41,6a2.65,2.65,0,0,0-.09-2A3.13,3.13,0,0,0,258.54,658.1Z"
    transform="translate(-146.75 -415.42)"
  /></svg>
