<?xml version="1.0" encoding="utf-8" ?>
<svg
  class="logo"
  version="1.1"
  xmlns="http://www.w3.org/2000/svg"
  xmlns:xlink="http://www.w3.org/1999/xlink"
  x="0px"
  y="0px"
  viewBox="0 0 504.9 345.7"
  xml:space="preserve"
>
<g id="one">
	<path
      d="M356.2,0.1c-0.4-0.1-0.9-0.1-1.3,0.1c-6.8,2.1-13.4,4.6-19.9,7.4c-11.2,4.9-22.4,9.8-33.7,14.3
		c-7.9,3.2-15.8,6.6-23.5,10.1c-2.4,1.1-3.7,1.3-5.2,0.7c-0.5,0.1-1,0.2-1.5,0.3c-2.9,1.7-5.6,4.1-8.2,6c-0.9,0.6-1.8,1.2-2.7,1.8
		c0.2,0.3,0.5,0.8,0.9,1.4c-0.6-0.1-1.3-0.4-1.8-0.8c-1.4,0.9-2.7,1.7-4.1,2.5c0.9,0.6,1.3,1.5,1.4,3l0,0c-1.2,0.2-2.4-0.2-3.2-1.1
		c-1.5,3.3-2.4,6.8-2.8,10.4c-0.1,2.8,0.2,5.5,0.9,8.2c1-0.7,2.1-1.2,3.3-1.5c3.8-1,7.9,0.1,10.7,2.8c1.2,1.1,2.1,2.4,2.9,3.8
		c0.1,0,0.1,0,0.2,0c0.9,0.2,1.4,1.1,1.3,2c0,1-0.1,1.9,0,2.9c0.1,0.5,0.1,1.1,0.1,1.6c0,0.4,0,0.8,0,1.2c-0.1,2.8-0.3,5.6,1.4,8.2
		c-0.1,0.2-0.2,0.4-0.3,0.5c1.1-0.2,2.3,0,3.3,0.4c1.3,0.6,2.4,1.5,3.4,2.6c0.2,0.1,0.5,0.3,0.7,0.4c3.3,2.3,9.2,1.9,12.8,0.2
		c3.4-1.6,5.8-4.8,8.1-7.6c6.1-7.6,12.9-14.7,19-22.3l0,0c-0.3-1.4,0.5-2.1,1.1-2.9c4.2-6.6,9.1-12.7,13.6-19.1
		c2.7-3.8,5.3-7.8,7.8-11.8c1.1-1.7,2.7-2.8,3.8-4.5c3.1-4.6,6.1-9.2,9.1-13.9c1-1.6,1.9-3.2,2.8-4.9C356.9,1.6,357.2,0.7,356.2,0.1
		z M296.7,81.7c-0.5-2-0.6-4-0.2-6l0,0c1.5-0.4,2.5,0.2,3.7,1C299.9,78.9,298.7,80.3,296.7,81.7z M303,72.2L303,72.2
		c0.4-1.6,1.4-3,2.8-3.8C305.7,70.1,304.6,71.6,303,72.2z M334.5,28.9c-2.4,3.8-5.2,7.2-7.3,11.2c-0.2,0.3-0.4,0.5-0.6,0.8
		c-4.3,4.2-7.4,9.3-10.5,14.3c-0.4,0.9-1.2,1.7-2.1,2c-3.3-0.8-6.5-1.9-9.5-3.4c-5.2-2.8-10.7-3.8-16.4-4.7
		c-3.1-0.3-5.9-2.1-7.6-4.7c-1.1-1.8-2.1-3.6-3.2-5.5c-0.5-0.7-0.6-1.7-0.2-2.5c2.1-1.1,4.3-2.1,6.5-2.9c3.6-1.6,7.2-3,10.8-4.6
		c2.6-1.2,5.2-2.3,7.9-3.1c2.5-0.8,4.8-1.9,7.1-3.2c4.1-2,8.4-3.5,12.4-5.7c1.4-0.8,3-0.9,4.5-0.5c3.5,0.9,6.8,2.2,10,3.9
		c0.8,0.3,1.5,0.9,1.9,1.8C337,24.4,335.9,26.7,334.5,28.9L334.5,28.9z"
    />
</g>
<g id="two">
	<path
      d="M269.1,106.6c-0.8-0.3-1.7,0-2.3-0.7c-0.3-0.7-0.5-1.4-0.3-2.1c0.2-3-0.1-6-1-8.9c-0.3-1.4-0.5-2.9-0.5-4.3
		c0-2.3-0.2-4.5-0.5-6.8c-0.3-1.9-0.3-3.8,0-5.6c-0.4-1.7-0.4-3.4-0.2-5.2c1.1-7.1,5.1-10,10.1-11.2c-6.1,0.1-12.2,0.6-18.2,0.9
		c0,0.5-0.1,1-0.2,1.5c0.2,0.6,0.1,1.2-0.3,1.7c-0.9,1.3-1.7,2.7-2.4,4.2c0.1,0.2,0.2,0.5,0.3,0.8c0.5,2,0.3,4.2-0.5,6.1
		c-0.3,0.6-0.6,1.2-1,1.8c0.1,1.1-0.2,2.3-0.9,3.2c-0.8,1.2-1.8,2.4-3,3.3c-0.3,0.6-0.8,1.1-1.2,1.5c-3.8,3.8-7.5,7.7-12,10.7
		c-1.5,1-2.8,2.3-3.6,3.9c-0.3,0.7-0.9,1.2-1.6,1.4c-0.6,0.3-1.2,0.7-1.8,1.1c-3.7,3-6.9,6.7-9.3,10.8c-1.8,2.9-3.2,6-5.1,8.9
		c-1.3,1.8-2.3,3.8-3.1,5.8c-0.8,2.1-2.1,3.9-3.8,5.3c-4.3,3.7-9.4,6.2-14.9,7.4c-1.8,0.4-3.7,0.8-5.5,1.2
		c-5.9,1.5-11.9,3.1-17.9,4.7c-2.7,0.7-5.3,1.7-7.7,3c-3.2,1.8-6.4,3.6-9.5,5.5c-2.7,1.4-5.2,3.1-7.4,5.1c-1.7,1.6-3.4,3-5.3,4.3
		c-4.2,2.9-8,6.5-11.1,10.6c-3,4-5.6,8.4-9,12.1c-0.3,0.4-0.5,0.8-0.7,1.3c-1.4,3.6-2.7,7.2-4,10.8c-0.2,0.7-0.4,1.4-0.6,2.1
		c-0.4,2.7-1,5.3-1.9,7.8c-0.8,2.2-1.1,4.4-1.1,6.7c0.1,4.1-0.3,8.3-0.9,12.4c-0.3,2-0.9,4-0.4,6c0.6,2.5,0.3,5,0.4,7.5
		c0,3.6,0.9,7.1,2.5,10.3c1.2,2.2,2.1,4.6,2.9,7c1,3,2,5.9,3,8.8c1.4,3.6,3.6,6.8,6.4,9.4l0.1,0.1c0.5,0.7,1.5,0.8,2.2,0.3
		c0.5-1,0.4-2.2-0.3-3.2c-0.3-0.5-0.7-0.9-1.1-1.3c-2.3-2-3.8-4.8-4.2-7.8c-0.3-1.4-0.7-2.7-1.1-4c-1-3-1.8-6.1-2.4-9.2
		c-0.6-3.3-0.7-6.6-1.1-9.9c-0.6-3.7-0.8-7.4-0.8-11.2c0.1-2.1,0.3-4.1,0.4-6.1c0.2-5.3,1.5-10.4,2.3-15.6
		c0.8-5.5,3.3-10.3,5.5-15.3c0.9-2,2-3.9,3.2-5.7c2.5-3.8,5.4-7.3,8.4-10.7c2-2.2,4.1-4.2,6.3-6.1c3.1-2.5,6.5-4.7,9.6-7.1
		c5.6-4.3,11.9-7,18.3-9.6c3.6-1.5,7.6-1.9,11.4-2.5c1.9-0.3,3.9-0.8,5.9-0.2c0.2,0.2,0.3,0.5,0.4,0.7c0.3,1.2-0.6,2.3-0.5,3.6
		c0.2,0.7,0.9,1.2,1.6,1.2c1-0.2,1.8-0.9,2.2-1.8c0.7-1.3,1.8-2.4,3.1-3.1c0.6-0.3,1.1-0.6,1.6-1.1c2.2-2.2,5.1-2.7,7.9-3.6
		c0.5-0.1,1,0.1,1.2,0.5c0,1.9-0.7,3.8-1.9,5.2c-1.7,2-3.6,4-5.4,5.9c-4.4,4.4-9.3,8.2-14.7,11.2c-6.2,3.8-11.8,8.5-16.7,13.8
		c-1.2,1.2-2.2,2.7-2.7,4.3c-0.9,2.7-2.2,5.3-3.7,7.7c-1.5,2.7-3.1,5.4-4.5,8.1c-0.4,0.7-0.8,1.4-1,2.2c-0.5,2.9-0.9,5.9-1.3,8.9
		v0.1c-0.2,0.8,0.4,1.7,1.2,1.8c2.1-2,3.7-4.6,4.6-7.4c0.5-2,1.3-3.8,2.4-5.5c0.3-0.5,0.5-1,0.7-1.6c0.9-2.8,2.2-5.4,4-7.8
		c0.6-0.8,1.1-1.6,1.5-2.5c1.4-2.8,3.7-4.8,5.8-6.9c0.1-0.2,0.3-0.3,0.4-0.4c0.7-0.4,1.5-0.1,1.9,0.6c-0.1,0.3-0.3,0.6-0.5,0.9
		c-1.7,1.8-2.9,4-3.4,6.4c-0.7,2.9-1.7,5.8-2.9,8.5c-2.6,5.6-2.2,11.4-1.6,17.2c0.1,0.7,0.3,1.3,1.2,1.4c1.3-0.9,1.1-2.4,1.3-3.7
		c0.6-4.6,1.6-9.1,2.9-13.6c1.2-3.5,2.7-6.8,4.5-10c2.2-4.4,4.8-8.7,7.9-12.6c2-2.6,4.4-4.8,7.2-6.5c5.4-3,10.5-6.6,15.1-10.7
		c2.6-2.1,4.8-4.7,6.5-7.6c0.4-1,1-1.9,1.8-2.7c1.3-0.3,1.7,0.6,2.1,1.4c0.7,1.5,1.2,3,1.7,4.6c0.5,1.3,0.8,2.9,2.3,3.5
		c2.6-0.9,3.1-1.6,3.1-4c0-1.1-0.1-2.1-0.4-3.1c-0.8-3.1-2.1-6-3.8-8.7c-0.7-0.7-1.1-1.7-1.3-2.6c-0.2-3.4-0.3-6.9,1-10.1
		c1.8-4.5,4.2-8.8,7-12.8c2.8-3.6,5.8-7,9.1-10.2c3.1-3.1,6.7-5.7,10.5-7.8c3.6-2,6.9-4.7,9.5-7.9c1.2-1.4,2.7-2.6,4.2-3.6
		c0.4-0.3,1-0.3,1.5,0c0.5,0.7,0.8,1.5,0.7,2.4c0,4.6,0.6,9.3,1.8,13.8c0.5,2,0.5,4,0,6c-0.2,1-0.5,1.9-0.8,2.9
		c1.7-0.9,3.4-1.7,5.2-2.3c0.9-2.2,1.6-4.5,2.2-6.8C271.1,107.7,270.7,107.1,269.1,106.6z M111.8,242.6L111.8,242.6
		c-0.2-0.6-0.2-1.4,0-2C112.1,241.3,112.1,242,111.8,242.6z M112.4,236.6h-0.2v-2.7h0.2V236.6z M118.2,197.7
		c1.5-3.6,2.3-7.7,5.1-10.7s5-6.6,7.4-9.9c1.6-2,3.4-3.8,5.3-5.4c0.5-0.5,1.2-0.7,1.9-0.7C130,179.2,123.1,187.7,118.2,197.7z
		 M146.5,164c3.9-3.4,8.3-6,12.5-8.8c0.7-0.4,1.6-0.6,2.4-0.4C160.1,156.4,152.5,161.2,146.5,164z M169.7,151.8
		c-1.4,1.1-3.2,1.7-5,1.7C166.1,152.2,167.9,151.6,169.7,151.8z M212.9,147.6c-1.8,1.1-2.4,2.5-3,4.5s-1.9,3.7-2.2,5.7
		c-2.5,2.1-4.9,4.4-7.2,6.8c-1.4,1.4-3,2.7-4.7,3.8c-4.7,3-9.1,6.2-13.4,9.7c-1,0.9-2.1,2.2-4,1.3c0.2-0.6,0.8-0.8,1.2-1.1
		c5-3.4,10.1-6.8,15.1-10.3c3.9-2.7,7.4-6.1,10.2-10c1.9-2.6,2.8-5.6,3.9-8.6c0.4-1.5,1.3-2.8,2.5-3.8c0.5-0.4,1.1-0.7,1.8-0.6
		C213.9,146,213.9,146.9,212.9,147.6L212.9,147.6z M218.3,126.8c-0.5,1.1-1.1,2.2-1.7,3.2c-1.2,2-2.4,4-2.7,6.5
		c-0.1,1.3-1,2.5-2.2,3c-1,0.5-2,1.2-2.7,2.1c-1.6,1.8-3.6,3.1-5.8,3.9c-3.3,1.2-6.6,2.4-9.9,3.4c-2.4,0.5-4.8,0.8-7.2,0.8
		c-3.4,0.2-6.8,0.6-10.1,1.4c-1,0.2-2.1,0.2-3.1,0l0,0c0.7-0.7,1.5-1.1,2.5-1.2c4.8-1.2,9.7-1.9,14.6-2.9c3.6-0.6,7.1-1.6,10.5-3.1
		c5.1-2.4,9.4-6.3,12.1-11.2c1.2-2.1,2.3-4.3,3.5-6.4c0.3-0.7,0.9-1.3,1.6-1.6C218.7,125,218.6,125.9,218.3,126.8L218.3,126.8z
		 M229.4,110.3c-2.3,1.5-3.9,3.8-4.5,6.4c-2.2,0.4-3.2,2-3.9,3.9c-0.6,1.6-0.8,1.6-2.8,1.2c1.1-2.7,2.5-5.2,4.1-7.6
		c1.6-2,3.2-3.8,5-5.6c1.1-1.1,1.3-1.1,2.8,0C230.3,109.3,230,109.9,229.4,110.3L229.4,110.3z M244.6,96.3c-1.6,1.3-3.2,2.8-4.9,4
		c-1,0.6-1.5,1.7-1.3,2.8c-2.3,0-3.7,2.3-5.8,2.1c-0.7-0.5-0.9-1.4-0.7-2.2c4.1-2.5,8-5.3,11.6-8.4l0,0c1,0.3,1.3,0.6,1.2,1.2
		C244.7,96,244.7,96.2,244.6,96.3L244.6,96.3z M251,90C251,90,251,90,251,90c-0.4,0-0.6-0.3-0.6-0.6c0,0,0,0,0,0l0,0
		c0-0.3,0.3-0.6,0.6-0.6c0,0,0,0,0,0c0.3,0,0.6,0.2,0.6,0.5c0,0,0,0,0,0.1C251.6,89.8,251.3,90,251,90z M259.4,74.3L259.4,74.3
		c-1.3-1.5-2.1-3.4-2.5-5.3c0.3-1,1.3-1.6,2.3-1.4c0.9,0.2,1.6,0.8,2,1.6c0.1,0.2,0.2,0.4,0.3,0.6C262.1,71.6,261.2,73.6,259.4,74.3
		C259.4,74.3,259.4,74.3,259.4,74.3L259.4,74.3z M263.8,65.7c-1.8,0.4-1.8,0.4-3-0.7C262.2,63.9,262.3,63.9,263.8,65.7z"
    />
	<path
      d="M269.1,106.6c-0.8-0.3-1.7,0-2.3-0.7c-0.3-0.7-0.5-1.4-0.3-2.1c0.2-3-0.1-6-1-8.9c-0.3-1.4-0.5-2.9-0.5-4.3
		c0-2.3-0.2-4.5-0.5-6.8c-0.3-1.9-0.3-3.8,0-5.6c-0.4-1.7-0.4-3.4-0.2-5.2c1.1-7.1,5.1-10,10.1-11.2c-6.1,0.1-12.2,0.6-18.2,0.9
		c0,0.5-0.1,1-0.2,1.5c0.2,0.6,0.1,1.2-0.3,1.7c-0.9,1.3-1.7,2.7-2.4,4.2c0.1,0.2,0.2,0.5,0.3,0.8c0.5,2,0.3,4.2-0.5,6.1
		c-0.3,0.6-0.6,1.2-1,1.8c0.1,1.1-0.2,2.3-0.9,3.2c-0.8,1.2-1.8,2.4-3,3.3c-0.3,0.6-0.8,1.1-1.2,1.5c-3.8,3.8-7.5,7.7-12,10.7
		c-1.5,1-2.8,2.3-3.6,3.9c-0.3,0.7-0.9,1.2-1.6,1.4c-0.6,0.3-1.2,0.7-1.8,1.1c-3.7,3-6.9,6.7-9.3,10.8c-1.8,2.9-3.2,6-5.1,8.9
		c-1.3,1.8-2.3,3.8-3.1,5.8c-0.8,2.1-2.1,3.9-3.8,5.3c-4.3,3.7-9.4,6.2-14.9,7.4c-1.8,0.4-3.7,0.8-5.5,1.2
		c-5.9,1.5-11.9,3.1-17.9,4.7c-2.7,0.7-5.3,1.7-7.7,3c-3.2,1.8-6.4,3.6-9.5,5.5c-2.7,1.4-5.2,3.1-7.4,5.1c-1.7,1.6-3.4,3-5.3,4.3
		c-4.2,2.9-8,6.5-11.1,10.6c-3,4-5.6,8.4-9,12.1c-0.3,0.4-0.5,0.8-0.7,1.3c-1.4,3.6-2.7,7.2-4,10.8c-0.2,0.7-0.4,1.4-0.6,2.1
		c-0.4,2.7-1,5.3-1.9,7.8c-0.8,2.2-1.1,4.4-1.1,6.7c0.1,4.1-0.3,8.3-0.9,12.4c-0.3,2-0.9,4-0.4,6c0.6,2.5,0.3,5,0.4,7.5
		c0,3.6,0.9,7.1,2.5,10.3c1.2,2.2,2.1,4.6,2.9,7c1,3,2,5.9,3,8.8c1.4,3.6,3.6,6.8,6.4,9.4l0.1,0.1c0.5,0.7,1.5,0.8,2.2,0.3
		c0.5-1,0.4-2.2-0.3-3.2c-0.3-0.5-0.7-0.9-1.1-1.3c-2.3-2-3.8-4.8-4.2-7.8c-0.3-1.4-0.7-2.7-1.1-4c-1-3-1.8-6.1-2.4-9.2
		c-0.6-3.3-0.7-6.6-1.1-9.9c-0.6-3.7-0.8-7.4-0.8-11.2c0.1-2.1,0.3-4.1,0.4-6.1c0.2-5.3,1.5-10.4,2.3-15.6
		c0.8-5.5,3.3-10.3,5.5-15.3c0.9-2,2-3.9,3.2-5.7c2.5-3.8,5.4-7.3,8.4-10.7c2-2.2,4.1-4.2,6.3-6.1c3.1-2.5,6.5-4.7,9.6-7.1
		c5.6-4.3,11.9-7,18.3-9.6c3.6-1.5,7.6-1.9,11.4-2.5c1.9-0.3,3.9-0.8,5.9-0.2c0.2,0.2,0.3,0.5,0.4,0.7c0.3,1.2-0.6,2.3-0.5,3.6
		c0.2,0.7,0.9,1.2,1.6,1.2c1-0.2,1.8-0.9,2.2-1.8c0.7-1.3,1.8-2.4,3.1-3.1c0.6-0.3,1.1-0.6,1.6-1.1c2.2-2.2,5.1-2.7,7.9-3.6
		c0.5-0.1,1,0.1,1.2,0.5c0,1.9-0.7,3.8-1.9,5.2c-1.7,2-3.6,4-5.4,5.9c-4.4,4.4-9.3,8.2-14.7,11.2c-6.2,3.8-11.8,8.5-16.7,13.8
		c-1.2,1.2-2.2,2.7-2.7,4.3c-0.9,2.7-2.2,5.3-3.7,7.7c-1.5,2.7-3.1,5.4-4.5,8.1c-0.4,0.7-0.8,1.4-1,2.2c-0.5,2.9-0.9,5.9-1.3,8.9
		v0.1c-0.2,0.8,0.4,1.7,1.2,1.8c2.1-2,3.7-4.6,4.6-7.4c0.5-2,1.3-3.8,2.4-5.5c0.3-0.5,0.5-1,0.7-1.6c0.9-2.8,2.2-5.4,4-7.8
		c0.6-0.8,1.1-1.6,1.5-2.5c1.4-2.8,3.7-4.8,5.8-6.9c0.1-0.2,0.3-0.3,0.4-0.4c0.7-0.4,1.5-0.1,1.9,0.6c-0.1,0.3-0.3,0.6-0.5,0.9
		c-1.7,1.8-2.9,4-3.4,6.4c-0.7,2.9-1.7,5.8-2.9,8.5c-2.6,5.6-2.2,11.4-1.6,17.2c0.1,0.7,0.3,1.3,1.2,1.4c1.3-0.9,1.1-2.4,1.3-3.7
		c0.6-4.6,1.6-9.1,2.9-13.6c1.2-3.5,2.7-6.8,4.5-10c2.2-4.4,4.8-8.7,7.9-12.6c2-2.6,4.4-4.8,7.2-6.5c5.4-3,10.5-6.6,15.1-10.7
		c2.6-2.1,4.8-4.7,6.5-7.6c0.4-1,1-1.9,1.8-2.7c1.3-0.3,1.7,0.6,2.1,1.4c0.7,1.5,1.2,3,1.7,4.6c0.5,1.3,0.8,2.9,2.3,3.5
		c2.6-0.9,3.1-1.6,3.1-4c0-1.1-0.1-2.1-0.4-3.1c-0.8-3.1-2.1-6-3.8-8.7c-0.7-0.7-1.1-1.7-1.3-2.6c-0.2-3.4-0.3-6.9,1-10.1
		c1.8-4.5,4.2-8.8,7-12.8c2.8-3.6,5.8-7,9.1-10.2c3.1-3.1,6.7-5.7,10.5-7.8c3.6-2,6.9-4.7,9.5-7.9c1.2-1.4,2.7-2.6,4.2-3.6
		c0.4-0.3,1-0.3,1.5,0c0.5,0.7,0.8,1.5,0.7,2.4c0,4.6,0.6,9.3,1.8,13.8c0.5,2,0.5,4,0,6c-0.2,1-0.5,1.9-0.8,2.9
		c1.7-0.9,3.4-1.7,5.2-2.3c0.9-2.2,1.6-4.5,2.2-6.8C271.1,107.7,270.7,107.1,269.1,106.6z M111.8,242.6L111.8,242.6
		c-0.2-0.6-0.2-1.4,0-2C112.1,241.3,112.1,242,111.8,242.6z M112.4,236.6h-0.2v-2.7h0.2V236.6z M118.2,197.7
		c1.5-3.6,2.3-7.7,5.1-10.7s5-6.6,7.4-9.9c1.6-2,3.4-3.8,5.3-5.4c0.5-0.5,1.2-0.7,1.9-0.7C130,179.2,123.1,187.7,118.2,197.7z
		 M146.5,164c3.9-3.4,8.3-6,12.5-8.8c0.7-0.4,1.6-0.6,2.4-0.4C160.1,156.4,152.5,161.2,146.5,164z M169.7,151.8
		c-1.4,1.1-3.2,1.7-5,1.7C166.1,152.2,167.9,151.6,169.7,151.8z M212.9,147.6c-1.8,1.1-2.4,2.5-3,4.5s-1.9,3.7-2.2,5.7
		c-2.5,2.1-4.9,4.4-7.2,6.8c-1.4,1.4-3,2.7-4.7,3.8c-4.7,3-9.1,6.2-13.4,9.7c-1,0.9-2.1,2.2-4,1.3c0.2-0.6,0.8-0.8,1.2-1.1
		c5-3.4,10.1-6.8,15.1-10.3c3.9-2.7,7.4-6.1,10.2-10c1.9-2.6,2.8-5.6,3.9-8.6c0.4-1.5,1.3-2.8,2.5-3.8c0.5-0.4,1.1-0.7,1.8-0.6
		C213.9,146,213.9,146.9,212.9,147.6L212.9,147.6z M218.3,126.8c-0.5,1.1-1.1,2.2-1.7,3.2c-1.2,2-2.4,4-2.7,6.5
		c-0.1,1.3-1,2.5-2.2,3c-1,0.5-2,1.2-2.7,2.1c-1.6,1.8-3.6,3.1-5.8,3.9c-3.3,1.2-6.6,2.4-9.9,3.4c-2.4,0.5-4.8,0.8-7.2,0.8
		c-3.4,0.2-6.8,0.6-10.1,1.4c-1,0.2-2.1,0.2-3.1,0l0,0c0.7-0.7,1.5-1.1,2.5-1.2c4.8-1.2,9.7-1.9,14.6-2.9c3.6-0.6,7.1-1.6,10.5-3.1
		c5.1-2.4,9.4-6.3,12.1-11.2c1.2-2.1,2.3-4.3,3.5-6.4c0.3-0.7,0.9-1.3,1.6-1.6C218.7,125,218.6,125.9,218.3,126.8L218.3,126.8z
		 M229.4,110.3c-2.3,1.5-3.9,3.8-4.5,6.4c-2.2,0.4-3.2,2-3.9,3.9c-0.6,1.6-0.8,1.6-2.8,1.2c1.1-2.7,2.5-5.2,4.1-7.6
		c1.6-2,3.2-3.8,5-5.6c1.1-1.1,1.3-1.1,2.8,0C230.3,109.3,230,109.9,229.4,110.3L229.4,110.3z M244.6,96.3c-1.6,1.3-3.2,2.8-4.9,4
		c-1,0.6-1.5,1.7-1.3,2.8c-2.3,0-3.7,2.3-5.8,2.1c-0.7-0.5-0.9-1.4-0.7-2.2c4.1-2.5,8-5.3,11.6-8.4l0,0c1,0.3,1.3,0.6,1.2,1.2
		C244.7,96,244.7,96.2,244.6,96.3L244.6,96.3z M251,90C251,90,251,90,251,90c-0.4,0-0.6-0.3-0.6-0.6c0,0,0,0,0,0l0,0
		c0-0.3,0.3-0.6,0.6-0.6c0,0,0,0,0,0c0.3,0,0.6,0.2,0.6,0.5c0,0,0,0,0,0.1C251.6,89.8,251.3,90,251,90z M259.4,74.3L259.4,74.3
		c-1.3-1.5-2.1-3.4-2.5-5.3c0.3-1,1.3-1.6,2.3-1.4c0.9,0.2,1.6,0.8,2,1.6c0.1,0.2,0.2,0.4,0.3,0.6C262.1,71.6,261.2,73.6,259.4,74.3
		C259.4,74.3,259.4,74.3,259.4,74.3L259.4,74.3z M263.8,65.7c-1.8,0.4-1.8,0.4-3-0.7C262.2,63.9,262.3,63.9,263.8,65.7z"
    />
</g>
<g id="three">
	<path
      d="M488.9,305.7c-0.3,0.1-0.5,0.2-0.8,0.3c-1.8,1.9-4.5,2.9-7.1,2.5c-3.8-0.1-7.6,0.1-11.4,0.8c-3.9,0.7-7.9,1.1-11.9,1.1
		c-1,0-2,0.1-2.9,0.3c-2.8,0.5-5.6,0.9-8.5,1.1c-5.3,0.2-10.5,1.1-15.6,2.6c-1.1,0.3-2.2,0.7-3.3,0.9c-5.2,1.3-10.4,2.5-15.6,3.9
		c-6.2,1.6-12.3,3.5-18.6,4.7c-6.7,1.2-13.5,2.1-20.3,2.6c-4.9,0.4-9.7-0.9-14.5-1.6c-0.5-0.1-0.9-0.3-1.3-0.6
		c-2.1-1.6-4.6-2.3-7.1-3.2c-2.6-0.8-4.9-2.4-6.5-4.5c-2.2-2.9-4.1-6.1-6.8-8.6c-3-2.8-5.6-5.9-7.9-9.3c-1.3-1.8-1.9-4-1.8-6.2
		c0.1-2.3-0.2-4.6-0.7-6.8c-0.6-2.8-1-5.6-1.2-8.4c-0.2-3.9-1.8-7.5-4.6-10.2c-4.3-4.5-9.3-8.2-14.8-11c-4-2.1-8-4-12.1-5.8
		c-1.9-1-3.9-1.7-5.9-2.2c-4-0.8-7.8-2.2-11.8-3.2c-2.3-0.6-4.3-2.1-5.5-4.1c-1.8-2.8-3.6-5.6-5.4-8.4c-1.6-2.6-2.3-5.6-2.2-8.6
		c0.1-6.1,2.2-11.9,5.9-16.7c3.6-4.7,4.9-10.2,6.9-15.5c0.1-0.3,0.1-0.7,0.1-1c0.4-2.5,0.6-5,0.5-7.5c0-1.1,0.2-2.1,0.7-3.1
		c1.8-3.3,3.5-6.6,5.6-9.7c3.3-5,6.7-10,8.5-15.8c0.2-0.5,0.4-0.9,0.6-1.3c0.9-1.7,1.6-3.6,2-5.5c0.9-4,1.6-8.1,2.1-12.2
		c0.5-2.5,0.7-5.1,0.8-7.7c-0.1-2.1-0.6-4.2-0.8-6.3c-0.4-3.7-0.1-7.5-0.8-11.2c-0.2-1.7-0.2-3.4,0-5.1c0.5-3.9,1.4-7.8,1.7-11.8
		c0.1-1.4,0.4-2.7,0.8-4c-2.6-6.1-3-13-1-19.3c0.2-0.8,0.5-1.5,0.7-2.3c0-0.4,0-0.7,0-1.1c-0.4-1.6-0.8-3.2-1.3-4.7
		c-1.5-3-3.3-6-5.2-8.8c-1.3-1.5-2.6-2.9-3.9-4.2c-2.6-0.6-4.9-2.2-6.3-4.5c-1.1-1.8-2.1-3.6-3.2-5.5c-0.2-0.3-0.3-0.6-0.4-0.9
		c-1.4-1.7-2.7-3.4-3.9-5.2c-1.2-0.5-2.2-1.1-3.2-2c-3.7-3.1-7.2-6.3-11-9.2c0.5,1.6,0.8,3.3,1,4.9c0.6,4.5,0.3,9-0.8,13.3
		c0.7,0.1,1.1,0.7,2,2.2c-0.8-0.2-1.6-0.6-2.3-1.2c-0.6,1.9-1.3,3.7-2.3,5.4c0,0.2,0,0.3,0,0.5h-0.4c-0.6,1-1.2,1.9-1.9,2.8
		c0.6,1.4,1.1,2.9,1.5,4.4c2.1,7.8,1.2,15.5-0.1,23.3c2.9,4.8,4.4,10.3,4.6,15.9c0.4-0.2,1-0.2,1.4,0.1c0.5,0.7,0.8,1.5,0.7,2.4
		c0,4.6,0.6,9.3,1.8,13.8c0.5,2,0.5,4,0,6c-0.7,2.7-1.6,5.3-2.8,7.8c-1.9,4.1-3.3,8.5-4.2,12.9c-0.9,3.9-1.4,7.9-3.2,11.5
		c-0.9,1.9-1.4,4-1.5,6.1c-0.5,4.8-1.7,9.4-2.3,14.2c-0.5,3.9-2,7.5-2.9,11.3c-1.2,4.8-1.9,9.8-4.4,14.1c-0.1,0.2-0.1,0.4-0.1,0.7
		c0.3,0.8,0.7,1.4,1.7,1.4c1.6-1.5,2.8-3.4,3.6-5.4c1.5-3.6,2.6-7.4,3.3-11.2c0.7-4,1.7-7.9,2.4-11.9c0.5-2.9,0.8-5.8,1.4-8.6
		c1-4.3,1.8-8.6,2.8-12.9c0.2-1,0.5-1.9,0.9-2.8c0.8-1.6,1.3-3.3,1.5-5.1c0.3-2.3,0.8-4.6,1.7-6.8c0.9-1.8,1.6-3.7,2.2-5.7
		c0.2-0.7,0.5-1.4,0.9-2c2.5-4.3,4.4-8.9,5.6-13.7c0.4-1.6,0-2.2-1.5-2.8c-0.8-0.3-1.7,0-2.3-0.7c-0.3-0.7-0.5-1.4-0.3-2.1
		c0.2-3-0.1-6-1-8.9c-0.3-1.4-0.5-2.9-0.5-4.3c0-2.3-0.2-4.5-0.5-6.8c-0.9-4.9,0.7-9.1,2.9-13.3c0.2-0.4,0.4-0.9,1.1-0.9
		c0.9,0.2,1.4,1.1,1.3,2c0,1-0.1,1.9,0,2.9c0.4,3.7-0.8,7.5,1.5,11c-1.2,2.1-1.4,4,0.2,5.9c0.2,0.3,0.3,0.6,0.3,0.9
		c0.1,2.5,1.1,4.9,1,7.5c-0.1,1.1,0.4,2.1,1.3,2.8l0.1,0.1c1,0.7,1.2,2,0.5,2.9c0,0,0,0,0,0c-0.2,0.3-0.4,0.7-0.5,1.1
		c1.6,5,2,9.8,0.4,14.1c0.3,1.2,1.3,1.4,1.5,2.4c-1.6,1.4-2.1,3.8-3.5,5.6c-1.4,1.7-2.1,3.9-1.9,6.1c0.3,3.1,0.4,6-1.7,8.5
		c-0.1,0.1-0.1,0.2-0.1,0.4l0.7,2.4c-0.7,1.6-1.8,2.9-2.4,4.5c-0.7,1.8,0,3.5-0.1,5.2c-2.3,1.2-3,1.9-3.3,3.4
		c-0.6,2.9-1.3,5.7-2,8.5c-0.4,1.8-1.1,3.6-2.1,5.2c-1,1.2-1.2,2.9-0.6,4.4c0.5,1.4,0.2,3-1,4c-0.5,0.5-1.1,1-1.6,1.5l-0.2,0.1
		c-1.3,1.2-1.4,3.1-0.2,4.4c0,0,0,0,0,0c0.2,0.4,0.8,0.6,0.5,1.3c-0.8,0.2-1.7-0.6-2.7,0.2c-1.4,1.8,1.5,3.5,0.8,5.4
		c-0.8,0.9-1.8-0.1-2.8,0.5c-0.4,0.2-0.7,0.7-0.8,1.2c0.2,1.4,1.8,1.8,1.7,3c-0.7,1-2.5,0.4-2.7,2.1c0.3,0.9,0.7,1.7,1.1,2.5
		c1.2,2.9,2.1,5.8-0.3,8.7c-1,1.4-1.3,3.2-0.8,4.9c0.2,0.9,0.8,2,0.6,2.8c-0.6,2.2,0.4,3.8,1.5,5.4c0.3,0.4,0.5,0.9,0.4,1.4
		c-0.6,1.3-2.5,1.4-3,3c0,0.9,0.7,1.7,1.6,1.9c0.9,0.3,1.9,0.6,2.1,2c-0.4,1.1-1.9,1.9-1.8,3.7c1.8,1.7,2.6,4.2,2.3,6.6
		c0,0.9,0.4,1.8,1.1,2.4c2.4,2.3,4.7,4.8,7.1,7c1.5,1.5,3.3,2.6,5.2,3.3c2.3-0.5,0-2.6,1.8-3.3c1.4,1.1,2.9,2.2,4.3,3.5
		c2.5,2.3,5.1,4.5,7.9,6.5c0.9,0.8,2.2,0.9,3.2,0.3c0.6-0.4,1.3-0.6,2.1-0.5c1.8,0.5,3.7,0.3,5.6,0.7c0.5,2,1.8,2.7,3.9,2.2
		c1.7-0.4,3.1,0.3,4.6,1.3s2.1,2.2,1.4,4c-0.9,0.6-1.9,1-3,1.1c-1.5-0.6-2.5-2.1-4-2.8c-5.1-2.4-10.6-3.8-16.2-3.9
		c-3.4,0-6.8-0.4-9.9-2.2c-2.4-1.5-4.6-3.3-6.5-5.4c-1.6-1.8-3.5-3.3-5.7-4.5c-2.2-1.2-4.6-2.2-6.1-4.3c-2.5-3.7-5.1-7.4-5.9-11.9
		c-0.2-1-0.5-2-1-3c-1.2-2.8-2-5.7-2.6-8.6c-0.6-3.3-1.5-6.5-1.2-9.9c0.1-1.5,0.5-2.9,0.6-4.4c0-3.4,0.7-6.8,2.1-10
		c0.4-0.8,0.7-1.7-0.1-2.5c-1.6-0.3-2.1,0.8-2.5,2c-1.1,3.5-2.4,6.9-2,10.7c0,0.7-0.1,1.5-0.2,2.2c-0.4,3.5-1.2,7-0.2,10.6
		c0.9,3.4,1.1,6.9,2.7,10.1c1,1.9,1.8,3.8,2.4,5.9c1.2,3.9,3,7.4,6.1,10.1c0.4,0.4,0.8,0.8,1.2,1.2c1.9,2.2,4.1,4.2,6.6,5.8
		c1.1,0.6,2.2,1.4,3.1,2.3c2.6,2.9,5.9,4.9,9.1,7c1.4,0.9,2.9,1.5,4.5,1.7c3.2,0.4,6.5,0.5,9.7,0.3c2.7-0.1,5.2,0.2,7.3,2.1
		c0.7,0.4,1.4,0.8,2.1,1.2c1.3,0.9,3,1.4,4,2.7c2.3,2.7,4.8,5.3,7.4,7.8c1.1,1,1.8,2.3,2.1,3.8c0.7,3.6,1.4,7.2,1.9,10.8
		c0.7,4.9,1.7,9.6,4.3,13.9c1.3,2.1,2.7,4,3.9,6.2c1.9,3.6,4,7.1,6.3,10.4c1.8,2.7,4.2,5,7,6.6c5.8,3.3,12.1,5.7,18.5,7.3
		c7.3,1.6,14.8,2.2,22.1,3.4c1.7,0.4,3.5,0.5,5.3,0.4c4.5-0.6,9.1-0.5,13.6-0.8c2.8-0.2,5.5-0.6,8.2-1.1c8.1-1.6,16-4.2,24-6.1
		c6.2-1.5,12.2-3.5,18.4-4.8c5.4-1.2,10.8-2.1,16.3-2.8c3.2-0.3,6.5-0.6,9.7-1c1.5-0.1,2.9-0.7,4-1.7c4.9-5.2,10.7-9.3,15.9-14
		c1.5-1.3,2.9-2.7,4.2-4.2C489.3,308.1,489.7,306.8,488.9,305.7z M259.4,74.3L259.4,74.3c-1.3-1.5-2.2-3.3-2.6-5.3
		c0.3-1,1.3-1.6,2.3-1.4c0.9,0.2,1.6,0.8,2,1.6c0.1,0.2,0.2,0.4,0.3,0.6C262.1,71.6,261.2,73.6,259.4,74.3
		C259.4,74.3,259.4,74.3,259.4,74.3z M263.8,65.7c-1.8,0.4-1.8,0.4-3-0.7C262.2,63.9,262.3,63.9,263.8,65.7z M363.3,340.8
		c-2.7,0.1-5.4-0.3-7.9-1.1c-3-1-6.2-1.4-9.3-2.1c-3.9-1-7.4-2.9-11-4.5c-0.3-0.1-0.5-0.4-0.8-0.5c-7-2.8-10.6-8.8-14.2-14.9
		c-0.9-1.8-1.9-3.4-3.1-5c-3.5-4.1-4.9-9-5.6-14.1c-0.2-1.9-0.5-3.7-0.9-5.5c-0.8-3-0.5-6.2-1-9.2c-0.1-1.1-0.7-2.2-1.6-2.9
		c-0.7-0.6-1.4-1.1-2.1-1.6c-2.8-1.6-3.9-4.1-2.5-7.1c0.9,0.2,1.1,1,1.5,1.7c0.6,1.1,1.1,2.1,1.7,3.2c1.1,2,2.7,3,5.1,2.2
		c1.9,1,3,3.1,2.7,5.3c-0.2,1.9,0.1,3.7,0.9,5.4c1.5,3.1,2,6.5,2.8,9.8c0.5,2.5,1.5,4.8,3,6.9c1.5,2.1,2.4,4.5,2.6,7
		c0.1,2.6,1.7,4.9,4.1,5.9c1,0.4,1.7,1.3,1.7,2.4v0.2c0,1.1,0.9,1.9,2,1.9c0,0,0,0,0,0c0.9,0.2,1.8,0.6,2.6,1.2
		c2.6,1.5,4.9,3.4,7,5.5c1.9,1.8,4.3,3.1,6.9,3.5c2,0.4,3.9,0.8,4.8,3.1c2.4-0.2,4.8,0.2,6.9,1.4c1.1,0.4,2.2,0.6,3.3,0.6
		c0.7,0,1.3,0,1.7,0.7C364.3,340.9,363.7,340.8,363.3,340.8L363.3,340.8z"
    />
</g>
<g id="four">
	<path
      d="M503.3,144.4c-2.6-3.1-5.1-6.3-7.5-9.6c-1.8-2.5-2.8-2.9-5.8-2c-2.9,1-6,1.6-9.1,1.7c-0.7,0.1-1.4,0.3-2.1,0.6
		c-4.9,2.3-10.2,3.3-15.5,4.2c-5,0.8-10.1,1.7-15.1,2.7c-6.6,1.5-13.3,2.3-20.1,2.3c-2-0.1-4.1,0.1-6.1,0.4
		c-2.4,0.5-4.8,0.7-7.3,0.6c-2.1,0-4.1-0.3-6.1-0.4c-6.1-0.6-12.1-1.6-18-3c-6.2-1.2-12.2-2.9-18-5.2c-0.3-0.1-0.6-0.2-0.9-0.2
		c-5.5-1-10.7-2.9-15.5-5.7c-1.3-0.8-2.6-1.3-4.1-1.5c-5.1-0.8-8.7-3.8-11.9-7.5c-1.6-1.8-2.6-3.9-1.7-6.5c0.2-0.6,0.2-1.3,0.2-1.9
		c0.1-4.1,0.5-8.2,1.2-12.3c0.3-1.3,0.3-2.6,0.1-3.9c-0.7-2.9-0.8-6-1.3-8.9c0-0.4-0.1-0.8-0.3-1.2c-0.4-0.8-0.7-1.6-1-2.4
		c-4.8-3-8.8-7.2-11.5-12.2c-2.9-0.8-5.9-1.6-8.8-2.2c-1.2,0-2.4,0-3.5,0c-0.9,0.2-1.8,0.4-2.7,0.7c1.2,3.3,4.1,5.1,6.5,7.3
		c1.7,1.6,3.5,2.9,3.9,5.4c0.2,0.7,0.6,1.3,1.2,1.8c2,1.9,2.8,4.7,2.1,7.4c-0.4,1.7-0.6,3.5-0.9,5.5l0,0c0.9,1.4,1.7,2.8,1.3,4.2
		c0.4,1.2,1.6,1.4,1.8,2.5c-0.8,2.1-3.1,3.3-3.7,5.5c0.1,0.9,0.7,1.6,1.5,2c1.5,1,2.9,2.1,4.2,3.4c1.1,0.8,1.3,2.3,0.6,3.5
		c-0.4,0.8-1.2,1.7-0.2,2.6c0.8,0.5,1.8,0,2.8,0.5c-0.9,2,0.9,3.3,1.7,4.9c-0.3,1.3-1.7,2.2-1.3,3.6c0.2,0.7,0.9,1.2,1.6,1.2
		c0.9-0.3,1.4-1.2,2.4-1.4c0.3,0,0.6,0.2,0.8,0.4c0.7,1.3,2,2.2,3.4,2.6c1.1,0.3,2,1.1,2.4,2.1c-0.1,1.1-1.4,1.2-1.7,2.4
		c0.3,1.8,1.8,2.9,3.2,3.9c1.5,0.2,2.8-1,4.2-0.2c0.5,0.9-0.6,1.6-0.3,2.6c0.3,0.7,0.8,0.9,1.5,0.6c0.8-0.3,1.4-0.8,1.9-1.5
		c0.4-0.6,0.9-1.2,1.7-0.8c0.5,0.8-0.1,1.3-0.4,1.8c-0.6,1.4-0.4,1.9,1.3,2.7c1-0.2,1.5-1.2,2.2-1.8c1.3-1.1,2-1.3,3.1-0.1
		c1,1.1,2.4,1.7,3.8,1.8c1.3,0,2.2,1.4,3.2,1.6c1.5,0.1,1.7-1.1,2.6-1.6c0.8,2.5,0.8,5.2,0.1,7.7c-0.7,0.5-1.4,0.2-2.1,0
		c-6.4-1.8-12.9-3.5-19-6.2c-2.9-1.3-5.6-3-7.9-5.2c-1.9-1.7-3.9-3.2-6.2-4.3c-1.5-0.8-2.8-1.9-3.8-3.3c-2.2-2.8-4.3-5.7-6.6-8.4
		c-0.4-0.4-0.7-0.9-1-1.4c-2.2-4.3-3.4-9-3.6-13.8c-0.1-3-0.1-6,0-9c0-2-0.2-4-0.7-6c-0.6-2.2-0.8-4.5-0.8-6.8
		c-0.1-1.9-0.3-3.7-0.8-5.5c-0.8-3.9-3.4-6.4-6.7-8.3c-0.9-0.4-1.7-0.9-2.5-1.5c-0.5-1.7,0.3-3.4,1.9-4.1c-0.8,0.2-1.6,0.5-2.3,0.7
		c-1.4,0.7-2.7,1.4-4,2.2c-0.6,0.8-1.2,1.5-1.8,2.3c1.1,0.6,2.2,1.4,3.2,2.2c0.2-0.1,0.4-0.1,0.6-0.2c2,0.6,3.8,1.6,5.3,2.9
		c2.7,2.2,3.5,5.2,3.5,8.5c0,0.5,0,0.9,0,1.4c1.8,4,2.8,8.3,3,12.7c0.1,3.4-0.4,6.7-1.5,9.9c0.2,3.1,0.9,6.1,2.1,8.9
		c3.1,7.3,7.3,13.9,13.9,18.7c5.6,4.1,11,8.4,17.4,11.2c1.6,0.7,3.3,1.4,5,2c4.9,1.9,9.9,3.3,15,4.3c2.1,0.3,3.9,0.9,5.1,2.8
		c0.1,0.1,0.3,0.1,0.6,0.2c1.1-0.5,2.2-1.2,3.8-0.7c6.1,2,12.5,2.6,18.9,3.2c2.8,0.3,5.7,0.3,8.5,0.6c4.9,0.6,9.9,0.9,14.8,0.9
		c3.1-0.1,6.1,0.4,9.2,0c3.3-0.4,6.6-0.7,9.9-1.1c1.8-0.2,3.5-0.5,5.3-0.9c2.3-0.7,4.8-1.1,7.1-1.7c7.1-1.8,14.3-3,21.2-5.5
		c0.5-0.2,1.1-0.4,1.6-0.5c7.8-1.8,15.2-5.2,23.1-6.8c0.2,0,0.5-0.1,0.7-0.2c1.1-0.8,2.6-0.9,3.8-0.3c1-0.4,1.9-0.6,2.1-1.7
		C504.6,146,504,145.1,503.3,144.4z"
    />
</g>
<g id="five">
	<path
      d="M236.8,76.7c6.9-2.4,14.2-3.7,21.5-3.8c-0.7-1.2-1.2-2.5-1.5-3.8c0.3-1,1.3-1.6,2.3-1.4c0.9,0.2,1.6,0.8,2,1.6
		c0.1,0.2,0.2,0.4,0.3,0.6c0.4,1,0.3,2-0.2,2.9c1.7,0,3.4,0,5,0.1c0.4-0.8,0.8-1.6,1.2-2.4c0.2-0.4,0.4-0.9,1.1-0.9
		c0.9,0.2,1.4,1.1,1.3,2c0,0.5,0,1,0,1.5c3.5,0.2,7,0.6,10.5,1c0.8-0.3,1.7-0.6,2.5-0.8c4.7-1.2,9.4-1.9,14.3-2.1c0.4-1,0.8-2,1.3-3
		c-0.1-0.3-0.1-0.6-0.2-0.9c-0.2-0.4-0.5-0.8-0.7-1.1c-0.8-1-1.7-1.9-2.6-2.8c-2.8-1.1-5.6-2.2-8.4-3.4c-3.5-1.5-7-5-9.8-8.9
		c-1.5,0-3.1,0-4.7,0.2c-9.3,1.5-18.6,3.3-27.9,4.2c-9.4,0.9-19-0.1-28-3c-4.7-0.4-9.4-1.1-14.1-1.7c-2.6-0.4-5.3-0.6-8-0.5
		c-2.9,0.3-5.7,0.3-8.5,0.3c-1-0.1-2,0-2.9,0.3c-1.8,0.6-3.6,0.9-5.5,0.7c-1.1,0-2.1,0.1-3.1,0.3c-2.3,0.5-4.6,0.9-7,1.1
		c-4.1,0.3-8.1,0.7-12.1,1.4l-4.7,0.9c-0.3,0.1-0.7,0.3-1,0.3c-3.1,0.8-6,1.9-9.1,2.5v0.1c-0.6,0.6-1.3,1-2.1,1.1
		c-7.2,1.4-13.5,5.1-20.2,7.8c-4.8,1.9-9.3,4.3-13.6,7.2c-4.1,2.8-8.7,4.8-12.8,7.6c-5.1,3.5-10.2,7-15.1,10.8
		c-0.7,0.8-1.5,1.5-2.5,2c-0.3,0.4-0.5,0.7-0.7,1.1c-0.5,0.8-1.2,1.6-1.9,2.3c-1,1-2.3,1.7-3.6,2.2c-0.3,0.1-0.6,0.3-0.9,0.4
		l-0.2,0.2l0,0c-0.2,0.3-0.5,0.6-0.8,0.8c-1.8,1.8-3.6,3.6-5.5,5.4c-1.8,1.6-3.4,3.5-4.8,5.5c-2.4,4.3-5.8,7.9-9,11.6
		c-2.9,3.4-5.7,6.9-8.1,10.7c-3.9,6.2-7.6,12.5-11,19c-3.4,6.3-7.3,12.4-9.1,19.4c-0.1,0.8-0.5,1.4-1.2,1.7
		c-2.2,6-5.5,11.6-7.9,17.5c-0.1,0.3-0.2,0.5-0.3,0.8c-0.9,2.3-1.5,4.8-1.8,7.3c-0.2,1.6-0.3,3.2,1,4.6c1.4-0.1,1.7-1.1,1.9-2.1
		c0.7-3.4,1.7-6.8,3.1-10c1.3-3.4,2.2-6.9,4-10c1.1-1.9,2.1-3.9,2.9-5.9c1.9-4.3,3.9-8.6,5.9-12.9c1.6-3.5,3.8-6.7,5.4-10.1
		c2.9-5.9,6.2-11.6,10.2-16.9c2.6-3.4,5.3-6.8,7.8-10.3c1.8-2.4,3.7-4.7,6.5-5.8c0.5-0.6,0.8-1.4,0.8-2.2c0-1.2,0.4-2.4,1.3-3.3
		c3.2-3.2,6-6.9,10.1-9.1c1-0.5,1.7-1.3,2.1-2.3c1.2-3.2,1.2-3.2,4.3-2.9c0.2,0,0.4-0.1,0.5-0.1c1.2-2.8,3.6-4.3,6.8-5
		c1-0.2,1.7-1.1,1.8-2.1c0.1-0.5,0.1-1.2,1-1.2c0.6,0.9,0.4,2.5,2.2,2.5c1.2-1.5,2.4-3,3.8-4.2c1.5-1.4,1.4-3.6,2.7-5.1
		c0.9,0.3,1.4,1.4,2.7,1.1c1.3-1.8,3.3-2.9,5.5-3.2c2.3-0.3,4-2.1,6.1-2.9s4.4-1.1,6.4-2.3c0.6-0.3,1.1-0.7,1.7-1
		c0.8-0.5,1.7-1,2.5-1.5c4-2.1,8.3-2.9,12.4-3.5c1,0.1,1.6,0.9,2.4,0.6c1.1-0.6,0.6-1.8,1.6-2.6c1.6,0.3,3.1-0.7,4.7-1.5
		c1.2-0.6,2.5-0.7,3.8-0.4c1.5,0.3,3,0,4.2-0.9c0.4-0.3,0.8-0.6,1.3-0.6c0.9,0.4,1.8,0.7,2.8,0.8c2.1-1.5,5-1.5,7.8-1.5
		c0.4,0,1-0.2,1.4-0.2c1.8,0,3.3-1.5,4.9-1.3c2.6,0.2,5.2,0.1,7.7-0.3c0.6,0,1.3,0,1.9,0.1c2.6,0.3,5.3-0.3,7.9,0.3
		c0.2,0,0.5,0,0.7-0.1c1.5-0.3,3-0.6,4.5-1c3.3-0.9,6.8-0.8,10,0.5c0.5,0.3,1.2,0.4,1.8,0.3c0.6-0.5,0.8-1.5,1.6-1.8
		c2.9,1.6,4.2,3.8,3.8,6.3c-0.9-0.3-1.9-0.5-2.9-0.5c-3.5,0.4-7-0.1-10.5-0.2c-2.2,0-4.4,0.1-6.6,0.4c-4.6,0.2-9.2,0.4-13.8,1.6
		c-1.8,0.4-3.5,0.5-5.3,0.5c-2.5,0.1-5-0.2-7.5,0.4c-1,0.2-2,0.1-2.9-0.4c-1-0.6-2.2-0.6-3.3-0.2c-0.8,0.3-1.7,0.5-2.6,0.6
		c-3.2,0.3-5.1,2.3-6.4,5c-0.2,0.4-0.1,1-0.8,0.9c-0.2-3-0.2-3-1.2-4.3c-0.6-0.2-1.3-0.2-1.9,0.1c-5.6,2.1-11.1,4.2-16.7,6.3
		c-2.1,0.7-4.2,1.6-6.3,2.6c-5.9,3.2-12.2,5.8-17.6,10c-0.9,0.8-2.1,1-3.2,0.6c-0.6-0.4-1.4-0.3-2,0.2c-0.7,0.9,0,2-0.7,2.8
		c-0.7,0.4-1.5,0-2.1,0.7c-0.7,0.4-0.3,1.6-1.3,1.8c-0.5,0-0.7-0.3-1.1-0.6c-1.7-1.2-3.1-0.7-3.4,1.4c0,0.3,0,0.7,0,1
		c-0.2,1.6-0.4,2-2,2.2c-1.2,0-2.4,0.8-2.8,2c-0.5,1.4-1.9,2.2-3.3,1.9c-0.5,0-1,0-1.5,0h-0.2c-1.6,0-2.8,1.3-2.8,2.8c0,0,0,0,0,0
		c0,0.6-0.1,1.3-0.2,1.9c-0.9,2.1-1.8,4.2-2.4,6.4c-0.1,0.4-0.3,1-1,0.7c-0.5-1.1,0.2-2.4-0.4-3.6c-0.7-0.9-1.9-1.1-2.8-0.5
		c-1,0.6-1,1.6-0.9,2.6c0,0.4,0.1,0.8,0.1,1.2c0.1,0.9-0.1,1.7-0.5,2.5c-0.9-0.5-1.1-1.6-2.3-1.6c-1.1,0.5-1.5,1.6-2.2,2.5
		s-1.6,1.6-2.4,2.4c-2.4,2.6-2.8,1.9-3.2,6.2c-0.6,0.6-1.6,0.1-2.5,1.2c-0.4,2.6-3.8,3.7-4.6,6.7c-0.1,0.3-0.5,0.6-0.8,0.9
		c-0.9,0.7-1.6,1.7-1.9,2.8c-0.2,0.6-0.5,1.2-1,1.6c-2.9,2.7-4.4,6.2-6.1,9.6c-1.3,2.6-2.2,5.5-4.3,7.6c-1.7,1.7-2.9,3.7-3.5,6
		c-0.1,0.9-0.5,1.7-1.1,2.4c-2.5,2.6-4.1,6-4.5,9.6c-0.8,1.3-2.2,0.9-3,1.9c-0.4,0.8-0.4,1.8,0,2.6c0.7,2,0,4.2-1.8,5.4
		c-1,0.7-1.7,1.7-2.2,2.9c-0.5,1.3-1.1,2.5-1.7,3.8c-0.8,1.5-1.1,3.2-1,4.9c0.1,1.2-0.3,2.5-1.2,3.3c-0.6,0.6-1,1.3-1.3,2
		c-0.9,2.8-1.5,5.7-1.9,8.6c-0.6,3.9-1.6,7.8-2.4,11.7c-0.1,1.2-1.1,2.2-2.4,2.3c-0.6-0.3-0.8-1-0.6-1.5c0.3-1.4,0.3-2.7,0.6-4.1
		c0.2-1,0.4-2.3-1-2.9c-2,1.1-2.2,3-2.5,4.8c-0.4,2.5-0.7,5-1,7.5c-0.2,1.4-0.9,2.6-0.9,4c-0.1,6.9-0.2,13.9,0,20.8
		c0.1,2.7,0.3,5.3,0.5,8c0.3,4.3,1.2,8.6,0.9,12.9c-0.3,4,0.9,7.7,1.5,11.6v0.1c0,0.9,0.8,1.6,1.7,1.6c0,0,0,0,0,0
		c0.8-0.6,1.2-1.7,0.8-2.7c-0.4-2.2-0.6-4.3-0.8-6.5c-0.4-4.8-1.1-9.7-0.1-14.5c0.2,2.8,0.1,5.6,0.2,8.4c0,2.6,0.5,5.2,1.3,7.7
		c1,2.7,2.4,5.3,2.7,8.1c0.9,0.8,2,1.4,3.2,1.6c0.9,0.2,1.9-0.1,2.4-0.9c0.5-0.7,0.5-1.6,0-2.3c-0.3-0.6-0.7-1.1-1-1.7
		c-1.1-1.8-2.3-3.6-3.4-5.4c-0.7-1.2-1.1-2.6-1-4c0.1-1.8,0.2-3.6,0.2-5.3c-0.1-4.2,0.5-8.3,1.8-12.2c0.4-1.1,0.8-2.4,0-3.3
		s-1.9-0.7-2.7-1.3c-0.3-2.2,0.2-4.4,0.3-6.7c0.2-6.2,1.3-12.3,2.1-18.4c0.1-1.4,0.7-2.6,1.8-3.5c1.1-4.8,3.4-8.8,5.3-13.5
		c0.3-0.8,0.6-1.6,0.9-2.4c0-0.5,0-1,0.1-1.5c1.1-6.2,1.8-12.6,4.8-18.3c1-1.9,1.8-3.8,2.6-5.8c1.6-4.3,3.5-8.4,5.6-12.4
		c2.2-4.2,4.2-8.4,6.2-12.7c0.8-1.9,1.8-3.7,2.9-5.3c3.8-5.1,8.1-10,11.4-15.5c0.3-0.4,0.6-0.8,0.9-1.1l9.3-10.7
		c0.3-0.5,0.8-0.9,1.4-1.1c0.4-0.5,0.8-0.9,1.3-1.2c2.7-1.9,4.3-5.8,6.8-8.1c1.6-1.4,3.3-2.6,5.1-3.7c1-1.1,2.1-2,3.4-2.8
		c2.9-1.8,5.7-3.8,8.5-5.8c3.5-2.6,7-5.3,10.5-8c3-2.2,6-4.4,9-6.7c0.8-0.6,1.6-1.1,2.5-1.6c7.6-3.9,15.5-7.1,23.7-9.8
		c1-0.4,2-0.6,3-0.7h0.1c0.2,0,0.5-0.1,0.8-0.1c4.4-0.2,8.7-2,13.2-2.2c1.3-0.4,2.6-0.6,4-0.6c2.8,0.2,5.5,0.2,8.3-0.1
		c7.3-0.8,14.3-2.9,21.6-3.4c3.8-0.4,7.6-0.4,11.4,0c2.6,0.3,5.2,0.3,7.9,0.1c1.1-0.5,0.8-1.4,1.6-1.7c1.2,0.4,2.3,1.1,3.6,1.2
		c1.8,0.1,3.5,0.6,5.1,1.6c0.9,0.5,2,0.8,3,1c4.7,1.1,9.6,1.7,14.5,1.8C234.1,76.4,235.5,76.5,236.8,76.7z M263.8,65.7L263.8,65.7
		c-1.8,0.4-1.8,0.4-3-0.7C262.2,63.9,262.4,64,263.8,65.7L263.8,65.7z M3.9,251.9c-0.7-5-1-10-0.7-15c0.1-0.7,0.3-1.4,0.5-2.1
		c0.2-0.9,1.2-1.5,2.2-1.3C4.5,239.6,4.8,245.7,3.9,251.9z M219.9,70.8c-1.9-0.3-3.9-0.5-5.8-0.7c-3.1-0.2-3.9-0.8-4.9-3.7
		c-0.3-0.6-0.4-1.3-0.4-2c3.6,0.7,7.3,1.2,10.5,2.8c1-0.3,0.7-1.3,1.2-1.7c0.2,0,0.4-0.1,0.5,0c1.8,1.3,4,1.9,6.2,1.7
		c1.9-0.2,3.9,0,5.8,0.7c1.5,0.6,3.1-0.1,4.5-0.4c2.5-0.5,4.9-1.2,7.4-0.7l1.9-1.3c1.6,0,2.9,1,4.4,1.1c2.2,0,2.4-2.5,4.1-3.2
		c1.2,0.7,1.1,1.6,0.5,2.5c-1.1,1.5-2,3.2-2.7,4.9c-0.3,1-1.1,1.2-2.1,1.3c-6.8,0.7-13.6,0.8-20.4,0.4
		C226.9,72.2,223.4,71.3,219.9,70.8L219.9,70.8z"
    />
</g>
<g id="six">
	<path
      d="M10.6,181.6L10.6,181.6c1,0.7,2.1,1.4,3.2,1.9c0.3,0.1,0.6,0.2,0.9,0.2c0.4-0.2,0.8-0.4,0.8-0.5c0.7-0.6,1.4-1.3,2-2.1
		c-1.6-1.8-2.1-4.2-1.4-6.5c-0.6-1.8-0.9-3.6-0.7-5.5c0.6-3.3,0.3-6.7,0.3-10c0-0.5-0.2-1-0.5-1.3c-1.7-0.4-2.2-0.2-2.9,1.2
		c-0.5,1.3-0.9,2.6-1,4c-0.6,3.9-0.4,7.8-0.6,11.7c-0.1,2.1-0.6,4.2-0.2,6.3C10.5,181.3,10.5,181.4,10.6,181.6z"
    />
	<path
      d="M73.7,94.1c-0.7-0.1-1.3-0.6-1.6-1.7c-0.2-1.1-0.2-2.3,0-3.4c0.1-0.7,0.2-1.4,0.3-2.2c0.6-6.4,1.6-12.7,4.2-18.7
		c0.3-0.8,0.9-1.6,0.5-2.4l0,0c-0.4-0.4-1-0.4-1.4,0c0,0,0,0,0,0c-0.8,0.7-1.5,1.5-2,2.4c-2.3,3.6-3.7,7.6-5.2,11.5
		c-1.9,4.9-1.6,9.9-1.1,14.9c0.1,1.1,0.5,2.1,0.6,3.3l0.3,0.2c1.3,0.9,2.4,2.1,3.1,3.6c0.5-0.4,1.3-0.3,2.9-0.1
		c0.2,0,0.4-0.1,0.5-0.1c0.3-0.7,0.7-1.3,1.2-1.9C75.1,97.6,74.3,95.8,73.7,94.1z"
    />
	<path
      d="M139.7,55.2c1,0.7,1.9,1.7,2.5,2.8c1.5,0.2,2.9,0.3,4.4,0.2c0.3-0.8,0.6-1.7,1-2.5l-0.6,0.1c-1.6-1.6-2.9-3.5-3.7-5.6
		c-1.4-2.9-1.8-6.2-1.1-9.3c0-0.1,0.1-0.2,0.1-0.2c0.3-1.3-0.4-2.5-1.7-2.9c0,0,0,0,0,0c-1.3-0.3-2.2,0.4-2.7,2.1
		c-0.1,0.2-0.1,0.3-0.1,0.5c-1.1,5-1.1,9.8,1.7,14.4C139.6,55,139.6,55.1,139.7,55.2z"
    />
	<path
      d="M265.5,94.8c-0.3-1.4-0.5-2.9-0.5-4.3c0-2.3-0.2-4.5-0.5-6.8c-0.1-0.9-0.2-1.7-0.2-2.6c-1.3-0.4-2.5-0.8-3.7-1.3
		c0.9,4.7,0.6,9.5-1,14l0.5-0.3c0.4-0.3,1-0.3,1.5,0c0.5,0.7,0.8,1.5,0.7,2.4c0,4.2,0.5,8.3,1.5,12.4c0.9-2.4,1.9-4.8,2.8-7.2
		C266.4,98.9,266.1,96.8,265.5,94.8z"
    />
	<path
      d="M223.6,157.2c-0.8-3.1-2.1-6-3.8-8.7c-0.7-0.7-1.1-1.7-1.3-2.6c-0.1-1.1-0.1-2.2-0.1-3.4c-2.5,0.4-5,0.6-7.5,0.4
		c-6.2,4.8-14,7.2-21.9,8.8l-1,0.2c-0.4,0.8-0.8,1.6-1.2,2.4l0,0c0.3,1.2-0.6,2.3-0.5,3.6c0.2,0.7,0.9,1.2,1.6,1.2
		c1-0.2,1.8-0.9,2.2-1.8c0.7-1.3,1.8-2.4,3.1-3.1c0.6-0.3,1.1-0.6,1.6-1.1c2.2-2.2,5.1-2.7,7.9-3.6c0.5-0.1,1,0.1,1.2,0.5
		c0,1.9-0.7,3.8-1.9,5.2c-1.7,2-3.6,4-5.4,5.9c-4.4,4.4-9.3,8.2-14.7,11.2c-6.2,3.8-11.8,8.5-16.7,13.8c-1.2,1.2-2.2,2.7-2.7,4.3
		c-0.9,2.7-2.2,5.3-3.7,7.7c-1.5,2.7-3.1,5.4-4.5,8.1c-0.4,0.7-0.8,1.4-1,2.2c-0.5,2.9-0.9,5.9-1.3,8.9v0.1
		c-0.2,0.8,0.4,1.7,1.2,1.8c2.1-2,3.7-4.6,4.6-7.4c0.5-2,1.3-3.8,2.4-5.5c0.3-0.5,0.5-1,0.7-1.6c0.9-2.8,2.2-5.4,4-7.8
		c0.6-0.8,1.1-1.6,1.5-2.5c1.4-2.8,3.7-4.8,5.8-6.9c0.1-0.2,0.3-0.3,0.4-0.4c0.7-0.4,1.5-0.1,1.9,0.6c-0.1,0.3-0.3,0.6-0.5,0.9
		c-1.7,1.8-2.9,4-3.4,6.4c-0.7,2.9-1.7,5.8-2.9,8.5c-2.6,5.6-2.2,11.4-1.6,17.2c0.1,0.7,0.3,1.3,1.2,1.4c1.3-0.9,1.1-2.4,1.3-3.7
		c0.6-4.6,1.6-9.1,2.9-13.6c1.2-3.5,2.7-6.8,4.5-10c2.2-4.4,4.8-8.7,7.9-12.6c2-2.6,4.4-4.8,7.2-6.5c5.4-3,10.5-6.6,15.1-10.7
		c2.6-2.1,4.8-4.7,6.5-7.6c0.4-1,1-1.9,1.8-2.7c1.3-0.3,1.7,0.6,2.1,1.4c0.7,1.5,1.2,3,1.7,4.6c0.5,1.3,0.8,2.9,2.3,3.5
		c2.6-0.9,3.1-1.6,3.1-4C224,159.2,223.9,158.2,223.6,157.2z M212.9,147.6c-1.8,1.1-2.4,2.5-3,4.5s-1.9,3.7-2.2,5.7
		c-2.5,2.1-4.9,4.4-7.2,6.8c-1.4,1.4-3,2.7-4.7,3.8c-4.7,3-9.1,6.2-13.4,9.7c-1,0.9-2.1,2.2-4,1.3c0.2-0.6,0.8-0.8,1.2-1.1
		c5-3.4,10.1-6.8,15.1-10.3c3.9-2.7,7.4-6.1,10.2-10c1.9-2.6,2.8-5.6,3.9-8.6c0.4-1.5,1.3-2.8,2.5-3.8c0.5-0.4,1.1-0.7,1.8-0.6
		C213.9,146,213.9,146.9,212.9,147.6z"
    />
	<path
      d="M4.9,281.1c-0.1-0.8-0.1-1.6-0.2-2.4c-0.1-0.3-0.2-0.5-0.2-0.8c-0.5-1.3-0.5-2.8-0.1-4.2c-1-0.3-1.9-0.7-2.8-1.1
		c0.1,1.5,0.1,3,0,4.5c-0.3,4,0.9,7.7,1.5,11.6v0.1c0,0.9,0.8,1.6,1.7,1.6c0,0,0,0,0,0c0.8-0.6,1.2-1.7,0.8-2.7
		C5.2,285.5,5,283.3,4.9,281.1z"
    />
	<path
      d="M82.4,174.2c-1.3-1.2-2.2-2.6-2.7-4.3c-0.8-2.3-1.6-4.6-2.4-6.9c-0.5-1.6-1.1-3.2-1.8-4.8c-2.2-4.6-4-9.5-5.2-14.5
		c-0.3-1.3-0.3-2.6-0.1-3.8c0.5-2.4,0.9-4.8,1.2-7.2c0.4-3.9,1.1-7.9,2.1-11.7c1-4.1,3.5-7.6,7.2-9.8L81,111
		c-0.3-0.5-0.6-1.1-0.8-1.7c-0.3-1.1-0.7-2.1-1.2-3.1c-0.5,0.2-1.1,0.3-1.6,0.2c-0.5,0-1,0-1.5,0h-0.2c-1.6,0-2.8,1.3-2.8,2.8
		c0,0,0,0,0,0c0,0.6-0.1,1.3-0.2,1.9c-0.3,0.7-0.6,1.4-0.9,2.1c-0.1,0.4-0.2,0.8-0.3,1.1c-1.4,4.4-4,8.3-5.3,12.7c0,0.1,0,0.2,0,0.3
		c0.1,1.4-0.3,2.8-0.9,4c-0.6,5.1-0.9,10.3-0.7,15.4c0,0.4,0,0.8-0.1,1.2c0.9,2.9,1.9,5.8,3.1,8.7c1.2,2.6,2,5.4,2.3,8.2
		c0.3,2.7,0.9,5.3,1.8,7.8c0.4,0.9,0.7,1.9,1.8,2.1c0.2,0,0.5,0,0.7-0.1c1.9-1.3,3.3-0.6,4.6,1c0.7,1.1,1.9,1.8,3.2,2
		c0.8-0.1,1.5-0.8,1.6-1.6C83.5,175.2,83,174.6,82.4,174.2z"
    />
	<path
      d="M141.1,98c-0.4-1.8-0.3-3.7,0.2-5.6c1.6-4.6,3.5-9.1,5.8-13.4l-0.8-0.1c-1.2-0.2-2.4-0.4-3.6-0.7c-1.5,0.1-2.8,0.7-3.9,1.7
		c0.2,0.4,0.2,0.9,0,1.3c-0.2,1.1-0.6,2.2-0.9,3.3c-1.9,5.3-2.4,11-1.3,16.6c0,0.7,0.4,1.3,0.9,1.7c3.2,0.6,4.3-0.3,4-3.4
		C141.3,98.8,141.2,98.4,141.1,98z"
    />
	<path
      d="M10.6,181.6L10.6,181.6c1,0.7,2.1,1.4,3.2,1.9c0.3,0.1,0.6,0.2,0.9,0.2c0.4-0.2,0.8-0.4,0.8-0.5c0.7-0.6,1.4-1.3,2-2.1
		c-1.6-1.8-2.1-4.2-1.4-6.5c-0.6-1.8-0.9-3.6-0.7-5.5c0.6-3.3,0.3-6.7,0.3-10c0-0.5-0.2-1-0.5-1.3c-1.7-0.4-2.2-0.2-2.9,1.2
		c-0.5,1.3-0.9,2.6-1,4c-0.6,3.9-0.4,7.8-0.6,11.7c-0.1,2.1-0.6,4.2-0.2,6.3C10.5,181.3,10.5,181.4,10.6,181.6z"
    />
	<path
      d="M73.7,94.1c-0.7-0.1-1.3-0.6-1.6-1.7c-0.2-1.1-0.2-2.3,0-3.4c0.1-0.7,0.2-1.4,0.3-2.2c0.6-6.4,1.6-12.7,4.2-18.7
		c0.3-0.8,0.9-1.6,0.5-2.4l0,0c-0.4-0.4-1-0.4-1.4,0c0,0,0,0,0,0c-0.8,0.7-1.5,1.5-2,2.4c-2.3,3.6-3.7,7.6-5.2,11.5
		c-1.9,4.9-1.6,9.9-1.1,14.9c0.1,1.1,0.5,2.1,0.6,3.3l0.3,0.2c1.3,0.9,2.4,2.1,3.1,3.6c0.5-0.4,1.3-0.3,2.9-0.1
		c0.2,0,0.4-0.1,0.5-0.1c0.3-0.7,0.7-1.3,1.2-1.9C75.1,97.6,74.3,95.8,73.7,94.1z"
    />
	<path
      d="M139.7,55.2c1,0.7,1.9,1.7,2.5,2.8c1.5,0.2,2.9,0.3,4.4,0.2c0.3-0.8,0.6-1.7,1-2.5l-0.6,0.1c-1.6-1.6-2.9-3.5-3.7-5.6
		c-1.4-2.9-1.8-6.2-1.1-9.3c0-0.1,0.1-0.2,0.1-0.2c0.3-1.3-0.4-2.5-1.7-2.9c0,0,0,0,0,0c-1.3-0.3-2.2,0.4-2.7,2.1
		c-0.1,0.2-0.1,0.3-0.1,0.5c-1.1,5-1.1,9.8,1.7,14.4C139.6,55,139.6,55.1,139.7,55.2z"
    />
	<path
      d="M4.9,281.1c-0.1-0.8-0.1-1.6-0.2-2.4c-0.1-0.3-0.2-0.5-0.2-0.8c-0.5-1.3-0.5-2.8-0.1-4.2c-1-0.3-1.9-0.7-2.8-1.1
		c0.1,1.5,0.1,3,0,4.5c-0.3,4,0.9,7.7,1.5,11.6v0.1c0,0.9,0.8,1.6,1.7,1.6c0,0,0,0,0,0c0.8-0.6,1.2-1.7,0.8-2.7
		C5.2,285.5,5,283.3,4.9,281.1z"
    />
	<path
      d="M141.1,98c-0.4-1.8-0.3-3.7,0.2-5.6c1.6-4.6,3.5-9.1,5.8-13.4l-0.8-0.1c-1.2-0.2-2.4-0.4-3.6-0.7c-1.5,0.1-2.8,0.7-3.9,1.7
		c0.2,0.4,0.2,0.9,0,1.3c-0.2,1.1-0.6,2.2-0.9,3.3c-1.9,5.3-2.4,11-1.3,16.6c0,0.7,0.4,1.3,0.9,1.7c3.2,0.6,4.3-0.3,4-3.4
		C141.3,98.8,141.2,98.4,141.1,98z"
    />
	<path
      d="M82.4,174.2c-1.3-1.2-2.2-2.6-2.7-4.3c-0.8-2.3-1.6-4.6-2.4-6.9c-0.5-1.6-1.1-3.2-1.8-4.8c-2.2-4.6-4-9.5-5.2-14.5
		c-0.3-1.3-0.3-2.6-0.1-3.8c0.5-2.4,0.9-4.8,1.2-7.2c0.4-3.9,1.1-7.9,2.1-11.7c1-4.1,3.5-7.6,7.2-9.8L81,111
		c-0.3-0.5-0.6-1.1-0.8-1.7c-0.3-1.1-0.7-2.1-1.2-3.1c-0.5,0.2-1.1,0.3-1.6,0.2c-0.5,0-1,0-1.5,0h-0.2c-1.6,0-2.8,1.3-2.8,2.8
		c0,0,0,0,0,0c0,0.6-0.1,1.3-0.2,1.9c-0.3,0.7-0.6,1.4-0.9,2.1c-0.1,0.4-0.2,0.8-0.3,1.1c-1.4,4.4-4,8.3-5.3,12.7c0,0.1,0,0.2,0,0.3
		c0.1,1.4-0.3,2.8-0.9,4c-0.6,5.1-0.9,10.3-0.7,15.4c0,0.4,0,0.8-0.1,1.2c0.9,2.9,1.9,5.8,3.1,8.7c1.2,2.6,2,5.4,2.3,8.2
		c0.3,2.7,0.9,5.3,1.8,7.8c0.4,0.9,0.7,1.9,1.8,2.1c0.2,0,0.5,0,0.7-0.1c1.9-1.3,3.3-0.6,4.6,1c0.7,1.1,1.9,1.8,3.2,2
		c0.8-0.1,1.5-0.8,1.6-1.6C83.5,175.2,83,174.6,82.4,174.2z"
    />
	<path
      d="M223.6,157.2c-0.8-3.1-2.1-6-3.8-8.7c-0.7-0.7-1.1-1.7-1.3-2.6c-0.1-1.1-0.1-2.2-0.1-3.4c-2.5,0.4-5,0.6-7.5,0.4
		c-6.2,4.8-14,7.2-21.9,8.8l-1,0.2c-0.4,0.8-0.8,1.6-1.2,2.4l0,0c0.3,1.2-0.6,2.3-0.5,3.6c0.2,0.7,0.9,1.2,1.6,1.2
		c1-0.2,1.8-0.9,2.2-1.8c0.7-1.3,1.8-2.4,3.1-3.1c0.6-0.3,1.1-0.6,1.6-1.1c2.2-2.2,5.1-2.7,7.9-3.6c0.5-0.1,1,0.1,1.2,0.5
		c0,1.9-0.7,3.8-1.9,5.2c-1.7,2-3.6,4-5.4,5.9c-4.4,4.4-9.3,8.2-14.7,11.2c-6.2,3.8-11.8,8.5-16.7,13.8c-1.2,1.2-2.2,2.7-2.7,4.3
		c-0.9,2.7-2.2,5.3-3.7,7.7c-1.5,2.7-3.1,5.4-4.5,8.1c-0.4,0.7-0.8,1.4-1,2.2c-0.5,2.9-0.9,5.9-1.3,8.9v0.1
		c-0.2,0.8,0.4,1.7,1.2,1.8c2.1-2,3.7-4.6,4.6-7.4c0.5-2,1.3-3.8,2.4-5.5c0.3-0.5,0.5-1,0.7-1.6c0.9-2.8,2.2-5.4,4-7.8
		c0.6-0.8,1.1-1.6,1.5-2.5c1.4-2.8,3.7-4.8,5.8-6.9c0.1-0.2,0.3-0.3,0.4-0.4c0.7-0.4,1.5-0.1,1.9,0.6c-0.1,0.3-0.3,0.6-0.5,0.9
		c-1.7,1.8-2.9,4-3.4,6.4c-0.7,2.9-1.7,5.8-2.9,8.5c-2.6,5.6-2.2,11.4-1.6,17.2c0.1,0.7,0.3,1.3,1.2,1.4c1.3-0.9,1.1-2.4,1.3-3.7
		c0.6-4.6,1.6-9.1,2.9-13.6c1.2-3.5,2.7-6.8,4.5-10c2.2-4.4,4.8-8.7,7.9-12.6c2-2.6,4.4-4.8,7.2-6.5c5.4-3,10.5-6.6,15.1-10.7
		c2.6-2.1,4.8-4.7,6.5-7.6c0.4-1,1-1.9,1.8-2.7c1.3-0.3,1.7,0.6,2.1,1.4c0.7,1.5,1.2,3,1.7,4.6c0.5,1.3,0.8,2.9,2.3,3.5
		c2.6-0.9,3.1-1.6,3.1-4C224,159.2,223.9,158.2,223.6,157.2z M212.9,147.6c-1.8,1.1-2.4,2.5-3,4.5s-1.9,3.7-2.2,5.7
		c-2.5,2.1-4.9,4.4-7.2,6.8c-1.4,1.4-3,2.7-4.7,3.8c-4.7,3-9.1,6.2-13.4,9.7c-1,0.9-2.1,2.2-4,1.3c0.2-0.6,0.8-0.8,1.2-1.1
		c5-3.4,10.1-6.8,15.1-10.3c3.9-2.7,7.4-6.1,10.2-10c1.9-2.6,2.8-5.6,3.9-8.6c0.4-1.5,1.3-2.8,2.5-3.8c0.5-0.4,1.1-0.7,1.8-0.6
		C213.9,146,213.9,146.9,212.9,147.6z"
    />
	<path
      d="M265.5,94.8c-0.3-1.4-0.5-2.9-0.5-4.3c0-2.3-0.2-4.5-0.5-6.8c-0.1-0.9-0.2-1.7-0.2-2.6c-1.3-0.4-2.5-0.8-3.7-1.3
		c0.9,4.7,0.6,9.5-1,14l0.5-0.3c0.4-0.3,1-0.3,1.5,0c0.5,0.7,0.8,1.5,0.7,2.4c0,4.2,0.5,8.3,1.5,12.4c0.9-2.4,1.9-4.8,2.8-7.2
		C266.4,98.9,266.1,96.8,265.5,94.8z"
    />
</g>
<g id="seven">
	<path
      d="M483.3,149.1c2.5-0.3,5-0.6,7.5-0.9c-2.5,0.1-5.1,0.3-7.6,0.4C483.2,148.8,483.2,149,483.3,149.1z"
    />
	<path
      d="M324.1,63.8c-1.8-1.6-4-2.8-5.6-4.2c-0.1-0.3-0.1-0.6,0-0.8c-1.1-0.8-2.1-1.5-3.2-2.3c-0.4,0.3-0.8,0.6-1.3,0.8
		c-3.3-0.8-6.5-1.9-9.5-3.4c-5.1-2.8-10.7-3.8-16.3-4.7c-3.1-0.3-5.9-2.1-7.6-4.7c-1.1-1.8-2.1-3.6-3.2-5.5
		c-0.5-0.7-0.6-1.7-0.2-2.5c0.3-0.1,0.6-0.3,0.8-0.4c-0.8-1-1.4-2.2-1.8-3.4c-2.5,0.8-3.7,0.2-6.2-1.9c-4.1-3.4-8-7.1-12.4-10.2
		c-2.5-1.7-5.3-2.8-8.3-3.2c-7.4-0.8-14.8,1.1-20.8,5.4c-1.2,0.8-2.1,1.8-2.8,3c-2,3.3-3.6,6.7-4.9,10.3c-0.5,1.6-0.7,3.3-0.5,5
		c0.1,0.6,0.2,1.1,0.3,1.7c-0.2,3.5,1.3,6.3,3.4,8.9c0.4,0.4,0.8,0.8,0.4,1.5c-0.4,0.2-0.8,0.2-1.1,0.1c-1.9-0.3-3.7-0.6-5.6-0.7
		c-4.2-0.3-8.4-0.9-12.6-1.5c2.6,4.1,4,8.7,4.8,13.4c3.4,0.6,6.7,1.2,9.6,2.6c1-0.4,0.7-1.3,1.2-1.7c0.2,0,0.4-0.1,0.5,0
		c1.8,1.3,4,1.9,6.2,1.7c1.9-0.2,3.9,0,5.8,0.7c1.5,0.6,3.1-0.1,4.5-0.4c2.5-0.5,4.9-1.2,7.3-0.7l1.9-1.3c1.6,0,2.9,1,4.4,1.1
		c2.2,0,2.4-2.5,4.1-3.2c1.2,0.6,1.1,1.5,0.5,2.5c-1.1,1.5-2,3.2-2.7,4.9c-0.3,1-1.1,1.2-2.1,1.3c-6.8,0.7-13.6,0.8-20.5,0.4
		c-3.6-0.2-7-1.1-10.6-1.6c-1.9-0.3-3.8-0.5-5.8-0.7c-2.2-0.1-3.3-0.5-4.1-1.8c0.1,1,0.1,2.1,0.2,3.1c0,0.2,0,0.4,0,0.6c0,0,0,0,0,0
		c1.8,0.1,3.5,0.6,5.1,1.5c0.9,0.5,2,0.8,3,1c4.7,1.1,9.6,1.7,14.5,1.8c4.5,0,9,1.3,13.6,0c1.7-0.5,3.5,0,4.7,1.3c0,2.4-1.9,7-3.9,9
		c-0.7,0.7-1.3,1.3-2,2c4.7,2.7,7.1,6.4,8.4,10.8c0.8-0.8,1.5-1.6,2.3-2.5c1.3-1.4,2.7-2.6,4.3-3.6c0.4-0.3,1-0.3,1.5,0
		c0.5,0.7,0.8,1.5,0.7,2.4c0,4.6,0.6,9.3,1.8,13.8c0.4,1.7,0.5,3.4,0.2,5.1c1.1-0.1,2.1-0.3,3.2-0.4c0.6-0.1,1.2-0.2,1.8-0.3
		c0.5-1.5,1-3.1,1.4-4.7c0.4-1.6,0-2.2-1.5-2.8c-0.8-0.3-1.7,0-2.3-0.7c-0.3-0.7-0.5-1.4-0.3-2.1c0.2-3-0.1-6-1-8.9
		c-0.3-1.4-0.5-2.9-0.5-4.3c0-2.3-0.2-4.5-0.5-6.8c-0.9-4.9,0.7-9.1,2.9-13.3c0.2-0.4,0.4-0.9,1.1-0.9c0.9,0.2,1.4,1.1,1.3,2
		c0,0.9-0.1,1.9,0,2.9c0.4,3.7-0.8,7.6,1.5,11c-1.2,2.1-1.4,4,0.2,5.9c0.2,0.3,0.3,0.6,0.3,0.9c0.1,2.5,1.1,4.9,1,7.5
		c-0.1,1.1,0.4,2.1,1.3,2.8l0.1,0.1c0,0,0,0,0,0c0.9,0.7,1.2,2,0.5,2.9c-0.2,0.3-0.4,0.7-0.5,1.1c0.7,2.1,1.1,4.2,1.3,6.2
		c6.6-1.5,13-3.5,19.3-5.9c0-0.6,0.1-1.1,0.1-1.7c0.5-3.9,1.4-7.8,1.7-11.8c0.5-6.2,4-10.5,7.9-14.7c0.1-0.1,0.3-0.1,0.7-0.2
		c2,0.6,3.8,1.6,5.3,2.9c2.7,2.2,3.5,5.2,3.5,8.5c0,2.7,0.3,5.3,0.8,7.9c1.1-0.6,2.2-1.1,3.3-1.7c-0.4-1.8-0.5-3.6-0.5-5.4
		c-0.1-1.9-0.3-3.7-0.8-5.5c-0.8-3.9-3.4-6.4-6.7-8.3c-0.9-0.4-1.7-0.9-2.5-1.5c-0.4-2.3,0.4-3.6,3.1-4.7c1.2,3.4,4.2,5.2,6.6,7.6
		c1.7,1.6,3.5,2.9,3.9,5.4c0.2,0.7,0.6,1.3,1.2,1.8c2,1.9,2.8,4.7,2.1,7.3c4.4-2.4,8.8-4.9,13.1-7.4c-2-4.8-3.4-9.9-6.8-14.2
		C328.9,68.5,326.6,66,324.1,63.8z M251.1,90C251,90,251,90,251.1,90c-0.1,0-0.1,0-0.2,0c-0.3,0-0.5-0.3-0.5-0.6v0
		c0-0.3,0.3-0.6,0.6-0.6c0,0,0,0,0.1,0c0.3,0,0.5,0.3,0.5,0.6l0,0C251.7,89.7,251.4,90,251.1,90z M223.9,39.6c1.7-0.4,3.4,0,4.6,1.2
		c0.1,1.3-0.8,2.3-0.6,3.4c0.1,0.1,0.1,0.2,0.1,0.3c0.8,1.2,2.9,1.1,3.1,2.8c0.2,1.4,0.5,2.9,1,4.2
		C227.5,52.1,222.5,44.7,223.9,39.6z M250.7,40.8c-1,1-2.2,1.1-3.8,0.1c-2.2-1.4-4.3-2.8-5.6-5.2c-1-1.9-5.4-2.3-7.3-0.9
		c-0.6,0.4-1.1,1-1.6,1.4c-1.9-0.4-1.9-0.4-2.5-2.4c1.2-2.6,1.8-2.9,5.2-2.5c1.2-0.3,1.7-1.4,2.7-2.4c2.8,1.8,6.3,2.1,8.5,5
		c1.6,0.3,2-1.1,3-1.6c0.5,0.4,0.3,1,0.3,1.5c0,1.3,0.3,2.6,1,3.7C251.5,38.8,251.5,40.1,250.7,40.8z M256.5,47
		c-2.4,0.2-3.5-1.2-4.6-2.7c0.7-1.2,1.6-1,2.5-0.6C255.8,44.2,256.4,45.1,256.5,47L256.5,47z M261,42.1c-1.3-0.3-2.5-1-3.3-2.1
		C259.4,39.7,259.6,39.8,261,42.1z M259.4,74.3L259.4,74.3c-1.3-1.5-2.2-3.3-2.6-5.3c0.3-1,1.3-1.6,2.3-1.4c0.9,0.2,1.6,0.8,2,1.6
		c0.1,0.2,0.2,0.4,0.3,0.5C262.1,71.6,261.2,73.6,259.4,74.3z M260.9,64.9c1.4-1,1.5-1,3,0.7C262,66.1,262,66.1,260.9,64.9z
		 M296.7,81.8c-0.5-2-0.6-4-0.2-6c1.5-0.4,2.5,0.2,3.7,1C299.9,78.9,298.7,80.4,296.7,81.8z M303,72.2L303,72.2
		c0.3-1.6,1.3-3,2.8-3.8C305.7,70.1,304.6,71.6,303,72.2z"
    />
</g>
</svg>
