<!--?xml version="1.0" encoding="UTF-8" standalone="no" ?-->

<svg xmlns="http://www.w3.org/2000/svg" xmlns:xlink="http://www.w3.org/1999/xlink" version="1.1" width="640" height="480" viewBox="0 0 640 480" xml:space="preserve" style="">
<desc>Created with Fabric.js 3.6.6</desc>
<defs>
</defs>
<g transform="matrix(1 0 0 1 341.43 228.57)">
<path style="stroke: rgb(207, 70, 70); stroke-width: 10px; stroke-linecap: round; stroke-linejoin: round; stroke-miterlimit: 10; fill: none; fill-rule: nonzero; opacity: 1;" transform=" translate(-341.43, -228.57)" d="M 89.52380952380952 447.6290476190476 Q 89.52380952380952 447.6190476190476 89.52380952380952 447.1428571428571 Q 89.52380952380952 446.66666666666663 89.52380952380952 445.71428571428567 Q 89.52380952380952 444.76190476190476 89.52380952380952 443.3333333333333 Q 89.52380952380952 441.90476190476187 89.52380952380952 440 Q 89.52380952380952 438.0952380952381 89.52380952380952 437.6190476190476 Q 89.52380952380952 437.1428571428571 89.52380952380952 435.71428571428567 Q 89.52380952380952 434.2857142857143 89.52380952380952 431.9047619047619 Q 89.52380952380952 429.5238095238095 89.52380952380952 427.6190476190476 Q 89.52380952380952 425.71428571428567 89.52380952380952 422.85714285714283 Q 89.52380952380952 420 89.52380952380952 418.0952380952381 Q 89.52380952380952 416.19047619047615 89.52380952380952 413.80952380952374 Q 89.52380952380952 411.4285714285714 90 408.0952380952381 Q 90.47619047619047 404.76190476190476 91.42857142857142 401.9047619047619 Q 92.38095238095238 399.04761904761904 93.33333333333333 396.19047619047615 Q 94.28571428571428 393.3333333333333 95.71428571428571 390 Q 97.14285714285714 386.66666666666663 98.57142857142857 383.80952380952374 Q 100 380.9523809523809 101.9047619047619 378.0952380952381 Q 103.80952380952381 375.23809523809524 105.71428571428571 372.3809523809524 Q 107.6190476190476 369.5238095238095 109.52380952380952 366.66666666666663 Q 111.42857142857142 363.8095238095238 113.8095238095238 360.95238095238096 Q 116.19047619047619 358.0952380952381 118.57142857142857 355.2380952380952 Q 120.95238095238095 352.38095238095235 124.28571428571428 349.5238095238095 Q 127.6190476190476 346.66666666666663 130.95238095238093 343.80952380952374 Q 134.28571428571428 340.9523809523809 137.14285714285714 338.57142857142856 Q 140 336.19047619047615 142.85714285714283 334.2857142857142 Q 145.7142857142857 332.38095238095235 148.57142857142856 330.4761904761905 Q 151.42857142857142 328.57142857142856 154.76190476190476 326.66666666666663 Q 158.09523809523807 324.76190476190476 161.42857142857142 322.85714285714283 Q 164.76190476190476 320.9523809523809 168.09523809523807 319.04761904761904 Q 171.42857142857142 317.1428571428571 174.76190476190476 315.71428571428567 Q 178.09523809523807 314.2857142857143 180.95238095238093 312.85714285714283 Q 183.8095238095238 311.4285714285714 187.1428571428571 310 Q 190.47619047619045 308.57142857142856 193.8095238095238 307.1428571428571 Q 197.14285714285714 305.7142857142857 200.47619047619048 304.2857142857143 Q 203.8095238095238 302.85714285714283 207.1428571428571 301.42857142857144 Q 210.47619047619045 300 213.8095238095238 298.57142857142856 Q 217.14285714285714 297.1428571428571 220.47619047619048 295.71428571428567 Q 223.8095238095238 294.2857142857143 227.1428571428571 292.85714285714283 Q 230.47619047619045 291.4285714285714 234.28571428571428 289.5238095238095 Q 238.09523809523807 287.6190476190476 241.90476190476187 285.71428571428567 Q 245.7142857142857 283.8095238095238 250 281.9047619047619 Q 254.28571428571428 280 258.57142857142856 277.6190476190476 Q 262.85714285714283 275.23809523809524 266.66666666666663 273.3333333333333 Q 270.4761904761905 271.4285714285714 274.76190476190476 269.5238095238095 Q 279.04761904761904 267.6190476190476 283.3333333333333 264.7619047619047 Q 287.6190476190476 261.90476190476187 292.85714285714283 259.04761904761904 Q 298.0952380952381 256.1904761904762 303.3333333333333 252.38095238095238 Q 308.57142857142856 248.57142857142856 313.8095238095238 244.76190476190476 Q 319.04761904761904 240.95238095238093 323.8095238095238 237.1428571428571 Q 328.57142857142856 233.33333333333331 332.85714285714283 229.52380952380952 Q 337.1428571428571 225.7142857142857 340.95238095238096 222.38095238095235 Q 344.76190476190476 219.04761904761904 348.57142857142856 215.23809523809524 Q 352.38095238095235 211.42857142857142 355.71428571428567 207.1428571428571 Q 359.04761904761904 202.85714285714283 362.85714285714283 198.57142857142856 Q 366.66666666666663 194.28571428571428 370 189.52380952380952 Q 373.3333333333333 184.76190476190476 377.1428571428571 180 Q 380.9523809523809 175.23809523809524 384.7619047619047 170 Q 388.57142857142856 164.76190476190476 392.38095238095235 159.52380952380952 Q 396.19047619047615 154.28571428571428 400 149.04761904761904 Q 403.8095238095238 143.8095238095238 408.0952380952381 138.09523809523807 Q 412.38095238095235 132.38095238095238 416.66666666666663 127.14285714285714 Q 420.9523809523809 121.9047619047619 425.71428571428567 116.66666666666666 Q 430.4761904761904 111.42857142857142 436.19047619047615 105.71428571428571 Q 441.90476190476187 100 448.0952380952381 94.28571428571428 Q 454.2857142857143 88.57142857142857 460.4761904761905 83.33333333333333 Q 466.66666666666663 78.09523809523809 473.80952380952374 72.38095238095238 Q 480.9523809523809 66.66666666666666 488.57142857142856 61.42857142857142 Q 496.19047619047615 56.19047619047619 502.85714285714283 52.857142857142854 Q 509.5238095238095 49.52380952380952 516.6666666666666 46.19047619047619 Q 523.8095238095237 42.857142857142854 530.4761904761904 40 Q 537.1428571428571 37.14285714285714 543.8095238095239 34.76190476190476 Q 550.4761904761905 32.38095238095238 556.1904761904761 30.476190476190474 Q 561.9047619047619 28.57142857142857 566.1904761904761 26.666666666666664 Q 570.4761904761905 24.76190476190476 573.8095238095239 22.857142857142854 Q 577.1428571428571 20.952380952380953 579.5238095238095 19.523809523809526 Q 581.9047619047619 18.095238095238095 584.2857142857142 16.666666666666664 Q 586.6666666666666 15.238095238095237 588.0952380952381 13.809523809523808 Q 589.5238095238095 12.38095238095238 590.952380952381 11.428571428571427 Q 592.3809523809523 10.476190476190476 592.8571428571428 10 L 593.3433333333332 9.513809523809524" stroke-linecap="round" class="ZJTvvVdi_0"></path>
</g>
<g transform="matrix(1 0 0 1 443.81 210.01)">
<path style="stroke: rgb(135, 42, 42); stroke-width: 10px; stroke-linecap: round; stroke-linejoin: round; stroke-miterlimit: 10; fill: none; fill-rule: nonzero; opacity: 1;" transform=" translate(-443.81, -210)" d="M 301.90476190476187 448.58142857142855 Q 301.90476190476187 448.57142857142856 301.90476190476187 448.0952380952381 Q 301.90476190476187 447.6190476190476 301.90476190476187 446.66666666666663 Q 301.90476190476187 445.71428571428567 300.95238095238096 443.80952380952374 Q 300 441.90476190476187 300 440.4761904761905 Q 300 439.04761904761904 299.5238095238095 437.6190476190476 Q 299.04761904761904 436.19047619047615 299.04761904761904 434.7619047619047 Q 299.04761904761904 433.3333333333333 299.04761904761904 430.95238095238096 Q 299.04761904761904 428.57142857142856 299.04761904761904 426.19047619047615 Q 299.04761904761904 423.8095238095238 299.04761904761904 420.4761904761905 Q 299.04761904761904 417.1428571428571 299.04761904761904 413.3333333333333 Q 299.04761904761904 409.5238095238095 299.5238095238095 405.71428571428567 Q 300 401.90476190476187 301.42857142857144 397.6190476190476 Q 302.85714285714283 393.3333333333333 304.7619047619047 388.57142857142856 Q 306.66666666666663 383.8095238095238 309.04761904761904 378.57142857142856 Q 311.4285714285714 373.3333333333333 314.2857142857142 368.0952380952381 Q 317.1428571428571 362.85714285714283 320 357.6190476190476 Q 322.85714285714283 352.38095238095235 326.19047619047615 347.6190476190476 Q 329.5238095238095 342.85714285714283 332.85714285714283 337.6190476190476 Q 336.19047619047615 332.38095238095235 340 327.6190476190476 Q 343.8095238095238 322.85714285714283 349.5238095238095 317.1428571428571 Q 355.23809523809524 311.4285714285714 361.9047619047619 304.7619047619047 Q 368.57142857142856 298.0952380952381 376.19047619047615 290.95238095238096 Q 383.8095238095238 283.8095238095238 391.42857142857144 276.66666666666663 Q 399.04761904761904 269.5238095238095 407.1428571428571 262.38095238095235 Q 415.23809523809524 255.2380952380952 423.8095238095238 247.1428571428571 Q 432.38095238095235 239.04761904761904 440.4761904761905 231.42857142857142 Q 448.57142857142856 223.8095238095238 456.19047619047615 216.19047619047618 Q 463.8095238095238 208.57142857142856 470.4761904761905 200.95238095238093 Q 477.1428571428571 193.33333333333331 482.38095238095235 186.19047619047618 Q 487.6190476190476 179.04761904761904 492.38095238095235 172.38095238095235 Q 497.1428571428571 165.7142857142857 501.4285714285714 158.57142857142856 Q 505.71428571428567 151.42857142857142 509.04761904761904 144.28571428571428 Q 512.3809523809524 137.14285714285714 515.2380952380952 130.47619047619048 Q 518.0952380952381 123.8095238095238 520.952380952381 117.6190476190476 Q 523.8095238095237 111.42857142857142 526.1904761904761 105.23809523809523 Q 528.5714285714286 99.04761904761904 530.4761904761905 93.33333333333333 Q 532.3809523809524 87.61904761904762 534.2857142857142 82.85714285714286 Q 536.1904761904761 78.09523809523809 538.0952380952381 72.38095238095238 Q 540 66.66666666666666 542.3809523809523 60.47619047619047 Q 544.7619047619047 54.285714285714285 547.1428571428571 48.095238095238095 Q 549.5238095238095 41.904761904761905 551.9047619047619 36.19047619047619 Q 554.2857142857142 30.476190476190474 556.1904761904761 24.76190476190476 Q 558.0952380952381 19.047619047619047 560 13.80952380952381 Q 561.9047619047619 8.571428571428571 563.3333333333333 3.333333333333333 Q 564.7619047619047 -1.9047619047619047 566.1904761904761 -5.7142857142857135 Q 567.6190476190476 -9.523809523809524 569.5238095238095 -12.857142857142858 Q 571.4285714285714 -16.19047619047619 573.3333333333333 -19.047619047619047 Q 575.2380952380952 -21.904761904761905 577.1428571428571 -23.333333333333332 Q 579.047619047619 -24.76190476190476 580.4761904761905 -25.71428571428571 Q 581.9047619047619 -26.666666666666664 583.3333333333333 -27.14285714285714 Q 584.7619047619047 -27.619047619047617 585.7142857142857 -28.095238095238095 Q 586.6666666666666 -28.57142857142857 587.1428571428571 -28.57142857142857 Q 587.6190476190476 -28.57142857142857 588.0952380952381 -28.57142857142857 Q 588.5714285714286 -28.57142857142857 588.5714285714286 -28.095238095238095 Q 588.5714285714286 -27.619047619047617 588.5714285714286 -27.14285714285714 Q 588.5714285714286 -26.666666666666664 588.0952380952381 -26.19047619047619 L 587.6090476190476 -25.70428571428571" stroke-linecap="round" class="ZJTvvVdi_1"></path>
</g>
<g transform="matrix(1 0 0 1 182.86 307.14)">
<path style="stroke: rgb(83, 73, 73); stroke-width: 6px; stroke-linecap: round; stroke-linejoin: round; stroke-miterlimit: 10; fill: none; fill-rule: nonzero; opacity: 1;" transform=" translate(-182.86, -307.14)" d="M 44.76190476190476 378.10123809523805 Q 44.76190476190476 378.0952380952381 45.238095238095234 378.0952380952381 Q 45.71428571428571 378.0952380952381 45.71428571428571 376.19047619047615 Q 45.71428571428571 374.2857142857143 45.71428571428571 370.95238095238096 Q 45.71428571428571 367.6190476190476 45.71428571428571 361.90476190476187 Q 45.71428571428571 356.19047619047615 45.71428571428571 355.2380952380952 Q 45.71428571428571 354.2857142857143 45.71428571428571 351.42857142857144 Q 45.71428571428571 348.57142857142856 46.19047619047619 345.2380952380952 Q 46.666666666666664 341.90476190476187 47.61904761904762 339.04761904761904 Q 48.57142857142857 336.19047619047615 50 333.80952380952374 Q 51.42857142857142 331.4285714285714 53.33333333333333 329.04761904761904 Q 55.238095238095234 326.66666666666663 57.61904761904762 324.2857142857142 Q 60 321.90476190476187 62.38095238095238 319.04761904761904 Q 64.76190476190476 316.19047619047615 68.0952380952381 314.2857142857142 Q 71.42857142857143 312.38095238095235 75.23809523809524 310 Q 79.04761904761904 307.6190476190476 83.33333333333333 305.2380952380952 Q 87.61904761904762 302.85714285714283 91.42857142857142 300.95238095238096 Q 95.23809523809523 299.04761904761904 99.52380952380952 297.6190476190476 Q 103.80952380952381 296.19047619047615 108.0952380952381 294.2857142857142 Q 112.38095238095238 292.38095238095235 117.14285714285714 290.4761904761905 Q 121.9047619047619 288.57142857142856 126.19047619047619 287.1428571428571 Q 130.47619047619048 285.7142857142857 135.23809523809524 284.2857142857143 Q 140 282.85714285714283 144.28571428571428 281.9047619047619 Q 148.57142857142856 280.95238095238096 152.85714285714283 280 Q 157.14285714285714 279.04761904761904 161.42857142857142 278.0952380952381 Q 165.7142857142857 277.1428571428571 169.52380952380952 276.19047619047615 Q 173.33333333333331 275.23809523809524 178.09523809523807 274.76190476190476 Q 182.85714285714283 274.2857142857143 187.1428571428571 273.8095238095238 Q 191.42857142857142 273.3333333333333 195.71428571428572 272.85714285714283 Q 200 272.38095238095235 204.28571428571428 271.42857142857144 Q 208.57142857142856 270.4761904761905 211.90476190476187 270 Q 215.2380952380952 269.5238095238095 218.57142857142856 269.04761904761904 Q 221.9047619047619 268.57142857142856 225.23809523809524 268.0952380952381 Q 228.57142857142856 267.6190476190476 231.42857142857142 267.1428571428571 Q 234.28571428571428 266.66666666666663 237.14285714285714 266.19047619047615 Q 240 265.7142857142857 242.38095238095238 264.76190476190476 Q 244.76190476190476 263.8095238095238 247.14285714285714 263.3333333333333 Q 249.52380952380952 262.85714285714283 251.9047619047619 262.38095238095235 Q 254.28571428571428 261.90476190476187 256.66666666666663 261.42857142857144 Q 259.04761904761904 260.95238095238096 261.42857142857144 260.4761904761905 Q 263.8095238095238 260 266.19047619047615 259.04761904761904 Q 268.57142857142856 258.0952380952381 270.4761904761905 257.6190476190476 Q 272.38095238095235 257.1428571428571 273.8095238095238 256.19047619047615 Q 275.23809523809524 255.2380952380952 276.66666666666663 254.76190476190476 Q 278.0952380952381 254.28571428571428 279.04761904761904 253.8095238095238 Q 280 253.33333333333331 281.42857142857144 252.85714285714283 Q 282.85714285714283 252.38095238095238 283.8095238095238 251.9047619047619 Q 284.76190476190476 251.42857142857142 285.23809523809524 250.95238095238093 Q 285.7142857142857 250.47619047619045 286.19047619047615 250.47619047619045 Q 286.66666666666663 250.47619047619045 287.1428571428571 250.47619047619045 Q 287.6190476190476 250.47619047619045 288.0952380952381 250.47619047619045 Q 288.57142857142856 250.47619047619045 289.04761904761904 250 Q 289.5238095238095 249.52380952380952 290.4761904761905 249.52380952380952 Q 291.4285714285714 249.52380952380952 292.38095238095235 249.52380952380952 Q 293.3333333333333 249.52380952380952 294.2857142857143 249.04761904761904 Q 295.23809523809524 248.57142857142856 296.19047619047615 248.09523809523807 Q 297.1428571428571 247.6190476190476 297.6190476190476 247.6190476190476 Q 298.0952380952381 247.6190476190476 299.04761904761904 247.6190476190476 Q 300 247.6190476190476 300 247.1428571428571 Q 300 246.66666666666666 300.4761904761905 246.66666666666666 Q 300.95238095238096 246.66666666666666 301.42857142857144 246.66666666666666 Q 301.90476190476187 246.66666666666666 302.38095238095235 246.66666666666666 Q 302.85714285714283 246.66666666666666 303.3333333333333 246.19047619047618 Q 303.8095238095238 245.7142857142857 304.2857142857143 245.23809523809524 Q 304.76190476190476 244.76190476190476 305.23809523809524 244.76190476190476 Q 305.7142857142857 244.76190476190476 306.19047619047615 244.28571428571428 Q 306.66666666666663 243.8095238095238 307.6190476190476 243.8095238095238 Q 308.57142857142856 243.8095238095238 309.04761904761904 243.33333333333331 Q 309.5238095238095 242.85714285714283 310 242.85714285714283 Q 310.4761904761905 242.85714285714283 310.95238095238096 242.38095238095235 Q 311.4285714285714 241.9047619047619 311.90476190476187 241.42857142857142 Q 312.38095238095235 240.95238095238093 313.3333333333333 240.95238095238093 Q 314.2857142857143 240.95238095238093 314.2857142857143 240.47619047619048 Q 314.2857142857143 240 314.76190476190476 240 Q 315.23809523809524 240 315.71428571428567 239.52380952380952 Q 316.19047619047615 239.04761904761904 316.66666666666663 239.04761904761904 Q 317.1428571428571 239.04761904761904 317.6190476190476 238.57142857142856 Q 318.0952380952381 238.09523809523807 318.57142857142856 238.09523809523807 Q 319.04761904761904 238.09523809523807 319.5238095238095 237.6190476190476 Q 320 237.14285714285714 320.4761904761905 236.66666666666666 L 320.9583809523809 236.18447619047618" stroke-linecap="round" class="ZJTvvVdi_2"></path>
</g>
<g transform="matrix(1 0 0 1 391.91 348.09)">
<path style="stroke: rgb(34, 32, 32); stroke-width: 5px; stroke-linecap: round; stroke-linejoin: round; stroke-miterlimit: 10; fill: none; fill-rule: nonzero; opacity: 1;" transform=" translate(-391.91, -348.1)" d="M 363.8095238095238 441.90976190476187 Q 363.8095238095238 441.90476190476187 363.8095238095238 441.4285714285714 Q 363.8095238095238 440.9523809523809 363.8095238095238 440 Q 363.8095238095238 439.04761904761904 363.8095238095238 437.1428571428571 Q 363.8095238095238 435.23809523809524 363.8095238095238 429.04761904761904 Q 363.8095238095238 422.85714285714283 363.8095238095238 421.90476190476187 Q 363.8095238095238 420.9523809523809 363.8095238095238 417.6190476190476 Q 363.8095238095238 414.2857142857143 363.8095238095238 410 Q 363.8095238095238 405.71428571428567 363.8095238095238 402.38095238095235 Q 363.8095238095238 399.04761904761904 363.8095238095238 396.19047619047615 Q 363.8095238095238 393.3333333333333 363.8095238095238 390.4761904761905 Q 363.8095238095238 387.6190476190476 363.8095238095238 385.2380952380952 Q 363.8095238095238 382.85714285714283 363.8095238095238 380.4761904761905 Q 363.8095238095238 378.0952380952381 363.8095238095238 375.71428571428567 Q 363.8095238095238 373.3333333333333 363.8095238095238 371.42857142857144 Q 363.8095238095238 369.5238095238095 363.8095238095238 367.6190476190476 Q 363.8095238095238 365.71428571428567 363.8095238095238 363.80952380952374 Q 363.8095238095238 361.90476190476187 364.2857142857143 359.04761904761904 Q 364.76190476190476 356.19047619047615 365.71428571428567 354.2857142857142 Q 366.66666666666663 352.38095238095235 367.1428571428571 350.4761904761905 Q 367.6190476190476 348.57142857142856 368.0952380952381 346.19047619047615 Q 368.57142857142856 343.8095238095238 369.5238095238095 341.9047619047619 Q 370.4761904761905 340 371.42857142857144 338.0952380952381 Q 372.38095238095235 336.19047619047615 373.3333333333333 334.7619047619047 Q 374.2857142857143 333.3333333333333 374.76190476190476 331.42857142857144 Q 375.23809523809524 329.5238095238095 376.66666666666663 328.0952380952381 Q 378.0952380952381 326.66666666666663 379.04761904761904 325.2380952380952 Q 380 323.8095238095238 380.95238095238096 322.38095238095235 Q 381.90476190476187 320.9523809523809 382.85714285714283 319.04761904761904 Q 383.8095238095238 317.1428571428571 385.2380952380952 315.71428571428567 Q 386.66666666666663 314.2857142857143 387.6190476190476 312.85714285714283 Q 388.57142857142856 311.4285714285714 389.5238095238095 310.4761904761905 Q 390.4761904761905 309.5238095238095 391.42857142857144 308.0952380952381 Q 392.38095238095235 306.66666666666663 393.3333333333333 305.2380952380952 Q 394.2857142857143 303.8095238095238 395.2380952380952 302.85714285714283 Q 396.19047619047615 301.90476190476187 397.1428571428571 300.4761904761905 Q 398.0952380952381 299.04761904761904 399.04761904761904 297.6190476190476 Q 400 296.19047619047615 400.4761904761905 295.2380952380952 Q 400.9523809523809 294.2857142857143 401.90476190476187 292.85714285714283 Q 402.85714285714283 291.4285714285714 403.8095238095238 290 Q 404.76190476190476 288.57142857142856 405.71428571428567 286.66666666666663 Q 406.66666666666663 284.76190476190476 407.6190476190476 283.3333333333333 Q 408.57142857142856 281.90476190476187 409.5238095238095 280.4761904761905 Q 410.4761904761905 279.04761904761904 410.95238095238096 277.6190476190476 Q 411.4285714285714 276.19047619047615 411.90476190476187 275.2380952380952 Q 412.38095238095235 274.2857142857143 412.85714285714283 273.3333333333333 Q 413.3333333333333 272.38095238095235 413.8095238095238 271.42857142857144 Q 414.2857142857143 270.4761904761905 414.76190476190476 269.5238095238095 Q 415.23809523809524 268.57142857142856 415.71428571428567 267.1428571428571 Q 416.19047619047615 265.7142857142857 416.19047619047615 264.76190476190476 Q 416.19047619047615 263.8095238095238 416.66666666666663 262.85714285714283 Q 417.1428571428571 261.90476190476187 417.6190476190476 261.42857142857144 Q 418.0952380952381 260.95238095238096 418.0952380952381 260 Q 418.0952380952381 259.04761904761904 418.57142857142856 258.0952380952381 Q 419.04761904761904 257.1428571428571 419.5238095238095 255.7142857142857 L 420.005 254.28071428571428" stroke-linecap="round" class="ZJTvvVdi_3"></path>
</g>
<g transform="matrix(1 0 0 1 312.86 137.15)">
<path style="stroke: rgb(34, 32, 32); stroke-width: 5px; stroke-linecap: round; stroke-linejoin: round; stroke-miterlimit: 10; fill: none; fill-rule: nonzero; opacity: 1;" transform=" translate(-312.86, -137.15)" d="M 460.005 82.85714285714285 Q 460 82.85714285714285 459.5238095238095 82.85714285714285 Q 459.04761904761904 82.85714285714285 457.6190476190476 82.85714285714285 Q 456.19047619047615 82.85714285714285 454.2857142857142 82.85714285714285 Q 452.38095238095235 82.85714285714285 446.19047619047615 84.76190476190476 Q 440 86.66666666666666 438.57142857142856 86.66666666666666 Q 437.1428571428571 86.66666666666666 433.3333333333333 88.57142857142856 Q 429.5238095238095 90.47619047619047 424.76190476190476 92.85714285714285 Q 420 95.23809523809523 414.76190476190476 98.09523809523809 Q 409.5238095238095 100.95238095238095 404.2857142857143 103.8095238095238 Q 399.04761904761904 106.66666666666666 394.2857142857143 109.04761904761904 Q 389.5238095238095 111.42857142857142 385.2380952380952 114.28571428571428 Q 380.9523809523809 117.14285714285714 376.19047619047615 119.52380952380952 Q 371.4285714285714 121.9047619047619 366.19047619047615 124.76190476190476 Q 360.9523809523809 127.6190476190476 355.71428571428567 130.95238095238093 Q 350.4761904761905 134.28571428571428 344.76190476190476 137.6190476190476 Q 339.04761904761904 140.95238095238093 333.8095238095238 143.33333333333331 Q 328.57142857142856 145.7142857142857 323.3333333333333 148.09523809523807 Q 318.0952380952381 150.47619047619048 313.8095238095238 152.38095238095238 Q 309.5238095238095 154.28571428571428 305.71428571428567 155.23809523809524 Q 301.90476190476187 156.19047619047618 298.57142857142856 156.66666666666666 Q 295.23809523809524 157.14285714285714 292.3809523809524 157.6190476190476 Q 289.5238095238095 158.09523809523807 287.1428571428571 158.09523809523807 Q 284.76190476190476 158.09523809523807 281.9047619047619 158.09523809523807 Q 279.04761904761904 158.09523809523807 276.66666666666663 158.09523809523807 Q 274.2857142857143 158.09523809523807 271.42857142857144 158.09523809523807 Q 268.57142857142856 158.09523809523807 265.71428571428567 157.6190476190476 Q 262.85714285714283 157.14285714285714 260 157.14285714285714 Q 257.1428571428571 157.14285714285714 254.28571428571428 156.66666666666666 Q 251.42857142857142 156.19047619047618 248.57142857142856 156.19047619047618 Q 245.7142857142857 156.19047619047618 242.85714285714283 156.19047619047618 Q 240 156.19047619047618 237.6190476190476 156.19047619047618 Q 235.2380952380952 156.19047619047618 232.85714285714283 156.66666666666666 Q 230.47619047619045 157.14285714285714 227.6190476190476 157.6190476190476 Q 224.76190476190476 158.09523809523807 222.85714285714283 159.04761904761904 Q 220.95238095238093 160 219.04761904761904 160.95238095238096 Q 217.14285714285714 161.9047619047619 214.76190476190476 162.85714285714283 Q 212.38095238095238 163.8095238095238 209.52380952380952 164.76190476190476 Q 206.66666666666666 165.7142857142857 204.76190476190476 166.66666666666666 Q 202.85714285714283 167.61904761904762 200.95238095238093 169.04761904761904 Q 199.04761904761904 170.47619047619045 196.66666666666666 171.90476190476187 Q 194.28571428571428 173.33333333333331 191.9047619047619 174.76190476190476 Q 189.52380952380952 176.19047619047618 186.66666666666666 177.6190476190476 Q 183.8095238095238 179.04761904761904 181.9047619047619 180.47619047619048 Q 180 181.9047619047619 177.61904761904762 183.33333333333331 Q 175.23809523809524 184.76190476190476 172.85714285714283 186.1904761904762 Q 170.47619047619045 187.61904761904762 169.04761904761904 188.57142857142856 Q 167.61904761904762 189.52380952380952 166.66666666666666 190.47619047619048 L 165.7092857142857 191.4335714285714" stroke-linecap="round" class="ZJTvvVdi_4"></path>
</g>
<g transform="matrix(1 0 0 1 553.81 93.33)">
<path style="stroke: rgb(34, 32, 32); stroke-width: 5px; stroke-linecap: round; stroke-linejoin: round; stroke-miterlimit: 10; fill: none; fill-rule: nonzero; opacity: 1;" transform=" translate(-553.81, -93.33)" d="M 551.4285714285714 33.328333333333326 Q 551.4285714285714 33.33333333333333 551.4285714285714 34.28571428571428 Q 551.4285714285714 35.238095238095234 551.4285714285714 37.14285714285714 Q 551.4285714285714 39.047619047619044 551.4285714285714 41.42857142857143 Q 551.4285714285714 43.80952380952381 551.4285714285714 46.666666666666664 Q 551.4285714285714 49.52380952380952 551.4285714285714 50 Q 551.4285714285714 50.476190476190474 551.4285714285714 51.42857142857143 Q 551.4285714285714 52.38095238095238 551.4285714285714 53.80952380952381 Q 551.4285714285714 55.238095238095234 551.4285714285714 57.14285714285714 Q 551.4285714285714 59.047619047619044 551.4285714285714 60.95238095238095 Q 551.4285714285714 62.857142857142854 551.4285714285714 64.28571428571428 Q 551.4285714285714 65.71428571428571 551.4285714285714 67.61904761904762 Q 551.4285714285714 69.52380952380952 551.9047619047619 71.9047619047619 Q 552.3809523809523 74.28571428571428 552.8571428571428 76.19047619047618 Q 553.3333333333333 78.09523809523809 553.8095238095237 79.52380952380952 Q 554.2857142857142 80.95238095238095 554.7619047619047 82.85714285714286 Q 555.2380952380952 84.76190476190476 555.7142857142857 87.14285714285714 Q 556.1904761904761 89.52380952380952 556.1904761904761 91.42857142857142 Q 556.1904761904761 93.33333333333333 556.6666666666666 95.23809523809524 Q 557.1428571428571 97.14285714285714 557.6190476190476 99.04761904761904 Q 558.0952380952381 100.95238095238095 558.0952380952381 102.85714285714286 Q 558.0952380952381 104.76190476190476 558.0952380952381 106.66666666666666 Q 558.0952380952381 108.57142857142857 558.0952380952381 110.47619047619048 Q 558.0952380952381 112.38095238095238 558.0952380952381 114.28571428571428 Q 558.0952380952381 116.19047619047619 558.0952380952381 118.0952380952381 Q 558.0952380952381 120 558.0952380952381 121.42857142857142 Q 558.0952380952381 122.85714285714285 558.0952380952381 123.8095238095238 Q 558.0952380952381 124.76190476190476 558.0952380952381 126.19047619047618 Q 558.0952380952381 127.6190476190476 557.6190476190476 129.04761904761904 Q 557.1428571428571 130.47619047619048 556.6666666666666 131.9047619047619 Q 556.1904761904761 133.33333333333331 555.2380952380952 134.76190476190476 Q 554.2857142857142 136.19047619047618 553.8095238095237 137.6190476190476 Q 553.3333333333333 139.04761904761904 552.8571428571428 140 Q 552.3809523809523 140.95238095238093 552.3809523809523 141.42857142857142 Q 552.3809523809523 141.9047619047619 551.9047619047619 142.38095238095238 Q 551.4285714285714 142.85714285714286 551.4285714285714 143.8095238095238 Q 551.4285714285714 144.76190476190476 550.952380952381 145.71428571428572 Q 550.4761904761905 146.66666666666666 550.4761904761905 148.57142857142856 Q 550.4761904761905 150.47619047619048 550 151.9047619047619 L 549.5188095238095 153.3383333333333" stroke-linecap="round" class="ZJTvvVdi_5"></path>
</g>
<g transform="matrix(1 0 0 1 544.29 123.81)">
<path style="stroke: rgb(142, 106, 106); stroke-width: 2px; stroke-linecap: round; stroke-linejoin: round; stroke-miterlimit: 10; fill: none; fill-rule: nonzero; opacity: 1;" transform=" translate(-544.28, -123.81)" d="M 557.1428571428571 105.71228571428571 Q 557.1428571428571 105.71428571428571 557.1428571428571 106.19047619047618 Q 557.1428571428571 106.66666666666666 557.1428571428571 107.14285714285714 Q 557.1428571428571 107.6190476190476 557.1428571428571 109.04761904761904 Q 557.1428571428571 110.47619047619047 557.1428571428571 111.9047619047619 Q 557.1428571428571 113.33333333333333 557.1428571428571 113.8095238095238 Q 557.1428571428571 114.28571428571428 556.6666666666666 115.23809523809524 Q 556.1904761904761 116.19047619047619 555.7142857142857 117.14285714285714 Q 555.2380952380952 118.09523809523809 554.7619047619047 119.04761904761904 Q 554.2857142857142 120 553.8095238095237 120.95238095238095 Q 553.3333333333333 121.9047619047619 552.3809523809523 122.85714285714285 Q 551.4285714285714 123.8095238095238 550.952380952381 124.28571428571428 Q 550.4761904761905 124.76190476190476 549.5238095238095 125.71428571428571 Q 548.5714285714286 126.66666666666666 547.1428571428571 127.6190476190476 Q 545.7142857142857 128.57142857142856 544.7619047619047 129.52380952380952 Q 543.8095238095237 130.47619047619048 542.3809523809523 131.42857142857144 Q 540.952380952381 132.38095238095238 540.4761904761905 132.85714285714283 Q 540 133.33333333333331 539.047619047619 133.8095238095238 Q 538.0952380952381 134.28571428571428 537.6190476190476 134.76190476190476 Q 537.1428571428571 135.23809523809524 536.6666666666666 135.71428571428572 Q 536.1904761904761 136.19047619047618 535.7142857142857 136.66666666666666 Q 535.2380952380952 137.14285714285714 534.7619047619047 137.6190476190476 Q 534.2857142857142 138.09523809523807 533.8095238095237 139.04761904761904 Q 533.3333333333333 140 532.8571428571429 140.47619047619048 Q 532.3809523809524 140.95238095238093 531.9047619047619 141.42857142857142 L 531.4265714285715 141.9067619047619" stroke-linecap="round" class="ZJTvvVdi_6"></path>
</g>
<g transform="matrix(1 0 0 1 569.52 84.76)">
<path style="stroke: rgb(142, 106, 106); stroke-width: 2px; stroke-linecap: round; stroke-linejoin: round; stroke-miterlimit: 10; fill: none; fill-rule: nonzero; opacity: 1;" transform=" translate(-569.52, -84.76)" d="M 554.2837142857143 68.56942857142857 Q 554.2857142857142 68.57142857142857 554.7619047619047 68.57142857142857 Q 555.2380952380952 68.57142857142857 556.1904761904761 69.52380952380952 Q 557.1428571428571 70.47619047619047 557.6190476190476 70.95238095238095 Q 558.0952380952381 71.42857142857143 558.0952380952381 71.9047619047619 Q 558.0952380952381 72.38095238095238 559.047619047619 72.85714285714286 Q 560 73.33333333333333 560.4761904761905 74.28571428571428 Q 560.952380952381 75.23809523809524 561.4285714285714 75.71428571428572 Q 561.9047619047619 76.19047619047619 562.3809523809523 76.66666666666666 Q 562.8571428571428 77.14285714285714 563.8095238095237 78.09523809523809 Q 564.7619047619047 79.04761904761904 565.7142857142857 80 Q 566.6666666666666 80.95238095238095 567.6190476190476 81.42857142857142 Q 568.5714285714286 81.9047619047619 569.5238095238095 82.85714285714286 Q 570.4761904761905 83.80952380952381 571.9047619047619 84.76190476190476 Q 573.3333333333333 85.71428571428571 574.2857142857142 86.66666666666666 Q 575.2380952380952 87.61904761904762 576.1904761904761 88.0952380952381 Q 577.1428571428571 88.57142857142857 578.5714285714286 89.04761904761904 Q 580 89.52380952380952 580.4761904761905 90 Q 580.952380952381 90.47619047619047 581.9047619047619 90.95238095238093 Q 582.8571428571428 91.42857142857142 583.3333333333333 91.9047619047619 Q 583.8095238095237 92.38095238095238 584.2857142857142 92.85714285714286 Q 584.7619047619047 93.33333333333333 584.7619047619047 93.8095238095238 Q 584.7619047619047 94.28571428571428 584.7619047619047 95.23809523809524 Q 584.7619047619047 96.19047619047619 584.7619047619047 97.14285714285714 Q 584.7619047619047 98.09523809523809 584.7619047619047 99.52380952380952 L 584.7619047619047 100.95438095238094" stroke-linecap="round" class="ZJTvvVdi_7"></path>
</g>
<g transform="matrix(1 0 0 1 506.19 206.67)">
<path style="stroke: rgb(142, 106, 106); stroke-width: 2px; stroke-linecap: round; stroke-linejoin: round; stroke-miterlimit: 10; fill: none; fill-rule: nonzero; opacity: 1;" transform=" translate(-506.19, -206.67)" d="M 502.85714285714283 158.09323809523806 Q 502.85714285714283 158.09523809523807 502.85714285714283 158.57142857142856 Q 502.85714285714283 159.04761904761904 502.85714285714283 160.47619047619048 Q 502.85714285714283 161.9047619047619 502.85714285714283 163.8095238095238 Q 502.85714285714283 165.7142857142857 502.85714285714283 169.52380952380952 Q 502.85714285714283 173.33333333333331 502.85714285714283 174.76190476190476 Q 502.85714285714283 176.19047619047618 502.85714285714283 179.52380952380952 Q 502.85714285714283 182.85714285714283 502.85714285714283 188.09523809523807 Q 502.85714285714283 193.33333333333331 502.85714285714283 199.04761904761904 Q 502.85714285714283 204.76190476190476 502.85714285714283 210.47619047619048 Q 502.85714285714283 216.19047619047618 502.85714285714283 220.95238095238093 Q 502.85714285714283 225.7142857142857 502.85714285714283 230 Q 502.85714285714283 234.28571428571428 503.3333333333333 238.09523809523807 Q 503.8095238095238 241.9047619047619 504.7619047619047 244.28571428571428 Q 505.71428571428567 246.66666666666666 506.66666666666663 249.04761904761904 Q 507.6190476190476 251.42857142857142 508.57142857142856 253.33333333333331 L 509.5258095238095 255.24009523809522" stroke-linecap="round" class="ZJTvvVdi_8"></path>
</g>
<g transform="matrix(1 0 0 1 149.52 296.19)">
<path style="stroke: rgb(142, 106, 106); stroke-width: 2px; stroke-linecap: round; stroke-linejoin: round; stroke-miterlimit: 10; fill: none; fill-rule: nonzero; opacity: 1;" transform=" translate(-149.52, -296.19)" d="M 171.43057142857143 277.1428571428571 Q 171.42857142857142 277.1428571428571 170.95238095238093 277.1428571428571 Q 170.47619047619045 277.1428571428571 169.52380952380952 277.1428571428571 Q 168.57142857142856 277.1428571428571 167.1428571428571 277.1428571428571 Q 165.7142857142857 277.1428571428571 163.8095238095238 277.6190476190476 Q 161.9047619047619 278.0952380952381 161.42857142857142 278.57142857142856 Q 160.95238095238093 279.04761904761904 160 279.5238095238095 Q 159.04761904761904 280 157.6190476190476 280.4761904761905 Q 156.19047619047618 280.95238095238096 155.23809523809524 281.9047619047619 Q 154.28571428571428 282.85714285714283 153.33333333333331 283.8095238095238 Q 152.38095238095238 284.76190476190476 151.42857142857144 285.23809523809524 Q 150.47619047619048 285.7142857142857 150 286.66666666666663 Q 149.52380952380952 287.6190476190476 149.04761904761904 288.57142857142856 Q 148.57142857142856 289.5238095238095 148.09523809523807 290 Q 147.61904761904762 290.4761904761905 147.14285714285714 291.42857142857144 Q 146.66666666666666 292.38095238095235 146.19047619047618 293.3333333333333 Q 145.7142857142857 294.2857142857143 144.76190476190476 295.2380952380952 Q 143.8095238095238 296.19047619047615 143.33333333333331 297.1428571428571 Q 142.85714285714286 298.0952380952381 142.38095238095238 299.04761904761904 Q 141.9047619047619 300 141.9047619047619 300.4761904761905 Q 141.9047619047619 300.95238095238096 141.42857142857142 301.9047619047619 Q 140.95238095238093 302.85714285714283 140.47619047619048 303.3333333333333 Q 140 303.8095238095238 139.52380952380952 304.76190476190476 Q 139.04761904761904 305.7142857142857 138.09523809523807 306.19047619047615 Q 137.14285714285714 306.66666666666663 136.66666666666666 307.1428571428571 Q 136.19047619047618 307.6190476190476 135.71428571428572 308.0952380952381 Q 135.23809523809524 308.57142857142856 134.76190476190476 309.04761904761904 Q 134.28571428571428 309.5238095238095 133.8095238095238 310 Q 133.33333333333331 310.4761904761905 132.38095238095235 310.95238095238096 Q 131.42857142857142 311.4285714285714 130.47619047619048 312.38095238095235 Q 129.52380952380952 313.3333333333333 128.57142857142856 314.2857142857143 L 127.61704761904761 315.24009523809525" stroke-linecap="round" class="ZJTvvVdi_9"></path>
</g>
<g transform="matrix(1 0 0 1 177.14 254.29)">
<path style="stroke: rgb(142, 106, 106); stroke-width: 2px; stroke-linecap: round; stroke-linejoin: round; stroke-miterlimit: 10; fill: none; fill-rule: nonzero; opacity: 1;" transform=" translate(-177.14, -254.29)" d="M 239.04961904761905 262.85714285714283 Q 239.04761904761904 262.85714285714283 238.09523809523807 262.85714285714283 Q 237.14285714285714 262.85714285714283 235.23809523809524 262.85714285714283 Q 233.33333333333331 262.85714285714283 230 262.85714285714283 Q 226.66666666666666 262.85714285714283 220.95238095238093 262.85714285714283 Q 215.2380952380952 262.85714285714283 213.33333333333331 262.85714285714283 Q 211.42857142857142 262.85714285714283 208.09523809523807 262.85714285714283 Q 204.76190476190476 262.85714285714283 200.95238095238096 262.85714285714283 Q 197.14285714285714 262.85714285714283 193.8095238095238 262.85714285714283 Q 190.47619047619045 262.85714285714283 188.09523809523807 262.85714285714283 Q 185.7142857142857 262.85714285714283 183.8095238095238 262.38095238095235 Q 181.9047619047619 261.90476190476187 180 260.95238095238096 Q 178.09523809523807 260 175.7142857142857 258.57142857142856 Q 173.33333333333331 257.1428571428571 171.42857142857142 255.7142857142857 Q 169.52380952380952 254.28571428571428 167.6190476190476 252.85714285714283 Q 165.7142857142857 251.42857142857142 163.8095238095238 250.47619047619048 Q 161.9047619047619 249.52380952380952 159.52380952380952 248.57142857142856 Q 157.14285714285714 247.6190476190476 154.76190476190476 246.66666666666663 Q 152.38095238095238 245.7142857142857 149.52380952380952 245.7142857142857 Q 146.66666666666666 245.7142857142857 143.8095238095238 245.7142857142857 Q 140.95238095238093 245.7142857142857 137.6190476190476 245.7142857142857 Q 134.28571428571428 245.7142857142857 131.42857142857142 245.7142857142857 Q 128.57142857142856 245.7142857142857 125.23809523809523 246.66666666666663 Q 121.9047619047619 247.6190476190476 118.57142857142856 249.04761904761904 L 115.23609523809523 250.47819047619046" stroke-linecap="round" class="ZJTvvVdi_10"></path>
</g>
<g transform="matrix(1 0 0 1 220.95 166.67)">
<path style="stroke: rgb(142, 106, 106); stroke-width: 2px; stroke-linecap: round; stroke-linejoin: round; stroke-miterlimit: 10; fill: none; fill-rule: nonzero; opacity: 1;" transform=" translate(-220.95, -166.67)" d="M 228.57342857142856 158.09523809523807 Q 228.57142857142856 158.09523809523807 228.09523809523807 158.09523809523807 Q 227.61904761904762 158.09523809523807 227.14285714285714 158.09523809523807 Q 226.66666666666666 158.09523809523807 226.19047619047618 158.57142857142856 Q 225.7142857142857 159.04761904761904 225.7142857142857 159.52380952380952 Q 225.7142857142857 160 224.76190476190476 160.47619047619048 Q 223.8095238095238 160.95238095238093 223.33333333333331 161.9047619047619 Q 222.85714285714283 162.85714285714286 222.38095238095235 163.33333333333331 Q 221.9047619047619 163.8095238095238 220.95238095238096 164.76190476190476 Q 220 165.7142857142857 219.52380952380952 166.19047619047618 Q 219.04761904761904 166.66666666666666 218.57142857142856 167.6190476190476 Q 218.09523809523807 168.57142857142856 217.6190476190476 169.04761904761904 Q 217.14285714285714 169.52380952380952 216.66666666666666 170 Q 216.19047619047618 170.47619047619045 215.7142857142857 171.42857142857142 Q 215.2380952380952 172.38095238095238 215.2380952380952 172.85714285714283 Q 215.2380952380952 173.33333333333331 214.76190476190476 173.33333333333331 Q 214.28571428571428 173.33333333333331 214.28571428571428 173.8095238095238 Q 214.28571428571428 174.28571428571428 213.8095238095238 174.76190476190476 L 213.3313333333333 175.24009523809525" stroke-linecap="round" class="ZJTvvVdi_11"></path>
</g>
<g transform="matrix(1 0 0 1 325.71 122.38)">
<path style="stroke: rgb(142, 106, 106); stroke-width: 2px; stroke-linecap: round; stroke-linejoin: round; stroke-miterlimit: 10; fill: none; fill-rule: nonzero; opacity: 1;" transform=" translate(-325.71, -122.38)" d="M 374.2877142857143 118.09323809523809 Q 374.2857142857143 118.09523809523809 372.85714285714283 118.09523809523809 Q 371.4285714285714 118.09523809523809 368.57142857142856 119.04761904761904 Q 365.71428571428567 120 361.90476190476187 120.95238095238095 Q 358.0952380952381 121.9047619047619 353.8095238095238 122.85714285714285 Q 349.5238095238095 123.8095238095238 346.19047619047615 124.28571428571428 Q 342.85714285714283 124.76190476190476 340.4761904761905 125.23809523809524 Q 338.0952380952381 125.71428571428571 334.2857142857143 126.19047619047618 Q 330.4761904761905 126.66666666666666 327.6190476190476 126.66666666666666 Q 324.76190476190476 126.66666666666666 321.42857142857144 126.66666666666666 Q 318.0952380952381 126.66666666666666 315.2380952380952 126.66666666666666 Q 312.38095238095235 126.66666666666666 310 126.66666666666666 Q 307.6190476190476 126.66666666666666 305.71428571428567 126.66666666666666 Q 303.8095238095238 126.66666666666666 301.42857142857144 126.19047619047618 Q 299.04761904761904 125.71428571428571 297.1428571428571 125.23809523809524 Q 295.23809523809524 124.76190476190476 293.3333333333333 124.28571428571428 Q 291.4285714285714 123.8095238095238 290 123.33333333333331 Q 288.57142857142856 122.85714285714285 287.1428571428571 122.38095238095238 Q 285.7142857142857 121.9047619047619 284.2857142857143 121.9047619047619 Q 282.85714285714283 121.9047619047619 281.9047619047619 121.9047619047619 Q 280.95238095238096 121.9047619047619 280 121.9047619047619 Q 279.04761904761904 121.9047619047619 278.0952380952381 121.9047619047619 L 277.1408571428571 121.9047619047619" stroke-linecap="round" class="ZJTvvVdi_12"></path>
</g>
<g transform="matrix(1 0 0 1 376.19 209.05)">
<path style="stroke: rgb(142, 106, 106); stroke-width: 2px; stroke-linecap: round; stroke-linejoin: round; stroke-miterlimit: 10; fill: none; fill-rule: nonzero; opacity: 1;" transform=" translate(-376.19, -209.05)" d="M 385.71428571428567 173.3313333333333 Q 385.71428571428567 173.33333333333331 385.71428571428567 173.8095238095238 Q 385.71428571428567 174.28571428571428 385.71428571428567 175.71428571428572 Q 385.71428571428567 177.14285714285714 385.71428571428567 178.09523809523807 Q 385.71428571428567 179.04761904761904 385.71428571428567 180 Q 385.71428571428567 180.95238095238093 385.71428571428567 181.42857142857142 Q 385.71428571428567 181.9047619047619 385.71428571428567 182.85714285714283 Q 385.71428571428567 183.8095238095238 385.71428571428567 185.23809523809524 Q 385.71428571428567 186.66666666666666 385.71428571428567 187.6190476190476 Q 385.71428571428567 188.57142857142856 385.71428571428567 189.52380952380952 Q 385.71428571428567 190.47619047619045 385.71428571428567 191.90476190476187 Q 385.71428571428567 193.33333333333331 385.2380952380952 195.23809523809524 Q 384.76190476190476 197.14285714285714 384.2857142857143 198.57142857142856 Q 383.8095238095238 200 383.3333333333333 201.9047619047619 Q 382.85714285714283 203.8095238095238 382.38095238095235 204.76190476190476 Q 381.90476190476187 205.7142857142857 381.90476190476187 206.66666666666666 Q 381.90476190476187 207.61904761904762 381.90476190476187 208.09523809523807 Q 381.90476190476187 208.57142857142856 381.4285714285714 209.52380952380952 Q 380.9523809523809 210.47619047619045 380.9523809523809 211.42857142857142 Q 380.9523809523809 212.38095238095238 380.4761904761905 213.8095238095238 Q 380 215.2380952380952 380 216.19047619047618 Q 380 217.14285714285714 379.5238095238095 218.09523809523807 Q 379.04761904761904 219.04761904761904 378.57142857142856 220.47619047619048 Q 378.0952380952381 221.9047619047619 377.6190476190476 223.33333333333331 Q 377.1428571428571 224.76190476190476 376.19047619047615 226.66666666666666 Q 375.23809523809524 228.57142857142856 374.2857142857143 230 Q 373.3333333333333 231.42857142857142 372.38095238095235 233.33333333333331 Q 371.4285714285714 235.2380952380952 370 237.6190476190476 Q 368.57142857142856 240 367.6190476190476 242.38095238095238 L 366.6646666666666 244.76390476190477" stroke-linecap="round" class="ZJTvvVdi_13"></path>
</g>
<g transform="matrix(1 0 0 1 501.43 114.76)">
<path style="stroke: rgb(182, 66, 66); stroke-width: 3px; stroke-linecap: round; stroke-linejoin: round; stroke-miterlimit: 10; fill: none; fill-rule: nonzero; opacity: 1;" transform=" translate(-501.43, -114.76)" d="M 544.7619047619047 36.18747619047619 Q 544.7619047619047 36.19047619047619 544.7619047619047 36.666666666666664 Q 544.7619047619047 37.14285714285714 544.7619047619047 37.61904761904762 Q 544.7619047619047 38.095238095238095 544.2857142857142 39.52380952380952 Q 543.8095238095237 40.95238095238095 543.3333333333333 42.38095238095238 Q 542.8571428571428 43.80952380952381 542.3809523809523 44.76190476190476 Q 541.9047619047619 45.71428571428571 541.4285714285714 47.14285714285714 Q 540.952380952381 48.57142857142857 539.5238095238095 50 Q 538.0952380952381 51.42857142857142 536.6666666666666 53.80952380952381 Q 535.2380952380952 56.19047619047619 533.8095238095239 58.095238095238095 Q 532.3809523809524 60 530.952380952381 61.9047619047619 Q 529.5238095238095 63.8095238095238 528.0952380952381 65.71428571428571 Q 526.6666666666666 67.61904761904762 524.7619047619047 69.52380952380952 Q 522.8571428571428 71.42857142857143 521.4285714285713 72.85714285714286 Q 520 74.28571428571428 519.047619047619 75.71428571428571 Q 518.0952380952381 77.14285714285714 516.6666666666666 78.57142857142857 Q 515.2380952380952 80 513.8095238095239 81.42857142857142 Q 512.3809523809524 82.85714285714285 510.95238095238096 83.8095238095238 Q 509.5238095238095 84.76190476190476 508.57142857142856 86.19047619047619 Q 507.6190476190476 87.61904761904762 506.19047619047615 89.04761904761904 Q 504.76190476190476 90.47619047619047 503.8095238095238 91.42857142857142 Q 502.85714285714283 92.38095238095238 501.42857142857144 93.33333333333333 Q 500 94.28571428571428 499.04761904761904 95.23809523809524 Q 498.0952380952381 96.19047619047619 497.1428571428571 97.61904761904762 Q 496.19047619047615 99.04761904761904 494.7619047619047 100 Q 493.3333333333333 100.95238095238095 492.38095238095235 101.9047619047619 Q 491.4285714285714 102.85714285714285 490.4761904761905 103.8095238095238 Q 489.5238095238095 104.76190476190476 488.57142857142856 105.23809523809524 Q 487.6190476190476 105.71428571428571 486.66666666666663 106.66666666666666 Q 485.71428571428567 107.6190476190476 485.2380952380952 108.57142857142856 Q 484.76190476190476 109.52380952380952 483.8095238095238 110 Q 482.85714285714283 110.47619047619047 482.38095238095235 111.42857142857142 Q 481.90476190476187 112.38095238095238 480.95238095238096 113.33333333333333 Q 480 114.28571428571428 479.5238095238095 114.76190476190476 Q 479.04761904761904 115.23809523809523 478.0952380952381 116.19047619047618 Q 477.1428571428571 117.14285714285714 476.19047619047615 118.09523809523809 Q 475.2380952380952 119.04761904761904 474.2857142857142 120 Q 473.3333333333333 120.95238095238095 472.38095238095235 121.9047619047619 Q 471.4285714285714 122.85714285714285 470.9523809523809 123.8095238095238 Q 470.4761904761904 124.76190476190476 469.5238095238095 125.71428571428571 Q 468.57142857142856 126.66666666666666 468.0952380952381 127.6190476190476 Q 467.6190476190476 128.57142857142856 467.1428571428571 129.04761904761904 Q 466.66666666666663 129.52380952380952 466.19047619047615 130.47619047619048 Q 465.71428571428567 131.42857142857142 465.2380952380952 132.38095238095235 Q 464.76190476190476 133.33333333333331 464.76190476190476 134.28571428571428 Q 464.76190476190476 135.23809523809524 464.2857142857143 136.1904761904762 Q 463.8095238095238 137.14285714285714 463.3333333333333 137.6190476190476 Q 462.85714285714283 138.09523809523807 462.38095238095235 139.04761904761904 Q 461.90476190476187 140 461.90476190476187 140.95238095238096 Q 461.90476190476187 141.9047619047619 461.4285714285714 142.85714285714283 Q 460.9523809523809 143.8095238095238 460.4761904761905 144.76190476190476 Q 460 145.7142857142857 460 146.66666666666666 Q 460 147.61904761904762 459.5238095238095 148.09523809523807 Q 459.04761904761904 148.57142857142856 459.04761904761904 149.52380952380952 Q 459.04761904761904 150.47619047619048 459.04761904761904 150.95238095238096 Q 459.04761904761904 151.42857142857142 458.57142857142856 152.38095238095235 Q 458.0952380952381 153.33333333333331 458.0952380952381 153.8095238095238 Q 458.0952380952381 154.28571428571428 458.0952380952381 154.76190476190476 Q 458.0952380952381 155.23809523809524 458.0952380952381 155.71428571428572 Q 458.0952380952381 156.19047619047618 458.0952380952381 156.66666666666666 Q 458.0952380952381 157.14285714285714 458.0952380952381 157.6190476190476 Q 458.0952380952381 158.09523809523807 458.0952380952381 158.57142857142856 Q 458.0952380952381 159.04761904761904 458.0952380952381 159.52380952380952 Q 458.0952380952381 160 458.0952380952381 160.47619047619048 Q 458.0952380952381 160.95238095238093 458.0952380952381 161.9047619047619 Q 458.0952380952381 162.85714285714286 458.0952380952381 163.8095238095238 Q 458.0952380952381 164.76190476190476 458.0952380952381 165.71428571428572 Q 458.0952380952381 166.66666666666666 458.0952380952381 167.6190476190476 Q 458.0952380952381 168.57142857142856 458.0952380952381 169.04761904761904 Q 458.0952380952381 169.52380952380952 458.0952380952381 170.47619047619048 Q 458.0952380952381 171.42857142857142 458.0952380952381 171.9047619047619 Q 458.0952380952381 172.38095238095238 458.0952380952381 172.85714285714283 Q 458.0952380952381 173.33333333333331 458.0952380952381 173.8095238095238 Q 458.0952380952381 174.28571428571428 458.0952380952381 175.23809523809524 Q 458.0952380952381 176.19047619047618 458.0952380952381 176.66666666666666 Q 458.0952380952381 177.14285714285714 458.0952380952381 177.6190476190476 Q 458.0952380952381 178.09523809523807 458.0952380952381 179.04761904761904 Q 458.0952380952381 180 458.0952380952381 180.47619047619048 Q 458.0952380952381 180.95238095238093 458.0952380952381 181.90476190476187 Q 458.0952380952381 182.85714285714283 458.0952380952381 183.33333333333331 Q 458.0952380952381 183.8095238095238 458.0952380952381 184.28571428571428 Q 458.0952380952381 184.76190476190476 458.0952380952381 185.23809523809524 Q 458.0952380952381 185.7142857142857 458.57142857142856 186.19047619047618 Q 459.04761904761904 186.66666666666666 459.04761904761904 187.6190476190476 Q 459.04761904761904 188.57142857142856 459.04761904761904 189.04761904761904 Q 459.04761904761904 189.52380952380952 459.04761904761904 190 Q 459.04761904761904 190.47619047619045 459.5238095238095 190.95238095238093 Q 460 191.42857142857142 460 191.9047619047619 Q 460 192.38095238095238 460 192.85714285714283 L 460 193.3363333333333" stroke-linecap="round" class="ZJTvvVdi_14"></path>
</g>
<g transform="matrix(1 0 0 1 488.57 321.9)">
<path style="stroke: rgb(182, 66, 66); stroke-width: 3px; stroke-linecap: round; stroke-linejoin: round; stroke-miterlimit: 10; fill: none; fill-rule: nonzero; opacity: 1;" transform=" translate(-488.57, -321.9)" d="M 468.56842857142857 219.04461904761905 Q 468.57142857142856 219.04761904761904 469.04761904761904 219.04761904761904 Q 469.5238095238095 219.04761904761904 470 220 Q 470.4761904761904 220.95238095238093 470.9523809523809 221.90476190476187 Q 471.4285714285714 222.85714285714283 471.4285714285714 224.76190476190476 Q 471.4285714285714 226.66666666666666 471.90476190476187 227.6190476190476 Q 472.38095238095235 228.57142857142856 472.38095238095235 230 Q 472.38095238095235 231.42857142857142 472.85714285714283 233.33333333333331 Q 473.3333333333333 235.2380952380952 473.3333333333333 237.6190476190476 Q 473.3333333333333 240 473.3333333333333 242.38095238095238 Q 473.3333333333333 244.76190476190476 473.3333333333333 246.66666666666666 Q 473.3333333333333 248.57142857142856 473.3333333333333 250.95238095238093 Q 473.3333333333333 253.33333333333331 473.3333333333333 255.7142857142857 Q 473.3333333333333 258.0952380952381 473.3333333333333 260.4761904761905 Q 473.3333333333333 262.85714285714283 473.3333333333333 265.2380952380952 Q 473.3333333333333 267.6190476190476 473.3333333333333 270.4761904761905 Q 473.3333333333333 273.3333333333333 473.3333333333333 276.66666666666663 Q 473.3333333333333 280 473.3333333333333 283.3333333333333 Q 473.3333333333333 286.66666666666663 473.3333333333333 290 Q 473.3333333333333 293.3333333333333 473.3333333333333 297.1428571428571 Q 473.3333333333333 300.95238095238096 473.3333333333333 304.76190476190476 Q 473.3333333333333 308.57142857142856 473.3333333333333 312.85714285714283 Q 473.3333333333333 317.1428571428571 473.3333333333333 322.38095238095235 Q 473.3333333333333 327.6190476190476 474.7619047619047 333.8095238095238 Q 476.19047619047615 340 477.6190476190476 345.71428571428567 Q 479.04761904761904 351.4285714285714 480.95238095238096 357.1428571428571 Q 482.85714285714283 362.85714285714283 484.7619047619047 368.0952380952381 Q 486.66666666666663 373.3333333333333 488.0952380952381 378.0952380952381 Q 489.5238095238095 382.85714285714283 490.95238095238096 386.66666666666663 Q 492.38095238095235 390.4761904761905 493.80952380952374 393.8095238095238 Q 495.2380952380952 397.1428571428571 496.66666666666663 400.4761904761905 Q 498.0952380952381 403.8095238095238 499.5238095238095 406.66666666666663 Q 500.9523809523809 409.5238095238095 501.90476190476187 411.9047619047619 Q 502.85714285714283 414.2857142857143 503.8095238095238 416.66666666666663 Q 504.76190476190476 419.04761904761904 505.71428571428567 420.4761904761905 Q 506.66666666666663 421.90476190476187 507.1428571428571 423.3333333333333 Q 507.6190476190476 424.76190476190476 508.0952380952381 424.76190476190476 L 508.57442857142854 424.76190476190476" stroke-linecap="round" class="ZJTvvVdi_15"></path>
</g>
<g transform="matrix(1 0 0 1 376.67 72.86)">
<path style="stroke: rgb(182, 66, 66); stroke-width: 3px; stroke-linecap: round; stroke-linejoin: round; stroke-miterlimit: 10; fill: none; fill-rule: nonzero; opacity: 1;" transform=" translate(-376.67, -72.86)" d="M 542.8601428571428 30.476190476190474 Q 542.8571428571428 30.476190476190474 542.3809523809523 30.476190476190474 Q 541.9047619047619 30.476190476190474 540.952380952381 30.476190476190474 Q 540 30.476190476190474 538.0952380952381 30.476190476190474 Q 536.1904761904761 30.476190476190474 533.3333333333333 30.476190476190474 Q 530.4761904761905 30.476190476190474 530 30.476190476190474 Q 529.5238095238095 30.476190476190474 527.6190476190476 30.476190476190474 Q 525.7142857142857 30.476190476190474 523.8095238095239 30.476190476190474 Q 521.9047619047619 30.476190476190474 519.5238095238095 30.476190476190474 Q 517.1428571428571 30.476190476190474 514.7619047619048 30.476190476190474 Q 512.3809523809524 30.476190476190474 509.5238095238095 30.476190476190474 Q 506.66666666666663 30.476190476190474 503.3333333333333 30.476190476190474 Q 500 30.476190476190474 496.66666666666663 30.476190476190474 Q 493.3333333333333 30.476190476190474 490.95238095238096 30.476190476190474 Q 488.57142857142856 30.476190476190474 485.71428571428567 30.476190476190474 Q 482.85714285714283 30.476190476190474 480 30.476190476190474 Q 477.1428571428571 30.476190476190474 474.7619047619047 31.428571428571427 Q 472.38095238095235 32.38095238095238 470 32.857142857142854 Q 467.6190476190476 33.33333333333333 465.71428571428567 34.28571428571428 Q 463.8095238095238 35.238095238095234 461.42857142857144 35.71428571428571 Q 459.04761904761904 36.19047619047619 456.66666666666663 37.61904761904762 Q 454.2857142857143 39.047619047619044 451.9047619047619 40 Q 449.5238095238095 40.95238095238095 446.66666666666663 42.38095238095238 Q 443.8095238095238 43.80952380952381 440.4761904761905 45.23809523809524 Q 437.1428571428571 46.666666666666664 433.80952380952374 48.09523809523809 Q 430.4761904761904 49.52380952380952 427.6190476190476 50.47619047619047 Q 424.76190476190476 51.42857142857142 421.9047619047619 52.857142857142854 Q 419.04761904761904 54.285714285714285 415.71428571428567 54.76190476190476 Q 412.38095238095235 55.238095238095234 409.5238095238095 56.19047619047619 Q 406.66666666666663 57.14285714285714 403.3333333333333 57.61904761904762 Q 400 58.095238095238095 397.1428571428571 59.04761904761905 Q 394.2857142857143 60 390.95238095238096 60.476190476190474 Q 387.6190476190476 60.95238095238095 384.2857142857142 61.42857142857142 Q 380.9523809523809 61.9047619047619 377.6190476190476 61.9047619047619 Q 374.2857142857143 61.9047619047619 370.95238095238096 62.38095238095238 Q 367.6190476190476 62.857142857142854 364.2857142857142 63.33333333333333 Q 360.9523809523809 63.8095238095238 358.0952380952381 63.8095238095238 Q 355.23809523809524 63.8095238095238 351.42857142857144 63.8095238095238 Q 347.6190476190476 63.8095238095238 344.2857142857142 63.8095238095238 Q 340.9523809523809 63.8095238095238 337.6190476190476 63.8095238095238 Q 334.2857142857143 63.8095238095238 331.42857142857144 63.33333333333333 Q 328.57142857142856 62.857142857142854 325.71428571428567 62.857142857142854 Q 322.85714285714283 62.857142857142854 320 62.38095238095238 Q 317.1428571428571 61.9047619047619 314.2857142857142 61.42857142857142 Q 311.4285714285714 60.95238095238095 308.57142857142856 60.476190476190474 Q 305.7142857142857 60 303.33333333333337 60 Q 300.95238095238096 60 299.04761904761904 60 Q 297.1428571428571 60 294.2857142857142 60 Q 291.4285714285714 60 289.04761904761904 60.476190476190474 Q 286.66666666666663 60.95238095238095 284.7619047619047 61.42857142857142 Q 282.85714285714283 61.9047619047619 280.4761904761905 62.38095238095238 Q 278.0952380952381 62.857142857142854 276.19047619047615 63.80952380952381 Q 274.2857142857143 64.76190476190476 271.9047619047619 65.71428571428571 Q 269.5238095238095 66.66666666666666 267.6190476190476 67.61904761904762 Q 265.7142857142857 68.57142857142857 263.8095238095238 69.04761904761904 Q 261.90476190476187 69.52380952380952 260.4761904761905 70.47619047619048 Q 259.04761904761904 71.42857142857143 257.6190476190476 72.38095238095238 Q 256.1904761904762 73.33333333333333 254.76190476190476 74.28571428571428 Q 253.33333333333331 75.23809523809524 251.42857142857142 76.19047619047619 Q 249.52380952380952 77.14285714285714 247.6190476190476 78.57142857142857 Q 245.7142857142857 80 243.8095238095238 81.9047619047619 Q 241.9047619047619 83.80952380952381 240 85.23809523809524 Q 238.09523809523807 86.66666666666666 236.19047619047618 88.57142857142856 Q 234.28571428571428 90.47619047619047 232.38095238095235 92.38095238095238 Q 230.47619047619045 94.28571428571428 228.57142857142856 96.19047619047618 Q 226.66666666666666 98.09523809523809 225.23809523809524 100 Q 223.8095238095238 101.9047619047619 222.38095238095235 103.8095238095238 Q 220.95238095238093 105.71428571428571 219.52380952380952 106.66666666666666 Q 218.09523809523807 107.6190476190476 217.1428571428571 108.57142857142856 Q 216.19047619047618 109.52380952380952 215.23809523809524 110.47619047619047 Q 214.28571428571428 111.42857142857142 213.8095238095238 111.9047619047619 Q 213.33333333333331 112.38095238095238 212.85714285714283 112.85714285714286 Q 212.38095238095238 113.33333333333333 211.9047619047619 113.8095238095238 Q 211.42857142857142 114.28571428571428 210.95238095238093 114.76190476190476 L 210.47319047619047 115.24109523809523" stroke-linecap="round" class="ZJTvvVdi_16"></path>
</g>
<g transform="matrix(1 0 0 1 169.05 179.05)">
<path style="stroke: rgb(182, 66, 66); stroke-width: 3px; stroke-linecap: round; stroke-linejoin: round; stroke-miterlimit: 10; fill: none; fill-rule: nonzero; opacity: 1;" transform=" translate(-169.05, -179.05)" d="M 284.76490476190475 156.19047619047618 Q 284.76190476190476 156.19047619047618 284.2857142857143 156.19047619047618 Q 283.8095238095238 156.19047619047618 282.3809523809524 156.19047619047618 Q 280.95238095238096 156.19047619047618 279.04761904761904 156.19047619047618 Q 277.1428571428571 156.19047619047618 275.2380952380952 155.71428571428572 Q 273.3333333333333 155.23809523809524 271.9047619047619 154.76190476190476 Q 270.4761904761905 154.28571428571428 269.04761904761904 154.28571428571428 Q 267.6190476190476 154.28571428571428 265.71428571428567 153.8095238095238 Q 263.8095238095238 153.33333333333331 261.42857142857144 152.85714285714283 Q 259.04761904761904 152.38095238095238 257.1428571428571 152.38095238095238 Q 255.2380952380952 152.38095238095238 253.33333333333331 151.9047619047619 Q 251.42857142857142 151.42857142857142 248.57142857142856 150.95238095238096 Q 245.7142857142857 150.47619047619048 243.33333333333331 150 Q 240.95238095238093 149.52380952380952 238.09523809523807 149.04761904761904 Q 235.2380952380952 148.57142857142856 232.38095238095235 148.57142857142856 Q 229.52380952380952 148.57142857142856 226.66666666666666 148.09523809523807 Q 223.8095238095238 147.61904761904762 221.42857142857142 147.61904761904762 Q 219.04761904761904 147.61904761904762 216.66666666666666 147.61904761904762 Q 214.28571428571428 147.61904761904762 211.42857142857142 147.61904761904762 Q 208.57142857142856 147.61904761904762 206.66666666666666 147.61904761904762 Q 204.76190476190476 147.61904761904762 202.38095238095238 147.61904761904762 Q 200 147.61904761904762 197.14285714285714 148.57142857142856 Q 194.28571428571428 149.52380952380952 191.9047619047619 150.95238095238096 Q 189.52380952380952 152.38095238095238 187.6190476190476 153.33333333333331 Q 185.7142857142857 154.28571428571428 183.8095238095238 155.23809523809524 Q 181.9047619047619 156.19047619047618 180 157.1428571428571 Q 178.09523809523807 158.09523809523807 176.66666666666666 159.52380952380952 Q 175.23809523809524 160.95238095238093 173.33333333333331 161.9047619047619 Q 171.42857142857142 162.85714285714286 169.52380952380952 163.8095238095238 Q 167.61904761904762 164.76190476190476 165.71428571428572 166.1904761904762 Q 163.8095238095238 167.61904761904762 161.9047619047619 168.57142857142856 Q 160 169.52380952380952 158.09523809523807 170.95238095238096 Q 156.19047619047618 172.38095238095238 153.8095238095238 173.33333333333331 Q 151.42857142857142 174.28571428571428 149.04761904761904 175.71428571428572 Q 146.66666666666666 177.14285714285714 144.76190476190476 178.57142857142856 Q 142.85714285714286 180 140 181.42857142857142 Q 137.14285714285714 182.85714285714283 134.28571428571428 184.76190476190476 Q 131.42857142857142 186.66666666666666 129.04761904761904 188.09523809523807 Q 126.66666666666666 189.52380952380952 123.8095238095238 190.95238095238096 Q 120.95238095238095 192.38095238095238 118.57142857142857 193.8095238095238 Q 116.19047619047619 195.23809523809524 113.33333333333333 196.66666666666666 Q 110.47619047619047 198.09523809523807 108.09523809523809 199.04761904761904 Q 105.71428571428571 200 102.85714285714286 201.42857142857142 Q 100 202.85714285714283 97.61904761904762 203.8095238095238 Q 95.23809523809523 204.76190476190476 92.85714285714285 205.23809523809524 Q 90.47619047619047 205.7142857142857 88.09523809523809 206.66666666666666 Q 85.71428571428571 207.61904761904762 83.33333333333333 208.09523809523807 Q 80.95238095238095 208.57142857142856 79.04761904761904 209.04761904761904 Q 77.14285714285714 209.52380952380952 75.71428571428571 209.52380952380952 Q 74.28571428571428 209.52380952380952 72.38095238095238 210 Q 70.47619047619047 210.47619047619045 69.04761904761904 210.47619047619045 Q 67.61904761904762 210.47619047619045 66.19047619047619 210.47619047619045 Q 64.76190476190476 210.47619047619045 63.80952380952381 210.47619047619045 Q 62.857142857142854 210.47619047619045 61.42857142857143 210.47619047619045 Q 60 210.47619047619045 59.04761904761905 210.47619047619045 Q 58.095238095238095 210.47619047619045 57.14285714285714 210.47619047619045 Q 56.19047619047619 210.47619047619045 55.23809523809524 210.47619047619045 Q 54.285714285714285 210.47619047619045 53.80952380952381 210.47619047619045 L 53.33033333333333 210.47619047619045" stroke-linecap="round" class="ZJTvvVdi_17"></path>
</g>
<g transform="matrix(1 0 0 1 199.05 356.67)">
<path style="stroke: rgb(182, 66, 66); stroke-width: 3px; stroke-linecap: round; stroke-linejoin: round; stroke-miterlimit: 10; fill: none; fill-rule: nonzero; opacity: 1;" transform=" translate(-199.05, -356.67)" d="M 227.6220476190476 296.19047619047615 Q 227.61904761904762 296.19047619047615 227.14285714285714 296.19047619047615 Q 226.66666666666666 296.19047619047615 225.71428571428572 296.19047619047615 Q 224.76190476190476 296.19047619047615 223.8095238095238 297.1428571428571 Q 222.85714285714283 298.0952380952381 220.47619047619045 300 Q 218.09523809523807 301.90476190476187 217.6190476190476 302.38095238095235 Q 217.14285714285714 302.85714285714283 215.71428571428572 304.2857142857143 Q 214.28571428571428 305.7142857142857 213.33333333333331 307.1428571428571 Q 212.38095238095238 308.57142857142856 211.42857142857142 310 Q 210.47619047619045 311.4285714285714 209.52380952380952 313.3333333333333 Q 208.57142857142856 315.23809523809524 207.6190476190476 317.6190476190476 Q 206.66666666666666 320 206.19047619047618 322.3809523809524 Q 205.7142857142857 324.76190476190476 204.76190476190476 326.66666666666663 Q 203.8095238095238 328.57142857142856 203.33333333333331 330.95238095238096 Q 202.85714285714283 333.3333333333333 202.38095238095235 335.71428571428567 Q 201.9047619047619 338.0952380952381 201.42857142857142 340.4761904761905 Q 200.95238095238093 342.85714285714283 200.47619047619048 345.2380952380952 Q 200 347.6190476190476 199.52380952380952 349.5238095238095 Q 199.04761904761904 351.4285714285714 198.57142857142856 353.3333333333333 Q 198.09523809523807 355.23809523809524 197.6190476190476 357.1428571428571 Q 197.14285714285714 359.04761904761904 196.66666666666666 361.42857142857144 Q 196.19047619047618 363.8095238095238 195.71428571428572 365.71428571428567 Q 195.23809523809524 367.6190476190476 194.76190476190476 370 Q 194.28571428571428 372.38095238095235 193.8095238095238 374.2857142857142 Q 193.33333333333331 376.19047619047615 192.85714285714283 377.6190476190476 Q 192.38095238095238 379.04761904761904 191.9047619047619 380.4761904761905 Q 191.42857142857142 381.90476190476187 190.47619047619048 383.3333333333333 Q 189.52380952380952 384.76190476190476 189.04761904761904 386.19047619047615 Q 188.57142857142856 387.6190476190476 187.6190476190476 389.04761904761904 Q 186.66666666666666 390.4761904761905 185.71428571428572 392.3809523809524 Q 184.76190476190476 394.2857142857143 183.8095238095238 395.2380952380952 Q 182.85714285714283 396.19047619047615 181.90476190476187 397.1428571428571 Q 180.95238095238093 398.0952380952381 180.47619047619048 399.04761904761904 Q 180 400 180 400.4761904761905 Q 180 400.9523809523809 179.52380952380952 401.4285714285714 Q 179.04761904761904 401.90476190476187 178.57142857142856 402.38095238095235 Q 178.09523809523807 402.85714285714283 177.6190476190476 403.3333333333333 Q 177.14285714285714 403.8095238095238 177.14285714285714 404.2857142857143 Q 177.14285714285714 404.76190476190476 176.66666666666666 405.2380952380952 Q 176.19047619047618 405.71428571428567 175.71428571428572 406.19047619047615 Q 175.23809523809524 406.66666666666663 175.23809523809524 407.1428571428571 Q 175.23809523809524 407.6190476190476 174.76190476190476 408.0952380952381 Q 174.28571428571428 408.57142857142856 174.28571428571428 409.04761904761904 Q 174.28571428571428 409.5238095238095 174.28571428571428 410 Q 174.28571428571428 410.4761904761905 174.28571428571428 410.95238095238096 Q 174.28571428571428 411.4285714285714 173.8095238095238 411.90476190476187 Q 173.33333333333331 412.38095238095235 172.85714285714283 412.85714285714283 Q 172.38095238095238 413.3333333333333 172.38095238095238 414.2857142857143 Q 172.38095238095238 415.23809523809524 171.42857142857142 415.71428571428567 Q 170.47619047619045 416.19047619047615 170.47619047619045 416.66666666666663 L 170.47619047619045 417.1458571428571" stroke-linecap="round" class="ZJTvvVdi_18"></path>
</g>
<g transform="matrix(1 0 0 1 222.38 378.57)">
<path style="stroke: rgb(60, 27, 27); stroke-width: 4px; stroke-linecap: round; stroke-linejoin: round; stroke-miterlimit: 10; fill: none; fill-rule: nonzero; opacity: 1;" transform=" translate(-222.38, -378.57)" d="M 206.66666666666666 319.996 Q 206.66666666666666 320 206.66666666666666 320.4761904761905 Q 206.66666666666666 320.9523809523809 206.66666666666666 321.4285714285714 Q 206.66666666666666 321.90476190476187 206.66666666666666 322.85714285714283 Q 206.66666666666666 323.8095238095238 206.66666666666666 324.2857142857143 Q 206.66666666666666 324.76190476190476 206.66666666666666 325.71428571428567 Q 206.66666666666666 326.66666666666663 206.66666666666666 327.6190476190476 Q 206.66666666666666 328.57142857142856 206.66666666666666 329.5238095238095 Q 206.66666666666666 330.4761904761905 206.66666666666666 331.9047619047619 Q 206.66666666666666 333.3333333333333 206.66666666666666 335.2380952380952 Q 206.66666666666666 337.1428571428571 206.66666666666666 339.04761904761904 Q 206.66666666666666 340.9523809523809 206.66666666666666 342.85714285714283 Q 206.66666666666666 344.76190476190476 207.14285714285714 346.19047619047615 Q 207.61904761904762 347.6190476190476 207.61904761904762 349.5238095238095 Q 207.61904761904762 351.4285714285714 208.09523809523807 353.3333333333333 Q 208.57142857142856 355.23809523809524 209.04761904761904 357.1428571428571 Q 209.52380952380952 359.04761904761904 210 360.95238095238096 Q 210.47619047619045 362.85714285714283 210.95238095238093 364.7619047619047 Q 211.42857142857142 366.66666666666663 212.38095238095235 368.57142857142856 Q 213.33333333333331 370.4761904761905 214.28571428571428 372.8571428571429 Q 215.2380952380952 375.23809523809524 216.19047619047618 377.1428571428571 Q 217.14285714285714 379.04761904761904 217.6190476190476 380.95238095238096 Q 218.09523809523807 382.85714285714283 219.52380952380952 384.2857142857142 Q 220.95238095238093 385.71428571428567 221.90476190476187 387.1428571428571 Q 222.85714285714283 388.57142857142856 223.33333333333331 390 Q 223.8095238095238 391.4285714285714 224.76190476190476 392.38095238095235 Q 225.7142857142857 393.3333333333333 226.66666666666666 394.7619047619047 Q 227.61904761904762 396.19047619047615 228.57142857142856 397.6190476190476 Q 229.52380952380952 399.04761904761904 230.47619047619048 400.4761904761905 Q 231.42857142857142 401.90476190476187 231.9047619047619 402.85714285714283 Q 232.38095238095238 403.8095238095238 232.85714285714283 404.7619047619047 Q 233.33333333333331 405.71428571428567 233.8095238095238 407.1428571428571 Q 234.28571428571428 408.57142857142856 234.76190476190476 410 Q 235.2380952380952 411.4285714285714 235.7142857142857 412.85714285714283 Q 236.19047619047618 414.2857142857143 236.19047619047618 415.71428571428567 Q 236.19047619047618 417.1428571428571 236.66666666666666 418.57142857142856 Q 237.14285714285714 420 237.6190476190476 421.42857142857144 Q 238.09523809523807 422.85714285714283 238.09523809523807 424.7619047619047 Q 238.09523809523807 426.66666666666663 238.09523809523807 428.0952380952381 Q 238.09523809523807 429.5238095238095 238.09523809523807 430.4761904761905 Q 238.09523809523807 431.4285714285714 238.09523809523807 432.38095238095235 Q 238.09523809523807 433.3333333333333 238.09523809523807 434.2857142857143 Q 238.09523809523807 435.23809523809524 238.09523809523807 436.19047619047615 L 238.09523809523807 437.14685714285713" stroke-linecap="round" class="ZJTvvVdi_19"></path>
</g>
<g transform="matrix(1 0 0 1 315.72 283.33)">
<path style="stroke: rgb(60, 27, 27); stroke-width: 4px; stroke-linecap: round; stroke-linejoin: round; stroke-miterlimit: 10; fill: none; fill-rule: nonzero; opacity: 1;" transform=" translate(-315.72, -283.33)" d="M 357.14685714285713 207.61504761904763 Q 357.1428571428571 207.61904761904762 357.1428571428571 208.09523809523807 Q 357.1428571428571 208.57142857142856 356.66666666666663 209.52380952380952 Q 356.19047619047615 210.47619047619045 355.2380952380952 212.38095238095235 Q 354.2857142857143 214.28571428571428 353.3333333333333 215.71428571428572 Q 352.38095238095235 217.14285714285714 351.90476190476187 218.09523809523807 Q 351.4285714285714 219.04761904761904 350.95238095238096 220 Q 350.4761904761905 220.95238095238093 349.5238095238095 222.38095238095235 Q 348.57142857142856 223.8095238095238 347.1428571428571 225.23809523809524 Q 345.7142857142857 226.66666666666666 344.76190476190476 228.09523809523807 Q 343.8095238095238 229.52380952380952 342.38095238095235 230.95238095238096 Q 340.9523809523809 232.38095238095238 340 233.8095238095238 Q 339.04761904761904 235.2380952380952 337.6190476190476 237.1428571428571 Q 336.19047619047615 239.04761904761904 334.7619047619047 240.47619047619048 Q 333.3333333333333 241.9047619047619 332.38095238095235 243.8095238095238 Q 331.4285714285714 245.7142857142857 330 247.6190476190476 Q 328.57142857142856 249.52380952380952 327.6190476190476 250.95238095238096 Q 326.66666666666663 252.38095238095238 325.71428571428567 253.8095238095238 Q 324.76190476190476 255.2380952380952 323.8095238095238 256.66666666666663 Q 322.85714285714283 258.0952380952381 322.38095238095235 259.04761904761904 Q 321.90476190476187 260 320.95238095238096 261.42857142857144 Q 320 262.85714285714283 319.04761904761904 264.2857142857143 Q 318.0952380952381 265.7142857142857 317.6190476190476 267.1428571428571 Q 317.1428571428571 268.57142857142856 316.19047619047615 270 Q 315.23809523809524 271.4285714285714 314.76190476190476 272.85714285714283 Q 314.2857142857143 274.2857142857143 313.3333333333333 275.71428571428567 Q 312.38095238095235 277.1428571428571 311.90476190476187 279.04761904761904 Q 311.4285714285714 280.95238095238096 310.4761904761905 282.3809523809524 Q 309.5238095238095 283.8095238095238 309.04761904761904 285.71428571428567 Q 308.57142857142856 287.6190476190476 308.0952380952381 289.04761904761904 Q 307.6190476190476 290.4761904761905 307.1428571428571 292.3809523809524 Q 306.66666666666663 294.2857142857143 306.19047619047615 296.19047619047615 Q 305.7142857142857 298.0952380952381 305.23809523809524 299.04761904761904 Q 304.76190476190476 300 304.76190476190476 301.42857142857144 Q 304.76190476190476 302.85714285714283 304.2857142857143 304.2857142857143 Q 303.8095238095238 305.7142857142857 303.8095238095238 307.1428571428571 Q 303.8095238095238 308.57142857142856 303.3333333333333 310 Q 302.85714285714283 311.4285714285714 302.38095238095235 313.3333333333333 Q 301.90476190476187 315.23809523809524 301.42857142857144 317.1428571428571 Q 300.95238095238096 319.04761904761904 300.4761904761905 320.95238095238096 Q 300 322.85714285714283 299.5238095238095 324.2857142857143 Q 299.04761904761904 325.7142857142857 298.0952380952381 327.6190476190476 Q 297.1428571428571 329.5238095238095 296.19047619047615 330.95238095238096 Q 295.23809523809524 332.38095238095235 294.2857142857143 333.8095238095238 Q 293.3333333333333 335.23809523809524 292.85714285714283 336.66666666666663 Q 292.38095238095235 338.0952380952381 291.42857142857144 339.04761904761904 Q 290.4761904761905 340 289.5238095238095 340.95238095238096 Q 288.57142857142856 341.90476190476187 287.6190476190476 343.3333333333333 Q 286.66666666666663 344.76190476190476 285.71428571428567 345.71428571428567 Q 284.76190476190476 346.66666666666663 283.3333333333333 348.0952380952381 Q 281.90476190476187 349.5238095238095 280.95238095238096 350.95238095238096 Q 280 352.38095238095235 279.04761904761904 353.3333333333333 Q 278.0952380952381 354.2857142857143 277.6190476190476 354.76190476190476 Q 277.1428571428571 355.23809523809524 276.66666666666663 355.71428571428567 Q 276.19047619047615 356.19047619047615 275.71428571428567 356.66666666666663 Q 275.23809523809524 357.1428571428571 274.76190476190476 357.6190476190476 Q 274.2857142857143 358.0952380952381 274.2857142857143 358.57142857142856 L 274.2857142857143 359.05161904761906" stroke-linecap="round" class="ZJTvvVdi_20"></path>
</g>
<g transform="matrix(1 0 0 1 122.86 423.34)">
<path style="stroke: rgb(60, 27, 27); stroke-width: 4px; stroke-linecap: round; stroke-linejoin: round; stroke-miterlimit: 10; fill: none; fill-rule: nonzero; opacity: 1;" transform=" translate(-122.86, -423.34)" d="M 157.14685714285713 325.7142857142857 Q 157.14285714285714 325.7142857142857 157.14285714285714 326.19047619047615 Q 157.14285714285714 326.66666666666663 156.66666666666666 326.66666666666663 Q 156.19047619047618 326.66666666666663 155.71428571428572 327.6190476190476 Q 155.23809523809524 328.57142857142856 154.28571428571428 330 Q 153.33333333333331 331.4285714285714 152.85714285714283 331.90476190476187 Q 152.38095238095238 332.38095238095235 151.42857142857144 333.8095238095238 Q 150.47619047619048 335.23809523809524 149.52380952380952 337.1428571428571 Q 148.57142857142856 339.04761904761904 147.6190476190476 340.4761904761905 Q 146.66666666666666 341.90476190476187 146.19047619047618 343.3333333333333 Q 145.7142857142857 344.76190476190476 144.76190476190476 346.19047619047615 Q 143.8095238095238 347.6190476190476 143.8095238095238 349.04761904761904 Q 143.8095238095238 350.4761904761905 143.33333333333331 351.9047619047619 Q 142.85714285714286 353.3333333333333 142.38095238095238 355.2380952380952 Q 141.9047619047619 357.1428571428571 141.42857142857142 359.04761904761904 Q 140.95238095238093 360.9523809523809 140.47619047619048 362.85714285714283 Q 140 364.76190476190476 139.52380952380952 366.66666666666663 Q 139.04761904761904 368.57142857142856 138.57142857142856 370 Q 138.09523809523807 371.4285714285714 138.09523809523807 373.80952380952374 Q 138.09523809523807 376.19047619047615 137.6190476190476 378.0952380952381 Q 137.14285714285714 380 137.14285714285714 381.9047619047619 Q 137.14285714285714 383.8095238095238 136.66666666666666 385.71428571428567 Q 136.19047619047618 387.6190476190476 136.19047619047618 389.04761904761904 Q 136.19047619047618 390.4761904761905 136.19047619047618 392.3809523809524 Q 136.19047619047618 394.2857142857143 135.71428571428572 395.71428571428567 Q 135.23809523809524 397.1428571428571 135.23809523809524 398.57142857142856 Q 135.23809523809524 400 135.23809523809524 401.42857142857144 Q 135.23809523809524 402.85714285714283 135.23809523809524 404.7619047619047 Q 135.23809523809524 406.66666666666663 135.23809523809524 408.57142857142856 Q 135.23809523809524 410.4761904761905 134.76190476190476 412.3809523809524 Q 134.28571428571428 414.2857142857143 134.28571428571428 416.19047619047615 Q 134.28571428571428 418.0952380952381 134.28571428571428 420 Q 134.28571428571428 421.90476190476187 133.8095238095238 424.2857142857142 Q 133.33333333333331 426.66666666666663 132.85714285714283 428.57142857142856 Q 132.38095238095238 430.4761904761904 131.9047619047619 432.85714285714283 Q 131.42857142857142 435.23809523809524 130.95238095238096 437.1428571428571 Q 130.47619047619048 439.04761904761904 130 441.42857142857144 Q 129.52380952380952 443.8095238095238 128.57142857142856 446.66666666666663 Q 127.6190476190476 449.5238095238095 126.66666666666666 451.9047619047619 Q 125.71428571428571 454.2857142857143 124.76190476190476 456.66666666666663 Q 123.8095238095238 459.04761904761904 122.38095238095238 461.42857142857144 Q 120.95238095238095 463.8095238095238 120 466.19047619047615 Q 119.04761904761904 468.57142857142856 117.61904761904762 470.4761904761905 Q 116.19047619047619 472.38095238095235 115.23809523809524 474.2857142857142 Q 114.28571428571428 476.19047619047615 113.33333333333333 478.0952380952381 Q 112.38095238095238 480 111.42857142857142 481.42857142857144 Q 110.47619047619047 482.85714285714283 109.52380952380952 484.7619047619047 Q 108.57142857142857 486.66666666666663 107.61904761904762 488.0952380952381 Q 106.66666666666666 489.5238095238095 105.71428571428571 491.42857142857144 Q 104.76190476190476 493.3333333333333 103.8095238095238 494.7619047619047 Q 102.85714285714285 496.19047619047615 101.9047619047619 497.6190476190476 Q 100.95238095238095 499.04761904761904 100.47619047619048 500 Q 100 500.9523809523809 99.52380952380952 501.90476190476187 Q 99.04761904761904 502.85714285714283 98.09523809523809 503.8095238095238 Q 97.14285714285714 504.76190476190476 96.66666666666666 505.71428571428567 Q 96.19047619047619 506.66666666666663 95.71428571428571 507.6190476190476 Q 95.23809523809523 508.57142857142856 94.76190476190476 510 Q 94.28571428571428 511.4285714285714 93.8095238095238 512.3809523809523 Q 93.33333333333333 513.3333333333333 92.38095238095238 514.2857142857142 Q 91.42857142857142 515.2380952380952 90.95238095238093 516.1904761904761 Q 90.47619047619047 517.1428571428571 90 517.6190476190476 Q 89.52380952380952 518.0952380952381 89.52380952380952 519.047619047619 Q 89.52380952380952 520 89.04761904761904 520 Q 88.57142857142857 520 88.57142857142857 520.4761904761905 L 88.57142857142857 520.956380952381" stroke-linecap="round" class="ZJTvvVdi_21"></path>
</g>
<style data-made-with="vivus-instant">.ZJTvvVdi_0{stroke-dasharray:699 701;stroke-dashoffset:700;animation:ZJTvvVdi_draw 3000ms ease-in-out 0ms forwards;}.ZJTvvVdi_1{stroke-dasharray:580 582;stroke-dashoffset:581;animation:ZJTvvVdi_draw 3000ms ease-in-out 190ms forwards;}.ZJTvvVdi_2{stroke-dasharray:342 344;stroke-dashoffset:343;animation:ZJTvvVdi_draw 3000ms ease-in-out 380ms forwards;}.ZJTvvVdi_3{stroke-dasharray:204 206;stroke-dashoffset:205;animation:ZJTvvVdi_draw 3000ms ease-in-out 571ms forwards;}.ZJTvvVdi_4{stroke-dasharray:322 324;stroke-dashoffset:323;animation:ZJTvvVdi_draw 3000ms ease-in-out 761ms forwards;}.ZJTvvVdi_5{stroke-dasharray:123 125;stroke-dashoffset:124;animation:ZJTvvVdi_draw 3000ms ease-in-out 952ms forwards;}.ZJTvvVdi_6{stroke-dasharray:47 49;stroke-dashoffset:48;animation:ZJTvvVdi_draw 3000ms ease-in-out 1142ms forwards;}.ZJTvvVdi_7{stroke-dasharray:48 50;stroke-dashoffset:49;animation:ZJTvvVdi_draw 3000ms ease-in-out 1333ms forwards;}.ZJTvvVdi_8{stroke-dasharray:99 101;stroke-dashoffset:100;animation:ZJTvvVdi_draw 3000ms ease-in-out 1523ms forwards;}.ZJTvvVdi_9{stroke-dasharray:62 64;stroke-dashoffset:63;animation:ZJTvvVdi_draw 3000ms ease-in-out 1714ms forwards;}.ZJTvvVdi_10{stroke-dasharray:129 131;stroke-dashoffset:130;animation:ZJTvvVdi_draw 3000ms ease-in-out 1904ms forwards;}.ZJTvvVdi_11{stroke-dasharray:25 27;stroke-dashoffset:26;animation:ZJTvvVdi_draw 3000ms ease-in-out 2095ms forwards;}.ZJTvvVdi_12{stroke-dasharray:99 101;stroke-dashoffset:100;animation:ZJTvvVdi_draw 3000ms ease-in-out 2285ms forwards;}.ZJTvvVdi_13{stroke-dasharray:76 78;stroke-dashoffset:77;animation:ZJTvvVdi_draw 3000ms ease-in-out 2476ms forwards;}.ZJTvvVdi_14{stroke-dasharray:190 192;stroke-dashoffset:191;animation:ZJTvvVdi_draw 3000ms ease-in-out 2666ms forwards;}.ZJTvvVdi_15{stroke-dasharray:215 217;stroke-dashoffset:216;animation:ZJTvvVdi_draw 3000ms ease-in-out 2857ms forwards;}.ZJTvvVdi_16{stroke-dasharray:358 360;stroke-dashoffset:359;animation:ZJTvvVdi_draw 3000ms ease-in-out 3047ms forwards;}.ZJTvvVdi_17{stroke-dasharray:248 250;stroke-dashoffset:249;animation:ZJTvvVdi_draw 3000ms ease-in-out 3238ms forwards;}.ZJTvvVdi_18{stroke-dasharray:140 142;stroke-dashoffset:141;animation:ZJTvvVdi_draw 3000ms ease-in-out 3428ms forwards;}.ZJTvvVdi_19{stroke-dasharray:125 127;stroke-dashoffset:126;animation:ZJTvvVdi_draw 3000ms ease-in-out 3619ms forwards;}.ZJTvvVdi_20{stroke-dasharray:176 178;stroke-dashoffset:177;animation:ZJTvvVdi_draw 3000ms ease-in-out 3809ms forwards;}.ZJTvvVdi_21{stroke-dasharray:212 214;stroke-dashoffset:213;animation:ZJTvvVdi_draw 3000ms ease-in-out 4000ms forwards;}@keyframes ZJTvvVdi_draw{100%{stroke-dashoffset:0;}}@keyframes ZJTvvVdi_fade{0%{stroke-opacity:1;}96.42857142857143%{stroke-opacity:1;}100%{stroke-opacity:0;}}</style></svg>